<svg width="24" height="21" viewBox="0 0 24 21" fill="none" xmlns="http://www.w3.org/2000/svg">
<path d="M12.7199 0.141322C12.7666 0.156645 12.8132 0.171969 12.8612 0.187757C13.0165 0.238963 13.1713 0.291161 13.3263 0.343367C13.4379 0.380414 13.5495 0.417401 13.6611 0.454333C13.9322 0.544201 14.2031 0.634722 14.4739 0.725566C14.694 0.799397 14.9142 0.872947 15.1345 0.946298C15.1659 0.956757 15.1973 0.967216 15.2297 0.977992C15.2935 0.999242 15.3573 1.02049 15.4211 1.04174C16.0187 1.24074 16.616 1.4406 17.2133 1.64075C17.7254 1.81236 18.2377 1.98327 18.7502 2.15366C19.346 2.35175 19.9416 2.55023 20.5371 2.74939C20.6006 2.77063 20.6641 2.79188 20.7276 2.81312C20.7589 2.82357 20.7901 2.83402 20.8223 2.84479C21.0422 2.91831 21.2622 2.99153 21.4822 3.06465C21.7784 3.1631 22.0744 3.26222 22.3703 3.36179C22.4789 3.39823 22.5875 3.43446 22.6963 3.47046C22.8447 3.51962 22.9928 3.56956 23.1409 3.6197C23.184 3.63377 23.2271 3.64785 23.2715 3.66235C23.5512 3.75828 23.775 3.86667 23.9471 4.11853C24.0306 4.37919 24.0166 4.64991 23.8956 4.89227C23.7386 5.06684 23.5975 5.1616 23.3749 5.23524C23.3102 5.25674 23.3102 5.25674 23.2443 5.27868C23.1996 5.29314 23.155 5.30759 23.109 5.32249C23.0641 5.33749 23.0193 5.35249 22.9731 5.36794C22.6397 5.4776 22.6397 5.4776 22.4803 5.4776C22.4957 8.41362 22.5111 11.3496 22.527 14.3746C22.7278 14.4828 22.9285 14.591 23.1353 14.7024C23.5736 15.0806 23.9336 15.5624 23.9863 16.1605C23.9899 16.2745 23.9906 16.3882 23.9903 16.5022C23.9905 16.5453 23.9908 16.5884 23.991 16.6327C23.9917 16.7742 23.9916 16.9158 23.9915 17.0573C23.9917 17.156 23.9919 17.2547 23.9921 17.3534C23.9925 17.5599 23.9925 17.7664 23.9922 17.9729C23.9919 18.2374 23.9927 18.502 23.9938 18.7666C23.9945 18.9703 23.9945 19.1739 23.9944 19.3776C23.9944 19.4752 23.9947 19.5727 23.9951 19.6703C23.9957 19.8066 23.9954 19.9429 23.9949 20.0792C23.9952 20.1194 23.9956 20.1596 23.9959 20.2011C23.9935 20.4834 23.9335 20.6345 23.7435 20.8484C23.5701 21.0002 23.4024 20.9838 23.181 20.9854C23.1477 20.9858 23.1145 20.9861 23.0802 20.9864C22.9701 20.9873 22.8601 20.9879 22.75 20.9883C22.7124 20.9885 22.6747 20.9887 22.6359 20.9889C22.4365 20.9899 22.2371 20.9905 22.0377 20.991C21.8322 20.9915 21.6267 20.9931 21.4212 20.995C21.2628 20.9962 21.1045 20.9966 20.9461 20.9968C20.8703 20.997 20.7946 20.9975 20.7189 20.9984C20.6126 20.9995 20.5064 20.9995 20.4001 20.9992C20.3398 20.9994 20.2794 20.9997 20.2172 21C20.0136 20.9726 19.8747 20.9263 19.7198 20.7899C19.5348 20.5446 19.5055 20.2981 19.5092 19.9991C19.509 19.9593 19.5087 19.9195 19.5084 19.8785C19.5079 19.7479 19.5086 19.6173 19.5095 19.4868C19.5095 19.3952 19.5094 19.3036 19.5093 19.2121C19.5092 19.0205 19.5098 18.8289 19.5109 18.6373C19.5122 18.393 19.5121 18.1488 19.5115 17.9046C19.5111 17.7155 19.5115 17.5265 19.5121 17.3374C19.5123 17.2474 19.5123 17.1574 19.5121 17.0675C19.5112 16.1979 19.6157 15.4962 20.2345 14.8429C20.4957 14.6208 20.6944 14.5174 21.0299 14.4215C21.0299 11.64 21.0299 8.85847 21.0299 5.99269C20.2888 6.24766 20.2888 6.24766 19.5327 6.50778C19.532 6.79921 19.532 6.79921 19.5314 7.09652C19.5298 7.73797 19.5272 8.37942 19.5241 9.02087C19.5222 9.40983 19.5207 9.79879 19.52 10.1878C19.5194 10.5268 19.5181 10.8658 19.5161 11.2049C19.515 11.3844 19.5143 11.5639 19.5143 11.7434C19.5144 11.9124 19.5135 12.0814 19.512 12.2505C19.5115 12.3419 19.5118 12.4334 19.5122 12.5248C19.5086 12.8271 19.5053 13.0226 19.2988 13.2508C19.2632 13.2911 19.2276 13.3313 19.1909 13.3728C18.8589 13.7066 18.507 14.0005 18.1291 14.281C18.0821 14.316 18.0351 14.3511 17.9867 14.3872C16.7157 15.3006 15.2695 15.8841 13.7311 16.154C13.6469 16.1691 13.6469 16.1691 13.561 16.1844C11.4294 16.5141 9.12394 16.1552 7.22322 15.1252C7.13195 15.0758 7.04006 15.0277 6.94812 14.9795C6.196 14.5783 4.84694 13.7871 4.5141 12.9698C4.50186 12.8459 4.50186 12.8459 4.50107 12.702C4.50055 12.6474 4.50003 12.5927 4.49949 12.5364C4.49939 12.4767 4.49929 12.4169 4.49918 12.3554C4.49875 12.2917 4.49827 12.228 4.49776 12.1643C4.49648 11.9915 4.49577 11.8187 4.49517 11.646C4.49443 11.4654 4.49318 11.2847 4.49198 11.1041C4.48979 10.7622 4.48808 10.4202 4.48652 10.0783C4.48474 9.68893 4.48242 9.2996 4.48007 8.91027C4.47523 8.10944 4.47106 7.30861 4.46731 6.50778C4.41694 6.49129 4.36657 6.4748 4.31467 6.4578C3.83946 6.30212 3.36447 6.14576 2.88969 5.98874C2.64561 5.90804 2.40146 5.82758 2.15712 5.74766C1.92122 5.67049 1.68554 5.5927 1.44999 5.51448C1.36019 5.48478 1.27032 5.45531 1.18037 5.42606C1.05417 5.38498 0.928258 5.34311 0.802382 5.30105C0.765329 5.2892 0.728276 5.27734 0.6901 5.26512C0.425769 5.17546 0.214905 5.06025 0.0529007 4.82313C-0.0305586 4.56247 -0.0166372 4.29175 0.104439 4.04939C0.251895 3.88541 0.387122 3.78539 0.596136 3.71533C0.635823 3.70183 0.675511 3.68834 0.716401 3.67444C0.759774 3.66009 0.803146 3.64574 0.847833 3.63096C0.89409 3.61535 0.940347 3.59974 0.988005 3.58366C1.14334 3.53134 1.29883 3.47953 1.45434 3.42772C1.56562 3.39036 1.6769 3.35297 1.78817 3.31555C2.05929 3.22448 2.33052 3.13375 2.60181 3.0432C2.82241 2.96957 3.04297 2.89583 3.26351 2.82201C3.88907 2.61262 4.51472 2.40353 5.14051 2.19482C5.17424 2.18357 5.20797 2.17232 5.24272 2.16073C5.29338 2.14383 5.29338 2.14383 5.34507 2.1266C5.89209 1.94413 6.43888 1.76097 6.98556 1.57749C7.54718 1.389 8.10898 1.20103 8.67096 1.01362C8.98635 0.908424 9.30166 0.803018 9.61679 0.697046C9.91327 0.59735 10.21 0.498386 10.5069 0.399907C10.6157 0.363681 10.7245 0.327216 10.8331 0.290492C10.9817 0.240325 11.1305 0.191036 11.2794 0.141952C11.3222 0.12729 11.3649 0.112627 11.409 0.0975206C11.8825 -0.0562497 12.254 -0.0180476 12.7199 0.141322ZM11.4902 1.60935C11.4538 1.62139 11.4175 1.63344 11.38 1.64585C11.2586 1.68622 11.1373 1.72719 11.016 1.76816C10.9289 1.79726 10.8417 1.82632 10.7546 1.85535C10.5181 1.93421 10.2818 2.01358 10.0456 2.09305C9.79859 2.17604 9.55145 2.25854 9.30432 2.3411C8.83644 2.49748 8.36871 2.65429 7.90103 2.81126C7.36855 2.98995 6.83592 3.16816 6.30327 3.34633C5.20764 3.71282 4.11222 4.07992 3.01692 4.44742C3.17195 4.55086 3.3267 4.60453 3.5017 4.66287C3.53706 4.67483 3.57242 4.6868 3.60885 4.69913C3.72763 4.73928 3.84651 4.77912 3.96538 4.81895C4.05046 4.84763 4.13554 4.87632 4.22061 4.90503C4.50024 4.99931 4.78003 5.09314 5.05983 5.18695C5.15615 5.21927 5.25246 5.2516 5.34878 5.28392C5.80129 5.43578 6.25387 5.58744 6.70653 5.73884C7.22901 5.9136 7.75124 6.08906 8.27328 6.26511C8.67682 6.40115 9.08058 6.53655 9.48451 6.67146C9.72574 6.75205 9.96686 6.83291 10.2078 6.91446C10.4345 6.99118 10.6615 7.0671 10.8886 7.14241C10.9719 7.17015 11.055 7.19818 11.138 7.22651C11.2516 7.26525 11.3655 7.30292 11.4796 7.34035C11.5121 7.35172 11.5446 7.36309 11.5782 7.37481C11.9564 7.49611 12.2958 7.40677 12.6617 7.28164C12.6976 7.26974 12.7335 7.25784 12.7705 7.24559C12.8896 7.20601 13.0085 7.16584 13.1274 7.12566C13.2132 7.09701 13.299 7.06841 13.3848 7.03983C13.6169 6.96243 13.8488 6.88451 14.0807 6.80649C14.3234 6.72494 14.5662 6.64387 14.809 6.56275C15.2684 6.40919 15.7277 6.2552 16.1869 6.10106C16.7099 5.92554 17.233 5.7505 17.7562 5.5755C18.832 5.21561 19.9076 4.85513 20.9831 4.49424C20.8278 4.39061 20.6728 4.33725 20.4974 4.27911C20.4619 4.26717 20.4264 4.25524 20.3899 4.24294C20.2708 4.20291 20.1516 4.16318 20.0324 4.12345C19.9471 4.09485 19.8618 4.06623 19.7765 4.0376C19.5445 3.95981 19.3125 3.88229 19.0805 3.80485C18.8869 3.74021 18.6933 3.67546 18.4997 3.61071C18.043 3.45798 17.5863 3.30549 17.1295 3.15313C16.6581 2.99589 16.1868 2.83817 15.7157 2.68024C15.3113 2.54473 14.9068 2.40954 14.5023 2.27461C14.2606 2.19399 14.0189 2.11323 13.7774 2.03216C13.5502 1.95591 13.3229 1.88007 13.0955 1.80455C13.012 1.77675 12.9286 1.74882 12.8453 1.72073C12.7315 1.68241 12.6176 1.64461 12.5035 1.60694C12.4706 1.5957 12.4377 1.58447 12.4037 1.5729C12.0625 1.46146 11.8239 1.49532 11.4902 1.60935ZM5.96449 6.97605C5.95354 7.68308 5.9453 8.39011 5.94025 9.09721C5.93784 9.42557 5.93456 9.75387 5.9292 10.0822C5.92402 10.3992 5.92132 10.7161 5.9201 11.0331C5.91924 11.1539 5.91756 11.2748 5.91503 11.3956C5.8655 12.0368 5.8655 12.0368 6.06599 12.6204C6.18389 12.7284 6.29139 12.8023 6.43236 12.8762C6.48783 12.9182 6.5427 12.961 6.59667 13.005C6.98308 13.279 7.37643 13.5333 7.78918 13.7659C7.81673 13.7817 7.84428 13.7975 7.87266 13.8138C9.7742 14.8897 12.1729 15.1003 14.2664 14.5438C15.479 14.2009 16.6119 13.6509 17.5846 12.8442C17.6612 12.7825 17.6612 12.7825 17.7559 12.7181C17.9053 12.6076 18.0166 12.5202 18.0695 12.3374C18.0815 12.1952 18.0818 12.0573 18.078 11.9146C18.0781 11.8611 18.0781 11.8076 18.0782 11.7525C18.0779 11.5764 18.075 11.4004 18.0721 11.2243C18.0714 11.1019 18.0708 10.9795 18.0705 10.8572C18.0693 10.5684 18.0662 10.2797 18.0625 9.99102C18.0583 9.66217 18.0562 9.33331 18.0543 9.00443C18.0504 8.32828 18.0439 7.65216 18.0355 6.97605C17.1528 7.25947 16.2717 7.5473 15.3936 7.84506C15.261 7.89003 15.1282 7.93491 14.9955 7.97975C14.9514 7.99464 14.9074 8.00953 14.862 8.02487C14.7728 8.05499 14.6836 8.08511 14.5945 8.11523C14.3673 8.19202 14.1402 8.26908 13.9132 8.34661C13.6882 8.42348 13.4629 8.49965 13.2374 8.57536C13.153 8.60386 13.0686 8.6326 12.9843 8.66162C12.8675 8.7018 12.7504 8.74109 12.6332 8.78019C12.5996 8.79201 12.5659 8.80382 12.5312 8.816C12.0482 8.97429 11.6558 8.88192 11.1854 8.71969C11.1293 8.70097 11.0732 8.68224 11.0154 8.66295C10.8627 8.61201 10.7104 8.56021 10.5581 8.50825C10.3984 8.45393 10.2384 8.40042 10.0784 8.34682C9.77608 8.24539 9.47396 8.14325 9.17194 8.04085C8.79422 7.91282 8.41621 7.78564 8.03819 7.65851C7.90605 7.61406 7.77391 7.56961 7.64177 7.52515C7.6098 7.5144 7.57782 7.50364 7.54488 7.49256C7.32385 7.41817 7.1029 7.34352 6.88199 7.26876C6.82367 7.24905 6.76536 7.22934 6.70527 7.20903C6.59587 7.17204 6.48648 7.13499 6.37711 7.09789C6.3054 7.07365 6.3054 7.07365 6.23223 7.04893C6.19045 7.03477 6.14866 7.02062 6.10561 7.00603C6.02034 6.97368 6.02034 6.97368 5.96449 6.97605ZM21.086 16.1158C20.9664 16.2971 20.9774 16.4853 20.9778 16.6974C20.9778 16.7281 20.9778 16.7587 20.9777 16.7902C20.9778 16.8911 20.9781 16.9919 20.9785 17.0928C20.9786 17.1628 20.9787 17.2329 20.9787 17.303C20.9789 17.4871 20.9793 17.6713 20.9799 17.8554C20.9804 18.0765 20.9806 18.2976 20.9809 18.5187C20.9814 18.8543 20.9823 19.1899 20.9831 19.5255C21.508 19.5255 22.033 19.5255 22.5738 19.5255C22.5766 19.002 22.5766 19.002 22.5784 18.4785C22.579 18.2648 22.5796 18.0511 22.5809 17.8373C22.5819 17.6649 22.5825 17.4924 22.5827 17.32C22.5829 17.2544 22.5832 17.1888 22.5837 17.1233C22.6039 16.5296 22.6039 16.5296 22.375 15.9989C22.1919 15.8199 22.0351 15.7268 21.7785 15.715C21.4615 15.7301 21.2838 15.8835 21.086 16.1158Z" fill="#6C7278"/>
</svg>
