<svg width="24" height="21" viewBox="0 0 24 21" fill="none" xmlns="http://www.w3.org/2000/svg">
<path fill-rule="evenodd" clip-rule="evenodd" d="M12.7199 0.141323L12.8612 0.187754C13.0165 0.238961 13.1713 0.291158 13.3262 0.343368C13.4378 0.38041 13.5495 0.417402 13.6611 0.454331C13.9322 0.544197 14.2031 0.634727 14.4739 0.72557C14.6075 0.770372 14.7411 0.815073 14.8747 0.859686L15.0339 0.912786L15.1345 0.946293L15.2297 0.977995L15.4211 1.04174C16.0187 1.24075 16.616 1.4406 17.2133 1.64075C17.7254 1.81236 18.2377 1.98327 18.7502 2.15366C19.346 2.35174 19.9416 2.55024 20.5371 2.74939L20.7276 2.81312L20.8223 2.84479C21.0422 2.9183 21.2622 2.99153 21.4822 3.06465C21.7784 3.16309 22.0744 3.26222 22.3703 3.36179C22.4788 3.39823 22.5875 3.43446 22.6963 3.47046C22.8447 3.51962 22.9928 3.56955 23.1409 3.61969L23.2715 3.66235C23.5512 3.75828 23.775 3.86668 23.9471 4.11854C24.0306 4.37918 24.0166 4.64991 23.8956 4.89227C23.7386 5.06685 23.5975 5.1616 23.3749 5.23523L23.2443 5.27868L23.1089 5.32249L22.9731 5.36795C22.7452 5.44291 22.6731 5.46662 22.5993 5.47413C22.5652 5.4776 22.5307 5.4776 22.4803 5.4776L22.527 14.3746L23.1353 14.7024C23.5736 15.0806 23.9336 15.5624 23.9862 16.1605C23.9885 16.232 23.9897 16.3033 23.9901 16.3747C23.9904 16.4172 23.9904 16.4597 23.9903 16.5022L23.991 16.6327C23.9917 16.7743 23.9916 16.9158 23.9915 17.0573C23.9917 17.156 23.9919 17.2547 23.9921 17.3534C23.9925 17.5599 23.9924 17.7664 23.9922 17.9729C23.9919 18.2375 23.9927 18.502 23.9938 18.7666C23.9945 18.9703 23.9945 19.1739 23.9944 19.3776C23.9944 19.4139 23.9944 19.4501 23.9945 19.4864L23.9947 19.5589L23.9949 19.6126L23.9951 19.6703C23.9957 19.8066 23.9954 19.9429 23.9949 20.0792L23.9959 20.2011C23.9934 20.4834 23.9335 20.6345 23.7435 20.8484C23.587 20.9854 23.4351 20.9854 23.2442 20.9853H23.2401C23.2208 20.9853 23.2011 20.9853 23.181 20.9854L23.0802 20.9864C22.9701 20.9873 22.8601 20.9879 22.75 20.9883L22.6359 20.9889C22.4365 20.9899 22.2371 20.9905 22.0377 20.991C21.8322 20.9915 21.6267 20.9931 21.4212 20.995C21.3352 20.9956 21.2492 20.9961 21.1631 20.9963C21.1207 20.9965 21.0783 20.9966 21.0359 20.9966L20.9461 20.9968C20.8703 20.997 20.7946 20.9975 20.7189 20.9984C20.6126 20.9995 20.5064 20.9995 20.4001 20.9992L20.2172 21C20.0136 20.9726 19.8747 20.9263 19.7198 20.7899C19.5348 20.5446 19.5055 20.2981 19.5092 19.9991L19.5084 19.8785C19.5079 19.7479 19.5086 19.6173 19.5095 19.4868C19.5095 19.3952 19.5094 19.3037 19.5093 19.2121C19.5092 19.1316 19.5093 19.051 19.5095 18.9705C19.5096 18.9234 19.5098 18.8762 19.5099 18.8291C19.5102 18.7651 19.5105 18.7012 19.5109 18.6373C19.5122 18.393 19.5121 18.1488 19.5115 17.9046C19.5111 17.7155 19.5115 17.5265 19.5121 17.3374C19.5122 17.2965 19.5122 17.2556 19.5122 17.2148V17.1611C19.5122 17.1299 19.5122 17.0987 19.5121 17.0675C19.5112 16.1979 19.6157 15.4962 20.2345 14.8429C20.4957 14.6208 20.6944 14.5174 21.0299 14.4215V5.99269L19.5327 6.50778L19.5314 7.09652C19.5298 7.73798 19.5272 8.37942 19.5241 9.02087C19.5222 9.40983 19.5207 9.79879 19.52 10.1878C19.5194 10.5268 19.5181 10.8658 19.5161 11.2049C19.515 11.3844 19.5143 11.5639 19.5143 11.7434C19.5144 11.9124 19.5135 12.0814 19.512 12.2505C19.5115 12.3419 19.5118 12.4334 19.5121 12.5248C19.5085 12.8271 19.5053 13.0226 19.2987 13.2508L19.1909 13.3728C18.8589 13.7066 18.507 14.0005 18.1291 14.281L17.9867 14.3872C16.7157 15.3005 15.2695 15.8841 13.7311 16.154L13.561 16.1844C11.4294 16.5141 9.12395 16.1552 7.22322 15.1252C7.17995 15.1018 7.13654 15.0787 7.09306 15.0557C7.04715 15.0314 7.00113 15.0073 6.9551 14.9832L6.94812 14.9795C6.196 14.5783 4.84693 13.7871 4.5141 12.9698C4.50185 12.8459 4.50185 12.8459 4.50108 12.702L4.49949 12.5364L4.49919 12.3554L4.49855 12.2656L4.49776 12.1643C4.49702 12.064 4.49647 11.9637 4.49602 11.8634C4.49569 11.791 4.49542 11.7185 4.49517 11.646C4.4945 11.485 4.49344 11.324 4.49236 11.163L4.49199 11.1041C4.4898 10.7622 4.48808 10.4202 4.48653 10.0783C4.48474 9.68893 4.48242 9.2996 4.48007 8.91027C4.47523 8.10944 4.47105 7.30862 4.46731 6.50778L4.31468 6.45781C3.83945 6.30212 3.36447 6.14576 2.8897 5.98875C2.64561 5.90804 2.40145 5.82758 2.15713 5.74767C2.00712 5.69859 1.8572 5.64928 1.70734 5.59975C1.62153 5.57139 1.53574 5.54296 1.44998 5.51448C1.36019 5.48479 1.27032 5.4553 1.18038 5.42606C1.05417 5.38498 0.92826 5.34311 0.802384 5.30106L0.690104 5.26512C0.425769 5.17547 0.214906 5.06025 0.0528971 4.82312C-0.0305614 4.56247 -0.0166391 4.29175 0.104442 4.04939C0.25189 3.88542 0.387119 3.7854 0.596141 3.71532L0.716396 3.67445L0.847831 3.63096L0.988006 3.58367C1.06671 3.55715 1.14546 3.53077 1.22422 3.50445C1.29756 3.47995 1.37092 3.4555 1.44427 3.43106L1.45434 3.42771C1.56563 3.39036 1.67691 3.35297 1.78817 3.31555C1.92373 3.27002 2.05932 3.22457 2.19494 3.17919C2.33054 3.1338 2.46617 3.08848 2.60181 3.0432C2.8224 2.96957 3.04297 2.89583 3.26351 2.82201C3.88907 2.61263 4.51472 2.40354 5.14051 2.19482L5.24272 2.16073L5.34506 2.1266C5.89209 1.94413 6.43888 1.76096 6.98555 1.57748C7.54719 1.389 8.10898 1.20104 8.67096 1.01362C8.98635 0.908423 9.30166 0.803014 9.61679 0.697053C9.91326 0.597346 10.21 0.49838 10.5069 0.399902C10.5512 0.385148 10.5955 0.370369 10.6397 0.35554C10.7042 0.333954 10.7687 0.312268 10.8331 0.290494C10.9817 0.240328 11.1305 0.191039 11.2794 0.14195L11.409 0.0975249C11.8825 -0.0562461 12.254 -0.0180509 12.7199 0.141323ZM5.96449 6.97604C5.95354 7.68308 5.9453 8.39012 5.94025 9.09721C5.93785 9.42557 5.93457 9.75387 5.9292 10.0822C5.92401 10.3992 5.92131 10.7161 5.92011 11.0331C5.91924 11.1539 5.91755 11.2748 5.91503 11.3956C5.88977 11.7224 5.87739 11.8828 5.8979 12.0387C5.91762 12.1885 5.96772 12.3344 6.06599 12.6204C6.18388 12.7284 6.29139 12.8023 6.43237 12.8762C6.48783 12.9182 6.54269 12.961 6.59667 13.005C6.98308 13.279 7.37643 13.5333 7.78919 13.7659L7.87266 13.8138C9.7742 14.8897 12.1729 15.1003 14.2664 14.5438C15.479 14.2009 16.6119 13.6509 17.5846 12.8441C17.6611 12.7826 17.6612 12.7825 17.7555 12.7184C17.905 12.6078 18.0166 12.5202 18.0695 12.3374C18.0815 12.1952 18.0818 12.0573 18.078 11.9146L18.0782 11.7525C18.0779 11.5764 18.075 11.4004 18.072 11.2243C18.0714 11.1019 18.0708 10.9795 18.0704 10.8572C18.0693 10.5684 18.0662 10.2797 18.0625 9.99102C18.0583 9.66216 18.0562 9.33331 18.0543 9.00443C18.0504 8.32828 18.0439 7.65216 18.0355 6.97604C17.1528 7.25948 16.2717 7.5473 15.3936 7.84505C15.261 7.89003 15.1282 7.93491 14.9955 7.97975L14.862 8.02487L14.5945 8.11523C14.3673 8.19202 14.1402 8.26909 13.9132 8.34662C13.6882 8.42347 13.4629 8.49965 13.2374 8.57536C13.153 8.60386 13.0686 8.6326 12.9843 8.66162C12.9361 8.67822 12.8878 8.69465 12.8395 8.71098C12.7708 8.73421 12.702 8.75724 12.6332 8.78019L12.5312 8.81599C12.0481 8.9743 11.6558 8.88193 11.1854 8.7197L11.0153 8.66295C10.9388 8.6374 10.8624 8.61164 10.7859 8.58574C10.71 8.56001 10.634 8.53415 10.5581 8.50825C10.5204 8.49543 10.4827 8.48265 10.445 8.46992C10.4003 8.4548 10.3555 8.43973 10.3107 8.42469L10.188 8.38351L10.0784 8.34683C9.77608 8.24539 9.47396 8.14326 9.17194 8.04084C8.79422 7.91282 8.41621 7.78565 8.0382 7.6585L7.64176 7.52515L7.54488 7.49256C7.32384 7.41816 7.1029 7.34351 6.88198 7.26877L6.70528 7.20904C6.63783 7.18623 6.57041 7.16341 6.50299 7.14056L6.37711 7.09789L6.23223 7.04893L6.10561 7.00603C6.05331 6.98621 6.03291 6.97846 6.01217 6.97607C5.99919 6.97458 5.98596 6.97514 5.96449 6.97604Z" fill="#55417C"/>
</svg>
