
<svg width="120" height="41" viewBox="0 0 120 41" fill="none" xmlns="http://www.w3.org/2000/svg">
<path d="M9.53516 1H110.135L111.216 1.00195C111.517 1.00388 111.826 1.00974 112.133 1.01465H112.135C112.779 1.0218 113.421 1.07781 114.057 1.18359V1.18457C114.67 1.2889 115.265 1.48336 115.82 1.7627V1.76367C116.93 2.33347 117.833 3.23621 118.402 4.3457C118.68 4.89904 118.873 5.49138 118.974 6.10254V6.10449C119.081 6.74168 119.141 7.38615 119.152 8.03223C119.156 8.33436 119.156 8.638 119.156 8.94434V8.95508C119.164 9.31106 119.164 9.66905 119.164 10.0361V30.9648C119.164 31.3349 119.164 31.6909 119.156 32.0479V32.0586C119.156 32.3687 119.156 32.6657 119.152 32.9717C119.141 33.6178 119.081 34.2622 118.974 34.8994V34.9014C118.874 35.5123 118.681 36.1051 118.403 36.6582C118.121 37.2083 117.752 37.7107 117.313 38.1465L117.311 38.1494C116.876 38.5879 116.374 38.9538 115.823 39.2334C115.336 39.4794 114.819 39.6607 114.285 39.7734L114.06 39.8174C113.423 39.9226 112.78 39.9792 112.135 39.9873H112.13C111.828 39.994 111.519 39.998 111.219 39.998H111.216C110.858 40 110.494 40 110.135 40H9.53516C9.16825 40 8.80651 40 8.44238 39.998H8.44043C8.13862 39.998 7.83823 39.994 7.53223 39.9873H7.52734C6.8811 39.9788 6.23639 39.9221 5.59863 39.8174H5.59766C4.98688 39.7119 4.39529 39.5153 3.84277 39.2344V39.2334L3.6377 39.125C3.16615 38.8617 2.73336 38.5335 2.35254 38.1494L2.34863 38.1455L2.1875 37.9795C1.81976 37.5861 1.50933 37.1422 1.26562 36.6611V36.6602L1.16406 36.4512C0.936984 35.9582 0.776448 35.4365 0.6875 34.9004V34.8994L0.616211 34.4209C0.554508 33.9413 0.520381 33.4584 0.514648 32.9746H0.515625L0.514648 32.9658L0.5 32.0508V8.95215C0.505026 8.63684 0.505514 8.34105 0.514648 8.03906V8.0293C0.522302 7.38423 0.580458 6.74066 0.6875 6.10449V6.10352C0.789445 5.49122 0.984726 4.89825 1.26562 4.34473V4.34375C1.54446 3.79167 1.91059 3.28821 2.34961 2.85254L2.35156 2.85059C2.78891 2.41317 3.29133 2.04578 3.8418 1.76367L3.84277 1.76465C4.39624 1.484 4.98876 1.28827 5.60059 1.18457L5.59961 1.18359C6.23673 1.07812 6.8816 1.02225 7.52734 1.01465H7.5293C7.84047 1.00972 8.1404 1.00393 8.44336 1.00195L8.44238 1.00098C8.80652 0.998985 9.16823 1 9.53516 1Z" fill="#55417C" stroke="#55417C"/>
<path d="M24.77 20.8003C24.7807 19.9657 25.0024 19.1473 25.4145 18.4213C25.8265 17.6954 26.4154 17.0854 27.1265 16.6483C26.6748 16.0031 26.0788 15.4722 25.386 15.0976C24.6932 14.7231 23.9226 14.5152 23.1354 14.4906C21.4561 14.3143 19.8282 15.4954 18.9725 15.4954C18.1002 15.4954 16.7827 14.5081 15.364 14.5373C14.4463 14.5669 13.5519 14.8338 12.7681 15.3118C11.9842 15.7899 11.3375 16.4629 10.891 17.2651C8.95705 20.6136 10.3996 25.5346 12.2522 28.2412C13.1791 29.5666 14.2624 31.047 15.6799 30.9945C17.0669 30.937 17.585 30.11 19.2593 30.11C20.918 30.11 21.4041 30.9945 22.8503 30.9611C24.3387 30.937 25.2764 29.6299 26.1708 28.292C26.8368 27.3476 27.3492 26.3039 27.6892 25.1995C26.8245 24.8338 26.0866 24.2216 25.5675 23.4393C25.0483 22.657 24.771 21.7392 24.77 20.8003Z" fill="white"/>
<path d="M22.0395 12.7094C22.8511 11.7352 23.2509 10.483 23.154 9.21875C21.9142 9.34897 20.769 9.94153 19.9465 10.8784C19.5443 11.336 19.2363 11.8685 19.0401 12.4452C18.8438 13.022 18.7632 13.6318 18.8028 14.2397C19.4229 14.2461 20.0364 14.1117 20.5971 13.8466C21.1577 13.5815 21.6509 13.1927 22.0395 12.7094Z" fill="white"/>
<path d="M42.3047 27.6397H37.5713L36.4346 30.9961H34.4297L38.9131 18.5781H40.9961L45.4795 30.9961H43.4404L42.3047 27.6397ZM38.0615 26.0908H41.8135L39.9639 20.6436H39.9121L38.0615 26.0908Z" fill="white"/>
<path d="M55.1612 26.4714C55.1612 29.2849 53.6553 31.0925 51.3828 31.0925C50.8072 31.1226 50.2347 30.99 49.7309 30.7099C49.2271 30.4297 48.8124 30.0134 48.5342 29.5085H48.4912V33.9929H46.6328V21.9441H48.4317V23.4499H48.4659C48.7568 22.9475 49.1785 22.5333 49.6862 22.2514C50.1938 21.9696 50.7683 21.8306 51.3487 21.8493C53.6465 21.8493 55.1612 23.6657 55.1612 26.4714ZM53.251 26.4714C53.251 24.6384 52.3037 23.4333 50.8584 23.4333C49.4385 23.4333 48.4834 24.6638 48.4834 26.4714C48.4834 28.2956 49.4385 29.5173 50.8584 29.5173C52.3037 29.5173 53.251 28.321 53.251 26.4714Z" fill="white"/>
<path d="M65.126 26.4714C65.126 29.2849 63.6201 31.0925 61.3477 31.0925C60.772 31.1226 60.1995 30.99 59.6957 30.7099C59.1919 30.4297 58.7772 30.0134 58.4991 29.5085H58.4561V33.9929H56.5977V21.944H58.3965V23.4499H58.4307C58.7216 22.9474 59.1433 22.5333 59.651 22.2514C60.1586 21.9696 60.7332 21.8306 61.3135 21.8493C63.6114 21.8493 65.126 23.6657 65.126 26.4714ZM63.2158 26.4714C63.2158 24.6384 62.2686 23.4333 60.8233 23.4333C59.4033 23.4333 58.4483 24.6638 58.4483 26.4714C58.4483 28.2956 59.4033 29.5173 60.8233 29.5173C62.2686 29.5173 63.2159 28.321 63.2159 26.4714H63.2158Z" fill="white"/>
<path d="M71.711 27.5362C71.8487 28.7676 73.045 29.5762 74.6797 29.5762C76.2461 29.5762 77.3731 28.7676 77.3731 27.6572C77.3731 26.6934 76.6934 26.1162 75.084 25.7207L73.4746 25.333C71.1944 24.7822 70.1358 23.7158 70.1358 21.9854C70.1358 19.8428 72.003 18.3711 74.6543 18.3711C77.2783 18.3711 79.0772 19.8428 79.1377 21.9854H77.2617C77.1494 20.7461 76.125 19.9981 74.6279 19.9981C73.1309 19.9981 72.1065 20.7549 72.1065 21.8565C72.1065 22.7344 72.7608 23.251 74.3613 23.6465L75.7295 23.9824C78.2773 24.5849 79.3359 25.6084 79.3359 27.4248C79.3359 29.748 77.4854 31.2031 74.542 31.2031C71.7881 31.2031 69.9287 29.7822 69.8086 27.5361L71.711 27.5362Z" fill="white"/>
<path d="M83.3476 19.8008V21.9434H85.0693V23.415H83.3476V28.4062C83.3476 29.1816 83.6924 29.543 84.4492 29.543C84.6536 29.5394 84.8577 29.5251 85.0605 29.5V30.9629C84.7203 31.0264 84.3744 31.0552 84.0283 31.0488C82.1953 31.0488 81.4805 30.3603 81.4805 28.6045V23.415H80.1641V21.9434H81.4804V19.8008H83.3476Z" fill="white"/>
<path d="M86.0664 26.4707C86.0664 23.6221 87.7441 21.832 90.3604 21.832C92.9854 21.832 94.6553 23.622 94.6553 26.4707C94.6553 29.3272 92.9941 31.1094 90.3604 31.1094C87.7275 31.1094 86.0664 29.3271 86.0664 26.4707ZM92.7617 26.4707C92.7617 24.5166 91.8662 23.3633 90.3603 23.3633C88.8545 23.3633 87.96 24.5254 87.96 26.4707C87.96 28.4326 88.8545 29.5772 90.3603 29.5772C91.8662 29.5772 92.7617 28.4326 92.7617 26.4707H92.7617Z" fill="white"/>
<path d="M96.1875 21.944H97.96V23.485H98.003C98.1229 23.0037 98.4048 22.5784 98.8014 22.2805C99.198 21.9826 99.6851 21.8303 100.181 21.8492C100.395 21.8485 100.608 21.8717 100.817 21.9186V23.6569C100.547 23.5742 100.265 23.5363 99.9824 23.5445C99.7124 23.5336 99.4433 23.5812 99.1935 23.6841C98.9436 23.787 98.719 23.9427 98.535 24.1406C98.351 24.3385 98.2121 24.5738 98.1276 24.8305C98.0432 25.0872 98.0153 25.3591 98.0459 25.6275V30.9977H96.1875L96.1875 21.944Z" fill="white"/>
<path d="M109.386 28.3379C109.136 29.9814 107.535 31.1094 105.487 31.1094C102.854 31.1094 101.219 29.3447 101.219 26.5137C101.219 23.6738 102.862 21.832 105.409 21.832C107.914 21.832 109.489 23.5527 109.489 26.2978V26.9346H103.095V27.0469C103.065 27.3801 103.107 27.7157 103.217 28.0316C103.327 28.3474 103.503 28.6362 103.734 28.8787C103.964 29.1213 104.243 29.3121 104.553 29.4384C104.863 29.5647 105.196 29.6236 105.53 29.6113C105.969 29.6525 106.41 29.5508 106.787 29.3213C107.164 29.0919 107.456 28.747 107.621 28.3379L109.386 28.3379ZM103.104 25.6357H107.63C107.647 25.3361 107.601 25.0363 107.496 24.7551C107.392 24.4739 107.23 24.2174 107.022 24.0016C106.813 23.7858 106.562 23.6155 106.285 23.5013C106.007 23.3871 105.709 23.3314 105.409 23.3379C105.107 23.3361 104.807 23.3942 104.527 23.509C104.246 23.6237 103.992 23.7928 103.778 24.0064C103.563 24.22 103.393 24.474 103.278 24.7537C103.162 25.0333 103.103 25.3331 103.104 25.6357V25.6357Z" fill="white"/>
<path d="M37.8271 9.23333C38.2168 9.20537 38.6077 9.26423 38.9718 9.40567C39.3359 9.5471 39.6641 9.76758 39.9327 10.0512C40.2013 10.3348 40.4036 10.6745 40.525 11.0458C40.6464 11.4171 40.6839 11.8107 40.6348 12.1982C40.6348 14.1044 39.6045 15.2002 37.8271 15.2002H35.6719V9.23333H37.8271ZM36.5986 14.3563H37.7236C38.002 14.373 38.2806 14.3273 38.5392 14.2227C38.7977 14.1181 39.0297 13.9571 39.2182 13.7516C39.4067 13.546 39.5469 13.301 39.6288 13.0344C39.7107 12.7678 39.7321 12.4863 39.6914 12.2103C39.7291 11.9355 39.7056 11.6557 39.6224 11.3911C39.5393 11.1264 39.3987 10.8834 39.2106 10.6795C39.0226 10.4755 38.7917 10.3157 38.5346 10.2115C38.2776 10.1073 38.0006 10.0612 37.7236 10.0765H36.5986V14.3563Z" fill="white"/>
<path d="M41.6819 12.9458C41.6536 12.6498 41.6875 12.3513 41.7813 12.0692C41.8751 11.7871 42.0269 11.5278 42.2268 11.3078C42.4268 11.0878 42.6705 10.9121 42.9423 10.7918C43.2142 10.6715 43.5082 10.6094 43.8055 10.6094C44.1027 10.6094 44.3967 10.6715 44.6686 10.7918C44.9404 10.9121 45.1841 11.0878 45.3841 11.3078C45.584 11.5278 45.7358 11.7871 45.8296 12.0692C45.9235 12.3513 45.9573 12.6498 45.929 12.9458C45.9578 13.242 45.9244 13.541 45.8308 13.8235C45.7372 14.106 45.5855 14.3658 45.3855 14.5862C45.1856 14.8067 44.9417 14.9828 44.6695 15.1033C44.3974 15.2239 44.1031 15.2861 43.8055 15.2861C43.5078 15.2861 43.2135 15.2239 42.9414 15.1033C42.6693 14.9828 42.4254 14.8067 42.2254 14.5862C42.0254 14.3658 41.8737 14.106 41.7801 13.8235C41.6865 13.541 41.6531 13.242 41.6819 12.9458ZM45.0149 12.9458C45.0149 11.9697 44.5764 11.3989 43.8069 11.3989C43.0345 11.3989 42.5999 11.9697 42.5999 12.9458C42.5999 13.9297 43.0345 14.4961 43.8069 14.4961C44.5765 14.496 45.0149 13.9257 45.0149 12.9458H45.0149Z" fill="white"/>
<path d="M51.5742 15.1982H50.6523L49.7217 11.8818H49.6514L48.7246 15.1982H47.8115L46.5703 10.6953H47.4717L48.2783 14.1313H48.3447L49.2705 10.6953H50.1231L51.0488 14.1313H51.1191L51.9219 10.6953H52.8105L51.5742 15.1982Z" fill="white"/>
<path d="M53.8555 10.6968H54.7109V11.4122H54.7773C54.89 11.1552 55.08 10.9399 55.3209 10.7961C55.5617 10.6522 55.8415 10.5872 56.1211 10.6099C56.3402 10.5934 56.5602 10.6265 56.7648 10.7066C56.9694 10.7867 57.1533 10.9118 57.303 11.0726C57.4527 11.2334 57.5643 11.4259 57.6295 11.6357C57.6947 11.8455 57.7118 12.0674 57.6797 12.2847V15.1997H56.791V12.5079C56.791 11.7842 56.4766 11.4244 55.8193 11.4244C55.6706 11.4174 55.5221 11.4428 55.384 11.4986C55.246 11.5544 55.1216 11.6394 55.0195 11.7478C54.9174 11.8562 54.8399 11.9854 54.7924 12.1265C54.7448 12.2676 54.7284 12.4174 54.7441 12.5655V15.1998H53.8555L53.8555 10.6968Z" fill="white"/>
<path d="M59.0938 8.9375H59.9824V15.1982H59.0938V8.9375Z" fill="white"/>
<path d="M61.2171 12.9458C61.1888 12.6499 61.2226 12.3513 61.3165 12.0692C61.4104 11.7872 61.5621 11.5278 61.7621 11.3078C61.9621 11.0878 62.2058 10.9121 62.4777 10.7918C62.7495 10.6715 63.0435 10.6094 63.3408 10.6094C63.6381 10.6094 63.9321 10.6715 64.204 10.7918C64.4759 10.9121 64.7196 11.0878 64.9196 11.3078C65.1195 11.5278 65.2713 11.7872 65.3652 12.0692C65.459 12.3513 65.4929 12.6499 65.4646 12.9458C65.4934 13.2421 65.4599 13.5411 65.3663 13.8236C65.2727 14.1061 65.121 14.3659 64.921 14.5863C64.721 14.8067 64.4771 14.9829 64.2049 15.1034C63.9328 15.2239 63.6385 15.2862 63.3408 15.2862C63.0432 15.2862 62.7489 15.2239 62.4767 15.1034C62.2046 14.9829 61.9607 14.8067 61.7607 14.5863C61.5607 14.3659 61.409 14.1061 61.3153 13.8236C61.2217 13.5411 61.1882 13.2421 61.2171 12.9458ZM64.5501 12.9458C64.5501 11.9698 64.1116 11.399 63.3421 11.399C62.5696 11.399 62.1351 11.9698 62.1351 12.9458C62.1351 13.9297 62.5696 14.4961 63.3421 14.4961C64.1116 14.4961 64.5501 13.9258 64.5501 12.9458H64.5501Z" fill="white"/>
<path d="M66.4023 13.9258C66.4023 13.1152 67.0059 12.6479 68.0771 12.5815L69.2969 12.5112V12.1226C69.2969 11.647 68.9824 11.3784 68.375 11.3784C67.8789 11.3784 67.5352 11.5605 67.4365 11.8789H66.5762C66.667 11.1055 67.3945 10.6094 68.416 10.6094C69.5449 10.6094 70.1816 11.1714 70.1816 12.1226V15.1992H69.3262V14.5664H69.2559C69.1131 14.7934 68.9127 14.9784 68.6751 15.1027C68.4375 15.2269 68.1712 15.2858 67.9033 15.2734C67.7143 15.2931 67.5232 15.2729 67.3425 15.2142C67.1617 15.1555 66.9953 15.0596 66.8538 14.9326C66.7124 14.8056 66.5992 14.6504 66.5214 14.477C66.4437 14.3036 66.4031 14.1158 66.4023 13.9258ZM69.2969 13.541V13.1645L68.1973 13.2349C67.5771 13.2764 67.2959 13.4873 67.2959 13.8843C67.2959 14.2895 67.6474 14.5254 68.1309 14.5254C68.2725 14.5397 68.4156 14.5254 68.5516 14.4833C68.6876 14.4412 68.8138 14.3722 68.9226 14.2804C69.0313 14.1885 69.1205 14.0757 69.1849 13.9487C69.2492 13.8217 69.2873 13.683 69.2969 13.541Z" fill="white"/>
<path d="M71.3477 12.9448C71.3477 11.522 72.0791 10.6206 73.2168 10.6206C73.4982 10.6077 73.7775 10.6751 74.022 10.815C74.2666 10.9548 74.4662 11.1615 74.5977 11.4106H74.6641V8.9375H75.5527V15.1982H74.7012V14.4868H74.6309C74.4893 14.7343 74.2826 14.9383 74.0334 15.0768C73.7841 15.2153 73.5017 15.283 73.2168 15.2724C72.0713 15.2725 71.3477 14.3711 71.3477 12.9448ZM72.2657 12.9448C72.2657 13.8999 72.7159 14.4746 73.4688 14.4746C74.2178 14.4746 74.6807 13.8916 74.6807 12.9487C74.6807 12.0103 74.2129 11.419 73.4688 11.419C72.7207 11.419 72.2656 11.9976 72.2656 12.9448H72.2657Z" fill="white"/>
<path d="M79.2327 12.9458C79.2044 12.6498 79.2382 12.3513 79.3321 12.0692C79.4259 11.7871 79.5777 11.5278 79.7776 11.3078C79.9776 11.0878 80.2213 10.9121 80.4931 10.7918C80.765 10.6715 81.059 10.6094 81.3562 10.6094C81.6535 10.6094 81.9475 10.6715 82.2193 10.7918C82.4912 10.9121 82.7349 11.0878 82.9348 11.3078C83.1348 11.5278 83.2865 11.7871 83.3804 12.0692C83.4742 12.3513 83.5081 12.6498 83.4798 12.9458C83.5086 13.242 83.4752 13.541 83.3816 13.8235C83.288 14.106 83.1363 14.3658 82.9363 14.5862C82.7363 14.8067 82.4924 14.9828 82.2203 15.1033C81.9482 15.2239 81.6539 15.2861 81.3562 15.2861C81.0586 15.2861 80.7643 15.2239 80.4922 15.1033C80.22 14.9828 79.9761 14.8067 79.7761 14.5862C79.5762 14.3658 79.4245 14.106 79.3309 13.8235C79.2373 13.541 79.2039 13.242 79.2327 12.9458ZM82.5657 12.9458C82.5657 11.9697 82.1272 11.3989 81.3577 11.3989C80.5852 11.3989 80.1507 11.9697 80.1507 12.9458C80.1507 13.9297 80.5853 14.4961 81.3577 14.4961C82.1272 14.496 82.5657 13.9257 82.5657 12.9458Z" fill="white"/>
<path d="M84.6719 10.6968H85.5273V11.4122H85.5938C85.7064 11.1552 85.8964 10.9399 86.1373 10.7961C86.3782 10.6522 86.6579 10.5872 86.9375 10.6099C87.1566 10.5934 87.3766 10.6265 87.5812 10.7066C87.7858 10.7867 87.9698 10.9118 88.1194 11.0726C88.2691 11.2334 88.3807 11.4259 88.4459 11.6357C88.5111 11.8455 88.5283 12.0674 88.4961 12.2847V15.1997H87.6074V12.5079C87.6074 11.7842 87.293 11.4244 86.6357 11.4244C86.487 11.4174 86.3385 11.4428 86.2004 11.4986C86.0624 11.5544 85.938 11.6394 85.8359 11.7478C85.7338 11.8562 85.6563 11.9854 85.6088 12.1265C85.5612 12.2676 85.5448 12.4174 85.5605 12.5655V15.1998H84.6719V10.6968Z" fill="white"/>
<path d="M93.5146 9.57422V10.7158H94.4902V11.4644H93.5146V13.7798C93.5146 14.2515 93.709 14.458 94.1514 14.458C94.2646 14.4576 94.3778 14.4508 94.4902 14.4375V15.1777C94.3307 15.2063 94.169 15.2215 94.0068 15.2231C93.0186 15.2231 92.625 14.8755 92.625 14.0073V11.4643H91.9102V10.7158H92.625V9.57422H93.5146Z" fill="white"/>
<path d="M95.707 8.9375H96.5879V11.419H96.6582C96.7763 11.1596 96.9716 10.943 97.2172 10.7987C97.4629 10.6543 97.7472 10.5893 98.0312 10.6123C98.2492 10.6004 98.467 10.6368 98.6693 10.7189C98.8716 10.8009 99.0533 10.9266 99.2014 11.0869C99.3495 11.2473 99.4604 11.4383 99.5262 11.6465C99.592 11.8546 99.611 12.0747 99.582 12.291V15.1982H98.6924V12.5103C98.6924 11.791 98.3574 11.4268 97.7295 11.4268C97.5768 11.4142 97.4232 11.4352 97.2794 11.4883C97.1356 11.5413 97.0052 11.6252 96.8972 11.7339C96.7892 11.8426 96.7062 11.9737 96.6542 12.1178C96.6021 12.2619 96.5822 12.4157 96.5957 12.5683V15.1982H95.7071L95.707 8.9375Z" fill="white"/>
<path d="M104.761 13.9835C104.641 14.395 104.379 14.751 104.022 14.9891C103.666 15.2273 103.237 15.3324 102.81 15.2862C102.514 15.294 102.219 15.2372 101.946 15.1197C101.674 15.0022 101.43 14.8267 101.232 14.6056C101.034 14.3845 100.887 14.1229 100.8 13.8391C100.713 13.5553 100.69 13.256 100.73 12.962C100.691 12.6671 100.715 12.3672 100.801 12.0825C100.888 11.7978 101.035 11.5351 101.231 11.312C101.428 11.0889 101.671 10.9107 101.943 10.7895C102.214 10.6683 102.509 10.6069 102.806 10.6095C104.059 10.6095 104.815 11.4655 104.815 12.8795V13.1895H101.635V13.2393C101.621 13.4046 101.642 13.5709 101.696 13.7277C101.751 13.8844 101.837 14.0281 101.95 14.1496C102.063 14.271 102.2 14.3676 102.352 14.433C102.504 14.4984 102.669 14.5312 102.835 14.5293C103.047 14.5549 103.263 14.5166 103.453 14.4194C103.644 14.3222 103.802 14.1704 103.906 13.9834L104.761 13.9835ZM101.635 12.5323H103.91C103.921 12.3812 103.9 12.2294 103.85 12.0867C103.799 11.9439 103.718 11.8135 103.614 11.7036C103.51 11.5937 103.383 11.5069 103.243 11.4488C103.103 11.3906 102.953 11.3623 102.801 11.3658C102.648 11.3639 102.495 11.3927 102.353 11.4507C102.21 11.5086 102.081 11.5945 101.972 11.7032C101.864 11.8119 101.778 11.9413 101.72 12.0837C101.662 12.2261 101.633 12.3786 101.635 12.5323H101.635Z" fill="white"/>
</svg>
