<svg width="16" height="13" viewBox="0 0 16 13" fill="none" xmlns="http://www.w3.org/2000/svg">
<path d="M2.78028 0.00039911C2.87028 0.00033281 2.96028 0.000237358 3.05029 0.000114259C3.23834 -3.00721e-05 3.42639 0.000168715 3.61444 0.000638984C3.83056 0.00117326 4.04666 0.00100046 4.26278 0.000459535C4.47229 -4.34868e-05 4.6818 1.41157e-05 4.89131 0.000300536C4.97973 0.000365653 5.06815 0.00028716 5.15657 5.69139e-05C5.91967 -0.0014944 6.59975 0.024966 7.18804 0.546017C7.41166 0.757765 7.58178 1.01048 7.7571 1.25798C7.82879 1.35868 7.90121 1.45888 7.974 1.55888C7.98992 1.58162 8.00585 1.60436 8.02226 1.62779C8.1873 1.8545 8.37718 2.00053 8.65939 2.07675C8.77065 2.08644 8.77065 2.08644 8.88885 2.08499C8.93447 2.08517 8.98009 2.08534 9.0271 2.08553C9.07725 2.08539 9.1274 2.08526 9.17755 2.08512C9.2307 2.08521 9.28385 2.08533 9.337 2.08547C9.4513 2.08574 9.56559 2.08581 9.67989 2.08574C9.86111 2.08565 10.0423 2.08612 10.2236 2.08669C10.7388 2.08822 11.2541 2.08901 11.7694 2.08923C12.0542 2.08935 12.3389 2.08994 12.6236 2.09103C12.8032 2.09169 12.9828 2.09177 13.1624 2.09141C13.275 2.09133 13.3876 2.09179 13.5001 2.0924C13.5517 2.09257 13.6033 2.09253 13.6549 2.09223C14.3355 2.08867 14.9272 2.24472 15.4266 2.69902C15.9402 3.2563 15.9976 3.85979 15.9958 4.56477C15.996 4.6369 15.9963 4.70904 15.9966 4.78117C15.9972 4.97606 15.9971 5.17094 15.9969 5.36583C15.9968 5.529 15.997 5.69217 15.9972 5.85534C15.9978 6.26253 15.9976 6.66972 15.9972 7.07691C15.9969 7.42936 15.9973 7.78181 15.9982 8.13426C15.999 8.49741 15.9993 8.86055 15.9991 9.2237C15.999 9.42708 15.9991 9.63046 15.9997 9.83384C16.0002 10.0252 16.0001 10.2166 15.9994 10.408C15.9993 10.4778 15.9994 10.5477 15.9998 10.6175C16.003 11.2925 15.9137 11.9145 15.3973 12.4263C14.8934 12.8656 14.296 12.9985 13.6256 12.9955C13.575 12.9956 13.5243 12.9958 13.4736 12.996C13.3356 12.9965 13.1977 12.9964 13.0597 12.9961C12.9104 12.996 12.7611 12.9964 12.6118 12.9967C12.3198 12.9973 12.0278 12.9973 11.7358 12.9971C11.4983 12.997 11.2608 12.997 11.0233 12.9972C10.9894 12.9972 10.9555 12.9973 10.9206 12.9973C10.8518 12.9973 10.783 12.9974 10.7142 12.9974C10.0695 12.9979 9.42482 12.9977 8.78016 12.9973C8.19126 12.997 7.60236 12.9974 7.01346 12.9982C6.4078 12.999 5.80215 12.9993 5.19649 12.9991C4.85685 12.999 4.51721 12.9991 4.17757 12.9996C3.88843 13.0001 3.59929 13.0001 3.31015 12.9996C3.16283 12.9993 3.01552 12.9992 2.8682 12.9997C2.73296 13.0002 2.59774 13 2.46251 12.9994C2.41396 12.9993 2.36541 12.9994 2.31687 12.9997C1.6817 13.0039 1.0783 12.8539 0.607928 12.4311C0.169996 11.9838 0.00124944 11.4385 0.00478758 10.8387C0.00460069 10.8 0.00441381 10.7612 0.00422125 10.7212C0.00381422 10.6149 0.00386538 10.5086 0.00412302 10.4023C0.00428845 10.2871 0.00385191 10.1719 0.00349764 10.0568C0.00290333 9.83161 0.00287157 9.60647 0.0030539 9.38133C0.00319462 9.19816 0.00314357 9.015 0.00295858 8.83184C0.00293261 8.80569 0.00290644 8.77954 0.00287968 8.75259C0.00282653 8.69946 0.00277338 8.64632 0.00271976 8.59318C0.00224423 8.09573 0.00243148 7.5983 0.00283017 7.10085C0.0031747 6.64674 0.00272597 6.19264 0.00189554 5.73853C0.00104738 5.27117 0.00071595 4.8038 0.000946358 4.33644C0.00106718 4.07448 0.000992571 3.81253 0.000382406 3.55058C-0.000130654 3.32756 -0.000147609 3.10456 0.000454423 2.88154C0.000748084 2.76798 0.000828404 2.65443 0.000292916 2.54087C-0.00257605 1.77207 0.0500032 1.11785 0.642903 0.537462C1.28215 0.0127119 1.97524 -0.00169532 2.78028 0.00039911ZM1.40638 1.35623C1.24218 1.56856 1.1593 1.74817 1.15889 2.01208C1.15876 2.04463 1.15863 2.07717 1.15849 2.1107C1.15852 2.14621 1.15855 2.18173 1.15858 2.21832C1.15848 2.25623 1.15837 2.29414 1.15827 2.33321C1.15802 2.43832 1.15793 2.54343 1.1579 2.64854C1.15784 2.76195 1.15757 2.87537 1.15734 2.98878C1.15687 3.23672 1.15666 3.48465 1.15651 3.73258C1.15641 3.88744 1.15626 4.0423 1.15611 4.19716C1.15568 4.62606 1.15533 5.05497 1.15521 5.48387C1.1552 5.51131 1.15519 5.53875 1.15519 5.56702C1.15518 5.59453 1.15517 5.62203 1.15516 5.65037C1.15515 5.70611 1.15513 5.76184 1.15512 5.81758C1.15511 5.84522 1.1551 5.87287 1.15509 5.90135C1.15496 6.34928 1.15435 6.79721 1.15354 7.24513C1.15272 7.7052 1.15229 8.16526 1.15225 8.62532C1.15222 8.88356 1.15202 9.14179 1.15139 9.40003C1.15085 9.61992 1.15067 9.83982 1.15096 10.0597C1.1511 10.1719 1.15106 10.284 1.15058 10.3961C1.15014 10.5178 1.15034 10.6396 1.1507 10.7613C1.15042 10.7965 1.15014 10.8317 1.14985 10.868C1.15191 11.1642 1.20977 11.4565 1.44108 11.6728C1.68081 11.8379 1.87414 11.906 2.17072 11.9063C2.21294 11.9064 2.25516 11.9066 2.29866 11.9067C2.3454 11.9067 2.39214 11.9066 2.43888 11.9066C2.48862 11.9067 2.53836 11.9068 2.5881 11.9069C2.7248 11.9072 2.8615 11.9072 2.9982 11.9072C3.14563 11.9073 3.29306 11.9076 3.44049 11.9078C3.76286 11.9082 4.08523 11.9084 4.40759 11.9086C4.60889 11.9087 4.81019 11.9088 5.01148 11.9089C5.56884 11.9093 6.1262 11.9097 6.68355 11.9098C6.71922 11.9098 6.75489 11.9098 6.79164 11.9098C6.84527 11.9098 6.84527 11.9098 6.89998 11.9098C6.97243 11.9098 7.04488 11.9099 7.11732 11.9099C7.15326 11.9099 7.1892 11.9099 7.22622 11.9099C7.80857 11.91 8.39092 11.9106 8.97327 11.9114C9.57119 11.9121 10.1691 11.9125 10.767 11.9126C11.1027 11.9126 11.4384 11.9128 11.7741 11.9134C12.06 11.9139 12.3458 11.9141 12.6317 11.9138C12.7775 11.9137 12.9233 11.9137 13.0691 11.9142C13.2027 11.9146 13.3362 11.9145 13.4698 11.9141C13.518 11.9141 13.5663 11.9142 13.6145 11.9145C13.9532 11.9163 14.2599 11.8945 14.5369 11.6941C14.7947 11.4485 14.8418 11.1867 14.8415 10.8575C14.8416 10.8135 14.8416 10.8135 14.8418 10.7685C14.8421 10.6702 14.8421 10.5718 14.8422 10.4734C14.8423 10.4029 14.8425 10.3323 14.8427 10.2618C14.8432 10.0702 14.8434 9.87854 14.8435 9.6869C14.8436 9.56716 14.8438 9.44741 14.8439 9.32766C14.8444 8.95293 14.8448 8.57821 14.8449 8.20348C14.845 7.77103 14.8457 7.33858 14.8467 6.90612C14.8474 6.57177 14.8478 6.23741 14.8478 5.90306C14.8478 5.7034 14.848 5.50374 14.8487 5.30408C14.8492 5.11623 14.8493 4.92839 14.849 4.74054C14.849 4.67169 14.8491 4.60284 14.8495 4.53399C14.8499 4.4398 14.8497 4.34562 14.8493 4.25143C14.8496 4.22437 14.8499 4.1973 14.8502 4.16942C14.8477 3.89537 14.7705 3.61727 14.559 3.41954C14.3115 3.24911 14.1163 3.1864 13.8106 3.18576C13.7882 3.18567 13.7658 3.18558 13.7427 3.18548C13.6679 3.18521 13.5931 3.18516 13.5183 3.18512C13.4645 3.18496 13.4107 3.18479 13.357 3.18461C13.2413 3.18424 13.1256 3.18397 13.0099 3.18376C12.8266 3.18341 12.6434 3.18274 12.4602 3.18202C11.9393 3.17999 11.4183 3.17822 10.8973 3.17714C10.6095 3.17653 10.3217 3.17558 10.0339 3.17425C9.88178 3.17357 9.72965 3.17306 9.57752 3.17298C9.43423 3.17291 9.29096 3.17239 9.14769 3.17153C9.09536 3.17129 9.04302 3.17122 8.99069 3.17134C8.38738 3.17242 7.83422 3.02825 7.39 2.62341C7.15818 2.38028 6.96844 2.10581 6.77392 1.83589C6.43124 1.3421 6.43124 1.3421 5.88312 1.09423C5.8287 1.0912 5.77416 1.08981 5.71965 1.08963C5.68692 1.08944 5.65418 1.08925 5.62045 1.08906C5.58477 1.08902 5.54909 1.08899 5.51233 1.08895C5.47457 1.08879 5.4368 1.08862 5.39789 1.08846C5.27283 1.08798 5.14778 1.08775 5.02272 1.08757C4.93574 1.08739 4.84877 1.0872 4.76179 1.08701C4.60264 1.08671 4.44348 1.0865 4.28432 1.0864C4.05067 1.08626 3.81702 1.08568 3.58337 1.08473C3.38051 1.08394 3.17765 1.08369 2.97479 1.08363C2.88874 1.08353 2.8027 1.08327 2.71666 1.08284C2.59605 1.08228 2.47547 1.08234 2.35487 1.08255C2.31954 1.08225 2.28421 1.08195 2.24781 1.08164C1.93836 1.08334 1.6318 1.14146 1.40638 1.35623Z" fill="#55417C"/>
<path d="M9.3091 4.85486C9.81518 5.28057 10.1776 5.88878 10.2289 6.53136C10.2591 7.12908 10.1957 7.61249 9.88418 8.13809C9.83301 8.22621 9.83301 8.22621 9.84571 8.29709C9.88235 8.3849 9.93293 8.43185 10.0043 8.49797C10.0318 8.52376 10.0594 8.54956 10.0878 8.57613C10.1328 8.61749 10.1328 8.61749 10.1786 8.65967C10.2092 8.68825 10.2398 8.71684 10.2713 8.74628C10.3527 8.82221 10.4342 8.89794 10.5158 8.97356C10.6308 9.08003 10.7456 9.18669 10.8601 9.29358C10.9211 9.35047 10.9822 9.40719 11.0435 9.46373C11.0712 9.48953 11.0989 9.51532 11.1274 9.5419C11.1518 9.56449 11.1762 9.58707 11.2013 9.61034C11.3451 9.76309 11.3486 9.9026 11.3447 10.1012C11.3253 10.2457 11.2713 10.3312 11.158 10.4282C11.0103 10.5287 10.875 10.5393 10.6985 10.5459C10.4123 10.4878 10.2101 10.2649 10.0157 10.0733C9.95728 10.017 9.89888 9.96065 9.84046 9.90433C9.74933 9.81588 9.65838 9.72729 9.56769 9.63844C9.4796 9.55236 9.39089 9.46689 9.30208 9.38147C9.275 9.35459 9.24792 9.32771 9.22002 9.30002C9.19453 9.27563 9.16904 9.25124 9.14277 9.22611C9.12057 9.20442 9.09836 9.18274 9.07549 9.16039C9.00738 9.10929 9.00738 9.10929 8.91596 9.12566C8.82944 9.15199 8.75625 9.18517 8.67674 9.22667C8.05486 9.52933 7.27856 9.57333 6.61189 9.38019C5.88734 9.15703 5.3025 8.71017 4.94613 8.07016C4.62401 7.43852 4.54569 6.70083 4.76163 6.02413C5.03734 5.32691 5.53785 4.75528 6.26252 4.43822C7.28972 4.01798 8.45149 4.16655 9.3091 4.85486ZM6.19545 5.81035C5.85657 6.22687 5.75623 6.63711 5.81371 7.15313C5.84286 7.28435 5.88694 7.39479 5.95252 7.51339C5.96805 7.54189 5.98357 7.57039 5.99956 7.59975C6.22221 7.9766 6.5366 8.20342 6.9676 8.34445C7.41094 8.46132 7.82388 8.41112 8.23563 8.22227C8.56156 8.04896 8.76684 7.8258 8.93702 7.51339C8.95147 7.48726 8.96592 7.46113 8.9808 7.4342C9.14164 7.09069 9.13758 6.65321 9.00642 6.30161C8.80744 5.88701 8.49226 5.5485 8.03473 5.38459C7.36557 5.18138 6.68057 5.31083 6.19545 5.81035Z" fill="#55417C"/>
</svg>
