<svg width="19" height="12" viewBox="0 0 19 12" fill="none" xmlns="http://www.w3.org/2000/svg">
<path d="M18.821 0.101531C18.921 0.204607 18.9804 0.28822 19 0.43434C18.9966 0.81621 18.9535 1.19557 18.9157 1.57509C18.908 1.65364 18.9003 1.73218 18.8925 1.81073C18.8764 1.97469 18.86 2.13864 18.8436 2.30257C18.8226 2.51221 18.8022 2.7219 18.782 2.93161C18.7662 3.09358 18.7501 3.2555 18.7338 3.41742C18.7262 3.49471 18.7186 3.57202 18.7112 3.64935C18.7008 3.75748 18.6899 3.86554 18.6788 3.9736C18.6759 4.00521 18.673 4.03683 18.67 4.0694C18.6432 4.32089 18.5952 4.53454 18.4092 4.71259C18.2341 4.79621 18.1071 4.82052 17.9181 4.77652C17.8433 4.72398 17.8433 4.72398 17.7702 4.65441C17.7429 4.62849 17.7155 4.60257 17.6874 4.57587C17.5373 4.42745 17.3897 4.27682 17.2435 4.12438C17.2127 4.09249 17.182 4.06061 17.1503 4.02775C17.0754 3.95009 17.0007 3.87232 16.926 3.79447C16.7646 3.86063 16.657 3.9792 16.5376 4.10436C16.5148 4.1279 16.492 4.15144 16.4685 4.1757C16.3921 4.2547 16.316 4.33399 16.2399 4.41328C16.1853 4.46995 16.1306 4.52661 16.0758 4.58324C15.958 4.70529 15.8403 4.82745 15.7226 4.94971C15.5366 5.14303 15.3502 5.336 15.1637 5.52891C14.6336 6.07753 14.1038 6.62663 13.5745 7.17609C13.2822 7.47951 12.9895 7.78264 12.6966 8.08545C12.5112 8.27713 12.3262 8.46916 12.1415 8.66148C12.0264 8.78111 11.9109 8.9004 11.7954 9.0196C11.7419 9.0749 11.6886 9.13034 11.6354 9.18593C11.5627 9.26188 11.4896 9.33731 11.4163 9.41263C11.3954 9.43467 11.3745 9.45671 11.3531 9.47941C11.1356 9.70062 10.9251 9.78618 10.6184 9.78654C10.573 9.78733 10.5276 9.78812 10.4809 9.78894C10.1423 9.7408 9.92872 9.53367 9.69674 9.28964C9.66612 9.25808 9.63549 9.22653 9.60394 9.19402C9.5035 9.09035 9.40363 8.9861 9.30376 8.88185C9.23395 8.80957 9.16412 8.73733 9.09424 8.66512C8.91095 8.47551 8.72814 8.28542 8.54543 8.09521C8.35874 7.90095 8.1715 7.70725 7.98435 7.51346C7.61758 7.13355 7.25131 6.75314 6.88539 6.37236C6.61191 6.60301 6.36683 6.86185 6.11841 7.12019C6.06924 7.17117 6.02006 7.22214 5.97087 7.2731C5.86536 7.38243 5.75991 7.49181 5.6545 7.60124C5.48768 7.77439 5.32064 7.94731 5.15356 8.12018C5.09624 8.17949 5.03892 8.2388 4.98161 8.2981C4.93857 8.34264 4.93857 8.34264 4.89467 8.38807C4.50602 8.79026 4.11757 9.19265 3.72952 9.59545C3.4673 9.86763 3.2048 10.1395 2.94198 10.4111C2.80308 10.5546 2.66434 10.6983 2.52594 10.8424C2.39581 10.9778 2.26533 11.1129 2.13455 11.2476C2.08674 11.297 2.03906 11.3466 1.99154 11.3963C1.46652 11.945 1.46651 11.945 1.10858 12C0.786579 11.997 0.55068 11.9803 0.309118 11.75C0.0840542 11.4993 0.00741712 11.2535 0 10.916C0.0506554 10.596 0.206941 10.3636 0.426874 10.1409C0.464093 10.102 0.464093 10.102 0.502064 10.0623C0.584641 9.9763 0.667904 9.89099 0.751188 9.80567C0.810821 9.74384 0.870412 9.68197 0.929964 9.62005C1.09137 9.45253 1.2534 9.28566 1.41558 9.11893C1.55108 8.97951 1.68627 8.83977 1.82147 8.70003C2.14046 8.37031 2.45996 8.04111 2.77979 7.71225C3.1094 7.37331 3.43821 7.03357 3.76663 6.6934C4.04898 6.40101 4.33178 6.10909 4.61497 5.81756C4.78395 5.6436 4.95276 5.46947 5.12113 5.29489C5.2795 5.13073 5.43843 4.96719 5.59782 4.80409C5.6561 4.74426 5.71417 4.68422 5.77203 4.62396C6.40234 3.96797 6.40234 3.96797 6.84818 3.94024C7.36008 3.99889 7.63178 4.31191 7.98109 4.67406C8.0094 4.70323 8.0377 4.73241 8.06686 4.76247C8.15929 4.85779 8.25157 4.95326 8.34385 5.04873C8.40834 5.1153 8.47284 5.18186 8.53735 5.24842C8.70628 5.42275 8.8751 5.59721 9.04389 5.7717C9.21648 5.95007 9.38918 6.12832 9.56187 6.30659C9.90009 6.65575 10.2382 7.00504 10.5762 7.35442C10.726 7.29022 10.8209 7.19406 10.9348 7.07633C10.9544 7.0562 10.974 7.03608 10.9942 7.01535C11.0597 6.94794 11.1249 6.88024 11.1901 6.81254C11.2371 6.76413 11.284 6.71575 11.331 6.66738C11.4584 6.53602 11.5856 6.40441 11.7127 6.27275C11.8456 6.13521 11.9787 5.99789 12.1118 5.86055C12.3639 5.60044 12.6157 5.34013 12.8674 5.07973C13.1541 4.7833 13.4409 4.48709 13.7278 4.19091C14.3178 3.58163 14.9077 2.97206 15.4973 2.3623C15.4598 2.31678 15.4222 2.2713 15.3846 2.22585C15.3532 2.18785 15.3532 2.18785 15.3212 2.14909C15.2374 2.05018 15.1478 1.95861 15.0564 1.86712C15.0199 1.8302 14.9834 1.79327 14.9459 1.75523C14.8889 1.69787 14.8319 1.64051 14.7747 1.58341C14.7187 1.52737 14.6631 1.47092 14.6074 1.41445C14.5745 1.38135 14.5415 1.34824 14.5075 1.31414C14.4073 1.19453 14.3505 1.08657 14.3417 0.927583C14.3651 0.734839 14.405 0.620061 14.5448 0.480031C14.6923 0.380403 14.8549 0.372787 15.0261 0.355097C15.0585 0.351493 15.0909 0.347889 15.1243 0.344176C15.2315 0.332344 15.3388 0.32098 15.4461 0.309642C15.5211 0.301522 15.596 0.293382 15.671 0.285223C15.8284 0.268168 15.9858 0.251342 16.1432 0.234677C16.3436 0.213451 16.5439 0.191679 16.7441 0.169732C16.8992 0.152804 17.0542 0.136164 17.2093 0.119607C17.2831 0.1117 17.3568 0.103707 17.4306 0.0956236C18.6073 -0.0328425 18.6073 -0.0328425 18.821 0.101531Z" fill="#22AD5C"/>
</svg>
