<svg width="19" height="12" viewBox="0 0 19 12" fill="none" xmlns="http://www.w3.org/2000/svg">
<path d="M18.821 11.8985C18.921 11.7954 18.9804 11.7118 19 11.5657C18.9966 11.1838 18.9535 10.8044 18.9157 10.4249C18.908 10.3464 18.9003 10.2678 18.8925 10.1893C18.8764 10.0253 18.86 9.86136 18.8436 9.69743C18.8226 9.48779 18.8022 9.2781 18.782 9.06839C18.7662 8.90642 18.7501 8.7445 18.7338 8.58258C18.7262 8.50529 18.7186 8.42798 18.7112 8.35065C18.7008 8.24252 18.6899 8.13446 18.6788 8.0264C18.6759 7.99479 18.673 7.96317 18.67 7.9306C18.6432 7.67911 18.5952 7.46546 18.4092 7.28741C18.2341 7.20379 18.1071 7.17948 17.9181 7.22348C17.8433 7.27602 17.8433 7.27602 17.7702 7.34559C17.7429 7.37151 17.7155 7.39743 17.6874 7.42413C17.5373 7.57255 17.3897 7.72318 17.2435 7.87562C17.2127 7.90751 17.182 7.93939 17.1503 7.97225C17.0754 8.04991 17.0007 8.12768 16.926 8.20553C16.7646 8.13937 16.657 8.0208 16.5376 7.89564C16.5148 7.8721 16.492 7.84856 16.4685 7.8243C16.3921 7.7453 16.316 7.66601 16.2399 7.58672C16.1853 7.53005 16.1306 7.47339 16.0758 7.41676C15.958 7.29471 15.8403 7.17255 15.7226 7.05029C15.5366 6.85697 15.3502 6.664 15.1637 6.47109C14.6336 5.92247 14.1038 5.37337 13.5745 4.82391C13.2822 4.52049 12.9895 4.21736 12.6966 3.91455C12.5112 3.72287 12.3262 3.53084 12.1415 3.33852C12.0264 3.21889 11.9109 3.0996 11.7954 2.9804C11.7419 2.9251 11.6886 2.86966 11.6354 2.81407C11.5627 2.73812 11.4896 2.66269 11.4163 2.58737C11.3954 2.56533 11.3745 2.54329 11.3531 2.52059C11.1356 2.29938 10.9251 2.21382 10.6184 2.21346C10.573 2.21267 10.5276 2.21188 10.4809 2.21106C10.1423 2.2592 9.92872 2.46633 9.69674 2.71036C9.66612 2.74192 9.63549 2.77347 9.60394 2.80598C9.5035 2.90965 9.40363 3.0139 9.30376 3.11815C9.23395 3.19043 9.16412 3.26267 9.09424 3.33488C8.91095 3.52449 8.72814 3.71458 8.54543 3.90479C8.35874 4.09905 8.1715 4.29275 7.98435 4.48654C7.61758 4.86645 7.25131 5.24686 6.88539 5.62764C6.61191 5.39699 6.36683 5.13815 6.11841 4.87981C6.06924 4.82883 6.02006 4.77786 5.97087 4.7269C5.86536 4.61757 5.75991 4.50819 5.6545 4.39876C5.48768 4.22561 5.32064 4.05269 5.15356 3.87982C5.09624 3.82051 5.03892 3.7612 4.98161 3.7019C4.93857 3.65736 4.93857 3.65736 4.89467 3.61193C4.50602 3.20974 4.11757 2.80735 3.72952 2.40455C3.4673 2.13237 3.2048 1.86048 2.94198 1.58891C2.80308 1.44537 2.66434 1.30168 2.52594 1.15762C2.39581 1.02219 2.26533 0.887139 2.13455 0.752374C2.08674 0.702966 2.03906 0.653419 1.99154 0.603719C1.46652 0.0550356 1.46651 0.0550356 1.10858 0C0.786579 0.00301838 0.55068 0.0197315 0.309118 0.24999C0.0840542 0.500677 0.00741712 0.746522 0 1.08403C0.0506554 1.40399 0.206941 1.6364 0.426874 1.85907C0.464093 1.89797 0.464093 1.89797 0.502064 1.93766C0.584641 2.0237 0.667904 2.10901 0.751188 2.19433C0.810821 2.25616 0.870412 2.31803 0.929964 2.37995C1.09137 2.54747 1.2534 2.71434 1.41558 2.88107C1.55108 3.02049 1.68627 3.16023 1.82147 3.29997C2.14046 3.62969 2.45996 3.95889 2.77979 4.28775C3.1094 4.62669 3.43821 4.96643 3.76663 5.3066C4.04898 5.59899 4.33178 5.89091 4.61497 6.18244C4.78395 6.3564 4.95276 6.53053 5.12113 6.70511C5.2795 6.86927 5.43843 7.03281 5.59782 7.19591C5.6561 7.25574 5.71417 7.31578 5.77203 7.37604C6.40234 8.03203 6.40234 8.03203 6.84818 8.05976C7.36008 8.00111 7.63178 7.68809 7.98109 7.32594C8.0094 7.29677 8.0377 7.26759 8.06686 7.23753C8.15929 7.14221 8.25157 7.04674 8.34385 6.95127C8.40834 6.8847 8.47284 6.81814 8.53735 6.75158C8.70628 6.57725 8.8751 6.40279 9.04389 6.2283C9.21648 6.04993 9.38918 5.87168 9.56187 5.69341C9.90009 5.34425 10.2382 4.99496 10.5762 4.64558C10.726 4.70978 10.8209 4.80594 10.9348 4.92367C10.9544 4.9438 10.974 4.96392 10.9942 4.98465C11.0597 5.05206 11.1249 5.11976 11.1901 5.18746C11.2371 5.23587 11.284 5.28425 11.331 5.33262C11.4584 5.46398 11.5856 5.59559 11.7127 5.72725C11.8456 5.86479 11.9787 6.00211 12.1118 6.13945C12.3639 6.39956 12.6157 6.65987 12.8674 6.92027C13.1541 7.2167 13.4409 7.51291 13.7278 7.80909C14.3178 8.41837 14.9077 9.02794 15.4973 9.6377C15.4598 9.68322 15.4222 9.7287 15.3846 9.77415C15.3532 9.81215 15.3532 9.81215 15.3212 9.85091C15.2374 9.94982 15.1478 10.0414 15.0564 10.1329C15.0199 10.1698 14.9834 10.2067 14.9459 10.2448C14.8889 10.3021 14.8319 10.3595 14.7747 10.4166C14.7187 10.4726 14.6631 10.5291 14.6074 10.5855C14.5745 10.6187 14.5415 10.6518 14.5075 10.6859C14.4073 10.8055 14.3505 10.9134 14.3417 11.0724C14.3651 11.2652 14.405 11.3799 14.5448 11.52C14.6923 11.6196 14.8549 11.6272 15.0261 11.6449C15.0585 11.6485 15.0909 11.6521 15.1243 11.6558C15.2315 11.6677 15.3388 11.679 15.4461 11.6904C15.5211 11.6985 15.596 11.7066 15.671 11.7148C15.8284 11.7318 15.9858 11.7487 16.1432 11.7653C16.3436 11.7865 16.5439 11.8083 16.7441 11.8303C16.8992 11.8472 17.0542 11.8638 17.2093 11.8804C17.2831 11.8883 17.3568 11.8963 17.4306 11.9044C18.6073 12.0328 18.6073 12.0328 18.821 11.8985Z" fill="#DC143C"/>
</svg>
