<svg width="20" height="23" viewBox="0 0 20 23" fill="none" xmlns="http://www.w3.org/2000/svg">
<g clip-path="url(#clip0_1260_3961)">
<path d="M0.510171 0.25H19.5502C19.7502 0.33 19.8302 0.5 19.8502 0.7V11.44C19.6302 17.04 15.3202 20.03 10.8402 22.35C10.6602 22.44 10.2402 22.69 10.0702 22.74C9.95017 22.77 9.74017 22.65 9.62017 22.59C5.09017 20.4 0.150171 16.92 0.160171 11.29L0.180171 0.55C0.220171 0.39 0.350171 0.28 0.510171 0.25ZM18.7502 1.38H1.25017V11.38C1.45017 16.17 4.75017 18.6 8.52017 20.76C9.01017 21.04 9.51017 21.31 10.0102 21.56C11.4402 20.83 12.8502 20.01 14.1602 19.08C16.7902 17.22 18.6002 14.82 18.7502 11.47V1.38Z" fill="#637381"/>
<path d="M9.82017 16.25C11.4002 16.03 11.7002 18.44 10.1602 18.62C8.53017 18.81 8.40017 16.44 9.82017 16.25Z" fill="#637381"/>
<path d="M12.1102 3.86C12.5402 4 12.7602 4.33 12.6702 4.79L9.24017 14.32C8.69017 16.1 6.15017 16.22 5.50017 14.45C5.44017 14.28 5.42017 14.1 5.37017 13.93C5.37017 13.82 5.36017 13.69 5.37017 13.58C5.39017 13.4 5.49017 13.03 5.59017 12.89C6.02017 12.27 6.98017 12.58 6.96017 13.34C6.96017 13.5 6.86017 13.66 6.87017 13.8C6.91017 14.22 7.47017 14.38 7.72017 14.05C7.81017 13.92 7.91017 13.59 7.97017 13.43C9.12017 10.38 10.1302 7.28 11.2902 4.23C11.4002 4.04 11.5802 3.94 11.7802 3.87H12.1002L12.1102 3.86Z" fill="#637381"/>
<path d="M8.21017 3.86C8.47017 3.95 8.67017 4.1 8.76017 4.36L9.74017 7.09L9.00017 9.18L8.93017 9.27L7.32017 4.77C7.25017 4.33 7.47017 4 7.89017 3.87H8.21017V3.86Z" fill="#637381"/>
<path d="M11.0702 10.74C11.4502 11.73 11.7502 12.77 12.1502 13.75C12.2002 13.87 12.2402 14.02 12.3502 14.1C12.6602 14.34 13.1202 14.14 13.1302 13.75C13.1302 13.64 13.0602 13.52 13.0502 13.4C12.9402 12.46 14.2802 12.14 14.5602 13.21C14.9402 14.68 13.6402 16.01 12.1602 15.64C10.8302 15.3 10.6702 13.99 10.2702 12.88C10.5102 12.23 10.7202 11.56 10.9702 10.92C10.9902 10.86 11.0202 10.76 11.0802 10.72L11.0702 10.74Z" fill="#637381"/>
</g>
<defs>
<clipPath id="clip0_1260_3961">
<rect width="20" height="23" fill="white"/>
</clipPath>
</defs>
</svg>
