<svg width="20" height="23" viewBox="0 0 20 23" fill="none" xmlns="http://www.w3.org/2000/svg">
<g clip-path="url(#clip0_1260_3475)">
<path d="M19.5502 0.25H0.510156C0.350156 0.28 0.220156 0.39 0.180156 0.55L0.160156 11.29C0.160156 16.92 5.09016 20.4 9.62016 22.59C9.74016 22.65 9.95016 22.77 10.0702 22.74C10.2402 22.69 10.6602 22.44 10.8402 22.35C15.3202 20.03 19.6302 17.04 19.8502 11.44V0.7C19.8302 0.5 19.7502 0.33 19.5502 0.25ZM9.82016 16.25C11.4002 16.03 11.7002 18.44 10.1602 18.62C8.53016 18.81 8.40016 16.44 9.82016 16.25ZM5.50016 14.45C5.44016 14.28 5.42016 14.1 5.37016 13.93C5.37016 13.82 5.36016 13.69 5.37016 13.58C5.39016 13.4 5.49016 13.03 5.59016 12.89C6.02016 12.27 6.98016 12.58 6.96016 13.34C6.96016 13.5 6.86016 13.66 6.87016 13.8C6.91016 14.22 7.47016 14.38 7.72016 14.05C7.81016 13.92 7.91016 13.59 7.97016 13.43C9.12016 10.38 10.1302 7.28 11.2902 4.23C11.4002 4.04 11.5802 3.94 11.7802 3.87H12.1102C12.5402 4 12.7602 4.33 12.6702 4.79L9.24016 14.32C8.69016 16.1 6.15016 16.22 5.50016 14.45ZM7.32016 4.77C7.25016 4.33 7.47016 4 7.89016 3.87H8.21016C8.47016 3.95 8.67016 4.1 8.76016 4.36L9.74016 7.09L9.00016 9.18L8.93016 9.27L7.32016 4.77ZM12.1602 15.64C10.8302 15.3 10.6702 13.99 10.2702 12.88C10.5102 12.23 10.7202 11.56 10.9702 10.92C10.9902 10.86 11.0202 10.77 11.0702 10.74C11.4502 11.73 11.7502 12.77 12.1502 13.75C12.2002 13.87 12.2402 14.02 12.3502 14.1C12.6602 14.34 13.1202 14.14 13.1302 13.75C13.1302 13.64 13.0602 13.52 13.0502 13.4C12.9402 12.46 14.2802 12.14 14.5602 13.21C14.9402 14.68 13.6402 16.01 12.1602 15.64Z" fill="#55417C"/>
</g>
<defs>
<clipPath id="clip0_1260_3475">
<rect width="20" height="23" fill="white"/>
</clipPath>
</defs>
</svg>
