<svg width="17" height="13" viewBox="0 0 17 13" fill="none" xmlns="http://www.w3.org/2000/svg">
<path d="M10.6189 0.199951C10.6243 0.234528 10.6706 0.233575 10.7135 0.2285C11.2577 0.316687 11.6766 0.648818 11.6522 1.25566C13.7523 1.92373 15.444 3.28747 15.9885 5.48549C16.2528 6.55231 16.2579 7.67718 16.0672 8.75573C16.012 9.06756 15.8327 9.33561 15.5696 9.50342C15.2545 9.66806 14.9191 9.68075 14.5729 9.62682C14.0769 9.54973 13.5942 9.53133 13.0887 9.50278C11.9003 11.0023 10.3219 11.9847 8.38649 12.1709C7.61791 12.2448 6.80015 12.1947 6.11027 11.8182C5.86243 11.683 5.64633 11.5308 5.4134 11.3744C4.98215 11.0848 4.53503 10.8618 4.02571 10.7295C3.23047 10.5227 1.72949 10.3203 1.0174 10.7231C0.751792 10.8735 0.43795 10.8526 0.27262 10.5686C0.253897 10.5363 0.23454 10.4944 0.199951 10.4827V10.1347C0.275794 10.0887 0.295151 9.9894 0.373214 9.92818C0.696259 9.63665 1.03485 9.39779 1.39439 9.14686L3.39136 7.75331C3.58144 6.2059 4.07617 4.46563 5.04435 3.23195C6.12201 1.91739 7.85528 1.30737 9.52032 1.08056C9.61964 0.493697 9.95824 0.329695 10.4615 0.199951H10.6199H10.6189ZM11.1038 1.08754C11.0216 0.836614 10.7976 0.782687 10.5862 0.760798C10.3898 0.773487 10.1737 0.811237 10.1001 1.02853C10.4596 0.969847 10.7671 1.00664 11.1038 1.08754ZM11.4468 8.83947C11.7099 7.8894 11.8956 6.99483 11.9885 6.05649C12.0488 5.39984 12.0615 4.77809 11.9844 4.13064C11.8518 3.0965 11.4738 2.08742 10.5221 1.551C9.67899 1.7131 8.95515 2.14293 8.36682 2.7612C7.15302 4.04404 6.57674 6.00161 6.35651 7.7365L8.55277 8.25674C9.51588 8.48482 10.4561 8.7018 11.4468 8.83916V8.83947ZM5.82974 7.66607C5.9497 6.71314 6.15374 5.85062 6.45806 4.98999C6.68242 4.38474 6.9366 3.82611 7.28789 3.28842C7.63314 2.72408 8.06694 2.28092 8.588 1.82508C7.82672 1.97544 7.15112 2.26348 6.5247 2.65175C5.90432 3.03654 5.41848 3.54568 5.06148 4.176C4.83871 4.55572 4.6718 4.93226 4.51535 5.34623C4.25292 6.08092 4.06696 6.8229 3.9743 7.61088C4.62388 7.56044 5.21412 7.59565 5.82943 7.66639L5.82974 7.66607ZM14.9407 9.13068C15.2307 9.1605 15.4722 8.9946 15.5252 8.7202C15.7245 7.68479 15.7134 6.62083 15.4665 5.58764C15.1885 4.42407 14.4939 3.45496 13.5311 2.76024C12.9796 2.37958 12.4134 2.07346 11.7175 1.85521C12.488 2.98293 12.6115 4.22073 12.5651 5.55052C12.5083 6.69538 12.2989 7.79074 11.9904 8.90292C12.2725 8.9394 12.5134 8.95843 12.7736 8.96541C13.5009 8.98476 14.1946 9.05392 14.9404 9.13068H14.9407ZM5.904 11.0702C6.40951 11.4416 6.94548 11.6307 7.56365 11.6513C9.40925 11.7122 11.1942 10.9296 12.4157 9.49263C11.4332 9.41238 10.5161 9.26582 9.58156 9.04091L7.15619 8.45691C6.04616 8.20916 4.88473 7.9871 3.75249 8.16284L1.93322 9.42507C1.61303 9.64712 1.30585 9.83777 1.00629 10.1144C2.01795 9.83999 3.1559 9.94912 4.13709 10.1978C4.79175 10.3637 5.34899 10.6695 5.904 11.0705V11.0702Z" fill="#6C7278" stroke="#6C7278" stroke-width="0.4"/>
</svg>
