<svg width="17" height="16" viewBox="0 0 17 16" fill="none" xmlns="http://www.w3.org/2000/svg">
<path d="M10.6189 2C10.6243 2.03458 10.6706 2.03362 10.7135 2.02855C11.2577 2.11674 11.6766 2.44887 11.6522 3.05571C13.7523 3.72378 15.444 5.08752 15.9885 7.28554C16.2528 8.35236 16.2579 9.47722 16.0672 10.5558C16.012 10.8676 15.8327 11.1357 15.5696 11.3035C15.2545 11.4681 14.9191 11.4808 14.5729 11.4269C14.0769 11.3498 13.5942 11.3314 13.0887 11.3028C11.9003 12.8023 10.3219 13.7848 8.38649 13.971C7.61791 14.0449 6.80015 13.9948 6.11027 13.6182C5.86243 13.4831 5.64633 13.3308 5.4134 13.1744C4.98215 12.8848 4.53503 12.6618 4.02571 12.5295C3.23047 12.3227 1.72949 12.1203 1.0174 12.5232C0.751792 12.6735 0.43795 12.6526 0.27262 12.3687C0.253897 12.3363 0.23454 12.2945 0.199951 12.2827V11.9347C0.275794 11.8887 0.295151 11.7895 0.373214 11.7282C0.696259 11.4367 1.03485 11.1978 1.39439 10.9469L3.39136 9.55336C3.58144 8.00595 4.07617 6.26567 5.04435 5.032C6.12201 3.71744 7.85528 3.10742 9.52032 2.8806C9.61964 2.29375 9.95824 2.12974 10.4615 2H10.6199H10.6189ZM11.1038 2.88758C11.0216 2.63666 10.7976 2.58274 10.5862 2.56085C10.3898 2.57354 10.1737 2.61129 10.1001 2.82858C10.4596 2.7699 10.7671 2.80669 11.1038 2.88758ZM11.4468 10.6395C11.7099 9.68944 11.8956 8.79488 11.9885 7.85654C12.0488 7.19989 12.0615 6.57814 11.9844 5.93069C11.8518 4.89655 11.4738 3.88747 10.5221 3.35104C9.67899 3.51314 8.95515 3.94298 8.36682 4.56125C7.15302 5.84409 6.57674 7.80166 6.35651 9.53654L8.55277 10.0568C9.51588 10.2849 10.4561 10.5019 11.4468 10.6392V10.6395ZM5.82974 9.46612C5.9497 8.51319 6.15374 7.65066 6.45806 6.79004C6.68242 6.18478 6.9366 5.62616 7.28789 5.08847C7.63314 4.52413 8.06694 4.08097 8.588 3.62512C7.82672 3.77549 7.15112 4.06352 6.5247 4.4518C5.90432 4.83659 5.41848 5.34573 5.06148 5.97605C4.83871 6.35577 4.6718 6.73231 4.51535 7.14628C4.25292 7.88097 4.06696 8.62295 3.9743 9.41093C4.62388 9.36049 5.21412 9.3957 5.82943 9.46644L5.82974 9.46612ZM14.9407 10.9307C15.2307 10.9606 15.4722 10.7946 15.5252 10.5202C15.7245 9.48484 15.7134 8.42088 15.4665 7.38769C15.1885 6.22412 14.4939 5.25501 13.5311 4.56029C12.9796 4.17963 12.4134 3.87351 11.7175 3.65526C12.488 4.78298 12.6115 6.02078 12.5651 7.35057C12.5083 8.49542 12.2989 9.59079 11.9904 10.703C12.2725 10.7394 12.5134 10.7585 12.7736 10.7655C13.5009 10.7848 14.1946 10.854 14.9404 10.9307H14.9407ZM5.904 12.8702C6.40951 13.2417 6.94548 13.4308 7.56365 13.4514C9.40925 13.5123 11.1942 12.7297 12.4157 11.2927C11.4332 11.2124 10.5161 11.0659 9.58156 10.841L7.15619 10.257C6.04616 10.0092 4.88473 9.78715 3.75249 9.96289L1.93322 11.2251C1.61303 11.4472 1.30585 11.6378 1.00629 11.9144C2.01795 11.64 3.1559 11.7492 4.13709 11.9979C4.79175 12.1638 5.34899 12.4696 5.904 12.8705V12.8702Z" fill="#55417C" stroke="#55417C" stroke-width="0.4"/>
</svg>
