<svg width="20" height="20" viewBox="0 0 20 20" fill="none" xmlns="http://www.w3.org/2000/svg">
<path d="M10.2137 5.70324C10.259 5.72358 10.3044 5.74386 10.3497 5.76408C10.4432 5.8058 10.5365 5.84776 10.6298 5.8899C10.8177 5.97458 11.0072 6.05613 11.1967 6.13759C11.2973 6.18088 11.3978 6.22439 11.4984 6.26788C11.5386 6.28526 11.5788 6.30264 11.619 6.32001C11.8011 6.39872 11.9832 6.47748 12.1653 6.55624C12.2666 6.60007 12.368 6.6439 12.4693 6.68772C12.5098 6.70525 12.5504 6.72278 12.5909 6.74031C12.611 6.74898 12.631 6.75766 12.6517 6.7666C12.8341 6.84547 12.8341 6.84547 12.8948 6.87176C12.9354 6.8893 12.976 6.90684 13.0165 6.92438C13.1174 6.96801 13.2183 7.01164 13.3191 7.05529C13.5068 7.13648 13.6944 7.21759 13.8822 7.29841C13.9696 7.33603 14.057 7.3737 14.1444 7.41136C14.1855 7.42907 14.2266 7.44676 14.2677 7.46443C14.3981 7.52041 14.5281 7.57702 14.6579 7.63423C14.6765 7.6424 14.6952 7.65056 14.7144 7.65898C14.7696 7.68321 14.8245 7.70786 14.8793 7.73264C14.8958 7.73983 14.9122 7.74701 14.9292 7.75441C15.0488 7.80934 15.122 7.8731 15.1816 7.98479C15.1843 8.04129 15.1855 8.09714 15.1856 8.15366C15.1857 8.17126 15.1858 8.18886 15.1859 8.20699C15.1863 8.26627 15.1865 8.32555 15.1867 8.38484C15.187 8.42721 15.1872 8.46958 15.1875 8.51195C15.1882 8.62725 15.1887 8.74255 15.1892 8.85786C15.1897 8.97825 15.1904 9.09865 15.1911 9.21905C15.1923 9.44716 15.1934 9.67527 15.1945 9.90338C15.1957 10.163 15.1971 10.4227 15.1985 10.6823C15.2013 11.2165 15.204 11.7507 15.2065 12.285C15.2237 12.2928 15.2409 12.3007 15.2585 12.3088C15.2923 12.3244 15.2923 12.3244 15.3267 12.3403C15.349 12.3506 15.3713 12.3609 15.3943 12.3714C15.6453 12.4951 15.836 12.7283 15.9407 12.9715C16.0309 13.2544 16.024 13.6094 15.8799 13.8742C15.7121 14.1432 15.4864 14.3444 15.1723 14.4555C14.8472 14.5352 14.4819 14.5094 14.184 14.3649C13.9053 14.2052 13.7138 13.9695 13.6076 13.6825C13.5329 13.3839 13.5585 13.0488 13.7245 12.7828C13.8825 12.5597 14.0818 12.3714 14.3586 12.285C14.3668 11.1127 14.375 9.94043 14.3835 8.73264C14.0872 8.86375 13.7909 8.99486 13.4856 9.12994C13.4609 9.13765 13.4363 9.14537 13.4108 9.15331C13.4108 9.17561 13.4108 9.17561 13.4107 9.19835C13.4098 9.5606 13.4083 9.92284 13.4062 10.2851C13.4052 10.4603 13.4044 10.6355 13.4041 10.8106C13.4037 10.9634 13.4031 11.1162 13.402 11.2689C13.4014 11.3497 13.401 11.4305 13.401 11.5114C13.4011 11.6018 13.4003 11.6922 13.3995 11.7826C13.3996 11.8091 13.3997 11.8357 13.3999 11.8631C13.396 12.14 13.276 12.3331 13.0866 12.542C12.2837 13.1999 11.0148 13.3608 9.98303 13.3648C9.93997 13.365 9.93997 13.365 9.89605 13.3652C9.80398 13.3657 9.7119 13.3658 9.61983 13.3658C9.58842 13.3659 9.55701 13.3659 9.52464 13.3659C9.07761 13.3655 8.63992 13.3598 8.19821 13.2899C8.17097 13.2858 8.14373 13.2816 8.11566 13.2774C7.34155 13.1573 6.47885 12.9647 5.95851 12.371C5.86216 12.2445 5.80112 12.111 5.79995 11.9553C5.79971 11.9306 5.79946 11.9059 5.79921 11.8805C5.79907 11.8534 5.79893 11.8264 5.79878 11.7985C5.79853 11.77 5.79828 11.7415 5.79803 11.7121C5.79738 11.634 5.79683 11.5558 5.79633 11.4776C5.79579 11.3959 5.79511 11.3142 5.79444 11.2326C5.79319 11.0779 5.79207 10.9232 5.791 10.7685C5.78976 10.5924 5.78839 10.4163 5.78701 10.2401C5.78417 9.87787 5.78151 9.51559 5.77896 9.15331C5.74504 9.13886 5.74504 9.13886 5.71043 9.12412C5.69537 9.11771 5.6803 9.11129 5.66478 9.10468C5.63076 9.09019 5.59675 9.0757 5.56273 9.06121C5.46869 9.02116 5.37466 8.9811 5.28064 8.94103C5.10641 8.86679 4.93216 8.79262 4.75768 8.71893C4.69157 8.69093 4.6256 8.66264 4.55969 8.63424C4.52752 8.62046 4.49529 8.60682 4.463 8.59329C4.41371 8.57261 4.36466 8.55148 4.31564 8.53025C4.2881 8.51853 4.26055 8.50681 4.23217 8.49473C4.13088 8.43679 4.0619 8.36593 4.00817 8.26523C3.99574 8.13775 3.99043 8.02288 4.04558 7.90445C4.1764 7.7788 4.34764 7.70586 4.51643 7.63396C4.53619 7.62541 4.55595 7.61687 4.5763 7.60807C4.64095 7.58016 4.70568 7.55242 4.77042 7.52468C4.81621 7.50494 4.862 7.4852 4.90778 7.46544C5.00218 7.42471 5.09662 7.38405 5.19109 7.34344C5.32066 7.28773 5.45012 7.2318 5.57953 7.17577C5.59946 7.16714 5.61939 7.15851 5.63993 7.14962C5.67986 7.13233 5.71979 7.11504 5.75972 7.09775C5.86022 7.05424 5.96076 7.0108 6.0613 6.96735C6.28362 6.87126 6.50592 6.77513 6.72821 6.67898C6.82955 6.63515 6.93089 6.59133 7.03223 6.5475C7.07276 6.52997 7.11329 6.51244 7.15382 6.49492C7.39699 6.38975 7.39699 6.38975 7.45777 6.36346C7.49834 6.34592 7.5389 6.32837 7.57947 6.31083C7.68021 6.26726 7.78095 6.22369 7.88169 6.18013C8.07102 6.09826 8.26035 6.01636 8.44964 5.9344C8.53872 5.89583 8.6278 5.85728 8.71688 5.81872C8.7592 5.8004 8.80152 5.78208 8.84383 5.76374C8.86391 5.75504 8.88399 5.74635 8.90468 5.73738C8.92408 5.72897 8.94348 5.72056 8.96347 5.7119C9.00078 5.69578 9.03813 5.67973 9.07551 5.66376C9.14698 5.63322 9.21767 5.60251 9.28734 5.56847C9.62273 5.40775 9.90674 5.56199 10.2137 5.70324ZM9.44047 6.36647C9.42442 6.37329 9.40837 6.38011 9.39183 6.38714C9.33842 6.40987 9.28505 6.43267 9.23169 6.45548C9.21328 6.46333 9.19486 6.47118 9.17589 6.47927C8.89077 6.60088 8.60678 6.72465 8.32338 6.84976C8.05348 6.96886 7.78234 7.08521 7.51052 7.20041C7.24017 7.31505 6.97115 7.43213 6.70272 7.55067C6.39984 7.68435 6.09543 7.81474 5.79036 7.94398C5.77361 7.95108 5.75685 7.95818 5.73959 7.9655C5.69433 7.98468 5.64905 8.00383 5.60376 8.02297C5.54512 8.0482 5.48723 8.07411 5.42979 8.10164C5.42979 8.11706 5.42979 8.13249 5.42979 8.14838C5.84935 8.33466 6.26934 8.51985 6.69241 8.69905C6.96256 8.81348 7.23168 8.92973 7.49987 9.04815C7.78598 9.17446 8.07319 9.29825 8.36141 9.42028C8.55747 9.50332 8.75304 9.58722 8.9477 9.67312C8.97534 9.68532 8.97534 9.68532 9.00355 9.69777C9.09224 9.73693 9.18085 9.77622 9.26939 9.81567C9.30115 9.82975 9.33291 9.84382 9.36467 9.8579C9.39235 9.87023 9.42002 9.88256 9.44854 9.89527C9.48394 9.90976 9.48394 9.90976 9.52006 9.92454C9.53585 9.93137 9.55164 9.93819 9.5679 9.94523C9.65695 9.94983 9.73013 9.90679 9.80795 9.87049C9.82661 9.86208 9.84526 9.85367 9.86447 9.845C9.90481 9.82677 9.94508 9.80841 9.9853 9.78995C10.0928 9.74063 10.2007 9.69221 10.3085 9.64364C10.3304 9.63374 10.3523 9.62385 10.3749 9.61365C10.578 9.52203 10.7829 9.43429 10.9884 9.34758C11.2566 9.23423 11.5236 9.1189 11.7897 9.0014C12.0769 8.8746 12.3652 8.75036 12.6545 8.62771C13.0244 8.47081 13.3924 8.3101 13.76 8.14838C13.76 8.13296 13.76 8.11753 13.76 8.10164C13.3404 7.91536 12.9204 7.73017 12.4974 7.55097C12.2105 7.42947 11.925 7.30566 11.6402 7.17993C11.3718 7.06148 11.1022 6.9458 10.8318 6.83133C10.5135 6.69649 10.1973 6.55762 9.88167 6.41723C9.86427 6.40951 9.84687 6.40179 9.82894 6.39383C9.79625 6.37932 9.76358 6.36477 9.73093 6.35017C9.59687 6.29068 9.57771 6.30807 9.44047 6.36647ZM6.602 9.50387C6.59969 9.80921 6.59792 10.1145 6.59683 10.4199C6.59631 10.5617 6.59561 10.7035 6.59448 10.8452C6.59339 10.9821 6.5928 11.1189 6.59254 11.2557C6.59235 11.3079 6.59199 11.3601 6.59145 11.4123C6.59073 11.4855 6.59063 11.5586 6.59068 11.6317C6.59032 11.6533 6.58996 11.6748 6.58959 11.6971C6.59048 11.8269 6.60861 11.9018 6.70176 12.0045C7.60826 12.6962 9.29706 12.6743 10.3879 12.5807C11.0559 12.5163 11.8493 12.4272 12.4132 12.0513C12.4379 12.0349 12.4626 12.0185 12.488 12.0016C12.5514 11.9459 12.5835 11.8976 12.5939 11.8159C12.5939 11.7986 12.5938 11.7813 12.5938 11.7634C12.5938 11.7434 12.5939 11.7235 12.594 11.7029C12.5938 11.6811 12.5936 11.6594 12.5934 11.637C12.5934 11.614 12.5934 11.5909 12.5935 11.5672C12.5934 11.4911 12.593 11.4149 12.5926 11.3388C12.5926 11.286 12.5925 11.2332 12.5924 11.1805C12.5922 11.0415 12.5917 10.9026 12.5912 10.7637C12.5907 10.6219 12.5905 10.4801 12.5902 10.3384C12.5897 10.0602 12.5888 9.78203 12.5878 9.50387C12.4135 9.57103 12.2405 9.63966 12.0698 9.71448C12.0501 9.72303 12.0305 9.73158 12.0103 9.74039C11.9683 9.75866 11.9264 9.77696 11.8845 9.79528C11.7947 9.83448 11.705 9.87355 11.6152 9.91264C11.5686 9.93294 11.522 9.95325 11.4753 9.97356C11.3176 10.0423 11.1598 10.1109 11.0019 10.1792C10.9808 10.1884 10.9596 10.1976 10.9378 10.207C10.8344 10.2518 10.7309 10.2965 10.6273 10.341C10.5879 10.358 10.5485 10.3749 10.5091 10.3919C10.4903 10.4 10.4715 10.4081 10.4521 10.4164C10.3411 10.4643 10.2308 10.5134 10.121 10.5637C10.0961 10.5749 10.0711 10.5861 10.0454 10.5976C10.0022 10.6171 9.95913 10.637 9.91637 10.6575C9.74605 10.7334 9.57794 10.7603 9.39496 10.7035C9.25154 10.6512 9.1141 10.5869 8.97605 10.5234C8.93085 10.5031 8.88563 10.4829 8.84038 10.4627C8.74703 10.4211 8.6538 10.3791 8.56066 10.3371C8.36956 10.2509 8.17697 10.1679 7.98427 10.0849C7.92414 10.059 7.86403 10.0331 7.80394 10.0071C7.54768 9.89631 7.29118 9.78604 7.03437 9.6764C6.99786 9.66081 6.96135 9.64521 6.92484 9.62959C6.87499 9.60827 6.82511 9.58701 6.77522 9.56577C6.74706 9.55376 6.7189 9.54175 6.68989 9.52937C6.63456 9.50232 6.63456 9.50232 6.602 9.50387ZM14.449 13.1643C14.394 13.2713 14.3886 13.3601 14.4084 13.4769C14.4665 13.5899 14.5372 13.6561 14.6579 13.7106C14.7824 13.7292 14.8773 13.7241 14.9914 13.6726C15.0808 13.5968 15.1466 13.5361 15.1662 13.4208C15.1726 13.288 15.1551 13.2046 15.0569 13.1029C14.9484 13.0109 14.8594 12.9945 14.7177 13.0005C14.5946 13.0189 14.5298 13.0805 14.449 13.1643Z" fill="#55417C"/>
</svg>
