<svg width="24" height="24" viewBox="0 0 24 24" fill="none" xmlns="http://www.w3.org/2000/svg">
<path d="M8.38832 23.0407V19.2768C8.38828 18.1793 9.27585 17.2923 10.3746 17.2845H13.8168C14.9225 17.2845 15.8175 18.1764 15.8175 19.2768V19.2768V23.0279C15.8175 23.9298 16.5451 24.6602 17.4506 24.6666H19.7212C21.8463 24.6698 23.5892 23.0952 23.6 20.9717V20.9717V9.86878C23.6 8.75926 23.0961 8.71482 22.3394 7.97134L14.4788 1.49902C12.9434 0.166741 10.5966 0.205394 9.10052 1.59385L1.36135 7.97134C0.596988 8.71092 0.0821533 9.75926 0 10.8688V20.9589C0 23.0952 1.75359 24.6666 3.87824 24.6666H6.11765C6.59891 24.6698 7.06198 24.5 7.40691 24.1952C7.75184 23.8904 7.95056 23.4756 7.95056 23.0407H8.38832Z" fill="#55417C"/>
</svg>
