<svg width="28" height="28" viewBox="0 0 28 28" fill="none" xmlns="http://www.w3.org/2000/svg">
<path d="M23.7981 4.0002C22.0217 2.25955 19.7835 0.988404 17.2843 0.387617V8.77947L23.7981 4.0002Z" fill="#012169"/>
<path d="M27.4151 9.98286C27.1729 9.17274 26.8593 8.39347 26.4816 7.65232L23.3052 9.98286H27.4151Z" fill="#012169"/>
<path d="M10.7157 0.387617C8.21651 0.988404 5.9783 2.25955 4.20194 4.0002L10.7157 8.77947V0.387617Z" fill="#012169"/>
<path d="M4.20194 23.9994C5.9783 25.7402 8.21651 27.0112 10.7159 27.6122V19.2201L4.20194 23.9994Z" fill="#012169"/>
<path d="M26.4816 20.3471C26.8593 19.6059 27.1729 18.8267 27.4151 18.0165H23.3054L26.4818 20.3471H26.4816Z" fill="#012169"/>
<path d="M0.584863 18.0165C0.827076 18.8267 1.14068 19.6059 1.51842 20.3471L4.69483 18.0165H0.584863Z" fill="#012169"/>
<path d="M1.51842 7.65232C1.14068 8.39347 0.827076 9.17274 0.584863 9.98286H4.69483L1.51842 7.65232Z" fill="#012169"/>
<path d="M17.2843 27.612C19.7835 27.0112 22.0219 25.74 23.7983 23.9992L17.2843 19.2197V27.612Z" fill="#012169"/>
<path d="M17.2845 9.98286V9.71665L24.3281 4.54855C24.1564 4.361 23.9796 4.17808 23.7981 4.0002L17.2843 8.77947V0.387617C16.8537 0.284159 16.4155 0.200464 15.9706 0.137743V11.0412H27.6866C27.6096 10.6833 27.519 10.3303 27.4151 9.98306H23.3052L26.4816 7.65252C26.1355 6.97348 25.7358 6.32651 25.2876 5.71705L19.4747 9.98306H17.2843L17.2845 9.98286Z" fill="white"/>
<path d="M0.313405 16.9584C0.390446 17.3163 0.480999 17.6693 0.584863 18.0165H4.69463L1.51822 20.3471C1.8641 21.0259 2.26382 21.6727 2.71175 22.2821L8.52589 18.0165H10.7157V18.2836L3.67233 23.4515C3.84396 23.6388 4.02063 23.8217 4.20194 23.9996L10.7159 19.2203V27.6124C11.1465 27.7158 11.5845 27.7995 12.0296 27.8623V16.9586H0.313405V16.9584Z" fill="white"/>
<path d="M15.9706 27.8619C16.4155 27.7991 16.8537 27.7154 17.2843 27.612V19.2199L23.7983 23.9994C24.3394 23.469 24.8377 22.8952 25.2874 22.2834L19.4719 18.0163H22.0255L26.1165 21.0178C26.2442 20.798 26.366 20.5744 26.4818 20.3471L23.3054 18.0165H27.4151C27.519 17.6693 27.6096 17.3163 27.6866 16.9584H15.9706V27.8621V27.8619Z" fill="white"/>
<path d="M12.0294 0.137743C11.5845 0.200464 11.1463 0.284159 10.7157 0.387617V8.77947L4.20194 4.0002C3.66063 4.5306 3.16249 5.10457 2.71275 5.71645L8.5275 9.98286H5.97427L1.88386 6.98155C1.7562 7.20137 1.63439 7.42503 1.51863 7.65232L4.69504 9.98286H0.585064C0.4812 10.3301 0.390648 10.6831 0.313607 11.041H12.0296V0.137743H12.0294Z" fill="white"/>
<path d="M15.9706 0.137743C15.3268 0.0469898 14.669 0 14 0C13.331 0 12.6732 0.0469898 12.0294 0.137743V11.0412H0.313405C0.1083 11.995 0 12.9848 0 14C0 15.0152 0.108098 16.0048 0.313405 16.9586H12.0294V27.8623C12.6732 27.953 13.3312 28 14 28C14.6688 28 15.3266 27.953 15.9706 27.8623V16.9586H27.6866C27.8917 16.0048 28 15.015 28 14C28 12.985 27.8917 11.9952 27.6866 11.0412H15.9706V0.137743Z" fill="#C8102E"/>
<path d="M19.4717 18.0163L25.2872 22.2834C25.5855 21.8776 25.8624 21.4553 26.1163 21.0178L22.0253 18.0163H19.4717Z" fill="#C8102E"/>
<path d="M8.5275 9.98286L2.71275 5.71645C2.41447 6.12201 2.13777 6.54432 1.88386 6.98175L5.97427 9.98306H8.5275V9.98286Z" fill="#C8102E"/>
<path d="M17.2845 9.71665V9.98286H19.4749L25.2878 5.71685C24.9888 5.31007 24.6685 4.92004 24.3283 4.54855L17.2847 9.71665H17.2845Z" fill="#C8102E"/>
<path d="M10.7155 18.0163H8.52568L2.71154 22.2819C3.01083 22.6889 3.3313 23.0794 3.67193 23.4513L10.7153 18.2834V18.0163H10.7155Z" fill="#C8102E"/>
</svg>
