<svg width="40" height="40" viewBox="0 0 40 40" fill="none" xmlns="http://www.w3.org/2000/svg">
<path d="M0 20C0 8.95431 8.95431 0 20 0C31.0457 0 40 8.95431 40 20C40 31.0457 31.0457 40 20 40C8.95431 40 0 31.0457 0 20Z" fill="#EC221F"/>
<path d="M21.2002 12.3026C21.237 12.3221 21.237 12.3221 21.2746 12.342C21.8392 12.6648 22.2348 13.243 22.4144 13.8769C22.5628 14.4493 22.4934 15.0188 22.3931 15.5933C22.3823 15.6576 22.3715 15.7219 22.3608 15.7862C22.3319 15.9588 22.3023 16.1312 22.2726 16.3037C22.2414 16.4853 22.2109 16.6671 22.1802 16.8488C22.1287 17.1538 22.0768 17.4586 22.0246 17.7634C21.9512 18.1917 21.8786 18.6201 21.8062 19.0486C21.7557 19.3473 21.7049 19.6459 21.6542 19.9446C21.6419 20.0165 21.6297 20.0884 21.6175 20.1603C21.5827 20.3654 21.5478 20.5705 21.5126 20.7755C21.5021 20.8372 21.4915 20.899 21.4811 20.9607C21.4312 21.2545 21.3793 21.5476 21.3183 21.8392C21.3137 21.8617 21.3091 21.8842 21.3043 21.9074C21.2303 22.2516 21.0798 22.5291 20.8092 22.746C20.4528 22.9778 20.0773 23.0542 19.6664 22.9584C19.3215 22.859 19.0641 22.6967 18.8618 22.3838C18.7691 22.2098 18.7159 22.0329 18.6762 21.8392C18.6711 21.8149 18.666 21.7906 18.6608 21.7655C18.5996 21.4684 18.5488 21.1693 18.498 20.8702C18.4871 20.806 18.4761 20.7419 18.4651 20.6778C18.4295 20.4694 18.3941 20.2611 18.3587 20.0527C18.3464 19.9804 18.3341 19.9081 18.3218 19.8358C18.2707 19.5348 18.2196 19.2339 18.1687 18.9329C18.0962 18.5042 18.0234 18.0756 17.95 17.647C17.8981 17.3441 17.8467 17.0411 17.7956 16.738C17.7652 16.5577 17.7346 16.3774 17.7035 16.1972C17.6743 16.0276 17.6456 15.858 17.6173 15.6882C17.6069 15.6265 17.5964 15.5647 17.5856 15.5031C17.4434 14.6872 17.4387 13.8929 17.8827 13.1696C18.2826 12.584 18.8197 12.1714 19.511 12.0366C20.0938 11.9475 20.6783 12.0156 21.2002 12.3026Z" fill="white"/>
<path d="M21.3806 24.6164C21.7461 25.0155 21.9349 25.5287 21.9284 26.0769C21.8908 26.6489 21.6788 27.145 21.2794 27.5416C20.7989 27.9517 20.2439 28.0434 19.6364 27.9833C19.1546 27.9027 18.7145 27.6248 18.4277 27.2152C18.1463 26.7811 18.0117 26.244 18.0885 25.7241C18.1597 25.355 18.2708 25.0702 18.4936 24.7723C18.5182 24.739 18.5182 24.739 18.5434 24.705C18.8497 24.3162 19.2844 24.1295 19.7473 24.0319C20.3619 23.9706 20.9324 24.1804 21.3806 24.6164Z" fill="white"/>
</svg>
