<svg width="20" height="20" viewBox="0 0 20 20" fill="none" xmlns="http://www.w3.org/2000/svg">
<path d="M14.1892 12.7907V7.2093C14.1892 6.09003 14.0439 5.5582 13.7674 5.27271C13.4909 4.98723 12.9759 4.83721 11.8919 4.83721H8.10811C7.02413 4.83721 6.50906 4.98723 6.23258 5.27271C5.9561 5.5582 5.81081 6.09003 5.81081 7.2093V13.3488C5.81081 13.58 5.6293 13.7674 5.40541 13.7674C5.18151 13.7674 5 13.58 5 13.3488V7.2093C5 6.09601 5.12498 5.2325 5.65931 4.68078C6.19364 4.12905 7.02992 4 8.10811 4H11.8919C12.9701 4 13.8064 4.12905 14.3407 4.68078C14.875 5.2325 15 6.09601 15 7.2093V12.7907C15 12.8664 15.0003 12.9595 14.9937 13.0551C14.9777 13.2856 14.7836 13.4591 14.5603 13.4426C14.337 13.4261 14.169 13.2257 14.185 12.9951C14.1892 12.9344 14.1892 12.8712 14.1892 12.7907Z" fill="#55417C"/>
<path d="M5 13.6279V13.2649C5.00011 12.1576 5.87335 11.2559 6.94573 11.2558H14.5946C14.8185 11.2558 15 11.4432 15 11.6744V13.6279C15 14.9363 13.9698 16 12.7027 16H7.2973C6.03015 16 5 14.9363 5 13.6279ZM5.81081 13.6279C5.81081 14.4739 6.47795 15.1628 7.2973 15.1628H12.7027C13.522 15.1628 14.1892 14.4739 14.1892 13.6279V12.093H6.94573C6.32115 12.0931 5.81093 12.62 5.81081 13.2649V13.6279Z" fill="#55417C"/>
<path d="M12.1622 6.7907C12.3861 6.7907 12.5676 6.97811 12.5676 7.2093C12.5676 7.44049 12.3861 7.62791 12.1622 7.62791H7.83784C7.61394 7.62791 7.43243 7.44049 7.43243 7.2093C7.43243 6.97811 7.61394 6.7907 7.83784 6.7907H12.1622Z" fill="#55417C"/>
<path d="M10.5405 8.74419C10.7644 8.74419 10.9459 8.9316 10.9459 9.16279C10.9459 9.39398 10.7644 9.5814 10.5405 9.5814H7.83784C7.61394 9.5814 7.43243 9.39398 7.43243 9.16279C7.43243 8.9316 7.61394 8.74419 7.83784 8.74419H10.5405Z" fill="#55417C"/>
</svg>
