<svg width="17" height="16" viewBox="0 0 17 16" fill="none" xmlns="http://www.w3.org/2000/svg">
<path d="M15.9377 0C16.226 0.100814 16.3992 0.273951 16.5 0.562304V6.37445C16.3397 6.90294 15.7138 7.1243 15.2658 6.78053C15.1847 6.71822 15 6.44834 15 6.3588V2.5933L10.3587 7.21728C9.62886 7.78021 8.71494 6.87664 9.28226 6.14089L13.9066 1.5H10.1411C10.0515 1.5 9.78165 1.31528 9.71934 1.23419C9.37557 0.786475 9.59692 0.160301 10.1254 0H15.9377Z" fill="white"/>
<path d="M2.00097 13.4051L6.64226 8.78115C7.3821 8.21165 8.28819 9.11772 7.71868 9.85755L3.0946 14.4987H6.86017C6.87927 14.4987 7.10282 14.6065 7.13632 14.629C7.65731 14.9784 7.48386 15.876 6.85297 15.9912L1.1719 16C0.803074 15.9665 0.533501 15.6972 0.5 15.3281L0.508767 9.64715C0.623985 9.01628 1.52162 8.84283 1.87104 9.36381C1.89358 9.39731 2.00128 9.62054 2.00128 9.63995V13.4054L2.00097 13.4051Z" fill="white"/>
</svg>
