
<svg width="37" height="36" viewBox="0 0 37 36" fill="none" xmlns="http://www.w3.org/2000/svg">
<path fill-rule="evenodd" clip-rule="evenodd" d="M32.6021 0H4.395C3.22937 0 2.11149 0.456897 1.28726 1.27018C0.463043 2.08346 0 3.1865 0 4.33665V27.2457C0.464355 27.2216 0.926273 27.3264 1.33334 27.5481C1.74041 27.7699 2.07633 28.0999 2.30298 28.5005C3.06657 28.1298 3.91558 27.9639 4.76472 28.0195C5.61385 28.0751 6.4332 28.3503 7.14046 28.8173C7.84771 29.2843 8.41796 29.9267 8.79391 30.68C9.16986 31.4333 9.33827 32.271 9.28223 33.1089C9.64496 33.1291 10 33.2202 10.3268 33.3769C10.6535 33.5336 10.9454 33.7528 11.1856 34.0218C11.4258 34.2908 11.6094 34.6042 11.7257 34.9438C11.8421 35.2834 11.889 35.6424 11.8636 36H32.605C33.7706 36 34.8885 35.5431 35.7127 34.7298C36.537 33.9165 37 32.8135 37 31.6633V4.33665C37 3.76691 36.8862 3.20276 36.6652 2.67642C36.4441 2.15009 36.1201 1.67189 35.7117 1.26915C35.3033 0.866421 34.8184 0.547046 34.2849 0.329279C33.7513 0.111512 33.1795 -0.000378863 32.6021 0ZM26.0476 27.3643H21.5355V19.8127H15.6432V27.3643H11.134V8.84386H15.6462V15.7102H21.5355V8.84386H26.0476V27.3643Z" fill="url(#paint0_linear_563_2868)"/>
<path d="M26.0476 27.3643H21.5355V19.8127H15.6432V27.3643H11.134V8.84386H15.6462V15.7102H21.5355V8.84386H26.0476V27.3643Z" fill="white"/>
<defs>
<linearGradient id="paint0_linear_563_2868" x1="10.4454" y1="-0.517506" x2="28.5109" y2="35.8816" gradientUnits="userSpaceOnUse">
<stop stop-color="#35264C"/>
<stop offset="1" stop-color="#563D7C"/>
</linearGradient>
</defs>
</svg>
