<svg width="20" height="20" viewBox="0 0 20 20" fill="none" xmlns="http://www.w3.org/2000/svg">
<path d="M4 14.1061V6.7986C4 6.75193 4.0036 6.70885 4.01081 6.66936C4.01801 6.62987 4.03602 6.58679 4.06484 6.54012C4.22692 6.26369 4.46285 6.0088 4.77262 5.77544C5.086 5.54209 5.4534 5.35541 5.87483 5.2154C6.29987 5.0718 6.76092 5 7.25799 5C7.84511 5 8.38001 5.10591 8.86267 5.31772C9.34894 5.52594 9.72895 5.79698 10.0027 6.13086C10.2729 5.79698 10.6493 5.52594 11.1319 5.31772C11.6182 5.10591 12.1567 5 12.7474 5C13.2409 5 13.6983 5.0718 14.1198 5.2154C14.5448 5.35541 14.914 5.54209 15.2274 5.77544C15.5407 6.0088 15.7767 6.26369 15.9352 6.54012C15.964 6.58679 15.982 6.62987 15.9892 6.66936C15.9964 6.70885 16 6.75193 16 6.7986V14.1061C16 14.3287 15.9388 14.4866 15.8163 14.58C15.6938 14.6733 15.5534 14.72 15.3949 14.72C15.3012 14.72 15.2112 14.6966 15.1247 14.65C15.0383 14.6069 14.9446 14.553 14.8438 14.4884C14.5448 14.2874 14.217 14.1276 13.8604 14.0092C13.5074 13.8943 13.1436 13.8386 12.769 13.8422C12.3764 13.8458 11.9928 13.9194 11.6182 14.063C11.2472 14.2066 10.9104 14.4238 10.6078 14.7146C10.4926 14.8223 10.3863 14.8959 10.2891 14.9354C10.1954 14.9785 10.1 15 10.0027 15C9.90185 15 9.80459 14.9785 9.71094 14.9354C9.61729 14.8959 9.51103 14.8223 9.39217 14.7146C9.0896 14.4238 8.75101 14.2066 8.37641 14.063C8.0054 13.9194 7.62539 13.8458 7.23638 13.8422C6.85817 13.8386 6.49077 13.8943 6.13417 14.0092C5.78118 14.1276 5.4552 14.2874 5.15624 14.4884C5.05538 14.553 4.96173 14.6069 4.87528 14.65C4.78883 14.6966 4.70059 14.72 4.61054 14.72C4.44845 14.72 4.30617 14.6733 4.1837 14.58C4.06123 14.4866 4 14.3287 4 14.1061ZM4.86988 13.6484C5.15443 13.4437 5.50563 13.2804 5.92346 13.1583C6.34129 13.0363 6.78613 12.9752 7.25799 12.9752C7.55696 12.9752 7.84872 13.0093 8.13327 13.0775C8.41783 13.1422 8.68077 13.2319 8.92211 13.3468C9.16704 13.4617 9.38136 13.5927 9.56506 13.7399V6.95477C9.37416 6.62448 9.06979 6.36062 8.65196 6.16317C8.23413 5.96572 7.76947 5.86699 7.25799 5.86699C6.92301 5.86699 6.60063 5.91186 6.29086 6.00162C5.98469 6.08778 5.70734 6.20984 5.4588 6.3678C5.21027 6.52576 5.01396 6.71064 4.86988 6.92246V13.6484ZM10.4349 13.7399C10.6186 13.5927 10.833 13.4617 11.0779 13.3468C11.3228 13.2319 11.5858 13.1422 11.8667 13.0775C12.1513 13.0093 12.4448 12.9752 12.7474 12.9752C13.2157 12.9752 13.6587 13.0363 14.0765 13.1583C14.4944 13.2804 14.8456 13.4437 15.1301 13.6484V6.92246C14.986 6.71064 14.7897 6.52576 14.5412 6.3678C14.2927 6.20984 14.0135 6.08778 13.7037 6.00162C13.3976 5.91186 13.0788 5.86699 12.7474 5.86699C12.2323 5.86699 11.7659 5.96572 11.348 6.16317C10.9302 6.36062 10.6258 6.62448 10.4349 6.95477V13.7399Z" fill="#55417C"/>
</svg>
