<svg width="13" height="14" viewBox="0 0 13 14" fill="none" xmlns="http://www.w3.org/2000/svg">
<path d="M4.42916 12.5214V10.4768C4.42914 9.95873 4.85045 9.5378 5.37229 9.53455H7.28841C7.81258 9.53455 8.23751 9.95642 8.23751 10.4768V10.4768V12.5155C8.2375 12.9649 8.60268 13.3301 9.05529 13.3333H10.3626C10.9731 13.3349 11.5592 13.0952 11.9914 12.6671C12.4237 12.2391 12.6667 11.6578 12.6667 11.0517V5.2439C12.6667 4.75426 12.448 4.28981 12.0697 3.97567L7.62865 0.449512C6.85234 -0.167252 5.74358 -0.147328 4.99026 0.496923L0.644675 3.97567C0.248494 4.28055 0.0117015 4.74637 0 5.2439V11.0458C0 12.3091 1.03159 13.3333 2.30412 13.3333H3.58153C3.79945 13.3349 4.00899 13.25 4.16365 13.0976C4.31831 12.9452 4.40528 12.7378 4.40528 12.5214H4.42916Z" fill="#55417C"/>
</svg>
