<svg width="24" height="24" viewBox="0 0 24 24" fill="none" xmlns="http://www.w3.org/2000/svg">
<g clip-path="url(#clip0_2711_10753)">
<path d="M20.7318 18.8462C20.1418 17.9628 19.2458 17.4748 18.4046 17.1575C17.9825 16.9984 17.5693 16.8815 17.2059 16.7821C16.8437 16.6833 16.5274 16.6 16.3156 16.5204C15.9451 16.3825 15.5526 16.204 15.2795 16.012C15.1427 15.9167 15.0374 15.8186 14.9767 15.7351C14.9147 15.6495 14.898 15.5905 14.898 15.5388C14.898 15.1818 14.898 14.7364 14.898 14.149C15.3724 13.6209 16.0541 12.8026 16.3337 11.5057C16.4318 11.4615 16.5286 11.4118 16.6216 11.3466C16.854 11.1865 17.0508 10.9541 17.2174 10.6378C17.3859 10.3202 17.5344 9.91412 17.6932 9.35861C17.7732 9.07684 17.8107 8.83248 17.8107 8.61428C17.8113 8.3635 17.759 8.14529 17.6642 7.96843C17.5396 7.73378 17.3484 7.594 17.1774 7.51656C17.2426 7.19153 17.2859 6.86195 17.3149 6.53275C17.3523 6.48175 17.3782 6.4217 17.3782 6.35781V4.04406C17.3782 3.96564 17.3466 3.88909 17.2911 3.83359C17.2549 3.79778 17.209 3.77612 17.1607 3.76257C16.8572 2.2959 16.2272 1.19134 15.4945 1.06904C12.4094 -1.35468 10.4263 1.17943 7.34181 0.628466C6.84859 1.44962 6.66395 2.63743 6.62331 3.80457C6.60911 3.81461 6.59232 3.82103 6.58004 3.83364C6.52454 3.88914 6.4929 3.96564 6.4929 4.04411V6.35776C6.4929 6.43586 6.52454 6.51268 6.58004 6.56823C6.62654 6.61468 6.68982 6.64023 6.75498 6.64829C6.79886 7.024 6.84217 7.32161 6.87053 7.4972C6.81503 7.51848 6.75887 7.543 6.69882 7.57951C6.56518 7.66215 6.42967 7.79125 6.3354 7.96843C6.24053 8.14534 6.18882 8.36354 6.18953 8.61465C6.18953 8.83253 6.22632 9.07717 6.307 9.35865C6.51934 10.0985 6.71111 10.5762 6.95964 10.9264C7.08357 11.1007 7.22434 11.2404 7.37795 11.3466C7.47156 11.4118 7.5684 11.4616 7.66586 11.5058C7.94598 12.8027 8.62773 13.6209 9.1022 14.149C9.1022 14.7364 9.1022 15.1819 9.1022 15.5388C9.1022 15.5828 9.08476 15.646 9.01698 15.7364C8.9169 15.8706 8.71032 16.0333 8.46503 16.1711C8.21973 16.3106 7.93759 16.431 7.69103 16.5181C7.40181 16.6208 6.93512 16.7273 6.41284 16.8774C5.62717 17.1043 4.69956 17.4316 3.94361 18.079C3.56725 18.4031 3.23607 18.8098 3.00301 19.3153C2.76995 19.8204 2.63636 20.4205 2.63696 21.1232C2.63696 21.2862 2.64409 21.4547 2.65829 21.6289C2.66926 21.7509 2.71572 21.8504 2.76995 21.9324C2.87453 22.0847 3.01201 22.1983 3.18507 22.3149C3.48718 22.515 3.90615 22.7106 4.44259 22.9026C6.04815 23.4752 8.70648 23.9994 12.0001 24C14.6759 24 16.9347 23.6527 18.5473 23.2163C19.3542 22.9974 19.9978 22.7583 20.4633 22.5191C20.6964 22.3983 20.8848 22.2796 21.0346 22.1492C21.1089 22.0833 21.1747 22.0142 21.2302 21.9323C21.2844 21.8502 21.3309 21.7509 21.3419 21.6288C21.3561 21.4546 21.3632 21.2867 21.3632 21.124C21.3645 20.188 21.1237 19.4333 20.7318 18.8462ZM7.08747 4.34134H16.7837V6.06011H7.08747V4.34134ZM8.33593 11.1787L8.29914 10.9705L8.10029 10.8995C7.97378 10.8543 7.87759 10.8081 7.79364 10.7497C7.66904 10.6619 7.55607 10.5422 7.4244 10.2969C7.29465 10.0528 7.15651 9.68809 7.00609 9.15906C6.94023 8.92764 6.91637 8.74815 6.91637 8.61451C6.91703 8.45926 6.94609 8.36856 6.97703 8.31142C7.02287 8.22817 7.07837 8.19268 7.15004 8.1639C7.20751 8.14197 7.26751 8.13615 7.29207 8.13484L7.59034 8.17201C7.88729 8.58742 8.11262 9.1119 8.11262 9.1119V6.79825C8.11262 6.79825 8.34503 6.74434 8.70132 6.65528H15.8508C15.9038 6.67595 15.9354 6.68786 15.9354 6.68786L16.1555 8.56093C16.1555 8.56093 16.4615 8.35661 16.734 8.13747C16.7798 8.14262 16.8592 8.15875 16.9167 8.19681C16.9586 8.22329 16.9922 8.25428 17.0232 8.31137C17.0536 8.36851 17.0832 8.45922 17.0839 8.61414C17.0839 8.74811 17.06 8.92759 16.9942 9.15901C16.7934 9.8649 16.614 10.2758 16.4487 10.5037C16.3667 10.6189 16.2905 10.6909 16.2066 10.7497C16.1227 10.8081 16.0259 10.8542 15.8994 10.8994L15.7005 10.9705L15.6637 11.1786C15.4313 12.4814 14.76 13.2144 14.2642 13.7666L14.1706 13.8703V14.01C14.1706 14.671 14.1706 15.153 14.1706 15.5387C14.1706 15.7782 14.2635 15.9938 14.3913 16.1659C14.5391 16.3647 14.7322 16.5235 14.9452 16.6626C14.7205 16.8886 14.4249 17.0774 14.0517 17.221C13.5579 17.4115 12.9324 17.5183 12.1893 17.518C11.4463 17.5183 10.8201 17.4115 10.3269 17.221C9.86148 17.0419 9.51995 16.7905 9.28365 16.4867C9.39859 16.3928 9.50701 16.2927 9.59612 16.1759C9.72784 16.0028 9.82918 15.786 9.82984 15.5387C9.82984 15.153 9.82984 14.6711 9.82984 14.01V13.8706L9.73623 13.7666C9.24039 13.2144 8.569 12.4814 8.33593 11.1787ZM20.6182 21.5353L20.5866 21.5727C20.533 21.627 20.4252 21.7083 20.2728 21.7951C19.9869 21.9607 19.5473 22.146 18.9869 22.3267V21.1208H18.3917V22.5036C18.0457 22.5984 17.6693 22.6899 17.2587 22.7734C15.8366 23.0646 14.0439 23.2731 12.0001 23.2731C9.45404 23.2731 7.30112 22.9484 5.76601 22.5456V21.1208H5.17084V22.3777C4.62339 22.2089 4.18182 22.0337 3.87001 21.8726C3.67182 21.7709 3.52595 21.6741 3.44528 21.6024C3.41101 21.5727 3.3917 21.5501 3.382 21.5369C3.37037 21.3932 3.3639 21.2548 3.3639 21.1231C3.36522 20.3068 3.56467 19.711 3.87325 19.2436C4.33417 18.5448 5.07461 18.1174 5.848 17.8262C6.2334 17.6807 6.62331 17.5703 6.98097 17.4748C7.33923 17.3783 7.66332 17.2985 7.93318 17.2036C8.203 17.1081 8.5045 16.9803 8.78982 16.8211C9.10422 17.2391 9.55417 17.5619 10.1132 17.7765C10.6935 17.9996 11.3901 18.1128 12.1893 18.1132C12.9885 18.1128 13.685 17.9995 14.2654 17.7765C14.7631 17.5851 15.1711 17.3053 15.4771 16.9518C15.672 17.0441 15.869 17.1297 16.0607 17.2014C16.4209 17.335 16.8798 17.4402 17.3814 17.5864C18.1329 17.8033 18.9624 18.1087 19.5808 18.639C19.8907 18.9043 20.1502 19.2229 20.3361 19.6238C20.522 20.0253 20.6357 20.5127 20.6363 21.124C20.6363 21.2551 20.6292 21.3929 20.6182 21.5353Z" fill="#55417C" stroke="#55417C" stroke-width="0.5"/>
</g>
<defs>
<clipPath id="clip0_2711_10753">
<rect width="24" height="24" fill="#55417C"/>
</clipPath>
</defs>
</svg>
