<svg width="535" height="229" viewBox="0 0 535 229" fill="none" xmlns="http://www.w3.org/2000/svg">
<path d="M202.818 74.0443C202.818 74.0443 186.438 84.3453 186.803 98.1138C187.169 111.882 201.105 116.524 200.859 124.351C200.614 132.173 180.198 154.422 194.805 168.843C209.411 183.264 241.11 169.885 253.375 170.706C265.64 171.526 269.06 188.044 286.661 188.097C304.262 188.151 309.85 171.041 319.276 154.17C328.709 137.299 360.432 157.59 364.199 136.515C367.966 115.44 352.79 108.439 357.425 92.1309C362.061 75.823 350.682 54.4426 329.607 45.3215C308.532 36.2063 313.611 3.56066 284.308 11.8733C255.004 20.1859 209.298 17.6945 208.507 55.6284C208.226 69.0795 202.806 74.0324 202.806 74.0324L202.818 74.0443Z" fill="#EEF0F5"/>
<path d="M279.618 167.903C267.521 167.945 265.587 158.698 256.064 155.919C248.027 153.571 236.87 159.051 228.378 158.842C219.311 158.62 210.316 156.362 204.926 148.349C196.841 136.329 206.411 128.088 207.411 116.829C208.04 109.744 199.44 104.127 199.194 95.1134C198.865 82.9379 207.435 80.9076 212.19 71.9901C216.532 63.8572 214.466 53.8916 220.437 45.6269C227.084 36.4219 238.218 32.619 248.746 29.9778C269.485 24.7735 289.584 16.9998 303.849 36.3441C311.144 46.2318 316.318 48.3159 325.475 56.383C338.261 67.6482 336.896 77.2724 338.435 92.5142C340.405 112.044 352.389 135.281 323.289 138.174C310.527 139.443 311.928 137.868 304.754 149.768C298.95 159.393 291.842 167.957 279.618 167.897V167.903Z" fill="#E2E6EF"/>
<path d="M220.107 206.957C191.505 217.066 209.855 230.283 254.202 228.026C298.549 225.768 328.631 234.805 346.669 221.252C364.708 207.705 324.696 202.525 283.637 202.573C242.572 202.621 231.816 202.812 220.107 206.951V206.957Z" fill="url(#paint0_linear_1055_11801)"/>
<path d="M275.199 40.8358C243.021 40.8358 226.791 61.4616 223.216 87.0403C219.64 112.619 217.167 119.494 206.165 106.84C195.164 94.1851 190.762 110.415 202.59 122.794C214.418 135.173 219.089 134.071 217.718 152.499C216.346 170.927 213.592 189.355 227.342 188.804C241.092 188.253 241.643 174.227 249.345 174.227C257.046 174.227 257.873 191.302 271.899 188.816C285.925 186.331 281.062 175.042 292.524 173.401C296.375 172.85 296.1 186.325 312.599 185.504C329.098 184.684 325.247 175.054 330.475 171.478C335.704 167.903 342.579 178.078 351.377 171.203C360.18 164.327 351.652 158.824 354.952 150.852C358.252 142.875 354.952 134.353 350.55 134.353C346.148 134.353 342.022 142.881 336.524 141.779C331.026 140.677 328.272 132.706 328.272 121.429C328.272 110.152 334.596 40.8418 275.193 40.8418L275.199 40.8358Z" fill="#BFCBEB"/>
<path d="M274.169 72.3255C294.01 69.4928 305.34 61.4257 305.34 61.4257L315.641 59.611L268.749 41.1292C240.835 43.7164 226.539 63.2284 223.21 87.0403C222.826 89.7593 222.461 92.2687 222.096 94.5684C223.335 93.9875 224.479 93.4724 225.33 92.8196C229.037 89.9869 236.445 66.1449 236.445 66.1449C236.445 66.1449 254.322 75.1583 274.163 72.3255H274.169Z" fill="#9EAFDD"/>
<path d="M213.412 112.841C211.495 112.26 209.142 110.271 206.165 106.846C195.164 94.1971 190.762 110.421 202.59 122.8C204.536 124.836 206.291 126.513 207.854 127.963C209.807 126.322 213.388 122.046 213.412 112.841Z" fill="#9EAFDD"/>
<path d="M249.363 34.3977C249.363 34.3977 249.878 33.2957 244.674 26.5582C239.469 19.8206 236.924 15.2331 246.416 11.9991C255.909 8.76507 281.086 -7.06965 293.141 3.7164C305.197 14.5025 328.457 23.396 336.003 33.1041C343.549 42.8121 315.635 59.617 315.635 59.617L255.394 45.2376L249.357 34.4037L249.363 34.3977Z" fill="#2F3957"/>
<path d="M251.956 91.4422C255.068 91.4422 257.591 88.919 257.591 85.8066C257.591 82.6942 255.068 80.171 251.956 80.171C248.844 80.171 246.32 82.6942 246.32 85.8066C246.32 88.919 248.844 91.4422 251.956 91.4422Z" fill="#65749F"/>
<path d="M284.35 91.4422C287.462 91.4422 289.985 88.919 289.985 85.8066C289.985 82.6942 287.462 80.171 284.35 80.171C281.237 80.171 278.714 82.6942 278.714 85.8066C278.714 88.919 281.237 91.4422 284.35 91.4422Z" fill="#65749F"/>
<path d="M267.772 127.202C270.204 127.202 272.174 121.721 272.174 114.961C272.174 108.2 270.204 102.719 267.772 102.719C265.341 102.719 263.371 108.2 263.371 114.961C263.371 121.721 265.341 127.202 267.772 127.202Z" fill="#65749F"/>
<path d="M249.746 42.4048C249.746 42.4048 232.391 46.8606 233.678 52.5321C234.966 58.2096 259.22 69.3011 280.66 65.2825C286.248 64.2345 297.076 58.4731 297.076 58.4731L249.746 42.4048Z" fill="#2F3957"/>
<path d="M301.4 111.697C301.4 111.697 307.712 128.765 307.58 138.701C307.443 148.636 315.743 146.187 317.516 144.007C319.282 141.827 322.235 133.964 322.732 126.615L301.4 111.697Z" fill="#869BD4"/>
<path d="M301.4 111.463C301.4 111.463 310.88 123.603 310.88 133.538C310.88 143.474 320.36 140.905 322.169 129.616C323.978 118.326 320.816 111.463 320.816 111.463H301.4Z" fill="#BFCBEB"/>
<path d="M249.363 42.5965V34.3977C249.363 34.3977 259.454 41.243 279.744 45.7946C293.117 48.795 306.897 51.0289 314.737 52.2087C317.653 52.6459 319.031 56.0536 317.234 58.3953C316.432 59.4433 315.15 60.0123 313.833 59.8985L296.962 58.4731C296.962 58.4731 260.436 55.323 249.363 42.5965Z" fill="#232B41"/>
<path d="M199.678 100.154L204.929 99.3097L208.635 122.371C208.868 123.819 207.88 125.185 206.432 125.418C204.983 125.651 203.617 124.663 203.384 123.214L199.678 100.154Z" fill="#232B41"/>
<path d="M184.222 104.756L160.734 75.9309L174.005 41.1891L210.777 35.284L234.265 64.1087L220.994 98.8445L184.222 104.756Z" fill="#E5EAF7"/>
<path d="M185.306 101.929L163.729 75.4458L175.922 43.5368L209.693 38.1108L231.271 64.5878L219.077 96.4968L185.306 101.929Z" fill="#55417C"/>
<path d="M184.031 67.2349L180.797 67.7559L180.677 67.0253C180.557 66.2827 180.282 65.6718 179.845 65.1927C179.407 64.7076 178.778 64.5339 177.958 64.6657C177.515 64.7376 177.168 64.8813 176.922 65.0909C176.676 65.3065 176.485 65.552 176.359 65.8335C176.233 66.133 176.167 66.4683 176.161 66.8277C176.155 67.187 176.179 67.5583 176.239 67.9356C176.311 68.3788 176.383 68.7501 176.467 69.0376C176.545 69.331 176.67 69.5826 176.832 69.7922C176.994 70.0078 177.215 70.1755 177.485 70.3072C177.754 70.439 178.114 70.5528 178.563 70.6546L181.192 71.2415C181.953 71.4032 182.587 71.6308 183.09 71.9302C183.594 72.2297 184.013 72.601 184.342 73.0442C184.654 73.5113 184.905 74.0623 185.097 74.6971C185.282 75.326 185.444 76.0566 185.576 76.8771C185.732 77.8293 185.773 78.7277 185.714 79.5721C185.654 80.4166 185.456 81.1592 185.127 81.794C184.779 82.4588 184.27 83.0157 183.605 83.4709C182.941 83.926 182.09 84.2315 181.054 84.3992C180.27 84.525 179.521 84.507 178.802 84.3393C178.084 84.1716 177.437 83.8841 176.874 83.4769C176.311 83.0696 175.832 82.5666 175.443 81.9677C175.053 81.3688 174.796 80.692 174.676 79.9314L174.485 78.7277L177.718 78.2066L177.88 79.2188C177.976 79.8117 178.233 80.3147 178.659 80.734C179.084 81.1532 179.707 81.2969 180.533 81.1652C181.084 81.0753 181.497 80.9316 181.779 80.722C182.06 80.5124 182.258 80.2489 182.384 79.9255C182.504 79.6021 182.551 79.2307 182.516 78.8175C182.48 78.3983 182.426 77.9371 182.342 77.4341C182.246 76.8412 182.144 76.362 182.042 75.9847C181.941 75.6134 181.803 75.32 181.641 75.1044C181.456 74.8948 181.228 74.739 180.964 74.6253C180.695 74.5175 180.348 74.4096 179.922 74.3078L177.455 73.7269C175.97 73.3796 174.91 72.7747 174.287 71.9123C173.658 71.0499 173.233 69.906 173.005 68.4926C172.868 67.6482 172.856 66.8277 172.969 66.0251C173.077 65.2286 173.323 64.5159 173.7 63.8931C174.053 63.2702 174.55 62.7432 175.185 62.306C175.82 61.8689 176.611 61.5754 177.563 61.4197C178.365 61.2939 179.126 61.3178 179.839 61.5095C180.551 61.7011 181.192 61.9946 181.755 62.4019C182.887 63.2583 183.564 64.3423 183.773 65.6538L184.031 67.2409V67.2349Z" fill="#E5EAF7"/>
<path d="M191.145 82.5845L188.007 63.0547L184.264 63.6536L183.773 60.6112L194.487 58.8864L194.978 61.9287L191.235 62.5276L194.373 82.0575L191.139 82.5786L191.145 82.5845Z" fill="#E5EAF7"/>
<path d="M196.206 64.0787C196.062 63.1684 196.092 62.342 196.296 61.5933C196.499 60.8447 196.829 60.1979 197.284 59.647C197.721 59.1199 198.242 58.6887 198.847 58.3533C199.452 58.0179 200.087 57.7964 200.74 57.6886C201.392 57.5808 202.063 57.5927 202.746 57.7245C203.428 57.8503 204.069 58.0958 204.668 58.4552C205.249 58.8385 205.758 59.3535 206.183 60.0003C206.615 60.6471 206.902 61.4257 207.046 62.33L208.962 74.248C209.112 75.2002 209.088 76.0386 208.878 76.7693C208.669 77.4939 208.345 78.1228 207.914 78.6498C207.459 79.2008 206.932 79.644 206.321 79.9794C205.716 80.3147 205.081 80.5363 204.429 80.6381C203.776 80.7459 203.105 80.734 202.422 80.6022C201.74 80.4764 201.111 80.2189 200.524 79.8356C199.925 79.4763 199.41 78.9852 198.985 78.3624C198.56 77.7395 198.272 76.949 198.116 75.9967L196.2 64.0787H196.206ZM201.356 75.4757C201.482 76.2602 201.794 76.7992 202.285 77.0987C202.776 77.3981 203.321 77.4999 203.914 77.4041C204.506 77.3083 204.986 77.0448 205.363 76.6016C205.734 76.1644 205.86 75.5535 205.734 74.769L203.818 62.851C203.692 62.0725 203.381 61.5275 202.889 61.228C202.398 60.9286 201.853 60.8268 201.261 60.9226C200.668 61.0184 200.189 61.2879 199.811 61.7251C199.44 62.1623 199.314 62.7732 199.44 63.5577L201.356 75.4757Z" fill="#E5EAF7"/>
<path d="M212.669 79.123L209.04 56.5507L213.891 55.7721C214.777 55.6284 215.58 55.6224 216.293 55.7422C217.005 55.868 217.682 56.1794 218.329 56.6825C218.976 57.1855 219.467 57.8144 219.802 58.575C220.137 59.3356 220.419 60.3896 220.634 61.7431C220.796 62.7552 220.874 63.6237 220.874 64.3363C220.874 65.055 220.724 65.7497 220.443 66.4205C220.119 67.235 219.616 67.9057 218.946 68.4327C218.275 68.9658 217.335 69.3251 216.131 69.5227L214.484 69.7862L215.903 78.6019L212.669 79.123ZM212.765 59.0721L213.999 66.7439L215.55 66.4923C216.203 66.3845 216.7 66.2109 217.023 65.9653C217.353 65.7198 217.574 65.4084 217.688 65.043C217.808 64.6957 217.844 64.2944 217.802 63.8213C217.76 63.3481 217.694 62.8331 217.598 62.2581C217.514 61.7311 217.424 61.228 217.323 60.7549C217.227 60.2818 217.065 59.8805 216.837 59.5512C216.61 59.2218 216.31 58.9822 215.945 58.8505C215.574 58.7127 215.077 58.7007 214.442 58.8025L212.759 59.0721H212.765Z" fill="#E5EAF7"/>
<path d="M277.115 18.3054C277.115 18.3054 280.289 21.3478 283.918 19.8865L286.242 22.6654C286.242 22.6654 282.583 25.9473 282.9 29.1873C283.224 32.4273 284.99 36.8172 277.684 37.9192C272.414 38.7097 271.653 38.1347 271.653 38.1347C271.653 38.1347 267.521 35.2181 266.132 32.4932C264.742 29.7682 268.252 27.6002 268.341 24.7435C268.431 21.8868 267.563 19.2876 267.563 19.2876L269.994 17.5269C269.994 17.5269 273.037 20.0482 277.109 18.2994L277.115 18.3054Z" fill="#6D7FB6"/>
<path d="M266.461 131.017C266.461 131.017 272.438 132.406 275.217 127.196C275.217 127.196 274.797 132.963 270.839 134.071C266.88 135.179 266.461 131.017 266.461 131.017Z" fill="#869BD4"/>
<path d="M336.009 33.0981C328.463 23.39 305.197 14.4965 293.147 3.71042C284.254 -4.24887 268.216 2.29104 256.603 7.5613C256.615 7.5613 278.954 0.278762 286.248 5.1238C293.542 9.96884 319.941 32.2536 327.691 35.278C335.44 38.3024 325.307 52.8196 325.307 52.8196C332.542 47.0582 340.477 38.8355 336.015 33.0921L336.009 33.0981Z" fill="#596179"/>
<path d="M322.732 126.609C322.732 126.609 322.57 117.201 320.822 111.894C319.067 106.594 316.216 102.713 316.216 102.713C316.216 102.713 323.049 119.59 322.732 126.603V126.609Z" fill="#D9E0F3"/>
<path d="M355.443 139.012L355.179 138.347C354.131 135.922 352.448 134.347 350.556 134.347C346.154 134.347 342.028 142.875 336.53 141.773C331.032 140.671 328.278 132.7 328.278 121.423C328.278 114.5 330.661 85.7168 318.761 64.516L315.647 59.617C315.647 59.617 325.553 77.5419 325.553 96.3531C325.553 115.164 321.624 144.097 333.614 145.965C345.603 147.828 347.915 131.448 355.443 139.018V139.012Z" fill="#D9E0F3"/>
<path d="M330.475 171.478C335.704 167.903 342.723 178.078 351.526 171.203C355.91 167.777 356.132 164.693 355.533 161.471C354.335 168.25 346.735 169.005 337.854 166.292C328.972 163.579 325.439 168.017 322.81 176.167C320.175 184.318 306.155 178.383 297.273 172.245C288.392 166.106 286.643 172.957 275.947 178.329C265.251 183.702 262.694 171.724 251.968 169.544C241.242 167.364 234.061 181.845 224.934 181.102C218.257 180.563 217.61 162.106 217.742 152.218C217.736 152.314 217.73 152.403 217.718 152.499C216.34 170.927 213.592 189.355 227.342 188.804C241.092 188.253 241.643 174.227 249.345 174.227C257.046 174.227 257.873 191.302 271.899 188.816C285.925 186.331 281.062 175.042 292.524 173.401C296.375 172.85 296.1 186.325 312.599 185.504C329.098 184.678 325.247 175.054 330.475 171.478Z" fill="#9EAFDD"/>
<path d="M97.019 171.077H8.36637L0 135.251L94.9289 22.2701H146.187V133.155H169.46V171.077H146.187V206.645H97.019V171.077ZM97.019 133.419V80.8537L53.3485 133.419H97.019Z" fill="url(#paint1_linear_1055_11801)"/>
<path d="M462.559 171.077H373.906L365.54 135.251L460.469 22.2701H511.727V133.155H535V171.077H511.727V206.645H462.559V171.077ZM462.559 133.419V80.8537L418.883 133.419H462.559Z" fill="url(#paint2_linear_1055_11801)"/>
<defs>
<linearGradient id="paint0_linear_1055_11801" x1="267.491" y1="228.9" x2="267.491" y2="0.0028651" gradientUnits="userSpaceOnUse">
<stop stop-color="white"/>
<stop offset="0.1" stop-color="#F6F7FA"/>
<stop offset="0.41" stop-color="#E1E5EF"/>
<stop offset="0.72" stop-color="#D4DAE8"/>
<stop offset="1" stop-color="#D0D7E6"/>
</linearGradient>
<linearGradient id="paint1_linear_1055_11801" x1="267.5" y1="0" x2="267.5" y2="228.914" gradientUnits="userSpaceOnUse">
<stop stop-color="#E1E5EF"/>
<stop offset="0.24" stop-color="#D4DAE8"/>
<stop offset="0.46" stop-color="#D0D7E6"/>
<stop offset="1" stop-color="#C6CDDB"/>
</linearGradient>
<linearGradient id="paint2_linear_1055_11801" x1="267.481" y1="-349.222" x2="267.481" y2="-349.222" gradientUnits="userSpaceOnUse">
<stop stop-color="#E1E5EF"/>
<stop offset="0.24" stop-color="#D4DAE8"/>
<stop offset="0.46" stop-color="#D0D7E6"/>
<stop offset="1" stop-color="#C6CDDB"/>
</linearGradient>
</defs>
</svg>
