<svg width="199" height="199" viewBox="0 0 199 199" fill="none" xmlns="http://www.w3.org/2000/svg">
<path d="M99.5002 190.216C151.285 190.216 193.265 165.979 193.265 136.08C193.265 106.182 151.285 81.9443 99.5002 81.9443C47.7153 81.9443 5.73535 106.182 5.73535 136.08C5.73535 165.979 47.7153 190.216 99.5002 190.216Z" fill="#F0F0F0"/>
<path d="M172.048 135.082L168.255 132.893C168.255 132.893 167.327 124.773 167.944 118.485C168.812 109.649 174.519 99.0149 181.325 101.514C188.131 104.014 178.205 113.009 175.996 120.503C173.787 127.997 172.048 135.082 172.048 135.082Z" fill="#334249"/>
<path d="M170.054 134.162C170.114 134.159 170.171 134.133 170.212 134.088C170.253 134.043 170.275 133.984 170.273 133.924C169.608 114.29 179.383 104.412 179.478 104.316C179.522 104.273 179.546 104.214 179.546 104.153C179.546 104.092 179.522 104.033 179.478 103.99C179.457 103.969 179.432 103.952 179.405 103.94C179.377 103.929 179.347 103.923 179.317 103.923C179.287 103.923 179.258 103.929 179.23 103.94C179.202 103.952 179.177 103.969 179.156 103.99C179.053 104.086 169.138 114.107 169.811 133.94C169.812 133.97 169.819 134 169.832 134.028C169.845 134.056 169.863 134.081 169.886 134.102C169.908 134.123 169.935 134.139 169.964 134.149C169.993 134.16 170.023 134.164 170.054 134.162Z" fill="white"/>
<path d="M174.432 136.446L171.734 134.89C171.734 134.89 171.272 129.318 174.006 122.552C176.394 116.662 182.285 111.77 185.254 112.797C188.223 113.824 188.147 115.929 186.698 118.138C185.25 120.347 176.45 125.605 174.432 136.446Z" fill="#455A64"/>
<path d="M173.006 135.858C173.067 135.857 173.125 135.832 173.169 135.789C173.212 135.746 173.236 135.688 173.237 135.627C173.182 123.209 184.839 114.82 184.958 114.736C184.983 114.719 185.004 114.697 185.021 114.672C185.037 114.646 185.048 114.618 185.052 114.588C185.057 114.558 185.056 114.528 185.049 114.498C185.041 114.469 185.028 114.442 185.01 114.418C184.975 114.369 184.922 114.335 184.862 114.325C184.803 114.314 184.741 114.328 184.692 114.362C184.572 114.445 172.724 122.979 172.776 135.627C172.776 135.688 172.8 135.747 172.843 135.79C172.886 135.834 172.945 135.858 173.006 135.858Z" fill="white"/>
<path d="M31.7045 130.206L35.2069 127.842C35.2069 127.842 36.7471 118.688 35.3143 110.612C33.3004 99.2853 25.4718 95.5202 22.6858 96.7142C19.8998 97.9082 19.3028 101.279 24.5046 107.743C27.5891 111.544 31.597 119.659 31.7045 130.206Z" fill="#334249"/>
<path d="M32.9071 125.669H32.8713C32.8355 125.667 32.8006 125.657 32.7689 125.64C32.7371 125.623 32.7093 125.6 32.6871 125.572C32.6649 125.544 32.649 125.511 32.6402 125.477C32.6315 125.442 32.6302 125.406 32.6365 125.37C33.9021 114.708 29.4007 103.134 24.5013 98.5292C24.4542 98.4815 24.4277 98.4171 24.4277 98.3501C24.4277 98.283 24.4542 98.2187 24.5013 98.171C24.5247 98.1471 24.5525 98.1282 24.5833 98.1153C24.614 98.1024 24.6471 98.0957 24.6804 98.0957C24.7138 98.0957 24.7468 98.1024 24.7776 98.1153C24.8083 98.1282 24.8362 98.1471 24.8595 98.171C29.8505 102.859 34.4354 114.624 33.1539 125.442C33.1463 125.503 33.1174 125.559 33.0722 125.601C33.027 125.642 32.9685 125.666 32.9071 125.669Z" fill="white"/>
<path d="M22.5347 136.391C21.9775 136.725 20.3537 135.519 19.904 135.229C19.1332 134.725 18.5053 134.032 18.0811 133.215C17.6052 132.288 17.4286 131.237 17.5757 130.206C17.6572 129.668 17.7755 129.136 17.9299 128.614C18.0692 128.093 18.2085 127.571 18.3279 127.046C18.5044 126.535 18.5722 125.993 18.5269 125.454C18.3717 124.391 17.4125 123.663 16.5369 123.038C15.5737 122.342 14.5469 121.422 14.5469 120.141C14.596 119.134 14.9814 118.172 15.6414 117.41C16.2384 116.614 16.9548 115.922 17.4921 115.09C17.9122 114.514 18.1267 113.813 18.101 113.1C18.0318 112.661 17.8748 112.24 17.6393 111.862C17.1697 111.034 16.5608 110.27 16.2304 109.391C15.9001 108.511 15.924 107.381 16.6284 106.724C17.1896 106.187 18.0453 106.099 18.8214 106.135C19.5527 106.208 20.2592 106.44 20.891 106.816C22.9487 107.91 24.1586 110.298 26.3356 111.13C27.1754 111.448 28.0908 111.504 28.9624 111.719C29.8341 111.934 30.7335 112.36 31.1514 113.152C31.9753 114.724 30.5385 116.706 31.1276 118.373C31.6529 119.854 33.1176 120.395 33.9454 121.721C34.2814 122.309 34.4208 122.99 34.3434 123.663C34.2967 124.799 34.0417 125.918 33.5912 126.962C33.073 128.046 32.4881 129.096 31.84 130.106C31.84 130.106 22.6183 136.339 22.5347 136.391Z" fill="#455A64"/>
<path d="M27.9154 133.091C27.8819 133.091 27.8489 133.084 27.8182 133.07C27.7875 133.057 27.7597 133.038 27.7364 133.014C27.7131 132.99 27.6948 132.961 27.6825 132.93C27.6702 132.899 27.6641 132.866 27.6646 132.833C27.8875 122.755 22.9284 111.739 19.4181 108.555C19.3682 108.51 19.3381 108.447 19.3344 108.38C19.3306 108.312 19.3536 108.247 19.3982 108.196C19.4215 108.173 19.4494 108.154 19.4801 108.141C19.5109 108.128 19.5439 108.121 19.5773 108.121C19.6106 108.121 19.6437 108.128 19.6744 108.141C19.7052 108.154 19.733 108.173 19.7564 108.196C23.3384 111.42 28.397 122.628 28.1701 132.844C28.1696 132.877 28.1626 132.91 28.1495 132.94C28.1364 132.97 28.1175 132.998 28.0939 133.021C28.0702 133.044 28.0423 133.062 28.0116 133.074C27.981 133.086 27.9483 133.092 27.9154 133.091Z" fill="white"/>
<path d="M26.0569 120.813C26.0334 120.819 26.0088 120.819 25.9853 120.813C22.7296 119.874 18.6939 119.779 18.6541 119.775C18.6208 119.774 18.588 119.767 18.5575 119.754C18.527 119.74 18.4995 119.721 18.4765 119.697C18.4536 119.673 18.4356 119.644 18.4237 119.613C18.4119 119.582 18.4063 119.549 18.4074 119.516C18.4067 119.482 18.4131 119.449 18.426 119.418C18.439 119.387 18.4582 119.359 18.4825 119.336C18.5068 119.312 18.5357 119.295 18.5673 119.283C18.5989 119.272 18.6325 119.267 18.6661 119.269C18.7059 119.269 22.8053 119.369 26.1246 120.324C26.1887 120.343 26.2427 120.387 26.2747 120.446C26.3067 120.505 26.3143 120.574 26.2957 120.638C26.2802 120.689 26.2486 120.734 26.2055 120.766C26.1624 120.797 26.1103 120.814 26.0569 120.813Z" fill="white"/>
<path d="M119.861 123.276L118.353 122.405C118.102 122.241 117.892 122.021 117.742 121.762C117.592 121.502 117.506 121.211 117.489 120.912V58.2192C117.506 57.9204 117.592 57.6298 117.741 57.3705C117.891 57.1113 118.099 56.8907 118.349 56.7267L160.278 32.5203C160.545 32.385 160.84 32.3145 161.14 32.3145C161.439 32.3145 161.734 32.385 162.002 32.5203L163.51 33.3919C163.761 33.5551 163.971 33.7753 164.121 34.0347C164.271 34.2941 164.357 34.5852 164.374 34.8844V97.5774C164.357 97.8761 164.271 98.1668 164.122 98.426C163.972 98.6852 163.764 98.9058 163.514 99.0699L121.585 123.28C121.318 123.416 121.022 123.486 120.723 123.486C120.423 123.485 120.128 123.413 119.861 123.276Z" fill="#455A64"/>
<path d="M164.374 34.7451C164.314 34.2994 163.952 34.1362 163.518 34.3869L121.585 58.5973C121.331 58.7563 121.122 58.9767 120.976 59.238L117.74 57.3714C117.885 57.1081 118.095 56.8862 118.349 56.7267L160.278 32.5203C160.546 32.385 160.841 32.3145 161.14 32.3145C161.44 32.3145 161.735 32.385 162.002 32.5203L163.51 33.3919C163.743 33.5419 163.941 33.7405 164.09 33.974C164.239 34.2076 164.336 34.4706 164.374 34.7451Z" fill="#455A64"/>
<path d="M121.438 123.348C121.183 123.451 120.909 123.498 120.634 123.486C120.36 123.475 120.091 123.404 119.846 123.28L118.333 122.404C118.083 122.24 117.875 122.02 117.726 121.76C117.576 121.501 117.49 121.211 117.474 120.912V58.2188C117.484 57.9195 117.57 57.6278 117.724 57.3711L120.96 59.2377C120.803 59.4948 120.715 59.7883 120.705 60.0894V122.782C120.721 123.276 121.032 123.503 121.438 123.348Z" fill="#263238"/>
<path d="M120.722 60.0979V122.783C120.722 123.332 121.12 123.555 121.585 123.28L163.515 99.0701C163.765 98.906 163.973 98.6854 164.122 98.4262C164.272 98.167 164.358 97.8763 164.374 97.5776V34.8846C164.374 34.3354 163.976 34.1125 163.515 34.3871L121.585 58.5974C121.333 58.7614 121.123 58.9829 120.973 59.2437C120.823 59.5046 120.737 59.7973 120.722 60.0979Z" fill="#37474F"/>
<path d="M110.931 83.9773C110.389 83.655 107.878 82.2261 107.747 82.1505C107.644 82.0894 107.557 82.0062 107.491 81.9069C107.425 81.8075 107.382 81.6947 107.366 81.5766C107.35 81.4586 107.36 81.3384 107.396 81.2249C107.432 81.1113 107.494 81.0074 107.575 80.9207L117.49 70.2861L120.721 72.1408L110.811 82.7833C110.733 82.8662 110.674 82.9648 110.638 83.0725C110.601 83.1801 110.588 83.2944 110.599 83.4075C110.611 83.5206 110.646 83.63 110.703 83.7283C110.76 83.8266 110.838 83.9115 110.931 83.9773Z" fill="#455A64"/>
<path d="M120.721 72.1533L110.811 82.7839C110.701 82.9014 110.629 83.0495 110.605 83.2087C110.581 83.3679 110.605 83.5306 110.676 83.6755C110.746 83.8204 110.858 83.9405 110.998 84.0201C111.138 84.0996 111.299 84.1349 111.46 84.1212L120.721 83.357V72.1533Z" fill="#37474F"/>
<path d="M142.548 53.0131C147.435 50.1913 151.395 52.4798 151.395 58.1235C151.395 63.7671 147.435 70.6246 142.548 73.4465C137.66 76.2683 133.7 73.9798 133.7 68.3401C133.7 62.7005 137.66 55.835 142.548 53.0131Z" fill="#55417C"/>
<path d="M142.484 57.455C144.076 56.5396 145.353 57.2798 145.353 59.1106C145.299 60.1058 145.011 61.0742 144.513 61.9373C144.014 62.8003 143.319 63.5336 142.484 64.0777C140.892 64.9931 139.61 64.2528 139.61 62.422C139.665 61.4264 139.954 60.4578 140.453 59.5948C140.952 58.7317 141.648 57.9986 142.484 57.455Z" fill="white"/>
<path d="M148.143 67.214C148.143 64.2091 146.03 62.9872 143.427 64.4917L141.799 65.431C139.196 66.9354 137.083 70.605 137.083 73.6019V74.4258C137.574 74.5828 138.087 74.6621 138.603 74.6606C140 74.6131 141.359 74.2015 142.548 73.4666C144.81 72.073 146.724 70.1808 148.143 67.9344V67.214Z" fill="white"/>
<path d="M136.944 101.382L148.151 94.9105C148.629 94.6359 149.015 94.8588 149.015 95.408V99.0179C148.999 99.3171 148.912 99.6083 148.762 99.8676C148.612 100.127 148.403 100.347 148.151 100.51L136.944 106.982C136.466 107.256 136.08 107.034 136.08 106.484V102.875C136.096 102.575 136.183 102.284 136.333 102.025C136.483 101.765 136.692 101.545 136.944 101.382Z" fill="#55417C"/>
<path d="M131.456 93.3185L153.628 80.5109C154.198 80.1805 154.663 80.4472 154.663 81.1079V82.4491C154.644 82.808 154.54 83.1572 154.36 83.4685C154.18 83.7797 153.93 84.044 153.628 84.2401L131.444 97.0478C130.875 97.3781 130.413 97.1114 130.413 96.4508V95.1214C130.431 94.7597 130.535 94.4075 130.717 94.094C130.898 93.7805 131.151 93.5146 131.456 93.3185Z" fill="#FAFAFA"/>
<path d="M134.05 84.0489C134.353 83.8738 134.588 83.8459 134.755 83.9693C134.922 84.0927 135.006 84.3673 135.006 84.7892C135.014 85.1743 134.928 85.5555 134.755 85.8996C134.599 86.2106 134.353 86.4683 134.05 86.6399L133.453 86.9862V88.2717C133.452 88.316 133.441 88.3594 133.422 88.3991C133.408 88.4351 133.382 88.4657 133.35 88.4866L133.047 88.6617C133.037 88.6695 133.025 88.6737 133.012 88.6737C132.999 88.6737 132.986 88.6695 132.976 88.6617C132.954 88.6348 132.944 88.6005 132.948 88.5662V84.8449C132.948 84.8009 132.957 84.7574 132.976 84.7176C132.991 84.6822 133.016 84.6518 133.047 84.63L134.05 84.0489ZM133.453 86.2658L134.031 85.9315C134.17 85.8528 134.288 85.7406 134.373 85.6051C134.463 85.4452 134.507 85.2633 134.5 85.0797C134.5 84.8648 134.456 84.7414 134.373 84.7056C134.314 84.6913 134.252 84.6906 134.193 84.7037C134.134 84.7168 134.078 84.7433 134.031 84.7812L133.453 85.1156V86.2658Z" fill="#FAFAFA"/>
<path d="M136.673 82.5326C136.713 82.5087 136.744 82.5087 136.764 82.5326C136.79 82.5683 136.807 82.609 136.816 82.652L137.735 85.7643C137.735 85.7643 137.735 85.7882 137.735 85.8001C137.735 85.8445 137.724 85.8881 137.704 85.9275C137.69 85.9635 137.664 85.9942 137.632 86.0151L137.361 86.1703C137.314 86.1981 137.278 86.2021 137.258 86.1703C137.239 86.1503 137.225 86.1256 137.218 86.0986L137.055 85.5534L135.861 86.2379L135.702 86.9703C135.69 87.0099 135.676 87.0485 135.658 87.0857C135.638 87.1342 135.601 87.1738 135.554 87.1971L135.284 87.3523C135.274 87.3608 135.261 87.3654 135.248 87.3654C135.235 87.3654 135.222 87.3608 135.212 87.3523C135.191 87.3266 135.181 87.2938 135.184 87.2608C135.182 87.2463 135.182 87.2315 135.184 87.217L136.1 83.046C136.111 82.9847 136.128 82.9246 136.151 82.8669C136.171 82.825 136.203 82.7903 136.243 82.7674L136.673 82.5326ZM136.88 84.9444L136.482 83.5395L136.084 85.4181L136.88 84.9444Z" fill="#FAFAFA"/>
<path d="M139.129 81.0566C139.262 80.9726 139.414 80.9221 139.571 80.9094C139.682 80.8994 139.793 80.9244 139.889 80.981C139.976 81.0377 140.044 81.1196 140.084 81.2158C140.127 81.3138 140.152 81.4192 140.156 81.5263C140.158 81.5705 140.149 81.6146 140.128 81.6536C140.114 81.6897 140.089 81.7203 140.056 81.7412L139.793 81.8924C139.75 81.9163 139.718 81.9203 139.698 81.8924C139.673 81.8762 139.653 81.8544 139.638 81.8288C139.622 81.7929 139.599 81.7607 139.571 81.7341C139.542 81.7074 139.508 81.6868 139.471 81.6735C139.35 81.6562 139.227 81.6877 139.129 81.7611C139.064 81.8027 139.003 81.8493 138.946 81.9004C138.887 81.9548 138.834 82.0163 138.79 82.0835C138.748 82.1483 138.713 82.2177 138.687 82.2904C138.664 82.3597 138.651 82.4322 138.651 82.5054C138.646 82.5723 138.659 82.6394 138.687 82.7004C138.699 82.7217 138.717 82.7398 138.737 82.753C138.758 82.7662 138.782 82.7741 138.806 82.776C138.88 82.7888 138.956 82.7888 139.029 82.776L139.376 82.7004C139.505 82.6621 139.639 82.646 139.774 82.6526C139.87 82.6523 139.963 82.683 140.04 82.7402C140.113 82.8015 140.166 82.8833 140.191 82.975C140.23 83.1039 140.248 83.2384 140.243 83.373C140.243 83.5508 140.217 83.7277 140.168 83.8984C140.119 84.0738 140.048 84.2424 139.957 84.3998C139.86 84.5612 139.745 84.7108 139.614 84.8456C139.481 84.9844 139.328 85.1037 139.161 85.1998C139.038 85.2745 138.903 85.327 138.763 85.355C138.648 85.3771 138.53 85.3674 138.42 85.3272C138.321 85.2809 138.239 85.2043 138.186 85.1083C138.12 84.9855 138.085 84.8492 138.082 84.7103C138.082 84.665 138.091 84.6202 138.11 84.5789C138.128 84.5451 138.154 84.5163 138.186 84.4954L138.448 84.3441C138.488 84.3202 138.52 84.3123 138.544 84.3242C138.568 84.3361 138.584 84.356 138.599 84.3919C138.616 84.4328 138.637 84.4716 138.663 84.5073C138.688 84.542 138.723 84.5683 138.763 84.5829C138.815 84.595 138.869 84.595 138.922 84.5829C139.006 84.563 139.087 84.5294 139.161 84.4834C139.238 84.4394 139.311 84.3888 139.38 84.3322C139.513 84.2263 139.62 84.0898 139.69 83.9342C139.722 83.8544 139.738 83.7693 139.738 83.6834C139.741 83.6523 139.739 83.6206 139.73 83.5905C139.721 83.5604 139.706 83.5325 139.686 83.5083C139.664 83.4893 139.639 83.4753 139.612 83.467C139.584 83.4588 139.555 83.4566 139.527 83.4605C139.436 83.4643 139.347 83.479 139.26 83.5043C139.157 83.5282 139.037 83.5561 138.898 83.58C138.791 83.6066 138.681 83.6147 138.572 83.6038C138.485 83.5983 138.404 83.5631 138.341 83.5043C138.272 83.4369 138.224 83.3513 138.201 83.2576C138.169 83.1193 138.155 82.9776 138.158 82.8357C138.157 82.6605 138.183 82.4861 138.233 82.3183C138.281 82.1456 138.35 81.9797 138.44 81.8248C138.526 81.6709 138.631 81.5279 138.751 81.3989C138.86 81.2675 138.987 81.1522 139.129 81.0566Z" fill="#FAFAFA"/>
<path d="M141.744 79.5516C141.876 79.465 142.028 79.413 142.186 79.4004C142.297 79.3909 142.408 79.416 142.504 79.472C142.589 79.5302 142.656 79.6118 142.695 79.7069C142.739 79.8048 142.763 79.9102 142.767 80.0173C142.772 80.0616 142.762 80.1063 142.739 80.1446C142.725 80.1807 142.7 80.2113 142.667 80.2322L142.405 80.3834C142.365 80.4073 142.333 80.4153 142.309 80.3834C142.284 80.3675 142.264 80.3438 142.254 80.3158C142.217 80.2459 142.156 80.1921 142.082 80.1645C142.023 80.1558 141.962 80.1591 141.904 80.1741C141.846 80.1892 141.792 80.2157 141.744 80.2521C141.678 80.2927 141.615 80.3393 141.557 80.3914C141.499 80.4459 141.448 80.5074 141.406 80.5745C141.362 80.6384 141.327 80.708 141.302 80.7814C141.278 80.8505 141.264 80.9231 141.263 80.9964C141.258 81.0634 141.27 81.1304 141.298 81.1914C141.311 81.2128 141.328 81.2308 141.349 81.244C141.369 81.2572 141.393 81.2651 141.418 81.267C141.491 81.2799 141.567 81.2799 141.641 81.267L141.987 81.1914C142.116 81.1553 142.251 81.1392 142.385 81.1436C142.481 81.1428 142.575 81.1735 142.652 81.2312C142.724 81.2933 142.778 81.3747 142.807 81.466C142.842 81.5957 142.858 81.7297 142.855 81.864C142.854 82.0418 142.829 82.2187 142.779 82.3894C142.73 82.5649 142.659 82.7334 142.568 82.8909C142.472 83.0538 142.357 83.2048 142.226 83.3406C142.091 83.476 141.94 83.5937 141.776 83.6908C141.653 83.7652 141.519 83.8177 141.378 83.846C141.265 83.8677 141.148 83.8581 141.04 83.8182C140.938 83.7734 140.854 83.6965 140.801 83.5993C140.735 83.4768 140.701 83.3401 140.701 83.2013C140.697 83.1569 140.706 83.1123 140.729 83.0739C140.743 83.0379 140.768 83.0073 140.801 82.9864L141.064 82.8351C141.103 82.8113 141.139 82.8033 141.159 82.8152C141.173 82.8215 141.185 82.8309 141.195 82.8426C141.204 82.8543 141.211 82.8681 141.215 82.8829C141.233 82.9231 141.254 82.9617 141.278 82.9983C141.305 83.0333 141.341 83.0596 141.382 83.0739C141.434 83.086 141.489 83.086 141.541 83.0739C141.626 83.054 141.706 83.0204 141.78 82.9744C141.855 82.9294 141.927 82.8789 141.995 82.8232C142.065 82.7686 142.126 82.7043 142.178 82.6321C142.229 82.5634 142.272 82.4885 142.305 82.4093C142.337 82.3295 142.353 82.2444 142.353 82.1585C142.357 82.1274 142.354 82.0957 142.345 82.0656C142.336 82.0355 142.321 82.0075 142.301 81.9834C142.28 81.9644 142.254 81.9504 142.227 81.9421C142.199 81.9339 142.171 81.9317 142.142 81.9356C142.053 81.9411 141.965 81.9558 141.879 81.9794C141.776 82.0033 141.653 82.0312 141.517 82.055C141.409 82.0817 141.298 82.0898 141.187 82.0789C141.101 82.0744 141.019 82.0391 140.956 81.9794C140.889 81.9116 140.842 81.8261 140.821 81.7327C140.785 81.5963 140.769 81.4556 140.773 81.3148C140.774 81.1383 140.8 80.9629 140.849 80.7934C140.898 80.6213 140.967 80.4556 141.056 80.2999C141.142 80.145 141.247 80.0019 141.37 79.874C141.477 79.7477 141.603 79.639 141.744 79.5516Z" fill="#FAFAFA"/>
<path d="M144.645 80.0491L144.323 81.9555C144.313 82.0129 144.297 82.069 144.275 82.1227C144.26 82.1656 144.23 82.2021 144.192 82.2262L143.889 82.4013C143.849 82.4252 143.822 82.4252 143.802 82.4013C143.775 82.3686 143.76 82.3281 143.758 82.2859L143.28 78.9228C143.28 78.9228 143.28 78.8909 143.28 78.879C143.281 78.8347 143.292 78.7912 143.312 78.7516C143.327 78.7163 143.352 78.6859 143.384 78.6641L143.658 78.5049C143.681 78.4956 143.707 78.4956 143.73 78.5049C143.754 78.5049 143.77 78.5367 143.778 78.6004L144.092 80.865L144.367 79.1656C144.374 79.1232 144.386 79.0818 144.403 79.0422C144.418 78.9918 144.453 78.9492 144.498 78.9228L144.805 78.7437C144.848 78.7198 144.88 78.7238 144.9 78.7437C144.917 78.769 144.929 78.7974 144.936 78.8273L145.215 80.2083L145.529 77.5815C145.533 77.5298 145.548 77.4796 145.573 77.4343C145.591 77.4045 145.616 77.3788 145.644 77.3586L145.919 77.1994C145.929 77.1917 145.942 77.1875 145.955 77.1875C145.968 77.1875 145.98 77.1917 145.991 77.1994C146.002 77.2125 146.011 77.2276 146.016 77.244C146.022 77.2604 146.024 77.2777 146.022 77.295C146.024 77.3108 146.024 77.3268 146.022 77.3427L145.545 81.2551C145.537 81.3123 145.522 81.3684 145.501 81.4222C145.483 81.4647 145.452 81.5007 145.414 81.5257L145.107 81.7008C145.071 81.7207 145.043 81.7207 145.024 81.7008C145.003 81.6642 144.987 81.6255 144.976 81.5854L144.645 80.0491Z" fill="#FAFAFA"/>
<path d="M146.508 78.3619C146.516 78.1413 146.543 77.9217 146.587 77.7052C146.633 77.4937 146.702 77.2881 146.794 77.0923C146.882 76.902 146.994 76.724 147.129 76.563C147.265 76.4032 147.428 76.2685 147.61 76.165C147.75 76.0699 147.914 76.0161 148.084 76.0098C148.21 76.0111 148.331 76.061 148.422 76.1491C148.518 76.2574 148.588 76.3869 148.625 76.5272C148.676 76.71 148.704 76.8985 148.709 77.0883C148.709 77.16 148.709 77.2396 148.709 77.3271C148.709 77.4147 148.709 77.5062 148.709 77.6018C148.709 77.6973 148.709 77.7888 148.709 77.8764C148.709 77.9639 148.709 78.0475 148.709 78.1231C148.7 78.3425 148.673 78.5608 148.629 78.7759C148.583 78.9867 148.515 79.1922 148.426 79.3888C148.336 79.5785 148.222 79.7563 148.088 79.9181C147.952 80.0763 147.79 80.2108 147.61 80.3161C147.467 80.4106 147.3 80.4642 147.129 80.4713C147.067 80.4726 147.005 80.4613 146.947 80.438C146.89 80.4147 146.838 80.3801 146.794 80.336C146.69 80.2246 146.619 80.087 146.587 79.938C146.54 79.7545 146.513 79.5663 146.508 79.3768C146.508 79.3052 146.508 79.2256 146.508 79.138C146.508 79.0505 146.508 78.9589 146.508 78.8634C146.508 78.7679 146.508 78.6804 146.508 78.5888C146.508 78.4973 146.504 78.4336 146.508 78.3619ZM148.203 77.4107C148.212 77.3134 148.201 77.2152 148.171 77.1222C148.141 77.0291 148.092 76.9432 148.028 76.8694C147.925 76.7779 147.781 76.7819 147.61 76.8694C147.424 76.9786 147.277 77.1427 147.188 77.3391C147.075 77.5711 147.016 77.8253 147.013 78.0833C147.013 78.2306 147.013 78.3938 147.013 78.5729C147.013 78.752 147.013 78.9112 147.013 79.0545C147.004 79.1518 147.015 79.25 147.045 79.343C147.075 79.436 147.124 79.522 147.188 79.5957C147.292 79.6833 147.435 79.6753 147.61 79.5758C147.793 79.4659 147.938 79.3037 148.028 79.1102C148.141 78.8796 148.201 78.6266 148.203 78.3699C148.203 78.2187 148.203 78.0555 148.203 77.8764C148.203 77.6973 148.207 77.554 148.203 77.4107Z" fill="#FAFAFA"/>
<path d="M150.444 74.5774C150.759 74.3983 150.993 74.3704 151.157 74.5018C151.253 74.6083 151.325 74.7349 151.367 74.8726C151.409 75.0102 151.42 75.1554 151.399 75.2978C151.403 75.5681 151.361 75.8371 151.276 76.0938C151.195 76.3328 151.069 76.5543 150.906 76.7465L151.423 77.8728C151.425 77.8914 151.425 77.91 151.423 77.9285C151.423 77.9644 151.415 77.9998 151.399 78.032C151.388 78.0609 151.369 78.0859 151.344 78.1037L151.025 78.2867C150.973 78.3146 150.938 78.3186 150.914 78.2867C150.893 78.2658 150.875 78.2416 150.862 78.2151L150.373 77.1524L149.875 77.439V78.7842C149.875 78.8282 149.866 78.8718 149.847 78.9116C149.831 78.9462 149.806 78.9762 149.776 78.9992L149.473 79.1743C149.463 79.1827 149.45 79.1873 149.437 79.1873C149.424 79.1873 149.411 79.1827 149.401 79.1743C149.39 79.1621 149.381 79.1476 149.376 79.1319C149.37 79.1161 149.368 79.0994 149.37 79.0827V75.3614C149.371 75.3172 149.382 75.2737 149.401 75.2341C149.415 75.1981 149.441 75.1674 149.473 75.1465L150.444 74.5774ZM149.883 76.7186L150.444 76.4161C150.581 76.3396 150.699 76.2319 150.786 76.1017C150.879 75.9484 150.923 75.771 150.914 75.5923C150.914 75.3774 150.87 75.258 150.786 75.2341C150.665 75.2176 150.543 75.249 150.444 75.3216L149.903 75.6321L149.883 76.7186Z" fill="#FAFAFA"/>
<path d="M153.11 73.0444C153.255 72.9502 153.42 72.8928 153.592 72.8773C153.717 72.8727 153.838 72.917 153.93 73.0007C154.036 73.1115 154.109 73.2492 154.141 73.3987C154.195 73.596 154.224 73.7992 154.229 74.0036C154.229 74.2822 154.229 74.5688 154.229 74.8593C154.221 75.0963 154.191 75.332 154.141 75.5638C154.096 75.7791 154.026 75.9887 153.934 76.1886C153.845 76.3722 153.733 76.5435 153.6 76.6981C153.467 76.8563 153.308 76.9909 153.13 77.0961L152.187 77.6095C152.177 77.6179 152.164 77.6225 152.151 77.6225C152.138 77.6225 152.125 77.6179 152.115 77.6095C152.104 77.5975 152.095 77.583 152.089 77.5672C152.084 77.5514 152.082 77.5346 152.084 77.518V73.7967C152.085 73.7524 152.096 73.7089 152.115 73.6693C152.129 73.6333 152.155 73.6026 152.187 73.5817L153.11 73.0444ZM153.723 74.2822C153.722 74.1744 153.706 74.0674 153.676 73.9638C153.657 73.8855 153.617 73.8138 153.56 73.7569C153.535 73.7319 153.505 73.7123 153.472 73.6993C153.44 73.6863 153.404 73.6801 153.369 73.6812C153.269 73.6879 153.173 73.7209 153.091 73.7768L152.589 74.0633V76.6583L153.11 76.3598C153.211 76.301 153.301 76.2257 153.377 76.1369C153.451 76.0496 153.514 75.9533 153.564 75.8503C153.614 75.7407 153.651 75.6259 153.676 75.5081C153.703 75.3851 153.719 75.2599 153.723 75.1339C153.735 74.8434 153.735 74.5608 153.723 74.2822Z" fill="#FAFAFA"/>
<path d="M98.4569 15.2795C99.1439 15.4324 99.8058 15.6816 100.423 16.0198C101.014 16.3375 101.544 16.758 101.987 17.2615C102.411 17.7459 102.726 18.3161 102.911 18.9331C103.098 19.5937 103.112 20.2916 102.95 20.959C102.844 21.4881 102.634 21.9911 102.333 22.4395C102.059 22.8229 101.732 23.1659 101.362 23.4584C100.999 23.7404 100.612 23.9895 100.204 24.2027L99.0579 24.8116C98.7126 24.9917 98.3848 25.2035 98.0788 25.4444C97.8019 25.6568 97.5897 25.9421 97.4659 26.2683C97.4052 26.4173 97.3047 26.5468 97.1753 26.6424C97.1141 26.69 97.0429 26.7229 96.967 26.7388C96.8911 26.7546 96.8127 26.753 96.7375 26.7339L95.05 26.3598C94.9688 26.3428 94.8917 26.3097 94.8234 26.2626C94.755 26.2154 94.6968 26.1551 94.652 26.0852C94.6044 26.0202 94.5727 25.9449 94.5596 25.8654C94.5464 25.7859 94.5522 25.7044 94.5764 25.6275C94.7123 25.1049 94.9518 24.6149 95.2808 24.1867C95.581 23.808 95.9289 23.4696 96.3157 23.1798C96.6925 22.9039 97.0919 22.6603 97.5097 22.4515C97.9077 22.2485 98.3056 22.0535 98.6519 21.8584C98.974 21.6853 99.2769 21.4785 99.5554 21.2415C99.7997 21.037 99.9692 20.7569 100.037 20.4455C100.1 20.1751 100.097 19.8934 100.028 19.6245C99.9585 19.3556 99.8251 19.1074 99.639 18.9013C99.1736 18.3932 98.5515 18.0555 97.8718 17.9421C96.6142 17.6635 95.5528 18.0867 94.6878 19.2117C94.6043 19.3345 94.4991 19.4411 94.3774 19.5262C94.24 19.5943 94.0814 19.6057 93.9356 19.558L92.1406 19.16C92.0126 19.1353 91.8996 19.0609 91.8262 18.953C91.787 18.8954 91.7607 18.8301 91.7491 18.7614C91.7374 18.6927 91.7406 18.6224 91.7586 18.555C91.9111 18.002 92.1951 17.494 92.5864 17.0745C93.0277 16.5879 93.5519 16.1836 94.1346 15.8805C94.7718 15.5471 95.4585 15.3187 96.1684 15.2039C96.9289 15.0802 97.7062 15.1059 98.4569 15.2795ZM96.5505 28.0871C96.7084 28.1242 96.8455 28.2216 96.9325 28.3584C97.0195 28.4953 97.0495 28.6608 97.0161 28.8195L96.5863 30.7697C96.5717 30.8513 96.5401 30.929 96.4935 30.9976C96.4468 31.0662 96.3862 31.1241 96.3157 31.1677C96.249 31.2136 96.1736 31.2451 96.0941 31.2602C96.0146 31.2753 95.9328 31.2736 95.854 31.2552L93.9277 30.8134C93.8457 30.7996 93.7678 30.7683 93.6991 30.7216C93.6304 30.6749 93.5726 30.6139 93.5297 30.5428C93.485 30.4756 93.4546 30.4 93.4403 30.3206C93.4259 30.2412 93.4279 30.1597 93.4461 30.0811L93.8799 28.1309C93.917 27.9728 94.0142 27.8354 94.1509 27.7477C94.2876 27.6601 94.453 27.6291 94.6122 27.6613L96.5505 28.0871Z" fill="#55417C"/>
<path d="M100.582 33.9494C101.061 33.8725 101.549 33.8632 102.031 33.9215C102.491 33.9763 102.938 34.111 103.352 34.3195C103.746 34.524 104.094 34.8087 104.371 35.1553C104.621 35.4946 104.796 35.8823 104.887 36.2937C104.977 36.705 104.981 37.1307 104.896 37.5433C104.821 37.8606 104.699 38.165 104.534 38.4468C104.376 38.7209 104.192 38.9794 103.985 39.2189C103.782 39.4577 103.587 39.6846 103.408 39.9035C103.233 40.1074 103.077 40.3273 102.942 40.5602C102.816 40.7643 102.753 41.0009 102.759 41.2408C102.756 41.3529 102.724 41.4623 102.668 41.5592C102.639 41.6038 102.601 41.6418 102.556 41.6706C102.512 41.6994 102.462 41.7184 102.409 41.7263L101.215 41.9174C101.159 41.9275 101.102 41.9264 101.047 41.9141C100.991 41.9018 100.939 41.8785 100.893 41.8457C100.846 41.8162 100.806 41.7759 100.778 41.7281C100.75 41.6804 100.733 41.6265 100.729 41.5711C100.679 41.2007 100.706 40.824 100.809 40.4647C100.903 40.1465 101.036 39.8416 101.207 39.5572C101.374 39.2843 101.566 39.0272 101.78 38.7891C101.991 38.5503 102.178 38.3274 102.361 38.1125C102.525 37.9206 102.666 37.711 102.783 37.4876C102.887 37.2954 102.924 37.0745 102.891 36.8588C102.861 36.6689 102.785 36.4891 102.671 36.3346C102.557 36.18 102.407 36.0554 102.234 35.9712C101.806 35.7646 101.322 35.7058 100.857 35.8041C100.436 35.8656 100.044 36.0559 99.7358 36.3487C99.4272 36.6416 99.2168 37.0227 99.1335 37.4399C99.1101 37.5402 99.0697 37.6358 99.014 37.7224C98.943 37.798 98.8467 37.8448 98.7434 37.8538L97.4857 38.0568C97.3973 38.0737 97.3058 38.0551 97.231 38.005C97.1927 37.9787 97.1604 37.9445 97.1364 37.9047C97.1124 37.8649 97.0971 37.8204 97.0917 37.7742C97.0543 37.3792 97.1158 36.9812 97.2708 36.616C97.4282 36.1911 97.66 35.7975 97.9554 35.4538C98.2791 35.0775 98.6606 34.7551 99.0857 34.4986C99.5443 34.2205 100.053 34.034 100.582 33.9494ZM102.636 42.6457C102.691 42.637 102.747 42.6392 102.801 42.6522C102.855 42.6652 102.905 42.6887 102.95 42.7213C102.997 42.7522 103.037 42.7926 103.067 42.8399C103.097 42.8872 103.117 42.9404 103.125 42.9959L103.348 44.3611C103.366 44.4718 103.338 44.5849 103.273 44.6758C103.207 44.7667 103.109 44.8281 102.998 44.8466L101.665 45.0655C101.554 45.0827 101.441 45.0555 101.35 44.9899C101.304 44.9587 101.265 44.9181 101.236 44.8708C101.206 44.8235 101.187 44.7705 101.179 44.7153L100.956 43.3502C100.946 43.2954 100.948 43.2391 100.961 43.1849C100.974 43.1308 100.998 43.0799 101.032 43.0357C101.063 42.9896 101.104 42.9505 101.151 42.921C101.198 42.8915 101.251 42.8723 101.307 42.8646L102.636 42.6457Z" fill="#55417C"/>
<g opacity="0.2">
<path d="M100.582 33.9494C101.061 33.8725 101.549 33.8632 102.031 33.9215C102.491 33.9763 102.938 34.111 103.352 34.3195C103.746 34.524 104.094 34.8087 104.371 35.1553C104.621 35.4946 104.796 35.8823 104.887 36.2937C104.977 36.705 104.981 37.1307 104.896 37.5433C104.821 37.8606 104.699 38.165 104.534 38.4468C104.376 38.7209 104.192 38.9794 103.985 39.2189C103.782 39.4577 103.587 39.6846 103.408 39.9035C103.233 40.1074 103.077 40.3273 102.942 40.5602C102.816 40.7643 102.753 41.0009 102.759 41.2408C102.756 41.3529 102.724 41.4623 102.668 41.5592C102.639 41.6038 102.601 41.6418 102.556 41.6706C102.512 41.6994 102.462 41.7184 102.409 41.7263L101.215 41.9174C101.159 41.9275 101.102 41.9264 101.047 41.9141C100.991 41.9018 100.939 41.8785 100.893 41.8457C100.846 41.8162 100.806 41.7759 100.778 41.7281C100.75 41.6804 100.733 41.6265 100.729 41.5711C100.679 41.2007 100.706 40.824 100.809 40.4647C100.903 40.1465 101.036 39.8416 101.207 39.5572C101.374 39.2843 101.566 39.0272 101.78 38.7891C101.991 38.5503 102.178 38.3274 102.361 38.1125C102.525 37.9206 102.666 37.711 102.783 37.4876C102.887 37.2954 102.924 37.0745 102.891 36.8588C102.861 36.6689 102.785 36.4891 102.671 36.3346C102.557 36.18 102.407 36.0554 102.234 35.9712C101.806 35.7646 101.322 35.7058 100.857 35.8041C100.436 35.8656 100.044 36.0559 99.7358 36.3487C99.4272 36.6416 99.2168 37.0227 99.1335 37.4399C99.1101 37.5402 99.0697 37.6358 99.014 37.7224C98.943 37.798 98.8467 37.8448 98.7434 37.8538L97.4857 38.0568C97.3973 38.0737 97.3058 38.0551 97.231 38.005C97.1927 37.9787 97.1604 37.9445 97.1364 37.9047C97.1124 37.8649 97.0971 37.8204 97.0917 37.7742C97.0543 37.3792 97.1158 36.9812 97.2708 36.616C97.4282 36.1911 97.66 35.7975 97.9554 35.4538C98.2791 35.0775 98.6606 34.7551 99.0857 34.4986C99.5443 34.2205 100.053 34.034 100.582 33.9494ZM102.636 42.6457C102.691 42.637 102.747 42.6392 102.801 42.6522C102.855 42.6652 102.905 42.6887 102.95 42.7213C102.997 42.7522 103.037 42.7926 103.067 42.8399C103.097 42.8872 103.117 42.9404 103.125 42.9959L103.348 44.3611C103.366 44.4718 103.338 44.5849 103.273 44.6758C103.207 44.7667 103.109 44.8281 102.998 44.8466L101.665 45.0655C101.554 45.0827 101.441 45.0555 101.35 44.9899C101.304 44.9587 101.265 44.9181 101.236 44.8708C101.206 44.8235 101.187 44.7705 101.179 44.7153L100.956 43.3502C100.946 43.2954 100.948 43.2391 100.961 43.1849C100.974 43.1308 100.998 43.0799 101.032 43.0357C101.063 42.9896 101.104 42.9505 101.151 42.921C101.198 42.8915 101.251 42.8723 101.307 42.8646L102.636 42.6457Z" fill="black"/>
</g>
<path d="M111.838 36.0951C111.892 36.1328 111.938 36.1812 111.973 36.2373C112.008 36.2935 112.031 36.3561 112.041 36.4215C112.053 36.4862 112.052 36.5529 112.038 36.6173C112.024 36.6817 111.996 36.7424 111.957 36.7956L111.01 38.1289C110.972 38.1831 110.924 38.2291 110.867 38.264C110.811 38.2989 110.749 38.322 110.683 38.3319C110.619 38.3445 110.552 38.3436 110.488 38.3293C110.423 38.3149 110.362 38.2873 110.309 38.2483L109.004 37.3209C108.949 37.2837 108.904 37.2354 108.869 37.1791C108.835 37.1229 108.813 37.06 108.805 36.9946C108.792 36.9298 108.793 36.8632 108.807 36.7988C108.822 36.7344 108.849 36.6737 108.888 36.6205L109.848 35.2872C109.925 35.1791 110.042 35.106 110.173 35.0836C110.304 35.0613 110.439 35.0915 110.548 35.1678L111.838 36.0951ZM117.346 27.0645C117.822 27.3981 118.246 27.8005 118.604 28.2585C118.953 28.6845 119.222 29.1699 119.4 29.6913C119.565 30.191 119.62 30.7204 119.563 31.2435C119.495 31.8013 119.284 32.3321 118.95 32.7837C118.701 33.1489 118.382 33.4603 118.011 33.6991C117.684 33.9041 117.328 34.0597 116.956 34.1608C116.593 34.2556 116.223 34.3195 115.849 34.3519L114.791 34.4474C114.473 34.4728 114.159 34.5274 113.851 34.6106C113.568 34.6749 113.308 34.8185 113.103 35.0245C113.011 35.1186 112.893 35.1848 112.765 35.2155C112.704 35.233 112.639 35.2357 112.577 35.2232C112.515 35.2108 112.456 35.1836 112.407 35.1439L111.252 34.324C111.142 34.2452 111.067 34.1269 111.042 33.9937C111.027 33.9291 111.027 33.862 111.043 33.7977C111.059 33.7334 111.09 33.6737 111.133 33.6235C111.403 33.2737 111.74 32.9814 112.124 32.7638C112.47 32.5748 112.839 32.4317 113.223 32.338C113.592 32.2483 113.969 32.191 114.349 32.1668C114.723 32.143 115.073 32.1151 115.4 32.0833C115.698 32.0569 115.993 31.9982 116.279 31.9081C116.529 31.8248 116.745 31.6611 116.892 31.4425C117.025 31.2579 117.112 31.0439 117.144 30.8187C117.177 30.5935 117.154 30.3637 117.079 30.149C116.891 29.6185 116.531 29.1661 116.056 28.8634C115.197 28.2505 114.259 28.2306 113.242 28.8037C113.14 28.8688 113.027 28.9147 112.908 28.9391C112.846 28.9434 112.784 28.9354 112.725 28.9156C112.667 28.8958 112.612 28.8645 112.566 28.8236L111.34 27.952C111.296 27.9226 111.258 27.8845 111.228 27.84C111.199 27.7956 111.179 27.7457 111.169 27.6933C111.159 27.6392 111.161 27.5836 111.174 27.5302C111.187 27.4767 111.211 27.4266 111.245 27.3829C111.534 27.0123 111.91 26.7185 112.339 26.5272C112.827 26.3062 113.349 26.1715 113.883 26.1292C114.471 26.0801 115.062 26.1271 115.634 26.2685C116.252 26.4173 116.834 26.6879 117.346 27.0645Z" fill="#55417C"/>
<g opacity="0.6">
<path d="M111.838 36.0951C111.892 36.1328 111.938 36.1812 111.973 36.2373C112.008 36.2935 112.031 36.3561 112.041 36.4215C112.053 36.4862 112.052 36.5529 112.038 36.6173C112.024 36.6817 111.996 36.7424 111.957 36.7956L111.01 38.1289C110.972 38.1831 110.924 38.2291 110.867 38.264C110.811 38.2989 110.749 38.322 110.683 38.3319C110.619 38.3445 110.552 38.3436 110.488 38.3293C110.423 38.3149 110.362 38.2873 110.309 38.2483L109.004 37.3209C108.949 37.2837 108.904 37.2354 108.869 37.1791C108.835 37.1229 108.813 37.06 108.805 36.9946C108.792 36.9298 108.793 36.8632 108.807 36.7988C108.822 36.7344 108.849 36.6737 108.888 36.6205L109.848 35.2872C109.925 35.1791 110.042 35.106 110.173 35.0836C110.304 35.0613 110.439 35.0915 110.548 35.1678L111.838 36.0951ZM117.346 27.0645C117.822 27.3981 118.246 27.8005 118.604 28.2585C118.953 28.6845 119.222 29.1699 119.4 29.6913C119.565 30.191 119.62 30.7204 119.563 31.2435C119.495 31.8013 119.284 32.3321 118.95 32.7837C118.701 33.1489 118.382 33.4603 118.011 33.6991C117.684 33.9041 117.328 34.0597 116.956 34.1608C116.593 34.2556 116.223 34.3195 115.849 34.3519L114.791 34.4474C114.473 34.4728 114.159 34.5274 113.851 34.6106C113.568 34.6749 113.308 34.8185 113.103 35.0245C113.011 35.1186 112.893 35.1848 112.765 35.2155C112.704 35.233 112.639 35.2357 112.577 35.2232C112.515 35.2108 112.456 35.1836 112.407 35.1439L111.252 34.324C111.142 34.2452 111.067 34.1269 111.042 33.9937C111.027 33.9291 111.027 33.862 111.043 33.7977C111.059 33.7334 111.09 33.6737 111.133 33.6235C111.403 33.2737 111.74 32.9814 112.124 32.7638C112.47 32.5748 112.839 32.4317 113.223 32.338C113.592 32.2483 113.969 32.191 114.349 32.1668C114.723 32.143 115.073 32.1151 115.4 32.0833C115.698 32.0569 115.993 31.9982 116.279 31.9081C116.529 31.8248 116.745 31.6611 116.892 31.4425C117.025 31.2579 117.112 31.0439 117.144 30.8187C117.177 30.5935 117.154 30.3637 117.079 30.149C116.891 29.6185 116.531 29.1661 116.056 28.8634C115.197 28.2505 114.259 28.2306 113.242 28.8037C113.14 28.8688 113.027 28.9147 112.908 28.9391C112.846 28.9434 112.784 28.9354 112.725 28.9156C112.667 28.8958 112.612 28.8645 112.566 28.8236L111.34 27.952C111.296 27.9226 111.258 27.8845 111.228 27.84C111.199 27.7956 111.179 27.7457 111.169 27.6933C111.159 27.6392 111.161 27.5836 111.174 27.5302C111.187 27.4767 111.211 27.4266 111.245 27.3829C111.534 27.0123 111.91 26.7185 112.339 26.5272C112.827 26.3062 113.349 26.1715 113.883 26.1292C114.471 26.0801 115.062 26.1271 115.634 26.2685C116.252 26.4173 116.834 26.6879 117.346 27.0645Z" fill="white"/>
</g>
<path d="M82.1995 71.3252H68.0586V37.0653C68.0586 34.0897 69.2407 31.2359 71.3447 29.1319C73.4488 27.0278 76.3026 25.8457 79.2782 25.8457H80.5837C83.5593 25.8457 86.413 27.0278 88.5171 29.1319C90.6212 31.2359 91.8033 34.0897 91.8033 37.0653V61.7413C91.798 64.2849 90.7839 66.7226 88.9834 68.5193C87.1829 70.3161 84.7432 71.3252 82.1995 71.3252Z" fill="#263238"/>
<path d="M66.6812 153.803C66.4311 155.222 66.2979 156.66 66.2832 158.101C66.2314 160.712 65.7538 161.639 65.6902 163.781C65.6145 166.228 66.0404 167.144 67.0314 168.521C68.0224 169.898 70.6134 171.144 71.7358 168.819C72.8581 166.495 72.695 164.971 72.3407 162.571C71.9786 160.087 71.9427 158.714 71.7199 156.824C71.5368 155.156 71.3219 153.886 71.3219 153.886L66.6812 153.803Z" fill="#263238"/>
<path d="M74.0919 136.462L65.4951 136.307C65.6225 142.046 66.5339 148.418 66.6891 153.819C66.721 154.834 66.6652 161.695 67.0473 163.769C67.6244 166.905 71.3417 166.479 71.5407 164.604C71.7397 162.73 71.3019 154.718 71.3139 153.89C71.2781 150.436 72.9059 144.605 73.7457 138.404C73.7815 138.106 74.0521 136.76 74.0919 136.462Z" fill="#FFA8A7"/>
<path d="M85.1361 149.337C85.1361 149.337 84.7978 149.154 84.7381 149.516C84.6545 149.946 84.5271 150.834 84.3401 151.542C84.0933 152.525 83.8863 154.145 84.0336 154.949C84.1809 155.753 86.0515 156.78 87.2654 157.154C88.7614 157.616 90.1258 158.428 91.2454 159.522C92.4394 160.652 95.0383 161.719 96.8174 161.707C98.9069 161.707 100.364 161.011 101.052 159.892C101.741 158.774 100.423 158.639 98.0352 157.106L96.1845 155.912C92.3996 153.441 91.0105 152.119 89.9479 149.648L85.1361 149.337Z" fill="#263238"/>
<path d="M89.9803 147.805C89.9166 146.03 91.1425 130.941 91.1425 130.941L82.9795 134.663C84.7267 145.098 85.1008 147.562 85.1287 149.269C85.0929 149.412 85.0781 149.56 85.0849 149.707C85.0849 151.733 87.3814 152.827 89.1644 154.181C90.6802 155.368 92.2954 156.423 93.9922 157.333C95.2896 157.982 97.9244 158.041 98.2507 157.209C96.0777 155.55 92.9175 153.066 91.1902 151.172C90.3465 150.28 90.044 149.584 89.9803 147.805Z" fill="#FFA8A7"/>
<path d="M69.0176 80.459C65.8813 87.3404 65.8813 92.6656 66.4027 101.45C66.8644 109.509 67.6325 116.613 67.6325 116.613C67.5131 118.042 65.5271 120.832 65.2684 127.152C65.0296 133.059 65.6664 140.569 65.6664 140.569C65.6664 140.569 70.128 143.041 73.4274 140.545C73.4274 140.545 76.6114 125.345 77.5427 117.951C78.3387 111.499 79.7715 103.256 79.7715 103.256L82.7844 117.907C82.1341 119.985 81.6628 122.116 81.3755 124.275C80.9536 128.625 83.3894 137.166 83.3894 137.166C83.3894 137.166 87.9982 138.539 90.8121 136.044C90.8121 136.044 91.8628 122.157 92.2568 116.92C92.7822 109.903 91.6757 90.9105 90.8121 80.853L69.0176 80.459Z" fill="#455A64"/>
<path d="M79.7793 103.245L81.0171 92.204C81.0171 92.204 86.5652 91.4637 89.0806 89.0996C88.3606 90.226 87.4016 91.18 86.2714 91.894C85.1413 92.608 83.8678 93.0644 82.5414 93.2309L80.7504 103.503L82.7842 117.907L79.7793 103.245Z" fill="#263238"/>
<path d="M102.246 77.7448C102.475 75.7301 102.577 73.7028 102.549 71.6753C102.425 69.9241 102.111 69.6375 99.6633 66.5371C96.3599 62.3462 93.538 58.5771 90.553 54.832C88.4198 52.1574 86.175 51.7475 83.994 51.8669C82.4657 51.9504 85.4507 59.3015 86.9511 63.6516L95.5201 72.8773C95.7855 73.2414 95.9074 73.6906 95.8624 74.1389L95.345 81.9875L97.9121 85.4262C97.9121 85.4262 101.801 82.075 102.246 77.7448Z" fill="#FFA8A7"/>
<path d="M75.7315 52.1056C74.0719 52.221 71.055 52.5036 71.055 52.5036C69.3158 53.4747 68.874 54.2747 68.5516 56.5831C68.4123 57.5701 69.2163 60.1929 69.9048 63.9222L71.2103 70.8355L71.067 74.2662C70.3904 76.3597 68.8581 78.9586 67.5049 82.7914C74.1515 86.5007 79.7235 86.64 84.7781 85.9754C88.6307 85.4779 90.6725 84.5466 91.353 83.6232C91.2098 79.8382 90.955 77.498 90.8754 73.5419C90.8476 71.8822 90.9471 70.2026 91.0147 68.2922C93.5978 66.1669 93.6296 62.6327 92.2087 60.3322C88.9332 55.0269 85.7452 51.6877 83.6358 51.8588L75.7315 52.1056Z" fill="#334249"/>
<path opacity="0.1" d="M85.8687 68.3441C85.8687 68.3441 82.836 70.7003 79.3694 69.4704C78.3959 69.1637 77.5181 68.6109 76.8209 67.8656C76.1237 67.1202 75.6306 66.2075 75.3894 65.2158C75.3894 65.2158 75.0232 69.1759 79.3893 70.5251C83.62 71.8266 85.8687 68.3441 85.8687 68.3441Z" fill="black"/>
<path d="M89.9836 41.2366C89.8522 46.9837 87.9936 48.4006 87.0543 48.7986C86.115 49.1966 84.316 48.9578 82.5648 48.6672V52.1378C82.5648 52.1378 84.5867 54.2552 84.4354 55.8352C84.2842 57.4153 81.2514 57.5944 78.9908 56.0462C77.7434 55.1894 76.6152 54.1709 75.6357 53.0174C75.4476 52.7949 75.3446 52.5128 75.3451 52.2214V44.1022C75.3451 44.1022 74.3859 45.1171 72.6905 43.9549C72.3246 43.7215 72.0114 43.4144 71.7706 43.0533C71.5299 42.6923 71.3669 42.285 71.292 41.8576C71.2172 41.4301 71.232 40.9917 71.3358 40.5703C71.4395 40.1489 71.6297 39.7537 71.8945 39.4098C72.6347 38.5381 74.5133 38.4784 75.4128 39.8078C75.9222 40.7988 75.9899 41.7978 76.559 41.3998C78.0714 40.3092 77.2595 37.8178 79.0863 36.6238C79.6858 36.3109 80.3085 36.0448 80.949 35.8278C84.2086 34.7014 87.0344 33.7542 87.715 31.5254C88.9965 32.2577 90.1428 34.4587 89.9836 41.2366Z" fill="#FFA8A7"/>
<path d="M83.556 46.3708C83.9736 46.3708 84.3122 46.0322 84.3122 45.6146C84.3122 45.197 83.9736 44.8584 83.556 44.8584C83.1384 44.8584 82.7998 45.197 82.7998 45.6146C82.7998 46.0322 83.1384 46.3708 83.556 46.3708Z" fill="#B16668"/>
<path d="M83.0549 40.3654C83.0547 40.5211 83.0088 40.6733 82.923 40.8032C82.8372 40.9331 82.7151 41.035 82.572 41.0962C82.4288 41.1574 82.2709 41.1754 82.1177 41.1477C81.9644 41.1201 81.8227 41.0482 81.7099 40.9408C81.5972 40.8334 81.5184 40.6953 81.4833 40.5436C81.4483 40.3919 81.4585 40.2333 81.5127 40.0873C81.5669 39.9413 81.6627 39.8145 81.7882 39.7224C81.9138 39.6304 82.0636 39.5771 82.2191 39.5694C82.3269 39.564 82.4347 39.5806 82.5359 39.6181C82.6372 39.6557 82.7297 39.7135 82.8079 39.7879C82.886 39.8624 82.9483 39.952 82.9907 40.0513C83.0332 40.1505 83.055 40.2574 83.0549 40.3654Z" fill="#263238"/>
<path d="M89.0844 40.4448C89.0926 40.5422 89.0812 40.6402 89.0511 40.7332C89.021 40.8261 88.9726 40.9122 88.9089 40.9862C88.8452 41.0603 88.7674 41.121 88.68 41.1647C88.5926 41.2084 88.4974 41.2343 88.3999 41.2408C88.3015 41.2499 88.2023 41.2379 88.1089 41.2058C88.0155 41.1736 87.93 41.1219 87.8581 41.0541C87.7862 40.9864 87.7296 40.9041 87.6919 40.8128C87.6542 40.7214 87.6364 40.6231 87.6397 40.5244C87.6294 40.4263 87.6393 40.3271 87.6687 40.233C87.6981 40.1389 87.7464 40.0517 87.8107 39.9769C87.875 39.9021 87.9539 39.8412 88.0425 39.798C88.1311 39.7547 88.2277 39.73 88.3262 39.7254C88.4247 39.7208 88.5232 39.7363 88.6155 39.7711C88.7078 39.8059 88.792 39.8591 88.863 39.9276C88.934 39.9961 88.9902 40.0783 89.0283 40.1693C89.0664 40.2603 89.0855 40.3581 89.0844 40.4567V40.4448Z" fill="#263238"/>
<path d="M82.0324 42.4106C81.3459 42.4106 80.6875 42.1382 80.2017 41.6531C79.7159 41.1681 79.4425 40.5101 79.4414 39.8236C79.4414 38.0645 81.2563 38.0645 82.0324 38.0645C82.8085 38.0645 84.6194 38.0645 84.6194 39.8236C84.6183 40.5094 84.3454 41.1668 83.8605 41.6517C83.3756 42.1367 82.7182 42.4096 82.0324 42.4106ZM82.0324 38.4704C80.4404 38.4704 79.8513 38.8684 79.8513 39.8236C79.8513 40.4042 80.082 40.961 80.4925 41.3715C80.903 41.782 81.4598 42.0126 82.0403 42.0126C82.6209 42.0126 83.1777 41.782 83.5882 41.3715C83.9987 40.961 84.2293 40.4042 84.2293 39.8236C84.2134 38.8485 83.6005 38.4704 82.0324 38.4704Z" fill="#455A64"/>
<path d="M88.6027 42.4106C87.9162 42.4106 87.2578 42.1382 86.772 41.6531C86.2862 41.1681 86.0128 40.5101 86.0117 39.8236C86.0117 38.0645 87.8266 38.0645 88.6027 38.0645C89.3788 38.0645 91.1897 38.0645 91.1897 39.8236C91.1886 40.5094 90.9158 41.1668 90.4308 41.6517C89.9459 42.1367 89.2885 42.4096 88.6027 42.4106ZM88.6027 38.4704C87.0346 38.4704 86.4217 38.8684 86.4217 39.8236C86.4217 40.4042 86.6523 40.961 87.0628 41.3715C87.4733 41.782 88.0301 42.0126 88.6107 42.0126C89.1912 42.0126 89.748 41.782 90.1585 41.3715C90.569 40.961 90.7997 40.4042 90.7997 39.8236C90.7837 38.8485 90.1708 38.4704 88.6027 38.4704Z" fill="#455A64"/>
<path d="M85.0205 38.9883L85.1479 43.824L87.6911 43.0359L85.0205 38.9883Z" fill="#F28F8F"/>
<path d="M82.561 48.6795C80.7142 48.4368 76.9133 47.3462 76.3203 45.8418C76.559 46.6021 77.0242 47.2714 77.6536 47.7602C78.7879 48.7353 82.561 49.8298 82.561 49.8298V48.6795Z" fill="#F28F8F"/>
<path d="M82.6526 36.6396L80.9651 37.6705C80.8321 37.4388 80.7934 37.1648 80.8572 36.9054C80.9209 36.646 81.0821 36.4211 81.3073 36.2775C81.4187 36.2099 81.5425 36.1656 81.6715 36.1473C81.8004 36.129 81.9317 36.137 82.0574 36.1708C82.1832 36.2047 82.3007 36.2637 82.403 36.3442C82.5053 36.4248 82.5902 36.5253 82.6526 36.6396Z" fill="#263238"/>
<path d="M89.5182 37.7856L87.6396 37.1289C87.676 37.0044 87.7374 36.8886 87.8202 36.7888C87.9029 36.6889 88.0052 36.607 88.1208 36.5481C88.2363 36.4892 88.3627 36.4545 88.4922 36.4463C88.6216 36.438 88.7513 36.4563 88.8735 36.5C89.1254 36.5906 89.3329 36.7746 89.4529 37.0139C89.5729 37.2532 89.5963 37.5295 89.5182 37.7856Z" fill="#263238"/>
<path d="M84.4159 40.0305C84.3889 40.0305 84.3622 40.0252 84.3373 40.0147C84.3124 40.0043 84.2899 39.989 84.271 39.9697C84.2521 39.9504 84.2372 39.9276 84.2272 39.9025C84.2173 39.8774 84.2124 39.8506 84.2129 39.8236C84.2129 39.4932 84.8657 39.2783 85.4547 39.2783C86.0437 39.2783 86.4218 39.4932 86.4218 39.8236C86.4095 39.8668 86.3834 39.9049 86.3475 39.932C86.3116 39.959 86.2678 39.9737 86.2228 39.9737C86.1779 39.9737 86.1341 39.959 86.0982 39.932C86.0623 39.9049 86.0362 39.8668 86.0238 39.8236C86.0238 39.7838 85.8209 39.6843 85.4666 39.6843C85.1814 39.6782 84.8977 39.7268 84.6308 39.8276C84.6309 39.8553 84.6253 39.8827 84.6143 39.9081C84.6034 39.9335 84.5874 39.9565 84.5672 39.9755C84.5471 39.9945 84.5233 40.0092 84.4973 40.0187C84.4712 40.0281 84.4436 40.0322 84.4159 40.0305Z" fill="#455A64"/>
<path d="M79.6522 39.8552H79.6284L75.0792 39.4572C74.8667 39.2466 74.6134 39.0813 74.335 38.9717L79.6761 39.4652C79.7297 39.4722 79.7784 39.4998 79.8118 39.5422C79.8453 39.5846 79.8609 39.6384 79.8552 39.6921C79.8459 39.7387 79.8205 39.7807 79.7834 39.8105C79.7462 39.8403 79.6998 39.8562 79.6522 39.8552Z" fill="#455A64"/>
<path d="M60.9738 44.5996C62.4623 42.6096 63.4772 41.1092 64.8344 39.4256C65.6065 38.4585 66.1 37.766 66.8244 36.775C67.3338 36.0904 67.6204 35.5133 68.2015 35.3024C68.8293 35.0451 69.395 34.6571 69.8611 34.1641C70.1476 33.8471 70.4135 33.5121 70.6571 33.1611C71.5102 32.0129 72.5234 30.9929 73.666 30.1323C74.86 29.2329 76.1933 28.5403 77.4231 27.6846C78.1554 27.1712 78.9395 26.3195 78.048 25.5235C77.7745 25.2932 77.4473 25.1358 77.0968 25.0658C74.9277 24.5962 73.0411 25.3404 70.9198 25.8817C69.9983 26.1117 69.0972 26.4165 68.2253 26.7931C67.7965 26.9627 67.3944 27.1933 67.0313 27.4777C66.5238 27.9894 66.1078 28.5844 65.8015 29.2368C64.8742 30.8925 62.8842 32.3731 61.4912 33.6825C59.8634 35.2148 58.4067 36.6197 56.548 38.3073C54.8764 39.8316 53.2406 41.2326 51.7083 42.8962C50.4387 44.2693 50.9123 45.3439 51.0795 45.718C52.1143 47.8433 53.2725 48.6075 54.6615 49.9249C57.0495 52.2054 65.308 58.7684 68.0423 60.9375C68.6297 61.399 69.0911 62.0013 69.3835 62.6887L69.9089 63.9026C73.0292 64.4758 75.1107 59.7913 72.5277 54.1516C72.1 53.2397 71.4465 52.452 70.6293 51.8631C67.3657 49.4871 60.9738 44.5996 60.9738 44.5996Z" fill="#FFA8A7"/>
<path d="M60.974 44.5996C59.9808 45.8214 58.6573 46.7318 57.1611 47.2224C57.1611 47.2224 59.1511 47.7319 61.8774 45.2842L60.974 44.5996Z" fill="#F28F8F"/>
<path d="M101.434 73.5942L100.925 73.1564C100.849 73.1062 100.762 73.0747 100.671 73.0643C100.581 73.0539 100.489 73.065 100.404 73.0967L94.8753 74.6011C94.5968 74.694 94.3417 74.8459 94.1274 75.0465C93.9131 75.247 93.7446 75.4916 93.6336 75.7633L89.6536 87.2376C89.6056 87.3311 89.5868 87.4368 89.5996 87.5411C89.6124 87.6454 89.6561 87.7435 89.7252 87.8227L90.2506 88.2764C90.327 88.3291 90.4152 88.3624 90.5074 88.3735C90.5996 88.3846 90.6931 88.3732 90.7799 88.3401L96.3161 86.8356C96.5946 86.7428 96.8497 86.5909 97.064 86.3903C97.2783 86.1897 97.4468 85.9452 97.5578 85.6735C98.3538 83.4168 100.742 76.4558 101.538 74.1991C101.633 73.9166 101.586 73.7016 101.434 73.5942Z" fill="#455A64"/>
<path d="M90.1749 87.6793L94.1549 76.205C94.2655 75.9334 94.4339 75.6892 94.6483 75.4892C94.8627 75.2892 95.1181 75.1383 95.3967 75.0468L100.921 73.5424C101.434 73.4031 101.717 73.6976 101.534 74.1991C100.738 76.4557 98.3498 83.4167 97.5538 85.6734C97.4428 85.9451 97.2743 86.1896 97.06 86.3902C96.8457 86.5908 96.5905 86.7427 96.3121 86.8356L90.7878 88.3559C90.2784 88.4753 90.0038 88.1808 90.1749 87.6793Z" fill="#55417C"/>
<path d="M94.7958 75.3646C94.5084 75.5823 94.2856 75.8739 94.151 76.2084L90.171 87.6788C90.1255 87.7699 90.1065 87.872 90.1164 87.9734C90.1262 88.0747 90.1645 88.1713 90.2268 88.2519L89.7332 87.83C89.6625 87.7518 89.6174 87.6539 89.6039 87.5493C89.5904 87.4447 89.6091 87.3386 89.6576 87.2449L93.6376 75.7706C93.7635 75.4587 93.9677 75.1845 94.2306 74.9746L94.7958 75.3646Z" fill="#37474F"/>
<path d="M99.9184 78.8237C99.5204 79.9899 98.1393 80.77 95.8548 81.3112C93.5703 81.8525 92.3086 84.2763 92.6708 85.0126C93.033 85.7489 96.7264 86.4375 98.203 86.2265C99.6796 86.0156 101.16 83.8823 101.61 83.2216C102.06 82.561 102.577 77.9521 102.103 77.3193C101.63 76.6865 100.631 76.786 100.631 76.786L99.9184 78.8237Z" fill="#F28F8F"/>
</svg>
