<svg width="24" height="22" viewBox="0 0 24 22" fill="none" xmlns="http://www.w3.org/2000/svg">
<path d="M0.0362434 13.2905C0.088956 13.3243 0.088956 13.3243 0.142734 13.3589C0.18892 13.3884 0.235106 13.418 0.282692 13.4485C0.328439 13.4779 0.374186 13.5072 0.421319 13.5374C1.02891 13.9201 1.70623 14.1845 2.4308 14.1889C2.51693 14.1896 2.51693 14.1896 2.60479 14.1903C2.66779 14.1906 2.73079 14.1909 2.79379 14.1911C2.86061 14.1916 2.92743 14.1921 2.99425 14.1926C3.17512 14.1938 3.35599 14.1948 3.53687 14.1957C3.72609 14.1968 3.9153 14.198 4.10452 14.1993C4.4626 14.2016 4.82067 14.2038 5.17875 14.2058C5.58651 14.2081 5.99427 14.2107 6.40203 14.2133C7.2406 14.2186 8.07917 14.2236 8.91774 14.2284C8.91877 14.2706 8.91877 14.2706 8.91981 14.3136C8.92332 14.4425 8.92783 14.5714 8.93235 14.7003C8.93341 14.7445 8.93446 14.7888 8.93555 14.8343C8.94743 15.1453 8.97429 15.4069 9.19985 15.6397C9.40163 15.7699 9.61257 15.8782 9.82634 15.9871C10.2537 16.2075 10.6771 16.4338 11.0979 16.6666C11.1763 16.7099 11.2548 16.7528 11.3335 16.7955C11.4032 16.8335 11.4725 16.8724 11.5411 16.9124C11.7548 17.0313 11.9449 17.1006 12.1899 17.0422C12.4103 16.9515 12.6178 16.8398 12.8268 16.7257C12.8869 16.6936 12.947 16.6615 13.0072 16.6295C13.1584 16.5489 13.3091 16.4673 13.4596 16.3854C13.5906 16.3143 13.7219 16.2439 13.8531 16.1734C14.5523 15.8633 14.5523 15.8633 15.0205 15.3158C15.0435 15.2026 15.0512 15.0949 15.0561 14.9795C15.0581 14.9357 15.06 14.8918 15.062 14.8467C15.0648 14.7786 15.0648 14.7786 15.0676 14.7091C15.0696 14.663 15.0716 14.6169 15.0737 14.5693C15.0787 14.4557 15.0834 14.3421 15.088 14.2284C15.1224 14.2283 15.1567 14.2282 15.1921 14.2281C16.0298 14.2253 16.8676 14.2217 17.7054 14.2174C18.1105 14.2153 18.5156 14.2134 18.9208 14.2122C19.2742 14.2111 19.6276 14.2095 19.981 14.2074C20.1678 14.2063 20.3547 14.2054 20.5416 14.2051C20.718 14.2048 20.8944 14.2038 21.0708 14.2024C21.1654 14.2018 21.2599 14.2019 21.3545 14.202C22.2432 14.193 23.0059 13.9302 23.7358 13.4312C23.8136 13.384 23.8915 13.3371 23.9695 13.2905C23.975 14.3357 23.9791 15.3809 23.9817 16.4262C23.9829 16.9115 23.9845 17.3969 23.9872 17.8822C23.9895 18.3053 23.991 18.7283 23.9915 19.1514C23.9918 19.3754 23.9926 19.5993 23.9943 19.8233C23.9958 20.0342 23.9963 20.2451 23.996 20.4561C23.996 20.5334 23.9965 20.6107 23.9974 20.6879C24.0056 21.4313 24.0056 21.4313 23.8164 21.6537C23.4086 22.0499 22.8868 21.9996 22.3599 21.9962C22.2669 21.9965 22.1739 21.9969 22.0809 21.9973C21.826 21.9983 21.5711 21.9978 21.3161 21.9971C21.041 21.9966 20.7658 21.9974 20.4906 21.998C19.9518 21.9991 19.4129 21.9989 18.8741 21.9982C18.4362 21.9976 17.9983 21.9976 17.5603 21.9978C17.5136 21.9979 17.5136 21.9979 17.466 21.9979C17.3396 21.998 17.2132 21.998 17.0868 21.9981C15.9015 21.9988 14.7163 21.9982 13.5311 21.9969C12.4785 21.9958 11.4259 21.9959 10.3733 21.997C9.19016 21.9983 8.00706 21.9988 6.82396 21.9981C6.69779 21.998 6.57163 21.9979 6.44547 21.9978C6.4144 21.9978 6.38334 21.9978 6.35133 21.9978C5.88262 21.9975 5.41391 21.9978 4.94519 21.9984C4.41214 21.9991 3.8791 21.9989 3.34605 21.9976C3.07409 21.997 2.80215 21.9968 2.53019 21.9976C2.28118 21.9983 2.03219 21.9979 1.78318 21.9966C1.69316 21.9964 1.60313 21.9965 1.51311 21.9971C0.5486 22.0027 0.5486 22.0027 0.189379 21.6537C-0.0555147 21.3659 0.00558385 20.9286 0.0097098 20.5737C0.00977579 20.4942 0.00973859 20.4147 0.00960637 20.3352C0.0095395 20.1201 0.0109106 19.905 0.0125452 19.6899C0.0140094 19.4649 0.0141438 19.2398 0.0144209 19.0147C0.0151464 18.5889 0.0170632 18.163 0.0194108 17.7372C0.0220261 17.2522 0.023309 16.7672 0.0244816 16.2823C0.0269225 15.285 0.0310317 14.2877 0.0362434 13.2905Z" fill="#55417C"/>
<path d="M1.06022 5.12405C1.09846 5.12394 1.13671 5.12383 1.17612 5.12372C1.30539 5.1234 1.43466 5.12343 1.56393 5.12345C1.6571 5.12329 1.75028 5.12312 1.84346 5.12292C2.10037 5.12245 2.35729 5.12228 2.6142 5.12215C2.89095 5.12197 3.1677 5.12152 3.44445 5.12111C4.08159 5.12023 4.71874 5.11975 5.35588 5.11936C5.67067 5.11916 5.98547 5.11891 6.30026 5.11867C7.37764 5.11783 8.45502 5.11712 9.5324 5.11678C9.60005 5.11675 9.6677 5.11673 9.73534 5.11671C9.76889 5.1167 9.80244 5.11669 9.837 5.11667C10.007 5.11662 10.1769 5.11656 10.3469 5.1165C10.3806 5.11649 10.4144 5.11648 10.4491 5.11647C11.5429 5.1161 12.6367 5.115 13.7305 5.11348C14.8866 5.11187 16.0428 5.11094 17.1989 5.11079C17.3258 5.11077 17.4527 5.11075 17.5796 5.11072C17.6109 5.11072 17.6421 5.11071 17.6743 5.1107C18.1462 5.1106 18.618 5.10998 19.0899 5.10908C19.6266 5.10806 20.1633 5.10768 20.7001 5.10814C20.974 5.10835 21.2479 5.10826 21.5219 5.10735C21.7726 5.10653 22.0233 5.10657 22.274 5.1073C22.3647 5.10741 22.4555 5.10721 22.5463 5.10665C22.6696 5.10595 22.7928 5.1064 22.9162 5.10713C22.9514 5.10665 22.9867 5.10617 23.0231 5.10568C23.2788 5.10902 23.4746 5.17698 23.6891 5.31794C23.8686 5.50749 23.9808 5.6825 23.9824 5.94656C23.9828 5.98763 23.9833 6.0287 23.9838 6.07101C23.9838 6.11571 23.9838 6.16042 23.9839 6.20648C23.9843 6.25386 23.9847 6.30124 23.9851 6.35006C23.9862 6.50705 23.9866 6.66403 23.9869 6.82103C23.9873 6.93053 23.9877 7.04003 23.9882 7.14953C23.9889 7.37949 23.9893 7.60945 23.9894 7.83941C23.9897 8.13249 23.9914 8.42554 23.9936 8.71861C23.995 8.94509 23.9953 9.17157 23.9954 9.39806C23.9956 9.50599 23.9961 9.61392 23.9971 9.72185C24.0041 10.5539 23.9494 11.2133 23.4086 11.8835C23.3551 11.9575 23.3551 11.9575 23.3005 12.033C22.8881 12.466 22.2797 12.794 21.6778 12.83C21.5048 12.833 21.332 12.8331 21.1589 12.8321C21.0926 12.8321 21.0262 12.8321 20.9598 12.8322C20.7806 12.8322 20.6014 12.8317 20.4221 12.831C20.2345 12.8304 20.0468 12.8304 19.8592 12.8303C19.5042 12.83 19.1493 12.8292 18.7944 12.8282C18.3901 12.8272 17.9859 12.8267 17.5816 12.8262C16.7504 12.8252 15.9192 12.8236 15.088 12.8215C15.0874 12.7605 15.0874 12.7605 15.0867 12.6983C15.0847 12.5458 15.0818 12.3934 15.0783 12.241C15.077 12.1753 15.076 12.1097 15.0754 12.044C15.0743 11.5114 15.0743 11.5114 14.8543 11.0394C14.6184 10.8583 14.3592 10.8788 14.0745 10.8805C14.0247 10.8803 13.975 10.88 13.9237 10.8798C13.7596 10.8791 13.5956 10.8795 13.4315 10.88C13.3173 10.8799 13.2031 10.8798 13.0889 10.8796C12.8497 10.8794 12.6105 10.8797 12.3712 10.8804C12.0647 10.8812 11.7582 10.8807 11.4517 10.8799C11.2159 10.8794 10.9801 10.8795 10.7443 10.8799C10.6313 10.88 10.5183 10.8799 10.4053 10.8795C10.2473 10.8792 10.0893 10.8797 9.93134 10.8805C9.88471 10.8802 9.83807 10.8799 9.79003 10.8796C9.54614 10.8819 9.3522 10.8853 9.15147 11.0394C8.91076 11.3733 8.93342 11.745 8.92943 12.1415C8.92811 12.2076 8.92671 12.2736 8.92523 12.3397C8.92194 12.5003 8.91947 12.6609 8.91774 12.8215C8.0506 12.8259 7.18345 12.8292 6.31629 12.8312C5.91361 12.8322 5.51092 12.8335 5.10824 12.8356C4.75703 12.8375 4.40582 12.8387 4.0546 12.8391C3.86885 12.8394 3.6831 12.84 3.49735 12.8413C3.32204 12.8426 3.14676 12.843 2.97145 12.8427C2.87739 12.8428 2.78333 12.8438 2.68928 12.8448C1.98762 12.8417 1.30203 12.6139 0.782881 12.1252C0.0754487 11.3508 5.7728e-05 10.5755 0.00520196 9.56818C0.00504419 9.45863 0.00481709 9.34908 0.00452436 9.23953C0.0041818 9.01127 0.00467441 8.78303 0.00577258 8.55477C0.0071093 8.26278 0.00633298 7.97083 0.00493761 7.67883C0.00409211 7.45316 0.00436209 7.22751 0.00496739 7.00184C0.00512277 6.89416 0.00493382 6.78648 0.00438786 6.67881C0.00379211 6.52843 0.00470178 6.37814 0.00600073 6.22777C0.00552762 6.18374 0.0050546 6.13971 0.00456715 6.09435C0.00930629 5.79718 0.0766781 5.59345 0.269967 5.36483C0.534069 5.15816 0.734248 5.12342 1.06022 5.12405Z" fill="#55417C"/>
<path d="M9.4856 0.00566608C9.57609 0.00530655 9.57609 0.00530655 9.66841 0.00493975C9.8328 0.00431569 9.99718 0.00428422 10.1616 0.0044034C10.2993 0.00445384 10.4371 0.00422387 10.5748 0.00399983C10.9001 0.00348084 11.2254 0.00345823 11.5507 0.00374256C11.8851 0.00402569 12.2194 0.00344846 12.5538 0.0024496C12.842 0.00162073 13.1302 0.00134244 13.4184 0.00149467C13.59 0.00157926 13.7616 0.00146032 13.9333 0.000804597C14.1249 9.98147e-05 14.3165 0.000543959 14.5081 0.00108627C14.5922 0.000548568 14.5922 0.000548568 14.678 0C15.2546 0.00359244 15.7788 0.127228 16.2118 0.529104C16.7375 1.10038 16.7749 1.87757 16.8813 2.61587C16.8967 2.72258 16.9125 2.82923 16.9284 2.93589C16.9384 3.00458 16.9484 3.07328 16.9584 3.14198C16.9673 3.20307 16.9762 3.26417 16.9854 3.32712C17.0046 3.48894 17.0046 3.48894 17.0046 3.72343C16.511 3.72343 16.0173 3.72343 15.5088 3.72343C15.4494 3.4557 15.3967 3.1984 15.3616 2.92819C15.3521 2.85989 15.3426 2.79159 15.3331 2.72329C15.3185 2.61754 15.3041 2.51179 15.2904 2.40592C15.2768 2.30242 15.2623 2.1991 15.2476 2.09576C15.2394 2.0346 15.2312 1.97343 15.2227 1.91041C15.1762 1.73333 15.1352 1.67909 14.9946 1.56616C14.8767 1.53818 14.8767 1.53818 14.7462 1.54234C14.6707 1.54154 14.6707 1.54154 14.5937 1.54073C14.5387 1.54111 14.4837 1.54149 14.427 1.54188C14.369 1.54155 14.3109 1.54123 14.251 1.54089C14.0919 1.5402 13.9327 1.54036 13.7736 1.54096C13.6069 1.54143 13.4403 1.54099 13.2737 1.5407C12.9939 1.54036 12.7142 1.54081 12.4344 1.5417C12.111 1.54272 11.7876 1.54239 11.4641 1.54136C11.1864 1.54051 10.9087 1.54039 10.6309 1.54088C10.4651 1.54117 10.2992 1.54121 10.1334 1.54059C9.94849 1.53995 9.76363 1.54084 9.57874 1.54188C9.49627 1.54131 9.49627 1.54131 9.41213 1.54073C9.3618 1.54126 9.31147 1.54179 9.25961 1.54234C9.2159 1.54241 9.17219 1.54248 9.12716 1.54255C8.97625 1.57328 8.9204 1.63583 8.82425 1.75374C8.78813 1.84625 8.78813 1.84625 8.77802 1.94575C8.76985 2.00161 8.76985 2.00161 8.76151 2.0586C8.75648 2.09837 8.75146 2.13814 8.74629 2.17912C8.74044 2.22027 8.73459 2.26142 8.72856 2.30381C8.71005 2.43497 8.69262 2.56624 8.67525 2.69755C8.65718 2.82916 8.63888 2.96074 8.62045 3.0923C8.60906 3.1741 8.59792 3.25594 8.58705 3.33781C8.54887 3.61943 8.54887 3.61943 8.49704 3.72343C8.00342 3.72343 7.50979 3.72343 7.00121 3.72343C7.02884 3.41851 7.05651 3.11723 7.09872 2.81461C7.1059 2.76273 7.1059 2.76273 7.11323 2.70979C7.12329 2.63756 7.13343 2.56533 7.14363 2.49312C7.15896 2.38401 7.17376 2.27484 7.18855 2.16565C7.28482 1.47175 7.40861 0.830724 7.97974 0.368627C8.44675 0.0364921 8.92633 0.00451094 9.4856 0.00566608Z" fill="#55417C"/>
<path d="M10.3201 12.2587C11.4307 12.2587 12.5414 12.2587 13.6857 12.2587C13.6857 13.0635 13.6857 13.8682 13.6857 14.6974C13.3155 14.9063 13.3155 14.9063 12.9378 15.1195C12.8528 15.168 12.7679 15.2165 12.6803 15.2666C12.6084 15.3065 12.5365 15.3464 12.4645 15.3862C12.4279 15.4074 12.3912 15.4287 12.3535 15.4506C12.3177 15.4701 12.2819 15.4897 12.245 15.5098C12.214 15.5273 12.1831 15.5447 12.1511 15.5627C11.93 15.6187 11.7122 15.4715 11.5197 15.3706C11.4738 15.3466 11.4279 15.3226 11.3806 15.2978C11.3334 15.2728 11.2861 15.2478 11.2375 15.222C11.1906 15.1976 11.1437 15.1731 11.0954 15.1479C10.9608 15.0771 10.8267 15.0064 10.694 14.9319C10.6616 14.9182 10.6292 14.9044 10.5958 14.8903C10.4835 14.8359 10.4058 14.7886 10.3201 14.6974C10.2678 14.5118 10.2764 14.3326 10.2836 14.141C10.2841 14.0695 10.2841 14.0695 10.2847 13.9965C10.2867 13.8187 10.2919 13.6411 10.2967 13.4634C10.3044 13.0659 10.3121 12.6683 10.3201 12.2587Z" fill="#55417C"/>
</svg>
