<svg width="24" height="21" viewBox="0 0 24 21" fill="none" xmlns="http://www.w3.org/2000/svg">
<path d="M9.8291 0.00568024C9.8812 0.00543995 9.93329 0.00519967 9.98696 0.0049521C10.1579 0.00430257 10.3288 0.00434348 10.4998 0.00445208C10.6194 0.00426914 10.7391 0.0040653 10.8587 0.00384159C11.109 0.00349157 11.3593 0.00349729 11.6097 0.00375192C11.8977 0.00403569 12.1856 0.00345708 12.4736 0.00245572C12.7523 0.00152288 13.031 0.00138484 13.3097 0.00155C13.4276 0.00152597 13.5454 0.0012816 13.6632 0.000806608C13.8284 0.000222317 13.9936 0.000546412 14.1588 0.00108899C14.2308 0.000549939 14.2308 0.000549939 14.3042 0C14.8783 0.00413763 15.3639 0.128191 15.7877 0.528773C16.1344 0.899388 16.2392 1.30816 16.3096 1.8022C16.3169 1.84926 16.3242 1.89632 16.3317 1.94481C16.3776 2.24902 16.4135 2.55397 16.4468 2.85976C16.4511 2.89866 16.4553 2.93756 16.4597 2.97763C16.4701 3.07262 16.4805 3.1676 16.4909 3.26259C16.5325 3.26246 16.5325 3.26246 16.5749 3.26233C17.2516 3.26024 17.9283 3.25869 18.6051 3.25772C18.9323 3.25723 19.2596 3.25658 19.5869 3.2555C19.9029 3.25445 20.219 3.25391 20.535 3.25367C20.6554 3.2535 20.7757 3.25316 20.8961 3.25265C21.0651 3.25196 21.2342 3.25187 21.4033 3.25191C21.4526 3.25158 21.5019 3.25124 21.5527 3.25089C22.1623 3.25258 22.6832 3.36629 23.1804 3.73273C23.2267 3.76667 23.273 3.80061 23.3207 3.83558C23.6506 4.11943 23.887 4.57728 23.9756 5.00212C23.9799 5.08343 23.9817 5.16488 23.9819 5.24629C23.9821 5.29597 23.9823 5.34565 23.9825 5.39683C23.9825 5.47862 23.9825 5.47862 23.9825 5.56207C23.9827 5.62004 23.9829 5.678 23.983 5.73773C23.9835 5.89872 23.9837 6.05972 23.9838 6.22072C23.984 6.39433 23.9844 6.56794 23.9848 6.74155C23.9858 7.1609 23.9862 7.58024 23.9867 7.99959C23.9869 8.19714 23.9871 8.3947 23.9874 8.59226C23.9881 9.24913 23.9888 9.906 23.9892 10.5629C23.9893 10.7333 23.9893 10.9037 23.9894 11.0742C23.9895 11.1165 23.9895 11.1589 23.9895 11.2025C23.9899 11.8885 23.9911 12.5745 23.9926 13.2604C23.9941 13.965 23.995 14.6695 23.9951 15.374C23.9952 15.7695 23.9956 16.1649 23.9968 16.5604C23.9979 16.8972 23.9982 17.2341 23.9978 17.5709C23.9976 17.7427 23.9977 17.9144 23.9986 18.0861C23.9995 18.2727 23.9991 18.4592 23.9984 18.6458C23.9992 18.7265 23.9992 18.7265 24 18.8088C23.995 19.4349 23.7501 19.9717 23.3207 20.4229C22.6427 20.9552 21.932 21.0014 21.1006 20.999C21.0187 20.9991 20.9368 20.9992 20.8549 20.9994C20.6311 20.9998 20.4073 20.9996 20.1835 20.9993C19.9417 20.9991 19.6998 20.9994 19.458 20.9997C18.9847 21.0001 18.5114 21 18.0382 20.9998C17.6534 20.9995 17.2687 20.9995 16.884 20.9996C16.8292 20.9996 16.7744 20.9996 16.7179 20.9997C16.6065 20.9997 16.4952 20.9997 16.3838 20.9998C15.3403 21 14.2967 20.9997 13.2532 20.9992C12.3583 20.9988 11.4634 20.9989 10.5685 20.9993C9.52859 20.9998 8.48871 21 7.44884 20.9997C7.3379 20.9997 7.22696 20.9996 7.11602 20.9996C7.06144 20.9996 7.00686 20.9996 6.95063 20.9996C6.56647 20.9995 6.18232 20.9996 5.79817 20.9998C5.32985 21.0001 4.86154 21 4.39322 20.9995C4.1544 20.9993 3.91558 20.9992 3.67676 20.9995C3.45792 20.9998 3.23908 20.9996 3.02025 20.9991C2.9413 20.999 2.86236 20.9991 2.78341 20.9993C2.06022 21.0012 1.42049 20.9597 0.819628 20.5169C0.773316 20.483 0.727004 20.449 0.679289 20.414C0.328189 20.1111 0.16686 19.6771 0.0243714 19.2475C0.0199544 19.1681 0.0182477 19.0886 0.0180928 19.0091C0.0178842 18.9595 0.0176752 18.9099 0.0174603 18.8589C0.017469 18.8042 0.0174779 18.7495 0.0174867 18.6932C0.0173148 18.6353 0.0171429 18.5774 0.0169657 18.5177C0.0165386 18.3566 0.0163231 18.1955 0.016199 18.0344C0.0160165 17.8607 0.0155682 17.6871 0.0151597 17.5134C0.014235 17.0939 0.0137643 16.6743 0.0133481 16.2547C0.0131431 16.0571 0.0128922 15.8595 0.0126472 15.6618C0.0118512 15.0048 0.0111728 14.3477 0.0108341 13.6906C0.0107448 13.5201 0.0106551 13.3495 0.0105636 13.179C0.0105296 13.1154 0.0105297 13.1154 0.010495 13.0505C0.010107 12.3643 0.00892202 11.678 0.00740214 10.9917C0.00585411 10.287 0.00501253 9.58226 0.00486314 8.87752C0.00476194 8.4819 0.00435353 8.08629 0.00315715 7.69068C0.00214033 7.35366 0.0017657 7.01664 0.00221993 6.67962C0.00243215 6.50778 0.00234641 6.33596 0.00143617 6.16412C0.000456047 5.97746 0.000939375 5.79083 0.00155466 5.60418C0.00104152 5.55035 0.000528689 5.49652 0 5.44107C0.00401417 4.93541 0.153159 4.51857 0.44539 4.10885C0.479159 4.06134 0.512928 4.01382 0.54772 3.96487C0.930297 3.52527 1.46836 3.31129 2.0359 3.26259C2.21757 3.2563 2.39906 3.25664 2.58081 3.25725C2.63425 3.25725 2.68769 3.25724 2.74275 3.25723C2.91841 3.25726 3.09406 3.25763 3.26972 3.258C3.3919 3.25809 3.51407 3.25815 3.63625 3.2582C3.92435 3.25835 4.21244 3.25873 4.50054 3.2592C4.82874 3.25973 5.15693 3.25999 5.48513 3.26022C6.1598 3.26071 6.83447 3.26154 7.50914 3.26259C7.51543 3.20521 7.52171 3.14783 7.52819 3.08872C7.5366 3.0123 7.545 2.93588 7.55341 2.85945C7.55753 2.82177 7.56166 2.78409 7.56591 2.74527C7.76865 0.90446 7.76865 0.90446 8.30878 0.416379C8.77526 0.0570819 9.25431 0.00429063 9.8291 0.00568024ZM9.23999 1.57007C9.10196 2.12495 9.0398 2.69638 8.95931 3.26259C10.9662 3.26259 12.973 3.26259 15.0407 3.26259C14.9971 2.34641 14.9971 2.34641 14.7132 1.52306C14.5807 1.47864 14.4992 1.47004 14.3619 1.46975C14.3187 1.46955 14.2755 1.46935 14.2309 1.46915C14.16 1.46918 14.16 1.46918 14.0876 1.46921C14.0377 1.46905 13.9877 1.4689 13.9363 1.46873C13.7709 1.46829 13.6055 1.46819 13.4401 1.46814C13.3254 1.46799 13.2107 1.46783 13.096 1.46767C12.8553 1.46739 12.6147 1.4673 12.3741 1.46733C12.0654 1.46733 11.7567 1.46669 11.448 1.46588C11.211 1.46536 10.974 1.46526 10.7371 1.46529C10.6232 1.46523 10.5094 1.46502 10.3956 1.46466C10.2365 1.4642 10.0775 1.46434 9.91849 1.46462C9.87127 1.46436 9.82405 1.46409 9.77539 1.46382C9.73204 1.46402 9.68869 1.46421 9.64402 1.46442C9.58763 1.46438 9.58763 1.46438 9.53011 1.46434C9.40303 1.47878 9.34064 1.48824 9.23999 1.57007ZM1.67372 4.93326C1.489 5.18357 1.46725 5.3293 1.46626 5.63597C1.46596 5.67726 1.46565 5.71856 1.46533 5.76111C1.46441 5.89831 1.46386 6.03551 1.4634 6.17271C1.46321 6.21964 1.46302 6.26657 1.46282 6.31492C1.46184 6.56371 1.46118 6.81249 1.46074 7.06128C1.46022 7.31726 1.45862 7.57323 1.45675 7.8292C1.45552 8.02676 1.45514 8.22432 1.45497 8.42189C1.45474 8.51617 1.4542 8.61044 1.45333 8.70472C1.44718 9.41433 1.50341 9.96648 1.94234 10.5498C1.98576 10.6124 1.98576 10.6124 2.03006 10.6762C2.44223 11.127 3.0164 11.3662 3.61909 11.4046C3.76574 11.4076 3.91211 11.4077 4.05879 11.4068C4.1417 11.4068 4.1417 11.4068 4.22629 11.4068C4.40752 11.4067 4.58874 11.406 4.76996 11.4053C4.8962 11.405 5.02244 11.405 5.14868 11.4049C5.44605 11.4046 5.74342 11.4038 6.04079 11.4029C6.37962 11.4018 6.71846 11.4013 7.05729 11.4008C7.75367 11.3998 8.45005 11.3982 9.14643 11.3961C9.14711 11.3622 9.1478 11.3283 9.1485 11.2934C9.152 11.1386 9.15652 10.9838 9.16105 10.829C9.16263 10.749 9.16263 10.749 9.16425 10.6675C9.17546 10.3162 9.18484 10.0336 9.4505 9.77997C9.6029 9.68041 9.71882 9.6507 9.89682 9.64995C9.93518 9.64968 9.97354 9.64941 10.0131 9.64914C10.055 9.64909 10.0969 9.64903 10.1401 9.64898C10.1844 9.64874 10.2287 9.64851 10.2743 9.64827C10.421 9.64758 10.5677 9.64726 10.7145 9.647C10.8164 9.64673 10.9183 9.64646 11.0202 9.64619C11.234 9.6457 11.4478 9.64542 11.6616 9.64526C11.9355 9.645 12.2094 9.64387 12.4832 9.64253C12.6938 9.64166 12.9044 9.64141 13.1149 9.64134C13.2159 9.6412 13.3169 9.64082 13.4178 9.6402C13.5591 9.6394 13.7004 9.63949 13.8417 9.6398C13.8834 9.63936 13.925 9.63893 13.9679 9.63848C14.2049 9.64008 14.3676 9.66535 14.5729 9.7976C14.785 10.0223 14.8109 10.1946 14.8216 10.4962C14.8235 10.5486 14.8255 10.601 14.8275 10.6551C14.8294 10.7095 14.8312 10.764 14.8331 10.8202C14.8351 10.8754 14.8371 10.9306 14.8392 10.9875C14.8442 11.1237 14.849 11.2599 14.8536 11.3961C15.5835 11.3983 16.3134 11.3999 17.0434 11.401C17.3823 11.4014 17.7213 11.4021 18.0603 11.4032C18.3559 11.4041 18.6515 11.4047 18.9471 11.4049C19.1035 11.4051 19.2598 11.4054 19.4162 11.406C19.5912 11.4067 19.7662 11.4068 19.9412 11.4068C19.9925 11.4071 20.0437 11.4074 20.0965 11.4078C20.7515 11.406 21.4045 11.2391 21.8932 10.7715C22.3162 10.2905 22.5317 9.78745 22.5337 9.1486C22.534 9.10684 22.5343 9.06508 22.5347 9.02205C22.5356 8.884 22.5361 8.74596 22.5366 8.60791C22.5368 8.56072 22.537 8.51352 22.5372 8.4649C22.5382 8.21522 22.5388 7.96554 22.5393 7.71585C22.5398 7.45805 22.5414 7.20027 22.5432 6.94248C22.5445 6.74412 22.5449 6.54577 22.545 6.34741C22.5453 6.25237 22.5458 6.15734 22.5467 6.06231C22.5478 5.92928 22.5478 5.79631 22.5474 5.66329C22.548 5.62415 22.5486 5.58502 22.5493 5.5447C22.547 5.29391 22.5002 5.15628 22.3383 4.95511C22.3171 4.92796 22.2959 4.90081 22.274 4.87283C22.0673 4.71306 21.8248 4.70824 21.5739 4.70807C21.5234 4.70785 21.5234 4.70785 21.4718 4.70762C21.3588 4.70723 21.2458 4.7075 21.1328 4.70778C21.0509 4.70764 20.9691 4.70746 20.8873 4.70724C20.6624 4.70675 20.4375 4.70686 20.2127 4.70706C19.9701 4.70717 19.7276 4.70675 19.4851 4.7064C19.01 4.7058 18.5349 4.70571 18.0598 4.70582C17.6737 4.70591 17.2876 4.70582 16.9015 4.70562C16.8466 4.7056 16.7917 4.70557 16.7351 4.70554C16.6235 4.70548 16.512 4.70543 16.4004 4.70537C15.3539 4.70486 14.3074 4.70496 13.2608 4.70525C12.3031 4.70549 11.3453 4.70496 10.3875 4.70407C9.40441 4.70315 8.42133 4.70277 7.43825 4.70294C6.88617 4.70303 6.3341 4.70291 5.78202 4.70225C5.31206 4.70169 4.84211 4.70162 4.37215 4.70219C4.13232 4.70247 3.89249 4.70252 3.65265 4.70196C3.43315 4.70145 3.21366 4.70159 2.99415 4.70225C2.9147 4.70238 2.83525 4.70226 2.7558 4.70189C2.64784 4.70142 2.53991 4.70181 2.43196 4.70242C2.37198 4.70242 2.312 4.70241 2.25021 4.70241C2.03127 4.72545 1.84251 4.78378 1.67372 4.93326ZM10.5966 11.067C10.5966 11.7341 10.5966 12.4013 10.5966 13.0886C10.8069 13.2059 11.0173 13.3233 11.234 13.4442C11.2998 13.4814 11.3656 13.5186 11.4335 13.557C11.4859 13.5858 11.5384 13.6145 11.5925 13.6441C11.6459 13.6739 11.6993 13.7037 11.7543 13.7344C11.9312 13.8035 12.007 13.8014 12.1871 13.7468C12.3335 13.6819 12.3335 13.6819 12.4806 13.5982C12.5293 13.5716 12.578 13.545 12.6281 13.5176C12.7195 13.4667 12.7195 13.4667 12.8128 13.4148C13.0077 13.3071 13.2026 13.1995 13.4034 13.0886C13.4034 12.4215 13.4034 11.7543 13.4034 11.067C12.4772 11.067 11.5509 11.067 10.5966 11.067ZM1.47455 12.1483C1.47017 13.0384 1.46687 13.9285 1.46485 14.8186C1.46389 15.2319 1.46257 15.6452 1.46043 16.0585C1.45856 16.4187 1.45736 16.779 1.45694 17.1392C1.4567 17.3299 1.45612 17.5207 1.45476 17.7114C1.45349 17.891 1.4531 18.0706 1.45338 18.2502C1.45333 18.316 1.45296 18.3819 1.45224 18.4477C1.43765 18.9118 1.43765 18.9118 1.66166 19.2945C1.91229 19.5335 2.13012 19.5354 2.46563 19.5356C2.51589 19.5358 2.51589 19.5358 2.56715 19.5359C2.67971 19.5361 2.79227 19.536 2.90483 19.5359C2.98623 19.536 3.06763 19.5361 3.14902 19.5362C3.37294 19.5365 3.59686 19.5365 3.82078 19.5364C4.06218 19.5364 4.30357 19.5367 4.54497 19.5369C5.01799 19.5373 5.49101 19.5374 5.96403 19.5374C6.34844 19.5375 6.73284 19.5376 7.11725 19.5377C8.20663 19.5381 9.29601 19.5383 10.3854 19.5383C10.4441 19.5383 10.5029 19.5383 10.5634 19.5383C10.6222 19.5383 10.6811 19.5383 10.7417 19.5383C11.6952 19.5383 12.6488 19.5387 13.6023 19.5394C14.581 19.5401 15.5596 19.5404 16.5382 19.5403C17.0879 19.5403 17.6375 19.5405 18.1871 19.541C18.655 19.5414 19.1229 19.5415 19.5908 19.5412C19.8296 19.541 20.0684 19.541 20.3072 19.5414C20.5257 19.5418 20.7443 19.5417 20.9628 19.5413C21.0419 19.5412 21.121 19.5413 21.2001 19.5416C21.3076 19.5419 21.4151 19.5417 21.5226 19.5413C21.6122 19.5413 21.6122 19.5413 21.7036 19.5413C21.9182 19.5262 22.1219 19.5002 22.2897 19.3577C22.3116 19.3291 22.3334 19.3005 22.3559 19.271C22.3784 19.2424 22.401 19.2138 22.4242 19.1843C22.532 19.0302 22.5312 18.9278 22.5311 18.7405C22.5311 18.6826 22.5312 18.6248 22.5313 18.5651C22.5311 18.5006 22.5309 18.4361 22.5308 18.3716C22.5308 18.304 22.5308 18.2364 22.5308 18.1687C22.5308 17.9848 22.5305 17.8008 22.5302 17.6168C22.5299 17.4247 22.5299 17.2326 22.5298 17.0404C22.5297 16.6765 22.5293 16.3125 22.5288 15.9485C22.5283 15.5342 22.528 15.1199 22.5278 14.7056C22.5273 13.8531 22.5265 13.0007 22.5255 12.1483C22.4159 12.203 22.3076 12.2589 22.1998 12.3169C21.6638 12.5992 21.1044 12.8096 20.4903 12.814C20.4403 12.8144 20.3903 12.8149 20.3388 12.8154C20.2847 12.8156 20.2306 12.8159 20.1749 12.8162C20.1174 12.8166 20.0598 12.8171 20.0005 12.8176C19.8434 12.8188 19.6863 12.8198 19.5291 12.8208C19.3647 12.8218 19.2002 12.8231 19.0358 12.8244C18.7247 12.8267 18.4135 12.8288 18.1024 12.8308C17.7481 12.8332 17.3938 12.8358 17.0394 12.8384C16.3108 12.8437 15.5822 12.8487 14.8536 12.8535C14.8507 12.9053 14.8479 12.9571 14.845 13.0104C14.841 13.079 14.8371 13.1475 14.8331 13.2161C14.8303 13.2671 14.8303 13.2671 14.8275 13.3193C14.8124 13.5766 14.7975 13.7596 14.6664 13.9819C14.3141 14.2807 13.8595 14.4763 13.4531 14.69C13.3823 14.7275 13.3116 14.765 13.2409 14.8025C13.1056 14.8742 12.9701 14.9453 12.8344 15.016C12.7266 15.0722 12.6202 15.1296 12.514 15.1888C12.4746 15.2103 12.4351 15.2319 12.3945 15.254C12.3626 15.2721 12.3308 15.2901 12.2979 15.3087C12.0577 15.3881 11.8697 15.3676 11.6399 15.2774C11.5808 15.2466 11.5222 15.215 11.4639 15.1828C11.4319 15.1659 11.3999 15.149 11.3669 15.1316C11.2996 15.0959 11.2325 15.06 11.1655 15.0237C11.0669 14.9705 10.9678 14.9186 10.8683 14.867C10.7063 14.783 10.5449 14.6979 10.3838 14.6123C10.3183 14.5775 10.2527 14.5429 10.1871 14.5085C10.0899 14.4575 9.99292 14.4061 9.896 14.3545C9.86706 14.3394 9.83811 14.3243 9.80829 14.3088C9.32843 14.0514 9.32843 14.0514 9.23396 13.7872C9.19015 13.5922 9.17267 13.4082 9.16397 13.2091C9.16216 13.1747 9.16036 13.1403 9.15849 13.1049C9.15413 13.0211 9.15024 12.9373 9.14643 12.8535C9.11666 12.8534 9.08688 12.8533 9.05621 12.8532C8.32907 12.8504 7.60195 12.8468 6.87482 12.8425C6.52317 12.8403 6.17153 12.8385 5.81988 12.8372C5.5131 12.8362 5.20632 12.8346 4.89955 12.8324C4.73737 12.8313 4.5752 12.8304 4.41301 12.8301C4.2312 12.8298 4.04941 12.8284 3.8676 12.8268C3.78846 12.827 3.78846 12.8269 3.70772 12.8271C3.19549 12.8211 2.70053 12.7253 2.22595 12.5303C2.19672 12.5183 2.16749 12.5063 2.13738 12.4939C1.92324 12.4029 1.74958 12.2925 1.5681 12.1483C1.53723 12.1483 1.50636 12.1483 1.47455 12.1483Z" fill="#6C7278"/>
</svg>
