<svg width="16" height="16" viewBox="0 0 16 16" fill="none" xmlns="http://www.w3.org/2000/svg">
<path d="M8 16C6.89861 16 5.86504 15.7911 4.89929 15.3733C3.93354 14.961 3.08172 14.3859 2.34385 13.648C1.61139 12.9156 1.03628 12.0665 0.618515 11.1007C0.206172 10.135 0 9.10139 0 8C0 6.89318 0.206172 5.85961 0.618515 4.89929C1.03628 3.93354 1.61139 3.08444 2.34385 2.35198C3.08172 1.61411 3.93354 1.039 4.89929 0.626653C5.86504 0.208884 6.89861 0 8 0C9.10682 0 10.1404 0.208884 11.1007 0.626653C12.0665 1.039 12.9156 1.61411 13.648 2.35198C14.3859 3.08444 14.961 3.93354 15.3733 4.89929C15.7911 5.85961 16 6.89318 16 8C16 9.10139 15.7911 10.135 15.3733 11.1007C14.961 12.0665 14.3859 12.9156 13.648 13.648C12.9156 14.3859 12.0665 14.961 11.1007 15.3733C10.1404 15.7911 9.10682 16 8 16ZM5.01322 8.8057H11.0031C11.2526 8.8057 11.4561 8.73516 11.6134 8.5941C11.7708 8.45303 11.8494 8.26043 11.8494 8.01628C11.8494 7.77213 11.7708 7.57952 11.6134 7.43845C11.4615 7.29196 11.2581 7.21872 11.0031 7.21872H5.01322C4.75822 7.21872 4.55205 7.29196 4.39471 7.43845C4.23737 7.57952 4.1587 7.77213 4.1587 8.01628C4.1587 8.26043 4.23737 8.45303 4.39471 8.5941C4.55748 8.73516 4.76365 8.8057 5.01322 8.8057Z" fill="#FF0101"/>
</svg>
