<svg width="20" height="20" viewBox="0 0 20 20" fill="none" xmlns="http://www.w3.org/2000/svg">
<path d="M6.64127 5.01004C6.66866 5.0098 6.69606 5.00955 6.72429 5.00929C6.81471 5.00857 6.90512 5.00823 6.99554 5.00795C7.05865 5.00766 7.12176 5.00738 7.18487 5.00709C7.31718 5.00657 7.44949 5.00627 7.5818 5.0061C7.75073 5.00583 7.91964 5.00463 8.08856 5.00321C8.21896 5.00228 8.34936 5.00202 8.47977 5.00195C8.54201 5.0018 8.60425 5.0014 8.66649 5.00074C9.05853 4.9969 9.34252 4.99881 9.65029 5.24776C9.6806 5.27589 9.71049 5.30442 9.73997 5.3333C9.75628 5.34866 9.77258 5.36402 9.78938 5.37984C9.84049 5.42817 9.89101 5.477 9.94154 5.52586C9.9758 5.55835 10.0101 5.5908 10.0444 5.62321C10.1905 5.76169 10.3355 5.90057 10.4697 6.04919C10.4823 6.06257 10.4948 6.07594 10.5077 6.08972C10.5222 6.10676 10.5367 6.12379 10.5516 6.14133C10.6383 6.20745 10.6941 6.2018 10.8053 6.20168C10.8245 6.20179 10.8437 6.20191 10.8635 6.20203C10.9279 6.2023 10.9923 6.20187 11.0567 6.20144C11.1029 6.20149 11.1491 6.20159 11.1953 6.20173C11.2948 6.20194 11.3942 6.20185 11.4937 6.20152C11.6512 6.20101 11.8087 6.20126 11.9661 6.20163C12.329 6.20235 12.6919 6.20208 13.0548 6.20181C13.387 6.20157 13.7191 6.20154 14.0513 6.2023C14.2077 6.20264 14.364 6.20249 14.5204 6.20197C14.6179 6.20175 14.7155 6.20193 14.8131 6.20223C14.8581 6.20228 14.9032 6.20217 14.9482 6.20186C15.2545 6.19992 15.5231 6.21652 15.758 6.42111C15.9417 6.61165 15.994 6.80504 15.9931 7.05584C15.9932 7.08022 15.9933 7.1046 15.9935 7.12971C15.9938 7.21132 15.9938 7.29293 15.9937 7.37455C15.9939 7.43309 15.9941 7.49164 15.9943 7.55019C15.9947 7.7092 15.9949 7.86821 15.9949 8.02722C15.9949 8.14326 15.9951 8.2593 15.9953 8.37535C15.9957 8.68752 15.9959 8.99968 15.9959 9.31185C15.9959 9.32957 15.9959 9.34729 15.9959 9.36554C15.9959 9.38328 15.9959 9.40102 15.9959 9.41929C15.9958 9.70662 15.9963 9.99395 15.9971 10.2813C15.9979 10.5766 15.9982 10.8719 15.9982 11.1672C15.9982 11.3329 15.9983 11.4986 15.9989 11.6643C15.9994 11.8201 15.9994 11.976 15.999 12.1319C15.999 12.189 15.9991 12.2461 15.9994 12.3033C15.9998 12.3814 15.9996 12.4596 15.9992 12.5377C15.9994 12.5602 15.9997 12.5826 16 12.6057C15.9975 12.8235 15.9251 13.0186 15.7642 13.1793C15.5638 13.3474 15.3596 13.3998 15.0951 13.3968C15.0599 13.3967 15.0599 13.3967 15.0239 13.3965C14.9493 13.3963 14.8747 13.3956 14.8001 13.395C14.7494 13.3948 14.6986 13.3945 14.6478 13.3943C14.5238 13.3938 14.3997 13.3929 14.2757 13.3919C14.2762 13.4208 14.2768 13.4497 14.2774 13.4794C14.2793 13.5877 14.2805 13.6959 14.2816 13.8041C14.2821 13.8508 14.2828 13.8974 14.2837 13.9441C14.2952 14.5334 14.2952 14.5334 14.054 14.7743C13.8869 14.9143 13.7015 14.993 13.4751 14.9933C13.428 14.9936 13.428 14.9936 13.3799 14.9938C13.3284 14.9937 13.3284 14.9937 13.276 14.9936C13.239 14.9937 13.202 14.9938 13.165 14.9939C13.0635 14.9942 12.962 14.9942 12.8605 14.9941C12.751 14.9941 12.6415 14.9944 12.532 14.9946C12.3175 14.9951 12.1029 14.9952 11.8884 14.9952C11.714 14.9953 11.5396 14.9954 11.3652 14.9955C10.8706 14.9959 10.3761 14.9962 9.88148 14.9961C9.8415 14.9961 9.8415 14.9961 9.8007 14.9961C9.77401 14.9961 9.74732 14.9961 9.71982 14.9961C9.2873 14.9961 8.85479 14.9966 8.42228 14.9973C7.97807 14.998 7.53386 14.9984 7.08965 14.9983C6.8403 14.9983 6.59096 14.9984 6.34161 14.999C6.1293 14.9994 5.91699 14.9995 5.70467 14.9992C5.5964 14.999 5.48812 14.999 5.37984 14.9995C5.28061 14.9998 5.18138 14.9998 5.08214 14.9993C5.02948 14.9992 4.97681 14.9996 4.92415 15C4.6607 14.9981 4.43883 14.9515 4.24203 14.7801C4.04348 14.5742 4.00608 14.3694 4.0069 14.1C4.00678 14.0707 4.00666 14.0415 4.00653 14.0113C4.00625 13.9303 4.00621 13.8493 4.00628 13.7683C4.00629 13.6808 4.00599 13.5933 4.00574 13.5059C4.0053 13.3346 4.00515 13.1633 4.00512 12.992C4.00509 12.8528 4.00498 12.7135 4.00481 12.5742C4.00434 12.1792 4.0041 11.7842 4.00414 11.3891C4.00414 11.3678 4.00414 11.3465 4.00414 11.3246C4.00415 11.3033 4.00415 11.282 4.00415 11.26C4.00417 10.9147 4.00366 10.5693 4.00291 10.224C4.00214 9.86917 4.00177 9.51438 4.00182 9.15958C4.00183 8.96047 4.00169 8.76136 4.00111 8.56225C4.00062 8.3927 4.00051 8.22316 4.00087 8.05361C4.00105 7.96716 4.00105 7.88072 4.00059 7.79428C4.00017 7.7004 4.00042 7.60654 4.00083 7.51267C4.00056 7.48557 4.00028 7.45847 4 7.43055C4.00224 7.19862 4.06314 6.99807 4.23576 6.8257C4.43623 6.65761 4.64036 6.6052 4.90488 6.60822C4.94013 6.60833 4.94013 6.60833 4.97609 6.60843C5.05069 6.60871 5.12528 6.60934 5.19988 6.60997C5.25065 6.61022 5.30141 6.61045 5.35218 6.61065C5.47623 6.6112 5.60027 6.61206 5.72432 6.61309C5.72376 6.58419 5.7232 6.5553 5.72262 6.52553C5.72067 6.41731 5.71946 6.30909 5.71845 6.20086C5.71791 6.15421 5.71719 6.10756 5.71626 6.06092C5.7048 5.47158 5.7048 5.47158 5.94604 5.23069C6.15514 5.05536 6.36662 5.01064 6.64127 5.01004ZM6.57946 5.81558C6.57946 6.07876 6.57946 6.34194 6.57946 6.61309C6.67515 6.61318 6.67515 6.61318 6.77278 6.61328C6.83567 6.61385 6.89856 6.61468 6.96145 6.61552C7.00462 6.61597 7.04779 6.61616 7.09096 6.61608C7.48474 6.61563 7.73541 6.68739 8.02386 6.94778C8.08933 7.00894 8.15363 7.07109 8.21791 7.13334C8.25088 7.16462 8.28388 7.19587 8.31692 7.22709C8.45877 7.36167 8.59937 7.49678 8.72963 7.64133C8.7432 7.65565 8.75677 7.66998 8.77074 7.68474C8.78964 7.70588 8.80854 7.72702 8.828 7.7488C8.92463 7.82543 8.97262 7.82483 9.09819 7.82461C9.11744 7.82474 9.13668 7.82488 9.1565 7.82502C9.22084 7.82534 9.28514 7.82477 9.34948 7.8242C9.39567 7.82425 9.44185 7.82435 9.48804 7.82451C9.58746 7.82472 9.68687 7.82456 9.78629 7.82409C9.94364 7.82336 10.101 7.82356 10.2583 7.82389C10.5642 7.8244 10.87 7.82401 11.1758 7.8235C11.5646 7.82288 11.9533 7.82256 12.3421 7.82325C12.4984 7.8235 12.6546 7.82325 12.8109 7.82261C12.9083 7.8223 13.0058 7.82241 13.1033 7.82262C13.1483 7.82263 13.1933 7.82248 13.2383 7.82213C13.5146 7.82013 13.7597 7.83025 13.9901 7.99003C14.1697 8.16145 14.2552 8.34324 14.2564 8.58441C14.2566 8.60163 14.2567 8.61886 14.2569 8.63661C14.2573 8.694 14.2574 8.7514 14.2575 8.8088C14.2577 8.85007 14.258 8.89134 14.2583 8.93261C14.259 9.04444 14.2594 9.15627 14.2598 9.2681C14.2602 9.38504 14.2609 9.50199 14.2616 9.61894C14.2628 9.8403 14.2638 10.0617 14.2647 10.283C14.2657 10.5351 14.2671 10.7871 14.2684 11.0392C14.2712 11.5576 14.2735 12.076 14.2757 12.5944C14.5579 12.5944 14.8401 12.5944 15.1308 12.5944C15.1308 10.7521 15.1308 8.9099 15.1308 7.01184C13.5862 7.00759 13.5862 7.00759 12.0416 7.00442C11.7426 7.00329 11.7426 7.00329 11.6025 7.00263C11.5049 7.00221 11.4072 7.00206 11.3096 7.00208C11.1848 7.0021 11.0601 7.00164 10.9354 7.00085C10.8897 7.00064 10.8441 7.00059 10.7984 7.00073C10.4825 7.00158 10.2207 6.98324 9.98163 6.76885C9.95893 6.74893 9.93623 6.72901 9.91284 6.70849C9.79941 6.59924 9.69095 6.48776 9.59487 6.36467C9.404 6.12072 9.18252 5.84944 8.85029 5.7825C8.51168 5.7338 8.16432 5.75544 7.82375 5.7728C7.68316 5.77927 7.54248 5.78204 7.40176 5.78516C7.12741 5.79177 6.85355 5.80269 6.57946 5.81558ZM4.86918 7.41059C4.86918 9.6476 4.86918 11.8846 4.86918 14.1894C7.69113 14.1894 10.5131 14.1894 13.4205 14.1894C13.4205 12.3472 13.4205 10.5049 13.4205 8.60685C11.8747 8.6026 11.8747 8.6026 10.3289 8.59943C10.0298 8.5983 10.0298 8.5983 9.88967 8.59764C9.79194 8.59722 9.69421 8.59707 9.59648 8.59709C9.47168 8.59711 9.34689 8.59666 9.22209 8.59586C9.17637 8.59565 9.13066 8.5956 9.08494 8.59574C8.6468 8.59692 8.6468 8.59692 8.45007 8.48224C8.42913 8.47044 8.4082 8.45864 8.38662 8.44648C8.25857 8.35437 8.15166 8.25419 8.04254 8.14268C7.79272 7.89305 7.53315 7.65204 7.27425 7.41059C6.48058 7.41059 5.68691 7.41059 4.86918 7.41059Z" fill="#55417C"/>
<path d="M6.19364 12.5815C6.21322 12.5813 6.23279 12.5811 6.25296 12.581C6.31726 12.5805 6.38154 12.5808 6.44584 12.5811C6.49076 12.5811 6.53568 12.581 6.5806 12.5809C6.67459 12.5807 6.76857 12.5809 6.86255 12.5814C6.98279 12.582 7.103 12.5816 7.22323 12.581C7.31594 12.5807 7.40865 12.5808 7.50136 12.581C7.54568 12.5811 7.59 12.581 7.63432 12.5808C7.69636 12.5805 7.75837 12.5809 7.82041 12.5815C7.85565 12.5816 7.89089 12.5816 7.92719 12.5817C8.06867 12.6005 8.14963 12.6615 8.2463 12.7564C8.31039 12.8851 8.30987 13.0031 8.28973 13.1427C8.22802 13.2666 8.14883 13.3254 8.0225 13.3919C7.92719 13.4045 7.92719 13.4045 7.82041 13.4048C7.80083 13.405 7.78126 13.4051 7.76109 13.4053C7.69678 13.4058 7.63251 13.4055 7.56821 13.4051C7.52329 13.4052 7.47836 13.4053 7.43344 13.4054C7.33946 13.4056 7.24548 13.4054 7.15149 13.4049C7.03126 13.4043 6.91105 13.4046 6.79082 13.4052C6.69811 13.4056 6.6054 13.4055 6.51269 13.4052C6.46837 13.4052 6.42404 13.4052 6.37972 13.4055C6.31768 13.4057 6.25568 13.4053 6.19364 13.4048C6.1584 13.4047 6.12316 13.4046 6.08685 13.4045C5.94538 13.3858 5.86442 13.3248 5.76774 13.2299C5.70366 13.1012 5.70418 12.9832 5.72432 12.8436C5.8201 12.6512 5.97248 12.582 6.19364 12.5815Z" fill="#55417C"/>
</svg>
