<svg width="16" height="16" viewBox="0 0 16 16" fill="none" xmlns="http://www.w3.org/2000/svg">
<path d="M7.98832 0.000118476C8.02009 0.000185736 8.05186 0.000252995 8.0846 0.000322292C8.54057 0.00187245 8.9879 0.00970259 9.43576 0.103497C9.46619 0.109697 9.49661 0.115898 9.52796 0.122286C11.038 0.438137 12.411 1.12212 13.5245 2.19447C13.5553 2.22407 13.5553 2.22407 13.5868 2.25426C13.883 2.53964 14.1558 2.8298 14.3984 3.16194C14.4252 3.19786 14.452 3.23379 14.4787 3.26971C14.6672 3.52534 14.8344 3.79105 14.9914 4.06699C15.0028 4.08671 15.0142 4.10643 15.0259 4.12674C15.7002 5.30481 16.0051 6.6395 15.9999 7.98758C15.9999 8.01934 15.9998 8.05111 15.9997 8.08384C15.9982 8.53977 15.9904 8.98705 15.8965 9.43487C15.8872 9.48051 15.8872 9.48051 15.8778 9.52707C15.5619 11.037 14.8778 12.4098 13.8054 13.5232C13.7856 13.5438 13.7659 13.5644 13.7456 13.5856C13.4602 13.8817 13.17 14.1544 12.8378 14.397C12.8019 14.4238 12.766 14.4506 12.73 14.4774C12.4744 14.6658 12.209 14.8338 11.9327 14.99C11.9106 15.0026 11.8885 15.0151 11.8658 15.028C11.1437 15.4346 10.3581 15.7076 9.54695 15.8736C9.52451 15.8782 9.50207 15.8828 9.47896 15.8875C9.02091 15.9746 8.56756 15.9996 8.10217 15.9985C8.01042 15.9984 7.91871 15.9992 7.82696 16C7.40957 16.0014 7.00706 15.9637 6.59551 15.8951C6.54228 15.8863 6.54228 15.8863 6.48797 15.8773C5.13752 15.6347 3.85629 15.0109 2.81891 14.1162C2.79566 14.0964 2.7724 14.0766 2.74844 14.0562C2.32693 13.6876 1.93144 13.2897 1.60166 12.8366C1.57493 12.8007 1.54819 12.7648 1.52144 12.729C1.33292 12.4734 1.1649 12.208 1.00864 11.9316C0.996089 11.9095 0.983536 11.8874 0.970602 11.8647C0.564059 11.1427 0.290994 10.3571 0.124965 9.54605C0.120365 9.52362 0.115766 9.50118 0.111028 9.47807C0.018209 8.98977 -0.00176992 8.50686 0.000118488 8.01098C0.000185753 7.97921 0.000253019 7.94745 0.000322323 7.91472C0.00187262 7.45879 0.0097035 7.0115 0.103507 6.56368C0.109708 6.53326 0.115909 6.50283 0.122298 6.47149C0.438178 4.96156 1.12223 3.58874 2.19468 2.47535C2.21441 2.45477 2.23414 2.4342 2.25447 2.413C2.53988 2.11688 2.83006 1.84412 3.16224 1.60151C3.19816 1.57473 3.23409 1.54795 3.27002 1.52117C3.52563 1.33275 3.79101 1.16476 4.06737 1.00855C4.08945 0.995995 4.11152 0.983444 4.13426 0.970512C4.85635 0.564006 5.64198 0.290967 6.45311 0.124953C6.47554 0.120354 6.49798 0.115755 6.5211 0.111017C7.00944 0.0182073 7.49239 -0.00176976 7.98832 0.000118476ZM7.90638 3.05831C7.83942 3.13602 7.8131 3.19367 7.7818 3.29076C7.77123 3.3229 7.76066 3.35505 7.74978 3.38817C7.73874 3.42306 7.72769 3.45795 7.71632 3.4939C7.69847 3.54876 7.69847 3.54876 7.68027 3.60474C7.64814 3.70377 7.61635 3.8029 7.58471 3.90208C7.55184 4.00478 7.5185 4.10733 7.48521 4.20989C7.36339 4.58592 7.24366 4.96258 7.1261 5.33996C7.11677 5.36983 7.10743 5.39969 7.09782 5.43046C7.05484 5.56799 7.01221 5.7056 6.97036 5.84347C6.95535 5.89194 6.94033 5.94041 6.9253 5.98888C6.91895 6.01032 6.91261 6.03176 6.90607 6.05385C6.86526 6.18388 6.81525 6.27818 6.72035 6.37643C6.63227 6.40579 6.57794 6.41172 6.48672 6.41216C6.45806 6.41237 6.4294 6.41259 6.39986 6.41281C6.3528 6.41293 6.3528 6.41293 6.30478 6.41306C6.25514 6.41337 6.25514 6.41337 6.20449 6.41369C6.13256 6.41413 6.06062 6.4145 5.98868 6.41481C5.87498 6.41532 5.76129 6.41605 5.6476 6.41684C5.32431 6.41905 5.00103 6.42092 4.67774 6.42252C4.48012 6.42351 4.2825 6.4248 4.08488 6.42627C4.0094 6.42677 3.93392 6.42716 3.85845 6.42742C3.75315 6.4278 3.64786 6.42855 3.54256 6.42939C3.51112 6.42941 3.47968 6.42943 3.44729 6.42945C3.41871 6.42975 3.39014 6.43005 3.36069 6.43037C3.33578 6.4305 3.31088 6.43063 3.28521 6.43077C3.21728 6.43359 3.21728 6.43359 3.16224 6.50126C3.14236 6.57567 3.14236 6.57567 3.16224 6.65731C3.22019 6.71458 3.27187 6.75742 3.3378 6.8036C3.35614 6.81704 3.37448 6.83049 3.39338 6.84434C3.45122 6.88654 3.50955 6.92801 3.56799 6.96939C3.60284 6.99448 3.63767 7.01959 3.67247 7.04473C3.74371 7.096 3.81518 7.14691 3.88681 7.19761C4.01782 7.29041 4.14795 7.38441 4.27805 7.47848C4.3017 7.49557 4.32534 7.51266 4.3497 7.53027C4.39798 7.56517 4.44625 7.60007 4.49452 7.63497C4.58892 7.70321 4.68335 7.77141 4.77779 7.83959C4.82424 7.87313 4.87068 7.90669 4.9171 7.94026C5.03822 8.02781 5.15951 8.1151 5.28109 8.20201C5.30617 8.21999 5.33126 8.23798 5.3571 8.25651C5.40468 8.2906 5.4523 8.32462 5.5 8.35854C5.88245 8.63306 5.88245 8.63306 5.94007 8.74828C5.94964 8.92409 5.92935 9.06623 5.8719 9.23313C5.86465 9.2552 5.85739 9.27727 5.84991 9.3C5.82597 9.37247 5.80152 9.44475 5.77706 9.51704C5.76005 9.56821 5.74308 9.61938 5.72615 9.67057C5.68145 9.80535 5.63632 9.93998 5.59109 10.0746C5.54594 10.2092 5.50115 10.3438 5.45635 10.4785C5.43879 10.5313 5.42123 10.5841 5.40367 10.6368C5.39508 10.6626 5.38649 10.6884 5.37764 10.715C5.34364 10.8172 5.30962 10.9194 5.2756 11.0216C5.25166 11.0936 5.22774 11.1655 5.20383 11.2374C5.17609 11.3208 5.14826 11.4042 5.12036 11.4876C5.0877 11.5853 5.05545 11.6832 5.02335 11.7811C5.01422 11.8082 5.00508 11.8352 4.99567 11.8631C4.94338 12.0221 4.94338 12.0221 4.97251 12.1812C4.99311 12.2018 5.01371 12.2224 5.03493 12.2437C5.1986 12.2378 5.28505 12.1757 5.40947 12.074C5.44542 12.0452 5.48143 12.0164 5.51749 11.9878C5.53583 11.9731 5.55416 11.9584 5.57306 11.9433C5.65822 11.8767 5.74628 11.8143 5.83473 11.7521C6.00925 11.6287 6.18175 11.5027 6.35362 11.3757C6.57057 11.2153 6.78826 11.056 7.0078 10.8992C7.13267 10.8098 7.25558 10.7185 7.37689 10.6242C7.40311 10.6041 7.42932 10.584 7.45633 10.5633C7.50652 10.5247 7.55637 10.4857 7.6058 10.4462C7.76035 10.3282 7.89466 10.2552 8.09366 10.2775C8.18046 10.3154 8.23796 10.3474 8.31214 10.4023C8.33309 10.4171 8.35404 10.4319 8.37562 10.4472C8.44686 10.4983 8.51707 10.5506 8.58719 10.6032C8.64005 10.6426 8.69292 10.6819 8.74581 10.7211C8.77243 10.7409 8.79905 10.7607 8.82648 10.7811C8.94559 10.8691 9.06578 10.9557 9.18607 11.0421C9.37948 11.1813 9.57183 11.3218 9.76348 11.4634C10.0279 11.6588 10.2935 11.8525 10.561 12.0437C10.6021 12.0734 10.6428 12.1034 10.6833 12.1339C10.7934 12.2214 10.7934 12.2214 10.9281 12.2417C11.0011 12.2154 11.0011 12.2154 11.0588 12.15C11.0206 11.9126 10.9404 11.6869 10.8647 11.4593C10.8516 11.4196 10.8385 11.3799 10.8254 11.3402C10.7979 11.2566 10.7703 11.173 10.7426 11.0894C10.6996 10.9597 10.6569 10.8299 10.6143 10.7001C10.5054 10.3688 10.3964 10.0375 10.2858 9.70672C10.2558 9.61681 10.2261 9.52683 10.1964 9.43682C10.1777 9.38022 10.1585 9.32376 10.1393 9.2673C10.0805 9.08856 10.0315 8.93637 10.06 8.74828C10.1623 8.5887 10.2984 8.49408 10.454 8.38939C10.5015 8.35669 10.5489 8.32394 10.5963 8.29113C10.6209 8.27412 10.6456 8.25711 10.6709 8.23959C10.7986 8.15009 10.9238 8.05711 11.049 7.96417C11.2185 7.8387 11.3882 7.71382 11.5601 7.59162C11.5772 7.57942 11.5944 7.56722 11.6121 7.55465C11.6295 7.54227 11.6469 7.52989 11.6648 7.51713C11.8663 7.37383 12.0668 7.22915 12.2667 7.08365C12.3392 7.03129 12.4122 6.97971 12.4852 6.92819C12.5312 6.89513 12.5772 6.86205 12.6232 6.82896C12.6449 6.81397 12.6665 6.79899 12.6888 6.78356C12.805 6.70088 12.805 6.70088 12.8551 6.57246C12.843 6.4956 12.843 6.4956 12.7754 6.43885C12.7127 6.42933 12.7127 6.42933 12.6398 6.43079C12.5971 6.43047 12.5971 6.43047 12.5535 6.43014C12.5221 6.43022 12.4908 6.4303 12.4585 6.43038C12.4255 6.43022 12.3926 6.43006 12.3587 6.42989C12.2869 6.42957 12.2152 6.42939 12.1435 6.42933C12.0301 6.42922 11.9166 6.4287 11.8031 6.42806C11.4805 6.42632 11.1578 6.42537 10.8352 6.42461C10.638 6.42411 10.4408 6.42317 10.2436 6.42196C10.1684 6.4216 10.0932 6.42141 10.018 6.42141C9.91276 6.4214 9.80757 6.42083 9.70236 6.42014C9.67121 6.42028 9.64005 6.42043 9.60796 6.42057C9.33569 6.41772 9.33569 6.41772 9.21728 6.31401C9.17846 6.25473 9.17846 6.25473 9.15173 6.18782C9.14169 6.16287 9.13165 6.13792 9.1213 6.11221C9.0729 5.97963 9.0285 5.84623 8.98636 5.71154C8.97663 5.68091 8.9669 5.65027 8.95688 5.61871C8.93602 5.553 8.91524 5.48728 8.89451 5.42153C8.86186 5.31802 8.82897 5.21459 8.79601 5.11119C8.70673 4.831 8.61769 4.55073 8.52907 4.27034C8.47946 4.11345 8.42949 3.95668 8.37925 3.79999C8.36061 3.74159 8.3421 3.68314 8.32375 3.62465C8.29828 3.54352 8.27235 3.46256 8.24631 3.38162C8.23898 3.35786 8.23165 3.33411 8.2241 3.30963C8.18179 3.18009 8.14048 3.09003 8.03124 3.0059C7.9632 2.99921 7.9632 2.99921 7.90638 3.05831Z" fill="#55417C"/>
</svg>
