<svg width="20" height="20" viewBox="0 0 20 20" fill="none" xmlns="http://www.w3.org/2000/svg">
<path d="M10.5428 4.8156C10.7182 4.9745 10.8428 5.14805 10.9431 5.36646C10.9541 5.38987 10.9652 5.41327 10.9766 5.43739C11.0116 5.51169 11.0462 5.58623 11.0807 5.66078C11.1036 5.7094 11.1265 5.758 11.1494 5.80659C11.2763 6.07623 11.4006 6.34714 11.5236 6.61873C11.5431 6.66185 11.5629 6.70485 11.583 6.74769C11.6114 6.8112 11.6114 6.8112 11.6359 6.87997C11.6825 7.00486 11.6825 7.00486 11.7806 7.08328C11.8481 7.09967 11.9133 7.10784 11.9823 7.11414C12.0352 7.12098 12.0882 7.12782 12.1411 7.13466C12.1691 7.13786 12.1971 7.14107 12.226 7.14437C12.3753 7.16223 12.5238 7.18623 12.6725 7.20925C12.7343 7.21858 12.7962 7.22789 12.858 7.23714C12.8734 7.23946 12.8888 7.24177 12.9047 7.24415C12.9835 7.25599 13.0624 7.26773 13.1413 7.27929C13.2044 7.28854 13.2674 7.29793 13.3304 7.30749C13.3888 7.31634 13.4472 7.32499 13.5056 7.33339C13.7839 7.37617 14.0223 7.44043 14.2312 7.64564C14.2444 7.65848 14.2576 7.67133 14.2712 7.68456C14.4424 7.87146 14.5061 8.11727 14.5149 8.37079C14.4995 8.80239 14.2544 9.05916 13.9768 9.34366C13.9475 9.37418 13.9181 9.40471 13.8888 9.43527C13.7656 9.56332 13.6418 9.6895 13.51 9.80795C13.395 9.91339 13.284 10.0232 13.1741 10.1343C13.1448 10.1636 13.1153 10.1926 13.0855 10.2212C13.0419 10.2632 12.9994 10.3061 12.957 10.3494C12.937 10.3681 12.937 10.3681 12.9166 10.3871C12.8582 10.4487 12.8298 10.4915 12.8228 10.5795C12.8279 10.6581 12.8384 10.7339 12.8511 10.8116C12.8556 10.8411 12.86 10.8706 12.8646 10.9009C12.8776 10.9832 12.8913 11.0653 12.9056 11.1474C12.9151 11.2022 12.9244 11.2569 12.9336 11.3118C12.9598 11.4674 12.9863 11.6229 13.0132 11.7784C13.2147 12.9444 13.2147 12.9444 13.003 13.3006C12.8547 13.5167 12.6585 13.6791 12.4067 13.7321C12.3365 13.7401 12.2668 13.7432 12.1962 13.7444C12.1708 13.7451 12.1708 13.7451 12.1449 13.7458C11.9095 13.743 11.7062 13.6281 11.5062 13.5082C11.2377 13.3509 10.9647 13.2038 10.691 13.0571C10.6743 13.0482 10.6576 13.0392 10.6404 13.03C10.6072 13.0122 10.5741 12.9945 10.5409 12.9769C10.4586 12.9328 10.3774 12.8876 10.2971 12.8398C10.2734 12.8259 10.2734 12.8259 10.2493 12.8117C10.2197 12.7942 10.1902 12.7763 10.161 12.7581C10.0948 12.7191 10.0502 12.7012 9.97376 12.7036C9.89353 12.7292 9.82404 12.7631 9.74966 12.8039C9.72791 12.8157 9.72791 12.8157 9.70571 12.8277C9.65862 12.8534 9.61167 12.8794 9.56473 12.9054C9.53202 12.9233 9.49931 12.9412 9.46659 12.9591C9.21631 13.0964 8.96817 13.2377 8.72071 13.3805C8.57037 13.4672 8.41997 13.5534 8.26654 13.634C8.24447 13.6457 8.2224 13.6573 8.19966 13.6694C7.97337 13.7726 7.68017 13.7735 7.4464 13.6938C7.19968 13.5804 7.00771 13.379 6.89965 13.1201C6.86475 13.0026 6.85628 12.8913 6.85666 12.769C6.85671 12.7497 6.85677 12.7304 6.85682 12.7106C6.86003 12.4976 6.89306 12.2926 6.92962 12.0836C6.93647 12.0428 6.94328 12.0019 6.95007 11.9611C6.96776 11.8551 6.98585 11.7491 7.00406 11.6432C7.03329 11.4727 7.0619 11.3021 7.09049 11.1315C7.10047 11.0723 7.11063 11.0132 7.12082 10.9541C7.12697 10.9178 7.13312 10.8815 7.13926 10.8453C7.14737 10.7981 7.14737 10.7981 7.15563 10.7499C7.18054 10.6038 7.18054 10.6038 7.13824 10.4689C7.12468 10.4549 7.11112 10.4409 7.09714 10.4265C7.08182 10.4104 7.06651 10.3942 7.05072 10.3776C7.03391 10.3606 7.01711 10.3437 6.99979 10.3262C6.98258 10.3083 6.96537 10.2904 6.94764 10.272C6.89249 10.2148 6.83687 10.1581 6.78123 10.1014C6.74447 10.0634 6.70774 10.0253 6.67104 9.98718C6.52625 9.83746 6.38125 9.68965 6.22751 9.55002C6.13452 9.46483 6.0465 9.37418 5.9585 9.28339C5.93592 9.26024 5.9132 9.23723 5.89034 9.21439C5.64679 8.9709 5.50333 8.71521 5.47573 8.36197C5.4842 8.09916 5.57171 7.85611 5.7429 7.66385C6.04482 7.36782 6.43877 7.34448 6.83112 7.28575C6.86976 7.27987 6.9084 7.27398 6.94704 7.26808C7.04766 7.25274 7.14829 7.23753 7.24894 7.22236C7.41079 7.19794 7.57262 7.17335 7.73445 7.14871C7.79073 7.14016 7.84702 7.13168 7.90331 7.12322C7.93771 7.118 7.97211 7.11278 8.00652 7.10756C8.03649 7.10305 8.06645 7.09853 8.09733 7.09387C8.1834 7.08098 8.1834 7.08098 8.26654 7.05662C8.30017 7.0016 8.32705 6.95019 8.35362 6.89154C8.36162 6.87458 8.36961 6.85762 8.37785 6.84015C8.40393 6.78464 8.42953 6.7289 8.45513 6.67315C8.47306 6.63473 8.49102 6.59633 8.50901 6.55794C8.56119 6.44625 8.61279 6.33427 8.66419 6.22218C8.68375 6.17956 8.68375 6.17956 8.70372 6.13607C8.73644 6.0646 8.76906 5.99309 8.80161 5.92154C8.81664 5.88849 8.81664 5.88849 8.83198 5.85478C8.84186 5.83306 8.85174 5.81133 8.86191 5.78895C8.87164 5.76757 8.88136 5.74619 8.89138 5.72416C8.91228 5.67802 8.93308 5.63183 8.95378 5.5856C9.28078 4.85788 9.28078 4.85788 9.6604 4.69988C9.95501 4.60364 10.2846 4.62532 10.5428 4.8156ZM9.97407 5.51045C9.84505 5.62284 9.78576 5.76834 9.71385 5.92461C9.70045 5.95321 9.68705 5.98181 9.67325 6.01128C9.5914 6.18624 9.51148 6.36217 9.4317 6.53817C9.38658 6.63746 9.34124 6.73664 9.29574 6.83574C9.28781 6.853 9.27989 6.87027 9.27173 6.88806C9.21697 7.00719 9.16175 7.12608 9.10611 7.24477C9.08746 7.28469 9.06892 7.32467 9.05051 7.36471C9.02448 7.42126 8.99802 7.47757 8.97146 7.53386C8.9638 7.55076 8.95613 7.56766 8.94823 7.58507C8.88386 7.71959 8.81004 7.81047 8.67254 7.86772C8.57797 7.89583 8.4847 7.91092 8.38743 7.92475C8.36714 7.92776 8.34685 7.93076 8.32595 7.93385C8.28208 7.94032 8.2382 7.94673 8.19431 7.95309C8.12477 7.96318 8.05525 7.97345 7.98574 7.98378C7.78817 8.01311 7.59055 8.04211 7.39291 8.07094C7.27185 8.08862 7.15082 8.10653 7.0298 8.12458C6.98379 8.13139 6.93777 8.13812 6.89174 8.14474C6.82728 8.15402 6.76286 8.1636 6.69845 8.17325C6.67958 8.17589 6.6607 8.17853 6.64126 8.18125C6.52542 8.19898 6.43083 8.23069 6.32511 8.28374C6.31716 8.3719 6.31536 8.4166 6.36508 8.49004C6.38349 8.50874 6.4019 8.52744 6.42087 8.54671C6.45126 8.57805 6.45126 8.57805 6.48227 8.61003C6.50374 8.63143 6.5252 8.65283 6.54732 8.67488C6.56807 8.69619 6.58881 8.7175 6.61019 8.73945C6.69922 8.83033 6.78939 8.9189 6.88338 9.0041C6.97639 9.0891 7.06377 9.17871 7.15037 9.2708C7.16575 9.28704 7.18114 9.30328 7.19699 9.32001C7.26193 9.38853 7.32672 9.45721 7.39153 9.52587C7.43925 9.5764 7.48705 9.62684 7.53485 9.67729C7.55631 9.70011 7.55631 9.70011 7.57821 9.7234C7.66559 9.81559 7.75582 9.90217 7.85064 9.98591C7.94233 10.0747 8.02644 10.1849 8.03605 10.3195C8.0362 10.4532 8.02328 10.5791 8.00043 10.7105C7.99701 10.7311 7.99358 10.7516 7.99006 10.7728C7.98267 10.817 7.9752 10.8612 7.96766 10.9053C7.9557 10.9754 7.94397 11.0455 7.93229 11.1156C7.90746 11.2643 7.88235 11.413 7.85721 11.5617C7.82806 11.7342 7.79903 11.9067 7.77026 12.0793C7.75872 12.1481 7.747 12.2168 7.73527 12.2856C7.72816 12.3281 7.72107 12.3705 7.71398 12.413C7.7107 12.4319 7.70742 12.4508 7.70404 12.4703C7.68433 12.5899 7.67494 12.7026 7.68177 12.8241C7.69721 12.8403 7.71265 12.8565 7.72856 12.8732C7.86358 12.867 7.9628 12.8194 8.07951 12.7546C8.0971 12.7451 8.11468 12.7355 8.1328 12.7257C8.18969 12.6949 8.24639 12.6636 8.30309 12.6323C8.34245 12.6109 8.38182 12.5894 8.4212 12.568C8.66669 12.4339 8.91045 12.2967 9.15274 12.1564C9.29055 12.0769 9.42973 12.0001 9.56912 11.9237C9.60378 11.9046 9.60378 11.9046 9.63914 11.8851C9.66051 11.8735 9.68187 11.8618 9.70389 11.8498C9.72278 11.8394 9.74168 11.8291 9.76115 11.8184C9.88085 11.7572 9.98393 11.747 10.1144 11.7688C10.1738 11.7957 10.2295 11.8235 10.2865 11.8551C10.3027 11.8639 10.319 11.8727 10.3358 11.8818C10.3699 11.9002 10.404 11.9188 10.438 11.9374C10.4862 11.9638 10.5346 11.9898 10.5831 12.0156C10.6775 12.066 10.7717 12.1167 10.8658 12.1676C10.8908 12.181 10.8908 12.181 10.9163 12.1948C11.1265 12.3083 11.3356 12.4237 11.5427 12.5434C11.6901 12.6284 11.8375 12.7129 11.9871 12.7934C12.0021 12.8016 12.017 12.8099 12.0323 12.8184C12.113 12.8611 12.1757 12.8874 12.2664 12.8732C12.3224 12.8253 12.3224 12.8253 12.3181 12.7363C12.3153 12.6265 12.2997 12.5208 12.2809 12.413C12.2775 12.3925 12.2741 12.372 12.2706 12.3508C12.2632 12.3066 12.2557 12.2625 12.2482 12.2183C12.2362 12.1483 12.2245 12.0782 12.2128 12.0081C12.1837 11.834 12.1543 11.66 12.1249 11.4861C12.1 11.3388 12.0753 11.1916 12.0508 11.0443C12.0392 10.9755 12.0275 10.9068 12.0158 10.8381C12.0087 10.7956 12.0016 10.753 11.9945 10.7105C11.9896 10.6822 11.9896 10.6822 11.9846 10.6534C11.9498 10.4416 11.9344 10.2584 12.0558 10.0753C12.1316 9.98217 12.2193 9.90344 12.3077 9.82377C12.4032 9.73621 12.4931 9.6439 12.5821 9.54921C12.606 9.52403 12.606 9.52403 12.6303 9.49835C12.6806 9.44532 12.7308 9.3922 12.781 9.33906C12.8472 9.26894 12.9135 9.19891 12.9798 9.12892C12.9946 9.11317 13.0094 9.09741 13.0247 9.08118C13.1129 8.98809 13.2039 8.89981 13.2988 8.81422C13.3741 8.7457 13.4462 8.67401 13.5178 8.60126C13.5325 8.58688 13.5473 8.5725 13.5625 8.55769C13.6504 8.46898 13.6504 8.46898 13.6793 8.34673C13.6762 8.32594 13.673 8.30516 13.6698 8.28374C13.5463 8.22188 13.4349 8.19261 13.2997 8.17364C13.2797 8.17063 13.2597 8.16763 13.2392 8.16453C13.196 8.15808 13.1528 8.15174 13.1097 8.14549C13.0412 8.13559 12.9727 8.12538 12.9043 8.1151C12.7589 8.09333 12.6135 8.07194 12.4681 8.05059C12.2997 8.02582 12.1313 8.00089 11.9629 7.97564C11.8957 7.96564 11.8285 7.95589 11.7613 7.94616C11.7198 7.93997 11.6782 7.93376 11.6367 7.92754C11.6182 7.92494 11.5998 7.92234 11.5808 7.91965C11.426 7.89605 11.2674 7.86959 11.1503 7.75564C11.0763 7.64761 11.0223 7.52628 10.9665 7.40721C10.9543 7.38152 10.9421 7.35583 10.9296 7.32937C10.8906 7.24723 10.8519 7.16497 10.8132 7.0827C10.7878 7.02902 10.7623 6.97535 10.7368 6.92169C10.5916 6.61523 10.4493 6.30741 10.3093 5.9983C10.2085 5.72439 10.2085 5.72439 10.028 5.52704C10.0102 5.52157 9.9924 5.51609 9.97407 5.51045Z" fill="#55417C"/>
<path d="M15.1935 10.8405C15.2307 10.8536 15.2678 10.8668 15.3049 10.8803C15.3614 10.9006 15.4181 10.92 15.475 10.9394C15.5115 10.9523 15.5481 10.9652 15.5847 10.9782C15.6014 10.9839 15.618 10.9896 15.6352 10.9954C15.7698 11.0451 15.8928 11.1213 15.9661 11.2538C16.015 11.3763 16.0083 11.5348 15.9634 11.6573C15.8987 11.7722 15.8338 11.8431 15.7086 11.8794C15.4947 11.9184 15.3027 11.8326 15.1025 11.7626C15.0653 11.7501 15.0281 11.7376 14.9909 11.7251C14.9551 11.713 14.9193 11.7008 14.8836 11.6886C14.8671 11.683 14.8507 11.6774 14.8337 11.6716C14.663 11.6118 14.5134 11.5475 14.4155 11.3804C14.3663 11.2527 14.3806 11.1022 14.4212 10.9742C14.623 10.6778 14.9003 10.7402 15.1935 10.8405Z" fill="#55417C"/>
<path d="M5.42457 10.8039C5.52147 10.898 5.59259 10.9759 5.60557 11.1181C5.60931 11.2675 5.60436 11.3572 5.50643 11.4742C5.49373 11.4902 5.48102 11.5062 5.46793 11.5227C5.39542 11.5882 5.31726 11.6151 5.22775 11.6456C5.20975 11.6519 5.19175 11.6582 5.1732 11.6648C5.13514 11.6781 5.09704 11.6913 5.05889 11.7043C5.00116 11.7241 4.94364 11.7444 4.88612 11.7649C4.43639 11.9223 4.43639 11.9223 4.24772 11.8639C4.13871 11.7966 4.05702 11.7213 4.00942 11.597C3.9939 11.461 3.99175 11.3409 4.0489 11.2166C4.15492 11.0963 4.25854 11.0346 4.4057 10.983C4.42356 10.9766 4.44142 10.9702 4.45982 10.9636C4.49754 10.9502 4.53531 10.9369 4.57311 10.9238C4.63016 10.9038 4.68693 10.8832 4.74372 10.8624C5.21096 10.6959 5.21096 10.6959 5.42457 10.8039Z" fill="#55417C"/>
<path d="M10.1378 14.2966C10.242 14.3493 10.3087 14.416 10.3717 14.5175C10.4147 14.6472 10.4257 14.7615 10.4255 14.8969C10.4256 14.9163 10.4257 14.9357 10.4258 14.9557C10.426 14.9965 10.426 15.0373 10.4259 15.0781C10.4258 15.1399 10.4264 15.2017 10.4269 15.2636C10.4287 15.7145 10.4287 15.7145 10.3073 15.8712C10.2933 15.882 10.2794 15.8929 10.265 15.9041C10.244 15.9212 10.244 15.9212 10.2225 15.9387C10.1121 16.0168 9.98594 16.0028 9.85712 15.99C9.75294 15.9373 9.68619 15.8707 9.62321 15.7692C9.58025 15.6394 9.56923 15.5252 9.56939 15.3897C9.56929 15.3703 9.56919 15.3509 9.56909 15.331C9.56895 15.2902 9.56894 15.2494 9.56904 15.2086C9.56912 15.1467 9.56857 15.0849 9.56798 15.0231C9.56621 14.5721 9.56621 14.5721 9.68762 14.4155C9.70158 14.4046 9.71555 14.3937 9.72993 14.3825C9.74395 14.3711 9.75797 14.3597 9.77242 14.348C9.88284 14.2698 10.009 14.2839 10.1378 14.2966Z" fill="#55417C"/>
<path d="M6.51224 4.01337C6.62056 4.07453 6.68645 4.1467 6.7593 4.24959C6.77371 4.2698 6.77371 4.2698 6.7884 4.29042C6.82138 4.33694 6.85394 4.38374 6.88649 4.43059C6.89954 4.44922 6.91259 4.46785 6.92604 4.48704C6.96757 4.54635 7.00894 4.60578 7.05022 4.66528C7.06342 4.68426 7.07661 4.70325 7.0902 4.72281C7.10258 4.74081 7.11495 4.7588 7.12771 4.77735C7.13871 4.79331 7.14972 4.80927 7.16106 4.82572C7.25158 4.96875 7.25425 5.09587 7.23735 5.26503C7.20786 5.36401 7.15567 5.42555 7.08239 5.49511C6.95232 5.56082 6.81564 5.58044 6.67451 5.54113C6.53784 5.47644 6.45705 5.33998 6.37189 5.21595C6.3604 5.19923 6.34892 5.18252 6.33708 5.1653C6.26506 5.05997 6.19403 4.95395 6.12368 4.84738C6.09163 4.79937 6.05876 4.75208 6.02578 4.70477C5.94115 4.57694 5.93199 4.45974 5.95086 4.30788C5.99047 4.2027 6.05068 4.12951 6.12629 4.05018C6.25133 3.99396 6.37841 3.99019 6.51224 4.01337Z" fill="#55417C"/>
<path d="M13.7868 4.01337C13.9147 4.07089 13.9922 4.17396 14.0441 4.30788C14.0729 4.45925 14.048 4.57903 13.971 4.7087C13.8778 4.84785 13.7802 4.98332 13.6815 5.11825C13.6489 5.16343 13.617 5.20905 13.5855 5.25506C13.5585 5.29416 13.5585 5.29416 13.5309 5.33406C13.5153 5.35699 13.4996 5.37993 13.4835 5.40356C13.4041 5.49996 13.3251 5.54318 13.2049 5.55647C13.0592 5.56737 12.9661 5.52661 12.8555 5.42609C12.7568 5.3047 12.7425 5.20674 12.7463 5.04875C12.7642 4.92472 12.8191 4.84238 12.8903 4.74364C12.9277 4.69165 12.9639 4.63884 13.0002 4.58599C13.4214 3.97608 13.4214 3.97608 13.7868 4.01337Z" fill="#55417C"/>
</svg>
