<svg width="24" height="24" viewBox="0 0 24 24" fill="none" xmlns="http://www.w3.org/2000/svg">
<rect width="24" height="24" rx="3" fill="#DFE4EA"/>
<path d="M12.4865 4.86816L13.2329 4.95891C16.7785 5.42779 20.0627 8.73262 18.6744 12.5366C17.7264 15.1305 14.8676 16.643 12.2327 16.6808C11.8819 17.0892 11.4938 17.4295 11.0011 17.6488C10.8892 17.6942 10.4562 17.8682 10.3667 17.8682H9.0679V16.1666C8.79919 16.0229 8.50062 15.917 8.2319 15.7733C6.78384 15.002 5.55224 13.6785 5.14917 12.045L5.00735 11.2963C5.02228 10.9711 4.98496 10.6233 5.00735 10.2981C5.25367 7.09911 8.61258 5.02698 11.5087 4.86816H12.494H12.4865ZM10.2771 16.643C10.6802 16.5296 11.0459 16.28 11.2698 15.9246C11.3221 15.8414 11.4415 15.5087 11.4938 15.486C13.1434 15.5389 14.8004 15.1457 16.0992 14.102C18.2713 12.3626 18.3907 9.49644 16.3082 7.62093C14.0689 5.60929 10.1801 5.55635 7.86616 7.46968C5.27607 9.60987 5.81349 13.0055 8.62751 14.6087C9.15747 14.9112 9.71729 15.0927 10.2846 15.312V16.6506L10.2771 16.643Z" fill="white"/>
<path d="M12.5985 10.1771H11.3967V11.3644H12.5985V10.1771Z" fill="white"/>
<path d="M9.6725 10.1771H8.50062V11.3644H9.6725V10.1771Z" fill="white"/>
<path d="M15.4871 10.1771H14.3153V11.3644H15.4871V10.1771Z" fill="white"/>
</svg>
