<svg width="17" height="16" viewBox="0 0 17 16" fill="none" xmlns="http://www.w3.org/2000/svg">
<path d="M14.7696 6.53202C14.7579 6.52388 14.7462 6.51573 14.7357 6.50487L14.3646 6.15331C14.2488 6.06915 14.1251 5.99721 13.9923 5.93884C12.7618 5.39996 11.5639 6.04065 10.4532 6.69627C10.448 6.69898 10.4441 6.70169 10.4389 6.70441C10.379 6.7397 10.3178 6.77635 10.2579 6.81164C10.0873 6.91209 9.91938 7.01254 9.77615 7.09398L3.50928 10.6775L3.53272 12.195L6.05093 10.8825C6.69155 10.5553 7.30743 10.3531 7.87513 10.4033C8.47408 10.4562 9.00142 10.7779 9.42069 11.5014L9.42199 11.5041C9.60298 11.7824 9.79829 12.0145 10.0053 12.2045C10.2136 12.3932 10.4337 12.5398 10.6668 12.6484C10.7436 12.6837 10.8256 12.7176 10.9103 12.7489C11.767 13.0638 12.6811 12.9823 13.4753 12.6023C14.2722 12.2222 14.948 11.5435 15.3217 10.668C15.3594 10.5811 15.3946 10.4888 15.4271 10.3911C15.6941 9.60244 15.6797 8.56811 15.3842 7.66951C15.2448 7.24329 15.0391 6.84829 14.7696 6.53202ZM12.8933 3.98149C13.3243 3.44396 13.905 3.25664 14.4232 3.32451C14.7006 3.36116 14.961 3.47247 15.1732 3.64214C15.3907 3.81724 15.5573 4.05343 15.6394 4.33712C15.642 4.34527 15.6433 4.35477 15.6459 4.36291C15.7774 4.85157 15.6628 5.46511 15.129 6.11666C15.4662 6.49809 15.7188 6.97453 15.8894 7.49034C16.2227 8.50159 16.2357 9.67438 15.931 10.577C15.8959 10.6816 15.8542 10.7888 15.8086 10.896C15.3803 11.8978 14.6094 12.6728 13.698 13.1086C12.7839 13.5457 11.728 13.6393 10.7358 13.2742C10.6446 13.2402 10.5496 13.2009 10.4532 13.1561C10.1733 13.0258 9.90766 12.8507 9.65897 12.624C9.41808 12.4041 9.19152 12.1367 8.98449 11.8177C8.97798 11.8096 8.97277 11.8 8.96757 11.7905C8.64856 11.2394 8.26315 10.9978 7.83346 10.9585C7.37253 10.9177 6.84649 11.0956 6.2866 11.3806L3.40903 12.8805C3.30877 12.9403 3.17986 12.928 3.09132 12.8398L0.23067 9.96079C0.179889 9.90921 0.148639 9.83726 0.149942 9.75854L0.178587 7.81068C0.175983 7.7401 0.19942 7.6668 0.250201 7.61115C0.273638 7.584 0.302284 7.56364 0.330929 7.54871L5.56656 4.46336C5.57567 4.45657 5.58609 4.45114 5.5965 4.44571L7.33998 3.41817C7.35039 3.41138 7.36081 3.4046 7.37253 3.39917L7.52357 3.30958C7.53268 3.30279 7.5418 3.29736 7.55221 3.29193C8.02747 3.03403 8.50012 2.82363 8.96496 2.68382C9.43891 2.5413 9.90766 2.47479 10.3647 2.50872C11.4623 2.59152 12.1837 3.2675 12.8933 3.98149ZM14.7357 5.74609C15.1277 5.26422 15.2214 4.83936 15.1368 4.51901C15.1342 4.51223 15.1329 4.50544 15.1303 4.50001C15.0808 4.33034 14.9805 4.18781 14.849 4.08329C14.7123 3.97334 14.5404 3.90004 14.3568 3.87697C13.9949 3.82946 13.5847 3.97063 13.2774 4.37106C13.3412 4.4335 13.4063 4.49729 13.4727 4.56109L14.6928 5.71759C14.7084 5.72437 14.7214 5.73523 14.7357 5.74609ZM6.14468 4.75791L8.46106 7.21479L9.52225 6.60804C9.64855 6.53609 9.76313 6.46822 9.87511 6.40307L7.44544 3.99099L6.14468 4.75791ZM7.97669 7.4917L5.66551 5.04025L0.89082 7.85412L3.28403 10.1766L7.97669 7.4917ZM7.93502 3.71137L10.3582 6.11666C11.2918 5.57235 12.2852 5.07011 13.3555 5.19499L13.116 4.96831C12.9597 4.82035 12.7996 4.65882 12.6407 4.49729C11.9623 3.81181 11.2931 3.13583 10.3282 3.06253C9.93631 3.03267 9.52876 3.0924 9.11079 3.21728C8.72798 3.33266 8.33476 3.50369 7.93502 3.71137ZM2.97934 10.6381L0.700718 8.42558L0.682489 9.64451L3.00017 11.9779L2.97934 10.6381Z" fill="#55417C" stroke="#55417C" stroke-width="0.3"/>
</svg>
