<svg width="17" height="12" viewBox="0 0 17 12" fill="none" xmlns="http://www.w3.org/2000/svg">
<path d="M14.7696 4.18205C14.7579 4.1739 14.7462 4.16576 14.7357 4.1549L14.3646 3.80333C14.2488 3.71918 14.1251 3.64723 13.9923 3.58887C12.7618 3.04998 11.5639 3.69067 10.4532 4.34629C10.448 4.349 10.4441 4.35172 10.4389 4.35443C10.379 4.38973 10.3178 4.42638 10.2579 4.46167C10.0873 4.56211 9.91938 4.66256 9.77615 4.744L3.50928 8.32751L3.53272 9.84507L6.05093 8.53248C6.69155 8.20535 7.30743 8.0031 7.87513 8.05332C8.47408 8.10626 9.00142 8.42796 9.42069 9.15145L9.42199 9.15416C9.60298 9.43243 9.79829 9.66454 10.0053 9.85457C10.2136 10.0433 10.4337 10.1898 10.6668 10.2984C10.7436 10.3337 10.8256 10.3677 10.9103 10.3989C11.767 10.7138 12.6811 10.6324 13.4753 10.2523C14.2722 9.87222 14.948 9.19353 15.3217 8.31801C15.3594 8.23114 15.3946 8.13883 15.4271 8.0411C15.6941 7.25246 15.6797 6.21813 15.3842 5.31954C15.2448 4.89332 15.0391 4.49832 14.7696 4.18205ZM12.8933 1.63151C13.3243 1.09399 13.905 0.906666 14.4232 0.974535C14.7006 1.01118 14.961 1.12249 15.1732 1.29216C15.3907 1.46727 15.5573 1.70345 15.6394 1.98715C15.642 1.99529 15.6433 2.00479 15.6459 2.01294C15.7774 2.5016 15.6628 3.11514 15.129 3.76668C15.4662 4.14811 15.7188 4.62455 15.8894 5.14036C16.2227 6.15162 16.2357 7.3244 15.931 8.22707C15.8959 8.33158 15.8542 8.43882 15.8086 8.54605C15.3803 9.5478 14.6094 10.3229 13.698 10.7586C12.7839 11.1957 11.728 11.2893 10.7358 10.9242C10.6446 10.8903 10.5496 10.8509 10.4532 10.8061C10.1733 10.6758 9.90766 10.5007 9.65897 10.274C9.41808 10.0541 9.19152 9.78671 8.98449 9.46772C8.97798 9.45957 8.97277 9.45007 8.96757 9.44057C8.64856 8.88947 8.26315 8.64786 7.83346 8.60849C7.37253 8.56777 6.84649 8.74559 6.2866 9.03064L3.40903 10.5306C3.30877 10.5903 3.17986 10.5781 3.09132 10.4898L0.23067 7.61081C0.179889 7.55923 0.148639 7.48729 0.149942 7.40856L0.178587 5.46071C0.175983 5.39012 0.19942 5.31682 0.250201 5.26117C0.273638 5.23402 0.302284 5.21366 0.330929 5.19873L5.56656 2.11338C5.57567 2.1066 5.58609 2.10117 5.5965 2.09574L7.33998 1.06819C7.35039 1.06141 7.36081 1.05462 7.37253 1.04919L7.52357 0.959604C7.53268 0.952817 7.5418 0.947387 7.55221 0.941958C8.02747 0.684054 8.50012 0.473659 8.96496 0.333847C9.43891 0.191322 9.90766 0.12481 10.3647 0.158744C11.4623 0.241545 12.1837 0.917525 12.8933 1.63151ZM14.7357 3.39612C15.1277 2.91424 15.2214 2.48938 15.1368 2.16904C15.1342 2.16225 15.1329 2.15546 15.1303 2.15003C15.0808 1.98036 14.9805 1.83783 14.849 1.73332C14.7123 1.62337 14.5404 1.55007 14.3568 1.52699C13.9949 1.47948 13.5847 1.62065 13.2774 2.02108C13.3412 2.08352 13.4063 2.14732 13.4727 2.21112L14.6928 3.36761C14.7084 3.3744 14.7214 3.38526 14.7357 3.39612ZM6.14468 2.40794L8.46106 4.86481L9.52225 4.25806C9.64855 4.18612 9.76313 4.11825 9.87511 4.05309L7.44544 1.64101L6.14468 2.40794ZM7.97669 5.14172L5.66551 2.69027L0.89082 5.50414L3.28403 7.82664L7.97669 5.14172ZM7.93502 1.36139L10.3582 3.76668C11.2918 3.22237 12.2852 2.72014 13.3555 2.84502L13.116 2.61833C12.9597 2.47038 12.7996 2.30885 12.6407 2.14732C11.9623 1.46184 11.2931 0.785858 10.3282 0.712559C9.93631 0.682696 9.52876 0.742422 9.11079 0.867301C8.72798 0.982679 8.33476 1.15371 7.93502 1.36139ZM2.97934 8.28815L0.700718 6.0756L0.682489 7.29454L3.00017 9.62789L2.97934 8.28815Z" fill="#6C7278" stroke="#6C7278" stroke-width="0.3"/>
</svg>
