<svg width="41" height="41" viewBox="0 0 41 41" fill="none" xmlns="http://www.w3.org/2000/svg">
<g filter="url(#filter0_d_531_6864)">
<rect x="3" y="2" width="35" height="35" rx="17.5" fill="#F9FAFB" shape-rendering="crispEdges"/>
<rect x="3.5" y="2.5" width="34" height="34" rx="17" stroke="#DFE4EA" shape-rendering="crispEdges"/>
<path d="M18.7275 13.125H22.6689C23.1221 13.1233 23.565 13.2625 23.9355 13.5234C24.3047 13.7835 24.584 14.1518 24.7354 14.5771V14.5781L24.9824 15.3477L25.0098 15.4346H26.0869C26.3767 15.4346 26.6634 15.4925 26.9307 15.6045C27.1981 15.7165 27.4412 15.8802 27.6445 16.0869C27.8477 16.2935 28.0077 16.5386 28.1152 16.8076C28.2228 17.0769 28.2753 17.3654 28.2705 17.6553V23.8154C28.2705 24.3948 28.0405 24.9507 27.6309 25.3604C27.2213 25.7698 26.666 25.9999 26.0869 26H15.3096C14.7302 26 14.1743 25.77 13.7646 25.3604C13.355 24.9507 13.125 24.3948 13.125 23.8154V17.6572C13.125 17.0779 13.355 16.5219 13.7646 16.1123C14.1743 15.7027 14.7303 15.4727 15.3096 15.4727H16.3857L16.4141 15.3857L16.6592 14.6152C16.8043 14.1821 17.0827 13.8055 17.4531 13.5381C17.8241 13.2703 18.27 13.1259 18.7275 13.125ZM18.7656 14.415C18.5782 14.4146 18.3956 14.4729 18.2432 14.582C18.0906 14.6912 17.976 14.8457 17.916 15.0234V15.0244L17.5 16.2861C17.4551 16.4193 17.3681 16.5342 17.252 16.6133C17.1355 16.6925 16.9961 16.7319 16.8555 16.7246V16.7236H15.3096C15.0723 16.7236 14.8446 16.8185 14.6768 16.9863C14.509 17.1541 14.415 17.3819 14.415 17.6191V23.7773C14.4151 24.0146 14.509 24.2424 14.6768 24.4102C14.8445 24.5778 15.0723 24.6719 15.3096 24.6719H26.0869C26.3239 24.6718 26.5511 24.5776 26.7188 24.4102C26.8865 24.2424 26.9814 24.0146 26.9814 23.7773V17.6191C26.9814 17.3818 26.8866 17.1541 26.7188 16.9863C26.5511 16.8187 26.324 16.7237 26.0869 16.7236H24.5469C24.4195 16.7163 24.2972 16.6716 24.1953 16.5947C24.1176 16.536 24.0539 16.4608 24.0098 16.375L23.9727 16.2861L23.5576 15.0244L23.5566 15.0234L23.502 14.8945C23.4373 14.771 23.3439 14.6639 23.2295 14.582C23.0771 14.473 22.8945 14.4146 22.707 14.415H18.7656ZM20.6982 16.9736C21.4816 16.9737 22.2332 17.285 22.7871 17.8389C23.341 18.3928 23.6522 19.1444 23.6523 19.9277C23.6523 20.512 23.4789 21.0835 23.1543 21.5693C22.8297 22.0551 22.3679 22.4336 21.8281 22.6572C21.2885 22.8807 20.6949 22.9391 20.1221 22.8252C19.549 22.7112 19.0225 22.4298 18.6094 22.0166C18.1964 21.6036 17.9148 21.0777 17.8008 20.5049C17.6868 19.9319 17.7452 19.3376 17.9688 18.7979C18.1923 18.258 18.5708 17.7963 19.0566 17.4717C19.5424 17.1471 20.114 16.9736 20.6982 16.9736ZM21.335 18.3906C21.0308 18.2646 20.6959 18.2317 20.373 18.2959C20.0502 18.3602 19.7533 18.5182 19.5205 18.751C19.2878 18.9838 19.1296 19.2807 19.0654 19.6035C19.0012 19.9264 19.0342 20.2613 19.1602 20.5654C19.2862 20.8695 19.4998 21.1296 19.7734 21.3125C20.0471 21.4953 20.3692 21.5928 20.6982 21.5928C21.1396 21.5927 21.5629 21.4175 21.875 21.1055C22.1872 20.7933 22.3623 20.3692 22.3623 19.9277C22.3622 19.5987 22.2649 19.2766 22.082 19.0029C21.8992 18.7294 21.639 18.5166 21.335 18.3906Z" fill="#55417C" stroke="white" stroke-width="0.25"/>
</g>
<defs>
<filter id="filter0_d_531_6864" x="0" y="0" width="41" height="41" filterUnits="userSpaceOnUse" color-interpolation-filters="sRGB">
<feFlood flood-opacity="0" result="BackgroundImageFix"/>
<feColorMatrix in="SourceAlpha" type="matrix" values="0 0 0 0 0 0 0 0 0 0 0 0 0 0 0 0 0 0 127 0" result="hardAlpha"/>
<feOffset dy="1"/>
<feGaussianBlur stdDeviation="1.5"/>
<feComposite in2="hardAlpha" operator="out"/>
<feColorMatrix type="matrix" values="0 0 0 0 0.65098 0 0 0 0 0.686275 0 0 0 0 0.764706 0 0 0 0.4 0"/>
<feBlend mode="normal" in2="BackgroundImageFix" result="effect1_dropShadow_531_6864"/>
<feBlend mode="normal" in="SourceGraphic" in2="effect1_dropShadow_531_6864" result="shape"/>
</filter>
</defs>
</svg>
