<svg width="24" height="24" viewBox="0 0 24 24" fill="none" xmlns="http://www.w3.org/2000/svg">
<rect width="24" height="24" rx="3" fill="#25D366"/>
<path fill-rule="evenodd" clip-rule="evenodd" d="M16.9601 6.90257C15.6442 5.59132 13.8941 4.86883 12.0294 4.86816C8.18698 4.86816 5.05983 7.97998 5.05849 11.805C5.05782 13.0277 5.37903 14.2212 5.98902 15.273L5 18.8682L8.69536 17.9035C9.71345 18.4564 10.8599 18.7474 12.0264 18.7478H12.0294C15.8712 18.7478 18.9987 15.6356 19 11.8106C19.0007 9.95685 18.2764 8.21416 16.9601 6.9029V6.90257ZM12.0294 17.5762H12.0271C10.9876 17.5759 9.96782 17.2978 9.07808 16.7726L8.8665 16.6475L6.67354 17.2199L7.2588 15.0921L7.12109 14.8739C6.54118 13.9558 6.23468 12.8947 6.23535 11.8053C6.23669 8.62629 8.83574 6.03971 12.0318 6.03971C13.5793 6.04037 15.0339 6.64079 16.1279 7.73083C17.2218 8.82055 17.8238 10.2695 17.8231 11.81C17.8218 14.9893 15.2228 17.5759 12.0294 17.5759V17.5762ZM15.2074 13.2579C15.0332 13.1711 14.1769 12.752 14.0171 12.6941C13.8574 12.6362 13.7414 12.6073 13.6254 12.7809C13.5094 12.9546 13.1755 13.3451 13.0739 13.4605C12.9723 13.5762 12.8707 13.5906 12.6965 13.5037C12.5224 13.4169 11.9612 13.234 11.2958 12.6435C10.778 12.1838 10.4284 11.6164 10.3268 11.4427C10.2252 11.2691 10.3161 11.1753 10.403 11.0891C10.4812 11.0113 10.5771 10.8866 10.6644 10.7854C10.7516 10.6843 10.7804 10.6118 10.8385 10.4964C10.8967 10.3806 10.8676 10.2795 10.8242 10.1927C10.7807 10.1059 10.4324 9.25263 10.287 8.9057C10.1456 8.56775 10.0019 8.61365 9.89529 8.608C9.79368 8.60301 9.67771 8.60201 9.56139 8.60201C9.44508 8.60201 9.25654 8.64525 9.09679 8.81889C8.93703 8.99251 8.48713 9.41196 8.48713 10.2648C8.48713 11.1177 9.11118 11.9424 9.19841 12.0581C9.28563 12.1739 10.4267 13.9245 12.1738 14.6756C12.5893 14.8542 12.9138 14.961 13.1668 15.0409C13.584 15.1729 13.9637 15.1543 14.2638 15.1097C14.5984 15.0598 15.2943 14.6903 15.4393 14.2854C15.5844 13.8806 15.5844 13.5333 15.541 13.4611C15.4975 13.389 15.3812 13.3454 15.2071 13.2586L15.2074 13.2579Z" fill="white"/>
</svg>
