<svg width="20" height="20" viewBox="0 0 20 20" fill="none" xmlns="http://www.w3.org/2000/svg">
<path d="M6.73164 4.00606C6.77508 4.00594 6.77508 4.00594 6.81941 4.00582C6.91618 4.0056 7.01295 4.00556 7.10972 4.00552C7.17923 4.0054 7.24874 4.00527 7.31824 4.00513C7.50691 4.00477 7.69558 4.00462 7.88425 4.0045C8.00224 4.00443 8.12022 4.00432 8.23821 4.0042C8.56538 4.00388 8.89255 4.00362 9.21973 4.00353C9.24064 4.00352 9.26156 4.00352 9.2831 4.00351C9.30407 4.0035 9.32503 4.0035 9.34663 4.00349C9.3891 4.00348 9.43157 4.00347 9.47404 4.00346C9.49511 4.00345 9.51618 4.00345 9.53788 4.00344C9.87887 4.00334 10.2198 4.00288 10.5608 4.00228C10.9116 4.00166 11.2623 4.00133 11.6131 4.0013C11.8097 4.00128 12.0064 4.00113 12.2031 4.00066C12.3706 4.00025 12.5381 4.00012 12.7057 4.00034C12.791 4.00044 12.8763 4.00038 12.9616 4.00005C13.7039 3.99738 14.3569 4.09919 14.9108 4.63514C15.4458 5.18195 15.5018 5.8172 15.4992 6.5362C15.499 6.6386 15.4994 6.741 15.4997 6.84339C15.5001 7.04345 15.5 7.24351 15.4997 7.44357C15.4995 7.6063 15.4995 7.76903 15.4996 7.93175C15.4996 7.96662 15.4996 7.96662 15.4996 8.00218C15.4997 8.04941 15.4997 8.09664 15.4997 8.14386C15.5 8.58576 15.4997 9.02766 15.4991 9.46956C15.4986 9.84797 15.4987 10.2264 15.4992 10.6048C15.4998 11.0452 15.5 11.4856 15.4997 11.9261C15.4996 11.9731 15.4996 12.0201 15.4996 12.0672C15.4995 12.1019 15.4995 12.1019 15.4995 12.1373C15.4994 12.2997 15.4996 12.462 15.4998 12.6244C15.5001 12.8225 15.5 13.0206 15.4995 13.2187C15.4992 13.3196 15.4991 13.4205 15.4994 13.5214C15.5018 14.2626 15.4034 14.8481 14.8681 15.4041C14.2913 15.944 13.6175 16.0013 12.8651 15.9993C12.7956 15.9994 12.7261 15.9996 12.6565 15.9998C12.4882 16.0001 12.3198 16 12.1515 15.9998C12.0145 15.9996 11.8776 15.9996 11.7406 15.9997C11.721 15.9997 11.7014 15.9997 11.6812 15.9997C11.6414 15.9997 11.6016 15.9998 11.5618 15.9998C11.1897 16 10.8175 15.9998 10.4454 15.9993C10.1269 15.999 9.80843 15.9991 9.48996 15.9994C9.11903 15.9998 8.7481 16 8.37716 15.9998C8.33752 15.9997 8.29787 15.9997 8.25823 15.9997C8.23873 15.9997 8.21923 15.9997 8.19913 15.9996C8.06253 15.9996 7.92592 15.9997 7.78931 15.9999C7.62255 16.0001 7.4558 16 7.28904 15.9996C7.20415 15.9994 7.11928 15.9994 7.03439 15.9996C6.28411 16.0013 5.64429 15.8932 5.08445 15.357C4.6838 14.9383 4.50486 14.44 4.50631 13.8726C4.50619 13.8383 4.50607 13.8039 4.50595 13.7685C4.50563 13.6736 4.50563 13.5788 4.50569 13.4839C4.50571 13.3814 4.50541 13.2788 4.50516 13.1763C4.50473 12.9756 4.50458 12.7749 4.50455 12.5742C4.50453 12.411 4.50442 12.2477 4.50425 12.0845C4.50379 11.6211 4.50354 11.1576 4.50358 10.6942C4.50358 10.6692 4.50359 10.6443 4.50359 10.6186C4.50359 10.5936 4.50359 10.5686 4.5036 10.5428C4.50362 10.1381 4.50311 9.73339 4.50237 9.32868C4.50161 8.91255 4.50125 8.49643 4.50129 8.0803C4.50131 7.84691 4.50117 7.61352 4.5006 7.38013C4.50011 7.18135 4.5 6.98257 4.50036 6.78379C4.50053 6.68252 4.50054 6.58126 4.50008 6.47999C4.4969 5.73378 4.58942 5.15429 5.13153 4.58753C5.57322 4.17631 6.13658 4.00556 6.73164 4.00606ZM5.67387 5.28579C5.39305 5.64691 5.35323 6.0018 5.35384 6.44264C5.35378 6.47429 5.35372 6.50595 5.35366 6.53857C5.35353 6.62576 5.3535 6.71295 5.35354 6.80014C5.35354 6.89444 5.3534 6.98875 5.35327 7.08305C5.35305 7.26755 5.35298 7.45205 5.35296 7.63655C5.35295 7.78662 5.3529 7.93669 5.35281 8.08676C5.35258 8.51283 5.35246 8.93889 5.35248 9.36496C5.35248 9.3879 5.35248 9.41084 5.35248 9.43447C5.35248 9.45744 5.35249 9.4804 5.35249 9.50407C5.3525 9.87615 5.35224 10.2482 5.35187 10.6203C5.35149 11.0029 5.35131 11.3856 5.35133 11.7682C5.35134 11.9828 5.35127 12.1974 5.35099 12.412C5.35075 12.5947 5.35069 12.7774 5.35087 12.9601C5.35095 13.0532 5.35096 13.1463 5.35073 13.2394C5.35048 13.3406 5.35065 13.4418 5.35085 13.5431C5.35071 13.572 5.35058 13.601 5.35044 13.6308C5.3524 14.0777 5.42593 14.4623 5.75063 14.794C6.04829 15.0605 6.38328 15.1338 6.77475 15.1335C6.81759 15.1336 6.81759 15.1336 6.8613 15.1337C6.95703 15.1339 7.05275 15.134 7.14848 15.134C7.21711 15.1341 7.28574 15.1343 7.35437 15.1344C7.54085 15.1348 7.72734 15.1349 7.91382 15.135C8.03037 15.1351 8.14691 15.1352 8.26345 15.1353C8.58642 15.1357 8.90938 15.1359 9.23235 15.136C9.253 15.136 9.27366 15.136 9.29494 15.136C9.31564 15.136 9.33635 15.136 9.35768 15.136C9.39963 15.1361 9.44158 15.1361 9.48353 15.1361C9.51475 15.1361 9.51475 15.1361 9.54659 15.1361C9.88356 15.1362 10.2205 15.1367 10.5575 15.1373C10.9038 15.1379 11.2502 15.1382 11.5965 15.1382C11.7908 15.1383 11.9851 15.1384 12.1794 15.1389C12.3622 15.1393 12.5451 15.1394 12.7279 15.1391C12.7949 15.1391 12.8619 15.1392 12.9289 15.1395C13.0206 15.1398 13.1123 15.1397 13.204 15.1394C13.2434 15.1397 13.2434 15.1397 13.2836 15.14C13.6558 15.1375 13.9963 15.0269 14.2695 14.7729C14.6011 14.4156 14.6456 14.0191 14.645 13.5563C14.645 13.5246 14.6451 13.493 14.6452 13.4604C14.6453 13.3732 14.6453 13.286 14.6453 13.1988C14.6453 13.1045 14.6454 13.0102 14.6455 12.9159C14.6458 12.7314 14.6458 12.5469 14.6459 12.3624C14.6459 12.2123 14.6459 12.0623 14.646 11.9122C14.6462 11.4861 14.6464 11.06 14.6463 10.634C14.6463 10.611 14.6463 10.5881 14.6463 10.5645C14.6463 10.5415 14.6463 10.5185 14.6463 10.4949C14.6463 10.1228 14.6466 9.75072 14.6469 9.37864C14.6473 8.996 14.6475 8.61337 14.6475 8.23073C14.6475 8.01615 14.6475 7.80156 14.6478 7.58698C14.6481 7.40427 14.6481 7.22156 14.6479 7.03885C14.6479 6.94576 14.6479 6.85268 14.6481 6.75959C14.6483 6.65835 14.6482 6.55711 14.648 6.45587C14.6482 6.41243 14.6482 6.41243 14.6484 6.36812C14.6464 5.92121 14.5729 5.5366 14.2482 5.20492C13.9505 4.93849 13.6155 4.86512 13.2241 4.86546C13.1812 4.86534 13.1812 4.86534 13.1375 4.86522C13.0418 4.865 12.9461 4.86496 12.8503 4.86492C12.7817 4.8648 12.7131 4.86467 12.6444 4.86453C12.458 4.86417 12.2715 4.86402 12.085 4.8639C11.9684 4.86383 11.8519 4.86372 11.7354 4.8636C11.4124 4.86328 11.0894 4.86302 10.7665 4.86293C10.7458 4.86292 10.7252 4.86292 10.7039 4.86291C10.6832 4.8629 10.6625 4.8629 10.6411 4.86289C10.5992 4.86288 10.5572 4.86287 10.5153 4.86286C10.4841 4.86285 10.4841 4.86285 10.4522 4.86284C10.1153 4.86274 9.77829 4.86228 9.44133 4.86168C9.095 4.86106 8.74866 4.86073 8.40233 4.8607C8.20803 4.86068 8.01373 4.86053 7.81943 4.86006C7.63659 4.85961 7.45375 4.85957 7.2709 4.8598C7.20392 4.85982 7.13694 4.85971 7.06995 4.85945C6.97825 4.85912 6.88655 4.85927 6.79485 4.85954C6.76858 4.85933 6.74231 4.85912 6.71525 4.85891C6.31403 4.86167 5.94801 4.99046 5.67387 5.28579Z" fill="#55417C"/>
<path d="M7.33286 10.6696C7.35652 10.6695 7.38018 10.6694 7.40455 10.6693C7.48384 10.6689 7.56312 10.669 7.64241 10.669C7.69926 10.6689 7.7561 10.6687 7.81295 10.6685C7.96738 10.668 8.12182 10.6679 8.27626 10.6679C8.40519 10.6678 8.53411 10.6676 8.66304 10.6674C8.96723 10.667 9.27142 10.6669 9.57561 10.6669C9.88938 10.667 10.2031 10.6664 10.5169 10.6656C10.7863 10.6649 11.0557 10.6646 11.3251 10.6647C11.486 10.6647 11.6469 10.6645 11.8078 10.664C11.9591 10.6635 12.1105 10.6635 12.2618 10.6638C12.3173 10.6639 12.3728 10.6638 12.4283 10.6635C12.5042 10.6631 12.58 10.6633 12.6559 10.6637C12.6887 10.6633 12.6887 10.6633 12.7222 10.6629C12.8722 10.6646 12.9862 10.6981 13.1117 10.7807C13.2341 10.9079 13.253 11.0143 13.251 11.1843C13.2363 11.3133 13.1638 11.3833 13.0688 11.466C12.9544 11.5463 12.8604 11.5398 12.7239 11.5398C12.6998 11.5399 12.6757 11.54 12.651 11.5401C12.5698 11.5404 12.4887 11.5405 12.4076 11.5406C12.3497 11.5407 12.2917 11.5409 12.2337 11.5411C12.0759 11.5416 11.9181 11.5418 11.7603 11.542C11.6618 11.5422 11.5632 11.5423 11.4647 11.5425C11.1743 11.543 10.8839 11.5433 10.5934 11.5435C10.5403 11.5436 10.4871 11.5436 10.434 11.5437C10.4164 11.5437 10.3988 11.5437 10.3806 11.5437C10.0956 11.5439 9.81051 11.5446 9.52545 11.5454C9.23283 11.5463 8.94021 11.5467 8.64759 11.5468C8.48327 11.5469 8.31896 11.5471 8.15465 11.5478C8.00008 11.5484 7.84552 11.5485 7.69094 11.5482C7.63419 11.5482 7.57743 11.5484 7.52068 11.5487C7.44323 11.5492 7.3658 11.549 7.28835 11.5487C7.26586 11.549 7.24337 11.5492 7.2202 11.5495C7.07896 11.548 6.99944 11.5239 6.88713 11.4318C6.7703 11.3009 6.74734 11.2265 6.74959 11.0552C6.76023 10.931 6.80694 10.8585 6.89702 10.7742C7.04318 10.678 7.1619 10.669 7.33286 10.6696Z" fill="#55417C"/>
<path d="M7.27496 8.45914C7.29901 8.45904 7.32307 8.45894 7.34786 8.45885C7.42898 8.45856 7.51009 8.45846 7.5912 8.45836C7.64916 8.4582 7.70712 8.45802 7.76507 8.45784C7.92289 8.45739 8.08071 8.45711 8.23853 8.4569C8.33706 8.45676 8.4356 8.4566 8.53413 8.45644C8.82455 8.45597 9.11496 8.4556 9.40538 8.45539C9.45854 8.45536 9.5117 8.45532 9.56486 8.45528C9.58246 8.45527 9.60006 8.45526 9.61819 8.45524C9.90325 8.45503 10.1883 8.45437 10.4734 8.45352C10.766 8.45266 11.0586 8.4522 11.3512 8.45211C11.5155 8.45205 11.6799 8.45181 11.8442 8.45116C11.9987 8.45055 12.1533 8.45044 12.3079 8.45071C12.3646 8.45072 12.4214 8.45056 12.4781 8.4502C12.5556 8.44974 12.633 8.44992 12.7105 8.45027C12.733 8.44998 12.7554 8.44969 12.7786 8.4494C12.9199 8.45091 12.9994 8.47503 13.1117 8.56714C13.2285 8.69809 13.2515 8.7724 13.2492 8.94374C13.2386 9.06792 13.1919 9.14044 13.1018 9.22471C12.9556 9.32092 12.8369 9.32996 12.666 9.32933C12.6423 9.32945 12.6186 9.32957 12.5943 9.32969C12.515 9.33002 12.4357 9.32998 12.3564 9.32993C12.2996 9.33009 12.2427 9.33027 12.1859 9.33046C12.0314 9.33092 11.877 9.33105 11.7226 9.33108C11.5936 9.33113 11.4647 9.33132 11.3358 9.3315C11.0316 9.33193 10.7274 9.33206 10.4232 9.33202C10.1094 9.33199 9.79567 9.33254 9.4819 9.33336C9.2125 9.33404 8.9431 9.33432 8.6737 9.33429C8.5128 9.33427 8.35191 9.33442 8.19102 9.33497C8.03967 9.33548 7.88833 9.33548 7.73699 9.3351C7.68149 9.33505 7.62599 9.33517 7.57049 9.33549C7.49462 9.33589 7.41878 9.33565 7.34291 9.33525C7.32104 9.33551 7.29916 9.33578 7.27663 9.33606C7.12664 9.33431 7.01265 9.30082 6.88713 9.2182C6.76467 9.09108 6.74583 8.98468 6.74784 8.81464C6.76252 8.68562 6.83499 8.6156 6.92999 8.53296C7.04446 8.45265 7.1384 8.45911 7.27496 8.45914Z" fill="#55417C"/>
<path d="M7.26309 12.9028C7.28744 12.9026 7.31178 12.9025 7.33687 12.9023C7.41833 12.9018 7.49977 12.9021 7.58123 12.9023C7.63968 12.9021 7.69813 12.9019 7.75658 12.9016C7.91526 12.9011 8.07394 12.9011 8.23263 12.9014C8.3651 12.9015 8.49757 12.9013 8.63004 12.9011C8.96041 12.9007 9.29077 12.9008 9.62113 12.9013C9.90788 12.9017 10.1946 12.9013 10.4814 12.9005C10.776 12.8998 11.0706 12.8995 11.3652 12.8997C11.5306 12.8999 11.6959 12.8998 11.8612 12.8993C12.0167 12.8988 12.1721 12.8989 12.3276 12.8996C12.3846 12.8997 12.4417 12.8996 12.4987 12.8993C12.5766 12.8989 12.6545 12.8993 12.7324 12.8999C12.7549 12.8996 12.7775 12.8992 12.8007 12.8989C12.9554 12.9013 13.0521 12.94 13.1644 13.0464C13.2459 13.158 13.2589 13.2627 13.2546 13.3971C13.2323 13.5303 13.1651 13.6303 13.0582 13.7126C12.95 13.7636 12.8573 13.7606 12.7389 13.7599C12.7146 13.76 12.6902 13.7602 12.6652 13.7603C12.5836 13.7608 12.5021 13.7606 12.4206 13.7605C12.3621 13.7607 12.3037 13.7609 12.2452 13.7612C12.0864 13.7618 11.9277 13.7618 11.7689 13.7618C11.6363 13.7618 11.5038 13.762 11.3713 13.7622C11.0407 13.7628 10.7102 13.7628 10.3796 13.7626C10.0927 13.7624 9.8058 13.763 9.51889 13.7639C9.22415 13.7647 8.92941 13.7651 8.63467 13.765C8.46925 13.765 8.30383 13.7651 8.13841 13.7657C7.98284 13.7663 7.82729 13.7663 7.67172 13.7657C7.61463 13.7656 7.55755 13.7658 7.50046 13.7662C7.4225 13.7666 7.34458 13.7663 7.26662 13.7658C7.24405 13.7661 7.22149 13.7664 7.19824 13.7668C7.04341 13.7645 6.94677 13.7259 6.83438 13.6194C6.74028 13.4905 6.73331 13.3563 6.75526 13.2027C6.83878 12.9571 7.02594 12.9006 7.26309 12.9028Z" fill="#55417C"/>
<path d="M7.32258 6.23588C7.36815 6.23561 7.36815 6.23561 7.41465 6.23533C7.51493 6.23487 7.6152 6.23517 7.71548 6.23553C7.78524 6.23546 7.85501 6.23536 7.92477 6.23523C8.07093 6.23504 8.21708 6.23528 8.36323 6.23578C8.53196 6.23635 8.70068 6.23616 8.86942 6.23559C9.03204 6.23506 9.19467 6.23512 9.3573 6.23542C9.42636 6.23549 9.49543 6.23541 9.5645 6.23516C9.66104 6.2349 9.75755 6.2353 9.85409 6.23588C9.89688 6.23557 9.89688 6.23557 9.94054 6.23524C10.1008 6.23703 10.1939 6.24816 10.3159 6.35353C10.4116 6.453 10.4296 6.53278 10.4346 6.66604C10.4296 6.79931 10.4116 6.87909 10.3159 6.97855C10.1714 7.10319 10.0411 7.09773 9.85451 7.09661C9.82417 7.09684 9.79383 7.09706 9.76257 7.09729C9.66241 7.09788 9.56227 7.09771 9.46212 7.09747C9.39242 7.09761 9.32271 7.09777 9.25301 7.09796C9.10697 7.09827 8.96093 7.09812 8.81489 7.09773C8.64636 7.09729 8.47785 7.0977 8.30933 7.09854C8.14684 7.09932 7.98436 7.09937 7.82187 7.09913C7.7529 7.09911 7.68393 7.09929 7.61496 7.09967C7.51848 7.10013 7.42205 7.09975 7.32558 7.09916C7.28292 7.09961 7.28292 7.09961 7.2394 7.10008C7.06029 7.09784 6.96805 7.07235 6.83438 6.95251C6.74028 6.82363 6.73331 6.68947 6.75526 6.53583C6.79426 6.42118 6.86332 6.3357 6.96735 6.27059C7.07964 6.22445 7.20289 6.235 7.32258 6.23588Z" fill="#55417C"/>
</svg>
