<svg width="11" height="14" viewBox="0 0 11 14" fill="none" xmlns="http://www.w3.org/2000/svg">
<path d="M1.80795 0.00327775C1.86421 0.00312196 1.92047 0.00293187 1.97673 0.00271023C2.12895 0.00222202 2.28116 0.0022526 2.43338 0.00240849C2.56074 0.00249304 2.68809 0.00232642 2.81545 0.00216185C3.11608 0.00177898 3.4167 0.00182085 3.71733 0.00213188C4.0268 0.002445 4.33626 0.00206128 4.64574 0.00132972C4.91204 0.000723938 5.17834 0.000544265 5.44464 0.000704196C5.60342 0.00079591 5.7622 0.000731795 5.92098 0.000260745C6.07039 -0.000163177 6.21979 -5.14426e-05 6.3692 0.000460084C6.4238 0.000560173 6.4784 0.000477283 6.53299 0.000190325C7.12883 -0.00270051 7.51852 0.136759 7.95458 0.542094C8.00838 0.591843 8.0627 0.641003 8.11712 0.690097C8.29114 0.847191 8.46394 1.00475 8.63059 1.16923C8.68062 1.21687 8.73259 1.26113 8.78585 1.30535C8.8812 1.38475 8.97016 1.46932 9.05836 1.55605C9.16215 1.65811 9.26862 1.75477 9.38107 1.84779C9.4752 1.92925 9.56232 2.01745 9.65094 2.10447C9.70906 2.16012 9.76806 2.21245 9.83015 2.26382C9.93896 2.35402 10.039 2.45188 10.1393 2.5507C10.2136 2.62341 10.2892 2.69247 10.3699 2.75841C10.6768 3.01656 10.917 3.32747 10.9852 3.72541C10.9933 3.84809 10.993 3.97049 10.9927 4.09339C10.9928 4.13071 10.993 4.16804 10.9931 4.20536C10.9935 4.30753 10.9935 4.40969 10.9934 4.51186C10.9934 4.62221 10.9937 4.73255 10.994 4.84289C10.9944 5.05893 10.9946 5.27497 10.9946 5.49101C10.9946 5.66668 10.9948 5.84234 10.9949 6.01801C10.9954 6.51639 10.9957 7.01476 10.9956 7.51315C10.9956 7.54 10.9956 7.56685 10.9956 7.59451C10.9956 7.6214 10.9956 7.64828 10.9956 7.67598C10.9956 8.11159 10.9961 8.5472 10.9969 8.98281C10.9977 9.43042 10.9981 9.87804 10.9981 10.3257C10.9981 10.5768 10.9982 10.828 10.9988 11.0792C10.9993 11.293 10.9995 11.5069 10.9991 11.7207C10.9989 11.8298 10.9989 11.9388 10.9994 12.0478C10.9998 12.1478 10.9997 12.2478 10.9993 12.3478C10.9991 12.4007 10.9996 12.4536 11 12.5065C10.9968 12.9091 10.8441 13.2724 10.5615 13.5694C10.2291 13.872 9.84332 13.9984 9.39347 13.9961C9.35877 13.9963 9.32408 13.9964 9.28834 13.9966C9.19276 13.9969 9.0972 13.9968 9.00163 13.9966C8.89827 13.9965 8.79492 13.9968 8.69157 13.9971C8.48936 13.9976 8.28716 13.9976 8.08496 13.9975C7.92054 13.9974 7.75611 13.9974 7.59168 13.9975C7.56824 13.9976 7.5448 13.9976 7.52065 13.9976C7.47302 13.9976 7.42539 13.9977 7.37776 13.9977C6.93155 13.9981 6.48534 13.998 6.03913 13.9976C5.63138 13.9974 5.22363 13.9977 4.81587 13.9984C4.39666 13.999 3.97745 13.9993 3.55824 13.9991C3.3231 13.999 3.08796 13.9991 2.85282 13.9996C2.65264 14 2.45247 14 2.25229 13.9995C2.15027 13.9993 2.04826 13.9992 1.94624 13.9996C1.83538 14.0001 1.72454 13.9997 1.61368 13.9992C1.5818 13.9995 1.54992 13.9997 1.51708 14C1.11284 13.9964 0.74084 13.8405 0.443758 13.5745C0.0885298 13.2074 0.00192593 12.8024 0.00388079 12.315C0.0037633 12.2673 0.00360918 12.2196 0.00342174 12.1718C0.00301592 12.0412 0.00313438 11.9105 0.00334212 11.7798C0.00347534 11.6387 0.00312312 11.4976 0.00283521 11.3565C0.00235182 11.0803 0.00232808 10.804 0.00247553 10.5277C0.00258927 10.3032 0.00254859 10.0786 0.00239827 9.85401C0.00237721 9.82203 0.002356 9.79005 0.00233431 9.7571C0.00229123 9.69214 0.00224815 9.62717 0.00220469 9.5622C0.00181865 8.95312 0.00197144 8.34403 0.00229418 7.73495C0.00257357 7.17794 0.00220963 6.62093 0.00153661 6.06393C0.000850464 5.49174 0.000580141 4.91955 0.000767234 4.34736C0.000865459 4.02622 0.00080275 3.70508 0.000310116 3.38394C-0.000104057 3.11056 -0.000121686 2.83718 0.00036849 2.5638C0.000607891 2.42438 0.000668212 2.28497 0.000237578 2.14554C-0.000152141 2.01779 -1.7682e-05 1.89004 0.000525584 1.76228C0.000631292 1.71619 0.000549287 1.6701 0.000255176 1.62401C-0.00245144 1.16721 0.111329 0.774349 0.438484 0.430438C0.842045 0.0630036 1.27738 0.00195045 1.80795 0.00327775ZM1.01865 1.09046C0.881196 1.29294 0.85519 1.46917 0.855047 1.70925C0.854997 1.72792 0.854948 1.74659 0.854897 1.76582C0.854767 1.82818 0.854835 1.89053 0.854904 1.95288C0.854851 1.99812 0.854787 2.04336 0.854711 2.0886C0.854539 2.21276 0.854542 2.33693 0.854576 2.46109C0.854581 2.59506 0.854426 2.72902 0.854293 2.86299C0.854059 3.12539 0.853982 3.38779 0.853966 3.65019C0.853953 3.86346 0.853895 4.07674 0.853806 4.29001C0.853558 4.89467 0.853428 5.49933 0.853449 6.10399C0.85345 6.13658 0.853451 6.16917 0.853453 6.20275C0.853454 6.23539 0.853455 6.26802 0.853456 6.30164C0.853468 6.83066 0.853198 7.35967 0.852802 7.88868C0.852398 8.43185 0.852203 8.97502 0.852228 9.51819C0.852237 9.82315 0.85216 10.1281 0.851857 10.4331C0.851601 10.6927 0.85154 10.9523 0.851731 11.2119C0.851823 11.3443 0.851824 11.4768 0.85158 11.6092C0.851359 11.7305 0.851399 11.8518 0.851644 11.9731C0.851688 12.0169 0.851636 12.0608 0.85148 12.1046C0.850443 12.4151 0.849788 12.6947 1.05557 12.9486C1.29981 13.1734 1.56639 13.171 1.88288 13.1706C1.91504 13.1706 1.94719 13.1707 1.98032 13.1707C2.08796 13.1709 2.1956 13.1709 2.30324 13.1709C2.38046 13.1709 2.45768 13.171 2.53489 13.1711C2.7228 13.1714 2.91072 13.1714 3.09863 13.1715C3.25141 13.1715 3.40418 13.1715 3.55696 13.1716C3.99036 13.1719 4.42377 13.172 4.85717 13.172C4.88052 13.172 4.90387 13.172 4.92792 13.172C4.9513 13.172 4.97468 13.172 4.99876 13.172C5.37766 13.1719 5.75655 13.1722 6.13544 13.1726C6.52474 13.173 6.91404 13.1732 7.30333 13.1731C7.52179 13.1731 7.74025 13.1732 7.95871 13.1735C8.1447 13.1738 8.33068 13.1738 8.51666 13.1736C8.61149 13.1735 8.70632 13.1736 8.80115 13.1738C8.90409 13.174 9.00703 13.1739 9.10997 13.1736C9.13975 13.1738 9.16952 13.1739 9.2002 13.1741C9.48421 13.1728 9.7283 13.1402 9.94443 12.9486C10.1503 12.6944 10.1455 12.4544 10.1447 12.1437C10.1447 12.1093 10.1448 12.075 10.1448 12.0396C10.1449 11.9445 10.1447 11.8494 10.1446 11.7543C10.1445 11.6516 10.1445 11.549 10.1445 11.4463C10.1446 11.2686 10.1445 11.0908 10.1443 10.9131C10.1441 10.6561 10.144 10.3991 10.144 10.1421C10.1439 9.72511 10.1437 9.30812 10.1435 8.89114C10.1432 8.48613 10.143 8.08112 10.1429 7.6761C10.1429 7.65113 10.1429 7.62616 10.1429 7.60043C10.1428 7.47514 10.1428 7.34986 10.1428 7.22458C10.1425 6.18553 10.142 5.14648 10.1413 4.10744C10.107 4.10728 10.0727 4.10712 10.0373 4.10695C9.71327 4.10539 9.38922 4.1034 9.06517 4.101C8.89859 4.09978 8.73201 4.09871 8.56543 4.09798C8.40456 4.09727 8.2437 4.09617 8.08283 4.0948C8.02157 4.09434 7.9603 4.09403 7.89904 4.09386C7.81299 4.09359 7.72695 4.09283 7.64091 4.09195C7.61578 4.09199 7.59065 4.09202 7.56476 4.09206C7.27749 4.08793 7.05663 4.00263 6.85021 3.80727C6.67483 3.59824 6.61689 3.40975 6.6162 3.14391C6.61578 3.10635 6.61578 3.10635 6.61535 3.06803C6.61448 2.98564 6.614 2.90326 6.61353 2.82087C6.613 2.7636 6.61245 2.70632 6.61187 2.64905C6.61043 2.49859 6.60932 2.34813 6.60827 2.19767C6.60714 2.04402 6.60571 1.89037 6.6043 1.73672C6.60157 1.43546 6.5992 1.1342 6.59704 0.83293C5.94491 0.831654 5.29279 0.830692 4.64066 0.830102C4.33785 0.829821 4.03505 0.829438 3.73224 0.828813C3.46827 0.828268 3.20431 0.827917 2.94034 0.827795C2.80061 0.827724 2.66088 0.827557 2.52115 0.82716C2.38953 0.826788 2.25791 0.826675 2.12628 0.826757C2.07808 0.826742 2.02987 0.826634 1.98167 0.826424C1.45249 0.822269 1.45249 0.822269 1.01865 1.09046ZM7.44092 1.26953C7.43962 1.51314 7.43862 1.75674 7.43801 2.00035C7.43771 2.11347 7.43732 2.22658 7.43668 2.3397C7.43607 2.44887 7.43573 2.55803 7.43558 2.6672C7.43548 2.70884 7.43528 2.75049 7.43497 2.79214C7.43457 2.85047 7.43451 2.9088 7.43454 2.96714C7.43441 3.00035 7.43429 3.03355 7.43416 3.06777C7.44068 3.14932 7.44838 3.19542 7.49718 3.26152C7.59653 3.29365 7.67477 3.29208 7.77965 3.29191C7.79969 3.29191 7.81973 3.29191 7.84038 3.29192C7.90659 3.2919 7.97279 3.29169 8.039 3.29147C8.08492 3.29142 8.13084 3.29138 8.17675 3.29136C8.29759 3.29125 8.41842 3.29098 8.53926 3.29068C8.66257 3.2904 8.78588 3.29028 8.90919 3.29014C9.15113 3.28985 9.39307 3.28938 9.63501 3.28881C9.54699 3.18728 9.46002 3.08723 9.35921 2.99728C9.34059 2.98054 9.32197 2.96379 9.30278 2.94654C9.28362 2.92948 9.26446 2.91242 9.24471 2.89485C9.0022 2.67689 9.0022 2.67689 8.88958 2.56569C8.82287 2.49985 8.75437 2.43819 8.68213 2.37809C8.59234 2.30329 8.50863 2.22441 8.42545 2.14273C8.34399 2.06275 8.26223 1.98545 8.17404 1.91249C8.07976 1.83434 7.99211 1.75079 7.90506 1.6652C7.75928 1.52241 7.61374 1.38129 7.44092 1.26953Z" fill="white"/>
<path d="M2.41614 7.64424C2.44279 7.64409 2.46944 7.64394 2.4969 7.64379C2.58626 7.6434 2.67561 7.6436 2.76497 7.64379C2.82901 7.64364 2.89305 7.64345 2.95709 7.64322C3.1311 7.64273 3.3051 7.64277 3.4791 7.64292C3.6243 7.64301 3.7695 7.64284 3.91469 7.64268C4.27677 7.64227 4.63885 7.64237 5.00093 7.6427C5.31531 7.64297 5.62969 7.64262 5.94407 7.64196C6.26696 7.6413 6.58985 7.64105 6.91274 7.64122C7.09399 7.64131 7.27523 7.64124 7.45648 7.64077C7.62689 7.64035 7.7973 7.64046 7.96772 7.64097C8.03029 7.64107 8.09286 7.64099 8.15543 7.6407C8.2408 7.64035 8.32614 7.64066 8.41151 7.64114C8.44872 7.64075 8.44872 7.64075 8.48668 7.64035C8.6392 7.64212 8.72641 7.66544 8.84739 7.76397C8.96149 7.90648 8.95355 8.05467 8.93178 8.22786C8.87067 8.353 8.80694 8.41537 8.67861 8.47344C8.59074 8.48534 8.50369 8.48461 8.41508 8.48402C8.38843 8.48417 8.36178 8.48432 8.33432 8.48447C8.24496 8.48486 8.15562 8.48466 8.06626 8.48447C8.00221 8.48462 7.93817 8.48481 7.87413 8.48504C7.70013 8.48553 7.52613 8.48549 7.35212 8.48534C7.20692 8.48525 7.06173 8.48542 6.91653 8.48559C6.55445 8.48599 6.19238 8.48589 5.8303 8.48556C5.51592 8.48529 5.20154 8.48564 4.88716 8.4863C4.56427 8.48696 4.24137 8.48721 3.91848 8.48704C3.73724 8.48695 3.55599 8.48702 3.37475 8.48749C3.20433 8.48791 3.03392 8.4878 2.86351 8.48729C2.80093 8.48719 2.73836 8.48727 2.67579 8.48756C2.59042 8.48792 2.50508 8.4876 2.41971 8.48712C2.39491 8.48738 2.37011 8.48765 2.34455 8.48792C2.19203 8.48614 2.10482 8.46282 1.98384 8.36429C1.86974 8.22178 1.87768 8.07359 1.89945 7.9004C2.0128 7.66827 2.17418 7.64264 2.41614 7.64424Z" fill="white"/>
<path d="M2.41614 5.46123C2.44279 5.46109 2.46944 5.46094 2.4969 5.46079C2.58626 5.4604 2.67561 5.46059 2.76497 5.46079C2.82901 5.46063 2.89305 5.46044 2.95709 5.46022C3.1311 5.45973 3.3051 5.45976 3.4791 5.45992C3.6243 5.46 3.7695 5.45984 3.91469 5.45967C4.27677 5.45927 4.63885 5.45937 5.00093 5.4597C5.31531 5.45997 5.62969 5.45961 5.94407 5.45896C6.26696 5.45829 6.58985 5.45804 6.91274 5.45821C7.09399 5.45831 7.27523 5.45824 7.45648 5.45777C7.62689 5.45735 7.7973 5.45746 7.96772 5.45797C8.03029 5.45807 8.09286 5.45799 8.15543 5.4577C8.2408 5.45734 8.32614 5.45765 8.41151 5.45814C8.44872 5.45774 8.44872 5.45774 8.48668 5.45734C8.6392 5.45912 8.72641 5.48243 8.84739 5.58096C8.96149 5.72348 8.95355 5.87167 8.93178 6.04485C8.87067 6.16999 8.80694 6.23237 8.67861 6.29044C8.59074 6.30234 8.50369 6.3016 8.41508 6.30102C8.38843 6.30117 8.36178 6.30131 8.33432 6.30146C8.24496 6.30185 8.15562 6.30166 8.06626 6.30147C8.00221 6.30162 7.93817 6.30181 7.87413 6.30203C7.70013 6.30252 7.52613 6.30249 7.35212 6.30233C7.20692 6.30225 7.06173 6.30242 6.91653 6.30258C6.55445 6.30299 6.19238 6.30289 5.8303 6.30256C5.51592 6.30229 5.20154 6.30264 4.88716 6.30329C4.56427 6.30396 4.24137 6.30421 3.91848 6.30404C3.73724 6.30395 3.55599 6.30401 3.37475 6.30448C3.20433 6.3049 3.03392 6.3048 2.86351 6.30428C2.80093 6.30418 2.73836 6.30427 2.67579 6.30455C2.59042 6.30491 2.50508 6.3046 2.41971 6.30412C2.39491 6.30438 2.37011 6.30464 2.34455 6.30491C2.19203 6.30313 2.10482 6.27982 1.98384 6.18129C1.86974 6.03878 1.87768 5.89058 1.89945 5.7174C2.0128 5.48526 2.17418 5.45964 2.41614 5.46123Z" fill="white"/>
<path d="M2.3828 9.8268C2.4056 9.82661 2.4284 9.82642 2.45188 9.82623C2.52702 9.82573 2.60215 9.82583 2.67729 9.82599C2.72966 9.82586 2.78203 9.82572 2.8344 9.82556C2.9441 9.82531 3.05378 9.82538 3.16348 9.82565C3.30388 9.82596 3.44426 9.82541 3.58466 9.82461C3.6928 9.82411 3.80093 9.82412 3.90907 9.82428C3.96082 9.82428 4.01258 9.82412 4.06434 9.82378C4.13678 9.82337 4.2092 9.82366 4.28164 9.82413C4.30291 9.82387 4.32418 9.8236 4.34609 9.82333C4.49106 9.82528 4.57231 9.85887 4.68425 9.94697C4.79497 10.0657 4.81474 10.163 4.80754 10.3181C4.78557 10.4516 4.71537 10.5228 4.61027 10.6055C4.49766 10.666 4.40742 10.6719 4.28209 10.6706C4.25929 10.6708 4.23649 10.671 4.213 10.6712C4.13801 10.6716 4.06304 10.6713 3.98805 10.6709C3.93572 10.671 3.88339 10.6711 3.83106 10.6713C3.72153 10.6714 3.61202 10.6712 3.50249 10.6707C3.36231 10.6701 3.22215 10.6704 3.08197 10.6711C2.97395 10.6715 2.86594 10.6713 2.75793 10.6711C2.70625 10.671 2.65457 10.6711 2.60289 10.6713C2.53058 10.6716 2.45831 10.6712 2.386 10.6706C2.36478 10.6708 2.34355 10.671 2.32169 10.6712C2.17718 10.669 2.09531 10.6354 1.98384 10.5473C1.86974 10.4048 1.87768 10.2566 1.89945 10.0834C2.00384 9.86962 2.15123 9.82546 2.3828 9.8268Z" fill="white"/>
</svg>
