<svg width="25" height="32" viewBox="0 0 25 32" fill="none" xmlns="http://www.w3.org/2000/svg">
<path d="M4.99068 0.00901383C5.09185 0.00868881 5.19301 0.00830188 5.29418 0.00785836C5.56699 0.00686595 5.83979 0.00681549 6.11261 0.00700511C6.3414 0.0070854 6.57019 0.00671937 6.79898 0.0063631C7.33941 0.00553754 7.87985 0.00550141 8.42028 0.00595382C8.97531 0.00640388 9.53031 0.00548682 10.0853 0.00389693C10.564 0.00257676 11.0427 0.00213587 11.5214 0.00237778C11.8064 0.00251215 12.0913 0.00232528 12.3762 0.00127999C12.6446 0.000332278 12.9129 0.000495236 13.1812 0.00145985C13.3249 0.00171658 13.4685 0.000883838 13.6121 0C14.4381 0.00490795 15.266 0.117384 16.0057 0.514444C16.0543 0.54011 16.103 0.565776 16.1532 0.59222C16.6113 0.846446 16.9775 1.17336 17.3415 1.55306C17.4653 1.68191 17.5912 1.80829 17.7175 1.93458C18.0577 2.2769 18.3957 2.61734 18.7058 2.98878C18.9974 3.33103 19.3083 3.65044 19.6236 3.96964C19.713 4.06064 19.713 4.06064 19.8041 4.15347C19.9929 4.34573 20.1819 4.53774 20.3709 4.72969C20.6202 4.98281 20.8693 5.2362 21.1182 5.48974C21.1746 5.54679 21.2309 5.60385 21.289 5.66264C21.5891 5.96838 21.8746 6.28123 22.1508 6.6096C22.3116 6.79659 22.4843 6.96877 22.66 7.14098C22.7316 7.21179 22.803 7.28268 22.8744 7.35363C22.9107 7.38964 22.9469 7.42565 22.9843 7.46276C23.8609 8.33777 24.5844 9.14647 24.8911 10.3997C24.9039 10.451 24.9167 10.5023 24.9298 10.5551C24.9776 10.8597 24.9748 11.1591 24.9747 11.4672C24.975 11.5374 24.9752 11.6076 24.9755 11.68C24.9763 11.9154 24.9766 12.1508 24.9769 12.3862C24.9773 12.555 24.9778 12.7238 24.9783 12.8925C24.9799 13.4471 24.9806 14.0016 24.9814 14.5561C24.9816 14.7472 24.9819 14.9384 24.9823 15.1295C24.9835 15.9249 24.9845 16.7203 24.9851 17.5157C24.9852 17.722 24.9854 17.9282 24.9855 18.1345C24.9855 18.1857 24.9856 18.237 24.9856 18.2898C24.9862 19.1188 24.9881 19.9478 24.9904 20.7769C24.9928 21.6295 24.9941 22.4821 24.9944 23.3347C24.9946 23.8128 24.9952 24.2909 24.997 24.769C24.9987 25.2193 24.999 25.6696 24.9983 26.12C24.9983 26.2846 24.9987 26.4491 24.9997 26.6137C25.0089 28.2037 24.7927 29.4709 23.6793 30.6739C22.4365 31.8768 20.9931 31.9948 19.3719 31.991C19.2056 31.9915 19.0393 31.992 18.873 31.9926C18.4235 31.9939 17.974 31.9938 17.5245 31.9934C17.1482 31.9932 16.7719 31.9936 16.3956 31.9941C15.4567 31.9952 14.5177 31.9949 13.5788 31.994C12.7659 31.9933 11.953 31.9942 11.1402 31.996C10.3028 31.9979 9.46538 31.9985 8.62798 31.9981C8.15895 31.9978 7.68992 31.998 7.22088 31.9993C6.77954 32.0004 6.33823 32.0001 5.89689 31.9987C5.73572 31.9985 5.57456 31.9987 5.4134 31.9995C3.74744 32.007 2.43686 31.7416 1.18498 30.5416C0.279875 29.5815 -0.00458925 28.3607 0.00238628 27.0621C0.00213367 26.9622 0.00178581 26.8624 0.00135225 26.7625C0.00044634 26.4907 0.000887336 26.2188 0.00156807 25.947C0.00206565 25.6528 0.00129773 25.3587 0.000697572 25.0645C-0.000272286 24.4893 -6.61404e-05 23.914 0.000569084 23.3387C0.0010641 22.871 0.00112931 22.4032 0.000891696 21.9355C0.000858181 21.8688 0.000824993 21.802 0.000790462 21.7333C0.00072053 21.5978 0.000649306 21.4622 0.000577427 21.3267C-4.54664e-05 20.0574 0.00066972 18.788 0.00184618 17.5187C0.00282329 16.4307 0.00265368 15.3428 0.00164538 14.2549C0.000473519 12.99 1.50456e-05 11.725 0.000685891 10.46C0.00075556 10.325 0.000823858 10.19 0.000891696 10.0549C0.000925439 9.98851 0.000959276 9.92208 0.000994042 9.85365C0.00118247 9.38674 0.00086494 8.91984 0.000349374 8.45293C-0.000265594 7.88352 -9.42918e-05 7.31412 0.00106746 6.74471C0.0016402 6.45448 0.00187095 6.16427 0.00114422 5.87404C0.000487801 5.60785 0.000858275 5.34169 0.00201416 5.07551C0.00237043 4.9347 0.00166415 4.79388 0.000907826 4.65307C0.00968227 3.33878 0.446638 2.19914 1.35585 1.26983C2.39859 0.275295 3.6033 0.00626427 4.99068 0.00901383ZM2.9464 3.23757C2.55514 3.86757 2.44533 4.39734 2.45341 5.13516C2.45273 5.23217 2.45205 5.32919 2.45135 5.42914C2.44953 5.69591 2.45042 5.96261 2.45178 6.22938C2.45277 6.51805 2.45124 6.80671 2.45004 7.09537C2.4481 7.65988 2.44851 8.22435 2.44978 8.78886C2.45077 9.24786 2.4509 9.70686 2.45042 10.1659C2.45032 10.2641 2.45032 10.2641 2.45022 10.3642C2.45008 10.4973 2.44994 10.6303 2.4498 10.7633C2.44855 12.0089 2.44998 13.2546 2.45233 14.5003C2.45429 15.5678 2.45395 16.6353 2.45193 17.7029C2.44959 18.9443 2.44867 20.1856 2.45001 21.427C2.45015 21.5595 2.45029 21.692 2.45042 21.8245C2.45049 21.8897 2.45056 21.9549 2.45063 22.0221C2.45101 22.4802 2.45037 22.9384 2.44934 23.3965C2.44811 23.9553 2.44845 24.5141 2.45078 25.0728C2.45192 25.3576 2.45238 25.6424 2.45093 25.9272C2.44937 26.2366 2.45124 26.5459 2.45341 26.8552C2.45244 26.9443 2.45146 27.0334 2.45046 27.1252C2.45955 27.794 2.62057 28.417 3.09398 28.905C3.61119 29.3406 4.16372 29.4578 4.81471 29.4532C4.88317 29.4536 4.95163 29.454 5.02216 29.4544C5.25039 29.4555 5.47859 29.455 5.70682 29.4544C5.87092 29.4549 6.03503 29.4554 6.19914 29.456C6.64411 29.4573 7.08907 29.4572 7.53404 29.4568C7.90581 29.4566 8.27758 29.457 8.64936 29.4575C9.57672 29.4586 10.5041 29.4583 11.4314 29.4574C12.2357 29.4567 13.0399 29.4576 13.8441 29.4594C14.6711 29.4612 15.4981 29.4619 16.3251 29.4615C16.7889 29.4612 17.2527 29.4614 17.7166 29.4627C18.1528 29.4638 18.589 29.4635 19.0253 29.4621C19.1851 29.4619 19.3449 29.4621 19.5047 29.4629C19.7235 29.4639 19.9422 29.463 20.1609 29.4617C20.2236 29.4624 20.2864 29.4631 20.351 29.4639C20.8938 29.4572 21.3454 29.2861 21.8108 29.0046C22.3105 28.4648 22.4961 27.9281 22.4959 27.1984C22.4963 27.0961 22.4963 27.0961 22.4967 26.9917C22.4975 26.7621 22.4978 26.5326 22.4981 26.3031C22.4985 26.1389 22.499 25.9746 22.4995 25.8104C22.5008 25.3636 22.5016 24.9167 22.5022 24.4698C22.5026 24.1906 22.503 23.9114 22.5035 23.6322C22.5047 22.8587 22.5057 22.0853 22.5063 21.3118C22.5064 21.1111 22.5066 20.9104 22.5067 20.7098C22.5067 20.6599 22.5068 20.61 22.5068 20.5586C22.5074 19.7513 22.5093 18.9439 22.5116 18.1366C22.514 17.3072 22.5153 16.4778 22.5156 15.6484C22.5158 15.1829 22.5164 14.7175 22.5182 14.252C22.5199 13.8139 22.5202 13.3757 22.5195 12.9376C22.5195 12.777 22.5199 12.6165 22.5209 12.456C22.5222 12.2362 22.5217 12.0165 22.5207 11.7967C22.5215 11.7337 22.5223 11.6707 22.5232 11.6058C22.5155 10.8744 22.2471 10.3122 21.7467 9.80261C21.7026 9.75593 21.6584 9.70926 21.6129 9.66118C21.4674 9.50822 21.3203 9.35704 21.1729 9.20605C21.0682 9.09785 20.9635 8.98964 20.8588 8.88143C20.5291 8.54195 20.1973 8.20471 19.8651 7.8678C19.641 7.64042 19.4171 7.41278 19.1933 7.18498C19.1433 7.13446 19.0933 7.08393 19.0419 7.03187C18.8106 6.79639 18.5868 6.5582 18.3736 6.30536C17.8797 5.71979 17.3362 5.17959 16.8041 4.6306C16.6635 4.48534 16.5235 4.33946 16.384 4.19302C16.1812 3.98011 15.9766 3.76908 15.7719 3.55814C15.7102 3.49301 15.6486 3.42788 15.5851 3.36078C15.5255 3.3 15.4659 3.23921 15.4045 3.17658C15.3277 3.09678 15.3277 3.09678 15.2493 3.01536C14.6454 2.56104 14.0419 2.52268 13.3116 2.5275C13.2121 2.52709 13.1126 2.52656 13.0131 2.52591C12.745 2.52456 12.4769 2.52507 12.2087 2.52602C11.9269 2.52679 11.6451 2.52608 11.3633 2.52561C10.8901 2.52507 10.417 2.52578 9.94394 2.5272C9.39851 2.52883 8.85312 2.5283 8.3077 2.52666C7.83773 2.5253 7.36778 2.52512 6.89781 2.5259C6.61785 2.52636 6.33791 2.52643 6.05795 2.52544C5.79463 2.52457 5.53135 2.52518 5.26804 2.5269C5.12644 2.52747 4.98484 2.5266 4.84324 2.52567C4.15793 2.53238 3.40289 2.65353 2.9464 3.23757Z" fill="#55417C" fill-opacity="0.5"/>
<path d="M7.73713 19.6404C7.82391 19.64 7.91069 19.6396 8.0001 19.6391C8.14309 19.639 8.14309 19.639 8.28898 19.6389C8.3903 19.6385 8.49161 19.6382 8.59293 19.6378C8.86829 19.6368 9.14366 19.6363 9.41902 19.636C9.59109 19.6357 9.76315 19.6354 9.93522 19.6351C10.4737 19.6341 11.0121 19.6334 11.5505 19.6331C12.1719 19.6327 12.7933 19.6314 13.4147 19.6293C13.8951 19.6277 14.3755 19.6269 14.8559 19.6268C15.1428 19.6267 15.4297 19.6263 15.7166 19.625C15.9865 19.6237 16.2564 19.6236 16.5264 19.6242C16.6724 19.6243 16.8184 19.6233 16.9644 19.6222C17.0955 19.6228 17.0955 19.6228 17.2292 19.6235C17.3049 19.6234 17.3805 19.6233 17.4585 19.6231C17.8066 19.6681 18.0988 19.8133 18.3159 20.0985C18.5753 20.4625 18.5877 20.7815 18.5483 21.2176C18.4179 21.6031 18.218 21.8074 17.8921 22.0383C17.4154 22.2277 16.9436 22.209 16.4374 22.208C16.3431 22.2084 16.2488 22.2088 16.1517 22.2091C15.8941 22.2101 15.6365 22.2102 15.3789 22.21C15.1633 22.2099 14.9477 22.2103 14.7321 22.2106C14.2232 22.2115 13.7143 22.2115 13.2054 22.2111C12.6816 22.2106 12.1579 22.2115 11.6341 22.2131C11.1833 22.2144 10.7325 22.2149 10.2816 22.2146C10.0129 22.2145 9.74415 22.2147 9.4754 22.2157C9.17545 22.2168 8.87552 22.2161 8.57557 22.2153C8.48738 22.2158 8.39918 22.2164 8.30832 22.217C7.77057 22.2136 7.23523 22.1913 6.79902 21.8355C6.76669 21.7916 6.73436 21.7477 6.70105 21.7026C6.66722 21.6587 6.63338 21.6149 6.59853 21.5697C6.40043 21.2511 6.41295 20.91 6.44588 20.5462C6.57896 20.1528 6.78177 19.9645 7.10203 19.7255C7.33241 19.6469 7.49518 19.6411 7.73713 19.6404Z" fill="#55417C" fill-opacity="0.5"/>
<path d="M7.97343 13.0735C8.04906 13.073 8.04907 13.073 8.12623 13.0724C8.29261 13.0713 8.45898 13.0708 8.62537 13.0704C8.74142 13.07 8.85747 13.0696 8.97352 13.0691C9.21676 13.0683 9.46 13.0679 9.70324 13.0676C10.0141 13.0672 10.3249 13.0654 10.6357 13.0633C10.8755 13.0619 11.1152 13.0615 11.355 13.0614C11.4695 13.0612 11.5841 13.0606 11.6986 13.0596C11.8593 13.0583 12.0199 13.0585 12.1806 13.059C12.2719 13.0587 12.3631 13.0584 12.4571 13.0581C12.9379 13.1091 13.2774 13.2978 13.5907 13.6824C13.7607 13.989 13.7862 14.3069 13.7365 14.6523C13.6006 15.0877 13.408 15.3295 13.0074 15.5476C12.75 15.6354 12.5429 15.6338 12.2712 15.6366C12.2188 15.6372 12.1663 15.6378 12.1123 15.6384C11.9388 15.6403 11.7653 15.6415 11.5917 15.6426C11.5323 15.643 11.4729 15.6434 11.4117 15.6438C11.0972 15.6458 10.7826 15.6472 10.4681 15.6483C10.2083 15.6493 9.94862 15.6514 9.68889 15.6544C9.37475 15.6581 9.06065 15.6599 8.74649 15.6605C8.62711 15.661 8.50774 15.6621 8.38837 15.6639C7.26261 15.6798 7.26261 15.6798 6.8391 15.3526C6.54646 15.0546 6.42959 14.7815 6.40487 14.3585C6.4215 13.9597 6.55442 13.6817 6.81041 13.384C7.1831 13.0956 7.51528 13.0761 7.97343 13.0735Z" fill="#55417C" fill-opacity="0.5"/>
</svg>
