<svg width="536" height="357" viewBox="0 0 536 357" fill="none" xmlns="http://www.w3.org/2000/svg">
<path d="M309.512 158.284C309.512 158.284 309.512 158.22 309.512 158.113V157.642C309.512 157.214 309.512 156.607 309.512 155.837C309.512 154.253 309.512 151.97 309.454 149.102L309.561 149.209L274.853 149.273C274.931 149.195 274.674 149.451 275.031 149.102V153.754C275.031 155.28 275.031 156.793 275.031 158.27L274.86 158.091L299.595 158.17L306.893 158.22H308.869H309.383C309.445 158.214 309.507 158.214 309.569 158.22H309.412H308.912H306.979L299.645 158.384L274.788 158.462H274.617V158.291C274.617 156.814 274.617 155.302 274.617 153.775V149.109L274.796 148.931L309.504 148.995H309.633V149.109C309.633 152.006 309.59 154.31 309.576 155.908C309.576 156.671 309.576 157.264 309.576 157.692C309.576 157.877 309.576 158.027 309.576 158.141C309.561 158.191 309.539 158.239 309.512 158.284Z" fill="#E0E0E0"/>
<path d="M376.275 62.24C376.268 62.1855 376.268 62.1304 376.275 62.0759C376.275 61.9546 376.275 61.7977 376.275 61.605C376.275 61.1698 376.275 60.5705 376.275 59.7929C376.275 58.2091 376.239 55.9332 376.218 53.058L376.325 53.165L341.616 53.2364C341.694 53.1579 341.438 53.4147 341.787 53.058V62.24L341.609 62.0688L366.344 62.1472L373.649 62.1972H375.626H376.139H376.325C376.27 62.2039 376.215 62.2039 376.161 62.1972H375.668H373.728L366.465 62.2471L341.609 62.3256H341.438V53.0723C341.787 52.7227 341.53 52.9724 341.616 52.8939L376.325 52.9653H376.432V53.0723C376.432 55.976 376.382 58.2733 376.368 59.8714C376.368 60.6347 376.368 61.234 376.368 61.655C376.368 61.8405 376.368 61.9903 376.368 62.1116C376.341 62.1571 376.309 62.2001 376.275 62.24Z" fill="#E0E0E0"/>
<path d="M504.994 199.763C504.988 199.708 504.988 199.653 504.994 199.599V199.128C504.994 198.7 504.994 198.093 504.994 197.323C504.994 195.739 504.994 193.456 504.937 190.581L505.044 190.688L470.335 190.759L470.514 190.581V199.763L470.342 199.592L495.077 199.67L502.376 199.72H504.352H504.866H505.051C505.051 199.72 505.001 199.72 504.887 199.72H504.395H502.462L495.199 199.77L470.342 199.848H470.164V190.617L470.342 190.445L505.051 190.51H505.115V190.617C505.115 193.52 505.073 195.818 505.058 197.423C505.058 198.186 505.058 198.778 505.058 199.206V199.656C505.04 199.693 505.018 199.729 504.994 199.763Z" fill="#E0E0E0"/>
<path d="M509.703 190.61C509.693 190.553 509.693 190.495 509.703 190.439C509.703 190.303 509.703 190.146 509.703 189.954C509.703 189.497 509.703 188.883 509.703 188.113C509.703 186.501 509.667 184.225 509.639 181.428L509.767 181.556L488.913 181.606C488.749 181.763 489.127 181.392 489.085 181.428V186.151C489.085 187.692 489.085 189.176 489.085 190.603L488.913 190.439L503.839 190.517L508.183 190.567H509.353H509.774C509.649 190.577 509.522 190.577 509.396 190.567H508.255L503.974 190.617L488.942 190.696H488.707V190.524C488.707 189.097 488.707 187.613 488.707 186.072V181.349C488.664 181.392 489.042 181.014 488.885 181.178L509.739 181.221H509.867V181.342C509.867 184.196 509.817 186.472 509.803 188.099C509.803 188.862 509.803 189.468 509.803 189.918C509.783 190.15 509.75 190.381 509.703 190.61Z" fill="#E0E0E0"/>
<path d="M181.606 302.941V302.106C181.606 301.556 181.606 300.75 181.606 299.694C181.606 297.554 181.649 294.451 181.678 290.42C181.706 286.389 181.756 281.502 181.806 275.801C181.835 272.948 181.863 269.911 181.892 266.691C181.892 263.466 182.184 260.034 181.521 256.51C180.857 252.819 179.361 249.328 177.147 246.301C176.855 245.908 176.577 245.509 176.27 245.123C175.963 244.738 175.614 244.41 175.285 244.018C174.615 243.274 173.9 242.571 173.145 241.913C172.781 241.563 172.353 241.285 171.954 240.964C171.554 240.643 171.162 240.315 170.712 240.058C169.848 239.482 168.947 238.962 168.015 238.503C166.109 237.544 164.091 236.825 162.008 236.362L160.396 236.098L159.59 235.963L158.769 235.913L157.114 235.806C156.558 235.806 156.001 235.842 155.445 235.863C150.832 236.072 146.368 237.554 142.546 240.144C138.523 242.867 135.37 246.691 133.464 251.159C132.506 253.464 131.877 255.892 131.594 258.372C131.38 260.869 131.437 263.445 131.387 266.02C131.273 276.343 131.152 287.031 131.031 297.982C131.031 299.442 131.014 300.898 130.981 302.348L130.802 302.163L138.443 302.249L138.265 302.427C138.355 294.151 138.448 286.065 138.543 278.17C138.586 274.241 138.631 270.367 138.679 266.548C138.679 264.645 138.7 262.755 138.743 260.876C138.784 259 139.096 257.14 139.67 255.354C140.841 251.878 143.047 248.844 145.992 246.657C146.34 246.382 146.705 246.127 147.083 245.894L148.225 245.18C148.999 244.77 149.803 244.417 150.629 244.125C151.445 243.827 152.282 243.589 153.133 243.411C153.554 243.318 153.982 243.283 154.403 243.211L155.038 243.126H155.68C157.356 243.033 159.037 243.175 160.674 243.547C162.27 243.93 163.809 244.517 165.254 245.295C169.367 247.577 172.435 251.364 173.816 255.861C174.219 257.255 174.458 258.692 174.529 260.141C174.529 260.498 174.529 260.855 174.565 261.204C174.6 261.554 174.565 261.918 174.565 262.253C174.565 262.966 174.565 263.637 174.565 264.322C174.565 265.685 174.565 267.026 174.515 268.339C174.444 273.59 174.386 278.412 174.329 282.764C174.208 291.461 174.115 298.268 174.051 302.791L174.001 302.741L179.766 302.834H181.193H181.656H179.787L173.994 302.798H173.944V302.748C173.944 298.225 174.044 291.418 174.122 282.722C174.165 278.37 174.215 273.54 174.265 268.289C174.265 266.976 174.265 265.635 174.308 264.272C174.308 263.559 174.308 262.902 174.308 262.203C174.308 261.861 174.308 261.49 174.308 261.161L174.265 260.113C174.159 257.189 173.291 254.343 171.747 251.858C170.137 249.197 167.856 247.005 165.133 245.501C163.712 244.74 162.199 244.165 160.631 243.789C159.015 243.427 157.355 243.292 155.701 243.39H155.074L154.453 243.482C154.032 243.547 153.611 243.582 153.197 243.675C151.521 244.033 149.901 244.616 148.382 245.409L147.261 246.079C146.891 246.296 146.534 246.534 146.191 246.793C143.297 248.945 141.133 251.933 139.991 255.354C139.43 257.108 139.127 258.935 139.093 260.776C139.093 262.65 139.071 264.541 139.028 266.448C138.986 270.253 138.943 274.127 138.9 278.07C138.814 285.918 138.722 294.03 138.629 302.327V302.505H138.45L130.802 302.42H130.624V302.241C130.624 300.815 130.641 299.359 130.674 297.875C130.802 286.931 130.924 276.244 131.045 265.913C131.095 263.33 131.045 260.783 131.252 258.229C131.543 255.717 132.184 253.258 133.157 250.924C134.151 248.692 135.437 246.603 136.981 244.71C138.544 242.865 140.346 241.236 142.339 239.865C146.211 237.239 150.735 235.738 155.409 235.528C155.973 235.528 156.536 235.463 157.1 235.478L159.019 235.592L160.075 235.713L161.673 235.977L162.386 236.134C164.367 236.598 166.284 237.302 168.094 238.232C169.039 238.695 169.952 239.222 170.826 239.808C171.276 240.072 171.661 240.429 172.075 240.729C172.489 241.028 172.91 241.335 173.288 241.685C174.043 242.355 174.758 243.07 175.428 243.825L176.427 244.945C176.734 245.337 177.012 245.744 177.304 246.144C179.538 249.205 181.044 252.736 181.706 256.467C182.37 260.034 182.035 263.487 182.056 266.712C182.077 269.937 181.97 273.005 181.935 275.858C181.856 281.566 181.785 286.474 181.728 290.491C181.671 294.508 181.628 297.625 181.592 299.723C181.592 300.765 181.592 301.571 181.549 302.113C181.507 302.655 181.606 302.941 181.606 302.941Z" fill="#E0E0E0"/>
<path d="M122.096 275.188L191.295 275.974C192.003 275.982 192.678 276.27 193.173 276.776C193.667 277.282 193.941 277.964 193.933 278.672L193.326 332.155C193.319 332.798 193.056 333.412 192.596 333.862C192.136 334.312 191.516 334.56 190.873 334.553L121.46 333.766L122.124 275.189L122.096 275.188Z" fill="#E0E0E0"/>
<path d="M184.909 328.96C184.809 328.96 184.909 318.765 185.087 306.194C185.265 293.623 185.522 283.421 185.622 283.421C185.722 283.421 185.622 293.616 185.444 306.194C185.265 318.772 185.009 328.967 184.909 328.96Z" fill="#FAFAFA"/>
<path d="M170.041 277.529C170.041 277.628 161.073 277.728 150.007 277.75C138.942 277.771 129.967 277.707 129.967 277.607C129.967 277.507 138.935 277.414 150.007 277.393C161.08 277.372 170.041 277.414 170.041 277.529Z" fill="white"/>
<path d="M181.606 302.941L173.758 306.315L174.286 259.763C174.529 254.191 171.967 251.816 170.576 250.232C157.941 235.863 139.099 246.287 138.935 260.848L138.464 302.449L130.823 302.363L131.579 258.843C131.637 253.942 135.446 245.438 139.292 242.391C160.552 225.547 182.305 242.948 182.098 261.354L181.606 302.941Z" fill="#F5F5F5"/>
<path d="M122.095 275.039L182.951 275.647C183.719 275.655 184.453 275.968 184.991 276.516C185.529 277.065 185.827 277.805 185.819 278.573L185.298 330.654C185.289 331.6 184.904 332.504 184.228 333.166C183.552 333.828 182.641 334.195 181.695 334.185L121.609 333.585C120.815 333.577 120.056 333.253 119.499 332.686C118.943 332.118 118.635 331.353 118.643 330.558L119.169 277.906C119.177 277.138 119.49 276.404 120.038 275.867C120.587 275.329 121.327 275.031 122.095 275.039Z" fill="#EBEBEB"/>
<path d="M161.13 299.752C161.143 298.657 160.936 297.571 160.52 296.558C160.105 295.546 159.491 294.627 158.714 293.856C157.936 293.085 157.012 292.479 155.996 292.072C154.979 291.666 153.892 291.468 152.797 291.49C150.692 291.553 148.691 292.417 147.202 293.906C145.713 295.395 144.848 297.397 144.786 299.502C144.753 301.287 145.307 303.033 146.365 304.472C147.422 305.911 148.922 306.962 150.636 307.464L145.178 318.679L159.268 319.1L155.102 307.492C156.811 307.032 158.324 306.028 159.412 304.631C160.5 303.235 161.103 301.522 161.13 299.752Z" fill="#E0E0E0"/>
<path d="M144.475 303.969C144.335 303.818 144.222 303.644 144.139 303.455C143.883 302.959 143.678 302.438 143.526 301.9C143.015 300.108 143.063 298.204 143.662 296.44C144.261 294.676 145.383 293.136 146.879 292.026C147.324 291.69 147.802 291.401 148.306 291.163C148.483 291.064 148.676 290.997 148.877 290.963C148.877 291.02 148.099 291.355 147.029 292.226C145.623 293.348 144.569 294.85 143.991 296.553C143.413 298.256 143.336 300.09 143.768 301.836C144.118 303.213 144.532 303.926 144.475 303.969Z" fill="white"/>
<path d="M147.681 307.878C147.631 307.964 147.153 307.757 146.611 307.421C146.068 307.086 145.676 306.744 145.726 306.658C145.776 306.572 146.261 306.779 146.803 307.115C147.345 307.45 147.681 307.792 147.681 307.878Z" fill="white"/>
<path d="M154.476 237.697C154.021 237.784 153.562 237.843 153.099 237.875C151.853 238.042 150.622 238.307 149.418 238.667C145.416 239.828 141.828 242.105 139.072 245.23C136.317 248.356 134.508 252.202 133.858 256.317C133.643 257.557 133.536 258.812 133.537 260.07C133.537 260.955 133.537 261.454 133.537 261.454C133.499 261.339 133.479 261.219 133.48 261.097C133.48 260.862 133.408 260.52 133.401 260.07C133.351 258.801 133.423 257.53 133.615 256.275C134.211 252.09 136.018 248.171 138.815 245.001C141.612 241.831 145.276 239.55 149.354 238.439C150.574 238.08 151.826 237.841 153.092 237.725C153.535 237.675 153.884 237.682 154.12 237.675C154.239 237.671 154.358 237.678 154.476 237.697Z" fill="white"/>
<path d="M133.156 267.768C132.993 267.067 132.95 266.343 133.028 265.628C132.979 264.907 133.054 264.183 133.249 263.487C133.464 264.909 133.432 266.357 133.156 267.768Z" fill="white"/>
<path d="M177.126 69.0391H142.417V78.221H177.126V69.0391Z" fill="#F5F5F5"/>
<path d="M162.45 87.8961C162.45 87.8961 162.45 87.8391 162.45 87.7321V87.2612C162.45 86.826 162.45 86.2196 162.45 85.449C162.45 83.8652 162.45 81.5893 162.393 78.7142L162.5 78.8212L127.791 78.8925C127.87 78.8141 127.613 79.0638 127.969 78.7142V83.3658C127.969 84.8973 127.969 86.4027 127.969 87.8819L127.798 87.7106L152.533 87.7891L159.832 87.8391H161.808H162.322C162.383 87.833 162.445 87.833 162.507 87.8391H162.35H161.851H159.917L152.654 87.889L127.798 87.9675H127.627V87.7963C127.627 86.3171 127.627 84.8117 127.627 83.2802V78.6286L127.805 78.4502L162.514 78.5215H162.621V78.6286C162.621 81.5251 162.578 83.8295 162.564 85.4276C162.564 86.191 162.564 86.7832 162.564 87.2112C162.564 87.3967 162.564 87.5466 162.564 87.6607C162.564 87.7749 162.457 87.8961 162.45 87.8961Z" fill="#E0E0E0"/>
<path d="M499.879 45.0684H465.17V54.2503H499.879V45.0684Z" fill="#F5F5F5"/>
<path d="M485.203 63.9242C485.198 63.8696 485.198 63.8147 485.203 63.7601V63.2892C485.203 62.854 485.203 62.2547 485.203 61.4771C485.203 59.8933 485.203 57.6174 485.146 54.7422L485.253 54.8492L450.544 54.9206C450.623 54.8421 450.366 55.0918 450.723 54.7422V55.9051C450.723 56.2975 450.723 56.6899 450.723 57.0752V63.9242L450.551 63.753L475.286 63.8314L482.585 63.8814H484.561H485.075H485.26H485.096H484.604H482.67L475.408 63.9313L450.551 64.0098H450.373V54.7565L450.551 54.5781L485.26 54.6495H485.367V54.7565C485.367 57.6531 485.324 59.9575 485.31 61.5556C485.31 62.3189 485.31 62.9111 485.31 63.3392C485.31 63.5247 485.31 63.6745 485.31 63.7958C485.31 63.9171 485.21 63.9242 485.203 63.9242Z" fill="#E0E0E0"/>
<path d="M301.934 227.608H267.226V236.79H301.934V227.608Z" fill="#F5F5F5"/>
<path d="M287.259 246.465C287.254 246.408 287.254 246.351 287.259 246.294V245.823C287.259 245.395 287.259 244.789 287.259 244.018C287.259 242.434 287.223 240.158 287.202 237.283L287.309 237.39L252.6 237.462C252.679 237.383 252.422 237.633 252.771 237.283V246.451L252.6 246.28L277.335 246.358L284.634 246.408H286.61H287.123H287.309H287.145H286.653H284.719L277.456 246.458L252.557 246.636H252.379V237.298L252.557 237.119L287.266 237.19H287.373V237.298C287.373 240.194 287.33 242.498 287.316 244.097C287.316 244.86 287.316 245.452 287.316 245.88C287.316 246.066 287.316 246.216 287.316 246.33C287.3 246.376 287.281 246.421 287.259 246.465Z" fill="#E0E0E0"/>
<path d="M74.3833 54.6566C74.377 54.6021 74.377 54.547 74.3833 54.4925C74.3833 54.3712 74.3833 54.2143 74.3833 54.0217C74.3833 53.5865 74.3833 52.9872 74.3833 52.2095C74.3833 50.6257 74.3833 48.3498 74.3262 45.4746L74.4333 45.5817L39.6745 45.6601C39.7529 45.5817 39.4961 45.8385 39.8457 45.4818V54.6566L39.6745 54.4854L64.4094 54.5639L71.7079 54.6138H73.6841H74.1978H74.3833C74.3288 54.6205 74.2737 54.6205 74.2192 54.6138H73.7269H71.7864L64.5307 54.6637L39.6745 54.7422H39.4961V45.4889L39.6745 45.3105L74.3833 45.3819H74.4903V45.4889C74.4903 48.3926 74.4475 50.6899 74.4333 52.288C74.4333 53.0514 74.4333 53.6507 74.4333 54.0716C74.4333 54.2571 74.4333 54.4069 74.4333 54.5282C74.42 54.5722 74.4033 54.6152 74.3833 54.6566Z" fill="#E0E0E0"/>
<path d="M420.509 319.428C420.509 319.428 420.509 319.371 420.509 319.264V318.793C420.509 318.358 420.509 317.759 420.509 316.981C420.509 315.397 420.509 313.122 420.452 310.246L420.558 310.353L385.85 310.425L386.028 310.246V314.898C386.028 316.434 386.028 317.94 386.028 319.414L385.857 319.243L410.592 319.321L417.89 319.371H419.866H420.387H420.566C420.566 319.371 420.516 319.371 420.409 319.371H419.909H417.976L410.713 319.421L385.857 319.5H385.686V319.328C385.686 317.849 385.686 316.344 385.686 314.812V310.161L385.864 309.982L420.573 310.054H420.68V310.161C420.68 313.057 420.637 315.362 420.623 316.96C420.623 317.723 420.623 318.315 420.623 318.743C420.623 318.929 420.623 319.079 420.623 319.2C420.623 319.321 420.516 319.436 420.509 319.428Z" fill="#E0E0E0"/>
<path d="M281.352 41.472C281.352 41.472 281.352 41.4078 281.352 41.3008V40.8299C281.352 40.4019 281.352 39.7955 281.352 39.0249C281.352 37.4411 281.352 35.1581 281.295 32.2901L281.402 32.3971L246.693 32.4613L246.872 32.2901V36.956C246.872 38.4922 246.872 39.9976 246.872 41.472L246.701 41.3008L271.435 41.3793L278.734 41.4221H280.71H281.231C281.29 41.4162 281.35 41.4162 281.409 41.4221H281.252H280.753H278.82L271.557 41.472L246.701 41.5505H246.529V41.3793C246.529 39.9025 246.529 38.3971 246.529 36.8632V32.3043L246.708 32.126L281.417 32.1973H281.524V32.3043C281.524 35.2009 281.481 37.5053 281.466 39.1034C281.466 39.8668 281.466 40.459 281.466 40.887V41.3365C281.435 41.387 281.397 41.4327 281.352 41.472Z" fill="#E0E0E0"/>
<path d="M286.089 32.2902C286.084 32.2309 286.084 32.1712 286.089 32.1119C286.089 31.9835 286.089 31.8194 286.089 31.6267C286.089 31.1773 286.089 30.5637 286.089 29.7861C286.089 28.1737 286.047 25.9049 286.018 23.1083L286.146 23.2295L265.293 23.2795L265.464 23.1083V27.8241C265.464 29.358 265.464 30.8491 265.464 32.276L265.3 32.1047L280.218 32.1832L284.563 32.2332H285.733H286.154C286.028 32.2434 285.901 32.2434 285.775 32.2332H284.634L280.353 32.276L265.321 32.3544H265.15V32.1904C265.15 30.7635 265.15 29.2724 265.15 27.7385V23.1225C265.107 23.1225 265.485 22.7872 265.328 22.9442L286.182 22.9941H286.311V23.1225C286.311 25.9763 286.253 28.245 286.239 29.8788C286.239 30.6422 286.239 31.2415 286.239 31.6909C286.239 32.1404 286.089 32.2974 286.089 32.2902Z" fill="#E0E0E0"/>
<path d="M62.3259 260.405C62.3229 260.351 62.3229 260.296 62.3259 260.241C62.3259 260.12 62.3259 259.963 62.3259 259.77C62.3259 259.335 62.3259 258.736 62.3259 257.965C62.3259 256.382 62.3259 254.099 62.2689 251.223L62.3759 251.33L27.667 251.402L27.8454 251.223V255.882C27.8454 257.414 27.8454 258.919 27.8454 260.398L27.6742 260.227L52.4091 260.305L59.7076 260.355H61.6838H62.2047H62.383C62.383 260.355 62.3331 260.355 62.2261 260.355H61.7266H59.7932L52.5304 260.405L27.6742 260.484H27.5029V260.405C27.5029 258.929 27.5029 257.423 27.5029 255.889V251.23C27.8596 250.881 27.6028 251.138 27.6813 251.059L62.3901 251.123H62.4972V251.23C62.4972 254.134 62.4543 256.431 62.4401 258.037C62.4401 258.8 62.4401 259.392 62.4401 259.82V260.27C62.3331 260.405 62.3331 260.405 62.3259 260.405Z" fill="#E0E0E0"/>
<path d="M67.0635 251.238C67.0579 251.181 67.0579 251.123 67.0635 251.066C67.0635 250.931 67.0635 250.774 67.0635 250.581C67.0635 250.125 67.0635 249.511 67.0635 248.741C67.0635 247.128 67.0207 244.852 66.9921 242.056L67.1206 242.184L46.2667 242.234C46.1098 242.391 46.4807 242.02 46.4379 242.056V246.779C46.4379 248.32 46.4379 249.804 46.4379 251.231L46.2738 251.066L61.1919 251.145L65.5367 251.195H66.7068H67.1277C67.0019 251.205 66.8754 251.205 66.7496 251.195H65.6081L61.3274 251.245L46.2952 251.323H46.124V251.152C46.124 249.725 46.124 248.241 46.124 246.7V241.977L46.3024 241.799L67.0635 241.927H67.1919V242.056C67.1919 244.909 67.1348 247.185 67.1206 248.812C67.1206 249.575 67.1206 250.182 67.1206 250.631C67.1206 251.081 67.0635 251.252 67.0635 251.238Z" fill="#E0E0E0"/>
<path d="M171.625 184.916C171.619 184.862 171.619 184.807 171.625 184.752V184.281C171.625 183.846 171.625 183.247 171.625 182.476C171.625 180.885 171.59 178.609 171.568 175.734L171.675 175.841L136.966 175.913C137.045 175.834 136.788 176.091 137.138 175.734V184.902L136.966 184.731L161.701 184.809L169 184.859H170.976H171.49H171.675H171.511H171.019H169.078L161.823 184.902L136.966 184.98H136.788V175.634L136.966 175.456L171.675 175.527H171.782V175.634C171.782 178.538 171.74 180.835 171.725 182.441C171.725 183.197 171.725 183.796 171.725 184.217V184.674C171.704 184.759 171.671 184.841 171.625 184.916Z" fill="#E0E0E0"/>
<path d="M176.334 175.735C176.324 175.678 176.324 175.62 176.334 175.564C176.334 175.428 176.334 175.271 176.334 175.071L176.298 173.231C176.298 171.625 176.298 169.35 176.234 166.553L176.362 166.681L155.501 166.731L155.68 166.553V171.276C155.68 172.81 155.68 174.301 155.68 175.728L155.509 175.564L170.427 175.642L174.779 175.685H175.949H176.37C176.241 175.694 176.113 175.694 175.984 175.685H174.85L170.569 175.735L155.537 175.813H155.373V175.642C155.373 174.215 155.373 172.724 155.373 171.19V166.467C155.373 166.503 155.715 166.132 155.551 166.289L176.412 166.339H176.541V166.467C176.541 169.321 176.491 171.597 176.477 173.224C176.477 173.987 176.477 174.593 176.441 175.036C176.405 175.478 176.341 175.742 176.334 175.735Z" fill="#E0E0E0"/>
<path d="M495.384 334.525C495.384 334.625 393.684 334.711 268.268 334.711C142.852 334.711 41.123 334.604 41.123 334.525C41.123 334.447 142.803 334.34 268.268 334.34C393.734 334.34 495.384 334.425 495.384 334.525Z" fill="#263238"/>
<path d="M162.707 295.079L149.887 312.487L171.475 328.554C172.902 326.413 164.79 313.942 164.79 313.942L173.466 303.127L162.707 295.079Z" fill="#455A64"/>
<path d="M158.84 308.049C158.586 307.957 158.307 307.962 158.057 308.063C157.806 308.165 157.603 308.356 157.485 308.599C157.384 308.85 157.384 309.131 157.483 309.382C157.583 309.634 157.775 309.839 158.02 309.954C158.289 310.049 158.583 310.041 158.847 309.931C159.11 309.822 159.324 309.619 159.447 309.362C159.526 309.089 159.495 308.795 159.362 308.544C159.229 308.292 159.004 308.102 158.733 308.014" fill="white"/>
<path d="M149.858 312.53L151.221 310.661L171.39 326.899C171.39 326.899 172.032 328.041 171.39 328.633L149.858 312.53Z" fill="#263238"/>
<path d="M165.261 314.1C165.182 314.207 164.619 313.864 163.834 313.814C163.049 313.764 162.457 314.007 162.407 313.893C162.357 313.779 162.957 313.286 163.884 313.358C164.811 313.429 165.318 314.021 165.261 314.1Z" fill="#263238"/>
<path d="M166.795 316.725C166.738 316.846 166.153 316.682 165.461 316.86C164.769 317.039 164.32 317.438 164.213 317.353C164.106 317.267 164.491 316.639 165.354 316.418C166.218 316.197 166.867 316.625 166.795 316.725Z" fill="#263238"/>
<path d="M166.06 320.392C165.946 320.342 166.195 319.679 166.894 319.329C167.594 318.98 168.257 319.094 168.236 319.215C168.214 319.336 167.679 319.415 167.116 319.736C166.552 320.057 166.174 320.457 166.06 320.392Z" fill="#263238"/>
<path d="M166.931 311.417C166.81 311.481 166.439 310.974 165.811 310.575C165.183 310.175 164.584 310.011 164.591 309.861C164.598 309.712 165.304 309.683 166.061 310.168C166.817 310.653 167.045 311.374 166.931 311.417Z" fill="#263238"/>
<path d="M214.903 222.208C215.288 224.391 215.901 242.962 216.294 252.757C216.686 262.553 215.709 267.369 214.589 269.566C213.469 271.763 171.226 302.891 168.008 310.346L157.307 301.721C157.307 301.721 173.002 273.547 179.694 268.425C186.386 263.302 199.264 258.601 199.264 258.601L195.604 204.957L213.148 204.001L214.903 222.208Z" fill="#263238"/>
<path d="M175.642 312.295L175.456 333.891L202.36 334.262C202.239 331.693 188.391 326.335 188.391 326.335L189.104 312.488L175.642 312.295Z" fill="#455A64"/>
<path d="M180.086 325.086C179.827 325.161 179.604 325.33 179.461 325.559C179.317 325.788 179.263 326.061 179.309 326.328C179.375 326.59 179.539 326.818 179.767 326.963C179.995 327.109 180.27 327.163 180.536 327.113C180.81 327.031 181.045 326.851 181.195 326.608C181.345 326.364 181.4 326.074 181.349 325.793C181.254 325.526 181.058 325.307 180.804 325.182C180.549 325.056 180.256 325.035 179.987 325.122" fill="white"/>
<path d="M175.449 333.969V331.65L201.311 332.992C201.311 332.992 202.496 333.541 202.346 334.383L175.449 333.969Z" fill="#263238"/>
<path d="M188.805 326.235C188.805 326.37 188.142 326.42 187.492 326.834C186.843 327.248 186.486 327.79 186.365 327.74C186.244 327.69 186.451 326.927 187.25 326.442C188.049 325.956 188.862 326.113 188.805 326.235Z" fill="#263238"/>
<path d="M191.658 327.469C191.658 327.598 191.109 327.812 190.659 328.361C190.21 328.91 190.067 329.502 189.946 329.488C189.825 329.474 189.739 328.739 190.317 328.061C190.895 327.383 191.658 327.319 191.658 327.469Z" fill="#263238"/>
<path d="M193.192 330.844C193.071 330.844 192.899 330.209 193.242 329.496C193.584 328.782 194.212 328.504 194.262 328.611C194.312 328.718 193.934 329.103 193.656 329.695C193.377 330.288 193.32 330.83 193.192 330.844Z" fill="#263238"/>
<path d="M188.633 323.06C188.576 323.182 187.977 322.989 187.206 323.06C186.436 323.132 185.879 323.324 185.78 323.21C185.68 323.096 186.272 322.64 187.149 322.604C188.027 322.568 188.697 322.961 188.633 323.06Z" fill="#263238"/>
<path d="M216.843 201.783C216.843 203.046 218.89 235.015 208.438 258.145C208.438 258.145 204.821 265.379 204.158 268.54C203.494 271.7 189.974 324.124 189.974 324.124L174.35 323.553C174.35 323.553 171.853 297.291 174.35 282.088C176.847 266.884 181.484 268.668 181.484 258.851C181.484 249.034 179.151 228.68 179.151 228.68C179.151 228.68 175.741 223.122 174.578 212.342C173.629 203.588 177.753 194.206 177.753 194.206L181.827 186.993L216.293 185.188L216.843 201.783Z" fill="#263238"/>
<path d="M216.843 201.783C216.843 201.783 216.843 201.412 216.843 200.691C216.843 199.971 216.8 198.9 216.771 197.495C216.707 194.677 216.6 190.525 216.472 185.16V185.081H216.386L181.92 186.836H181.849L181.806 186.9C180.543 189.141 179.152 191.588 177.725 194.113C176.664 196.673 175.835 199.324 175.249 202.032C174.602 204.884 174.312 207.806 174.386 210.729C174.603 213.782 175.081 216.811 175.813 219.783C176.519 222.903 177.63 225.918 179.116 228.751V228.679C179.708 234.002 180.258 239.517 180.721 245.195C180.95 248.049 181.149 250.903 181.292 253.835C181.363 255.262 181.42 256.76 181.428 258.237C181.428 258.951 181.428 259.714 181.385 260.449C181.334 261.186 181.244 261.919 181.114 262.646C180.822 264.111 180.304 265.521 179.58 266.827C178.866 268.161 178.153 269.481 177.439 270.872C176.147 273.696 175.206 276.667 174.636 279.719C173.394 285.854 173.145 292.233 173.073 298.661C173.073 307.143 173.473 315.476 174.172 323.531V323.702H174.336L189.96 324.273H190.11L190.146 324.123C194.676 306.566 198.9 290.156 202.624 275.403L203.972 269.945C204.208 269.039 204.358 268.14 204.636 267.284C204.914 266.427 205.228 265.578 205.556 264.751C206.227 263.096 206.983 261.49 207.696 259.928L208.253 258.765C208.451 258.385 208.627 257.995 208.781 257.595C209.102 256.803 209.423 256.026 209.744 255.248C211.963 249.494 213.614 243.537 214.674 237.462C216.202 228.807 216.99 220.038 217.028 211.25C217.071 205.1 216.821 201.761 216.821 201.761C216.821 201.761 216.821 201.968 216.821 202.375C216.821 202.781 216.821 203.402 216.864 204.201C216.907 205.806 216.936 208.175 216.864 211.25C216.798 220.031 216.004 228.791 214.488 237.44C213.404 243.496 211.731 249.431 209.494 255.162L208.538 257.495C208.381 257.895 208.203 258.273 208.01 258.658C207.818 259.043 207.632 259.436 207.447 259.828C206.733 261.391 205.977 262.996 205.306 264.658C204.971 265.493 204.65 266.342 204.372 267.212C204.094 268.083 203.93 269.003 203.701 269.888C203.252 271.686 202.802 273.498 202.339 275.345C198.55 290.085 194.334 306.494 189.818 324.052L190.003 323.916L174.379 323.339L174.564 323.51C173.851 315.469 173.437 307.144 173.466 298.675C173.537 292.254 173.787 285.904 175.021 279.812C175.589 276.788 176.521 273.844 177.796 271.043C178.438 269.666 179.223 268.361 179.937 267.005C180.656 265.664 181.166 264.22 181.449 262.725C181.584 261.981 181.677 261.231 181.727 260.477C181.727 259.764 181.799 258.979 181.77 258.244C181.77 256.76 181.706 255.284 181.635 253.821C181.492 250.896 181.285 248.014 181.05 245.174C180.574 239.467 180.034 233.956 179.43 228.644V228.601C177.943 225.804 176.828 222.825 176.112 219.74C175.384 216.789 174.907 213.782 174.686 210.751C174.609 207.854 174.892 204.959 175.527 202.132C176.102 199.451 176.912 196.825 177.946 194.284L182.013 187.064L181.898 187.136L216.365 185.274L216.272 185.195C216.443 190.553 216.572 194.705 216.657 197.523C216.707 198.95 216.743 199.992 216.771 200.72C216.8 201.447 216.843 201.783 216.843 201.783Z" fill="#455A64"/>
<path d="M205.634 136.318C205.634 136.318 196.359 134.677 197.223 146.612C197.765 153.747 199.862 165.989 201.025 173.802C201.425 176.506 202.31 181.343 205.884 184.182L231.496 201.904L239.58 192.237L216.707 170.456L213.14 148.91L205.634 136.318Z" fill="#455A64"/>
<path d="M206.727 93.2969C208.197 94.4806 209.36 96.0013 210.117 97.7301C210.875 99.4588 211.205 101.345 211.079 103.228C210.936 105.054 210.429 107.13 211.621 108.522C212.812 109.913 215.095 109.863 216.222 111.276C217.542 112.945 216.437 115.428 216.936 117.504C217.19 118.474 217.782 119.321 218.604 119.895C219.426 120.469 220.425 120.731 221.423 120.636C219.082 122.552 216.258 123.786 213.262 124.203L210.922 121.285C211.792 122.312 211.557 123.946 210.722 124.995C209.815 125.971 208.646 126.665 207.354 126.993C204.281 127.938 201.031 128.162 197.857 127.646C194.683 127.13 191.67 125.888 189.055 124.018" fill="#263238"/>
<path d="M172.459 109.4C172.916 107.973 173.686 106.71 173.993 105.276C174.65 102.187 173.144 98.7052 174.643 95.9228C175.713 93.9465 177.981 92.9763 180.136 92.3128C182.291 91.6493 184.588 91.0928 186.193 89.5161C187.363 88.3603 188.034 86.7622 189.204 85.6064C190.873 83.9512 193.342 83.3876 195.682 83.2449C198.098 83.0114 200.534 83.4071 202.752 84.3936C203.853 84.8961 204.821 85.6506 205.577 86.5963C206.333 87.5419 206.856 88.6521 207.104 89.8371C207.29 90.9929 207.147 92.2129 207.518 93.333C207.917 94.5601 208.88 95.5161 209.48 96.6647C210.08 97.8983 210.254 99.2962 209.973 100.639C209.693 101.982 208.975 103.194 207.932 104.085L191.394 125.445C187.92 126.758 179.501 125.174 176.818 122.591C174.136 120.008 171.311 112.931 172.459 109.4Z" fill="#263238"/>
<path d="M207.497 101.373C206.783 96.5213 203.123 90.7924 198.308 91.6771L183.439 96.6711C182.013 96.9423 183.026 99.3323 183.168 100.809L186.4 134.341C186.4 134.341 184.388 135.768 183.675 135.497C183.634 135.482 183.59 135.481 183.549 135.493C183.508 135.505 183.471 135.53 183.444 135.564C183.418 135.597 183.402 135.639 183.4 135.682C183.398 135.725 183.409 135.767 183.432 135.803C185.237 138.407 193.649 149.73 202.36 146.255C204.3 145.478 202.153 139.363 202.36 137.102L202.103 131.316C201.91 128.362 201.818 127.149 201.818 127.178C201.818 127.206 207.968 125.665 208.631 117.439C208.966 113.366 208.253 106.759 207.497 101.373Z" fill="#FFBF9D"/>
<path d="M206.462 108.836C206.485 109.107 206.4 109.377 206.227 109.587C206.054 109.797 205.806 109.932 205.535 109.963C205.403 109.984 205.268 109.978 205.139 109.947C205.009 109.915 204.887 109.857 204.78 109.777C204.673 109.698 204.583 109.597 204.515 109.482C204.447 109.367 204.404 109.239 204.386 109.107C204.364 108.835 204.449 108.566 204.622 108.355C204.795 108.145 205.043 108.01 205.314 107.979C205.446 107.958 205.58 107.964 205.71 107.996C205.84 108.027 205.962 108.085 206.069 108.165C206.176 108.245 206.266 108.345 206.334 108.46C206.401 108.576 206.445 108.703 206.462 108.836Z" fill="#263238"/>
<path d="M196.331 109.47C196.355 109.741 196.273 110.011 196.101 110.221C195.929 110.432 195.681 110.567 195.411 110.598C195.279 110.618 195.145 110.611 195.015 110.579C194.886 110.547 194.764 110.489 194.657 110.41C194.551 110.33 194.461 110.23 194.393 110.115C194.325 110 194.281 109.873 194.262 109.741C194.24 109.47 194.325 109.2 194.498 108.99C194.671 108.78 194.919 108.645 195.19 108.614C195.321 108.593 195.456 108.599 195.585 108.63C195.714 108.662 195.836 108.72 195.942 108.8C196.049 108.88 196.138 108.98 196.205 109.096C196.272 109.211 196.315 109.338 196.331 109.47Z" fill="#263238"/>
<path d="M206.833 105.397C206.719 105.59 205.749 104.976 204.536 105.155C203.323 105.333 202.546 106.16 202.396 106.011C202.246 105.861 202.396 105.611 202.745 105.233C203.184 104.74 203.784 104.42 204.438 104.33C205.092 104.24 205.756 104.385 206.313 104.741C206.712 105.019 206.89 105.311 206.833 105.397Z" fill="#263238"/>
<path d="M195.939 106.303C195.797 106.481 194.848 105.789 193.542 105.846C192.237 105.903 191.309 106.638 191.159 106.474C191.009 106.31 191.223 106.089 191.63 105.761C192.164 105.32 192.829 105.069 193.521 105.047C194.209 105.02 194.887 105.224 195.447 105.625C195.854 105.918 196.003 106.217 195.939 106.303Z" fill="#263238"/>
<path d="M200.027 113.987C200.603 113.752 201.208 113.594 201.825 113.516C202.103 113.466 202.374 113.388 202.403 113.188C202.407 112.89 202.317 112.598 202.146 112.353C201.825 111.683 201.49 110.976 201.133 110.213C199.706 107.195 198.672 104.712 198.793 104.655C198.914 104.598 200.163 106.995 201.575 110.006C201.918 110.755 202.246 111.433 202.553 112.146C202.761 112.477 202.845 112.872 202.788 113.259C202.755 113.364 202.699 113.459 202.624 113.538C202.548 113.618 202.456 113.678 202.353 113.716C202.198 113.769 202.038 113.802 201.875 113.816C201.268 113.946 200.648 114.003 200.027 113.987Z" fill="#263238"/>
<path d="M201.818 127.192C197.997 127.543 194.154 126.827 190.717 125.123C190.717 125.123 193.892 130.617 201.961 129.232L201.818 127.192Z" fill="#FF9A6C"/>
<path d="M196.61 117.254C196.737 116.972 196.933 116.727 197.181 116.541C197.483 116.397 197.827 116.364 198.151 116.448C198.633 116.518 199.078 116.744 199.421 117.09C199.589 117.265 199.707 117.481 199.763 117.717C199.82 117.953 199.812 118.199 199.742 118.431C199.613 118.902 198.914 119.145 198.436 119.245C197.941 119.317 197.436 119.213 197.009 118.952C196.824 118.867 196.662 118.739 196.537 118.577C196.413 118.415 196.33 118.226 196.296 118.025C196.328 117.744 196.436 117.477 196.61 117.254Z" fill="#FF9A6C"/>
<path d="M196.838 115.678C197.016 115.678 197.116 116.869 198.222 117.654C199.328 118.439 200.612 118.203 200.633 118.367C200.655 118.531 200.369 118.624 199.82 118.681C199.107 118.747 198.394 118.557 197.808 118.146C197.242 117.756 196.853 117.159 196.724 116.484C196.652 115.992 196.752 115.678 196.838 115.678Z" fill="#263238"/>
<path d="M195.839 101.916C195.746 102.222 194.619 102.165 193.313 102.429C192.008 102.693 190.973 103.143 190.78 102.865C190.695 102.743 190.852 102.444 191.258 102.115C191.803 101.71 192.434 101.434 193.102 101.311C193.77 101.187 194.457 101.218 195.111 101.402C195.61 101.545 195.874 101.766 195.839 101.916Z" fill="#263238"/>
<path d="M206.141 101.309C205.935 101.58 205.036 101.387 204.001 101.458C202.967 101.53 202.053 101.78 201.825 101.53C201.725 101.409 201.825 101.137 202.218 100.866C202.734 100.526 203.334 100.336 203.951 100.317C204.565 100.273 205.179 100.404 205.721 100.695C206.092 100.909 206.234 101.166 206.141 101.309Z" fill="#263238"/>
<path d="M180.15 97.8417C180.864 96.686 182.248 96.0938 183.532 95.6015C189.078 93.46 194.86 91.9871 200.755 91.2139C201.468 92.4196 200.812 94.0676 199.706 94.9452C198.6 95.8227 197.173 96.1723 195.853 96.6646C194.533 97.1568 193.171 97.9273 192.621 99.2329C192.072 100.539 192.536 102.258 192.022 103.671C191.144 106.11 187.741 106.895 186.892 109.328C186.236 111.176 187.306 113.138 187.606 115.078C187.743 116.063 187.668 117.066 187.387 118.02C187.106 118.974 186.624 119.856 185.975 120.609C185.325 121.362 184.522 121.968 183.62 122.386C182.718 122.804 181.737 123.025 180.743 123.033C180.343 116.046 179.941 109.064 179.537 102.087C179.416 100.631 179.358 99.0617 180.15 97.8417Z" fill="#263238"/>
<path d="M166.081 115.485C167.187 114.493 168.571 113.637 169.006 112.224C169.648 110.163 167.993 107.744 169.063 105.868C170.034 104.155 172.895 104.248 173.801 102.5C174.514 101.13 173.694 99.9247 173.958 98.7261C174.222 97.5275 175.934 96.4788 177.147 96.6214L186.664 110.441C187.549 115.078 188.44 117.575 187.449 120.258C186.793 121.702 186.298 123.214 185.972 124.767C185.758 126.336 186.165 128.113 187.442 129.047C181.734 129.497 176.398 126.515 171.461 123.625L166.26 120.572C165.69 120.299 165.199 119.887 164.833 119.373C164.055 118.103 164.982 116.469 166.081 115.485Z" fill="#263238"/>
<path d="M171.34 122.219C171.539 122.283 171.745 122.324 171.953 122.341C172.549 122.398 173.149 122.354 173.73 122.212C174.657 121.99 175.51 121.53 176.206 120.878C177.124 119.994 177.7 118.814 177.832 117.546C177.918 116.811 177.855 116.066 177.647 115.356C177.391 114.599 177.036 113.879 176.591 113.216C176.119 112.542 175.751 111.801 175.499 111.018C175.365 110.618 175.324 110.193 175.377 109.774C175.43 109.355 175.577 108.954 175.806 108.6C176.32 107.886 177.283 107.737 178.182 107.38C178.667 107.205 179.09 106.89 179.395 106.474C179.675 106.029 179.812 105.508 179.787 104.983C179.664 103.975 179.446 102.982 179.138 102.015C179.028 101.545 179.028 101.057 179.138 100.588C179.263 100.115 179.554 99.7021 179.958 99.425C180.826 98.9245 181.81 98.6589 182.812 98.6545C183.849 98.6202 184.86 98.3232 185.751 97.7912C186.618 97.2628 187.322 96.5047 187.785 95.601C188.164 94.7332 188.405 93.8111 188.498 92.8685C188.597 91.9959 188.783 91.1354 189.055 90.3001C189.355 89.5405 189.812 88.8525 190.396 88.2811C191.473 87.2593 192.863 86.6309 194.341 86.4975C195.574 86.3921 196.811 86.6395 197.908 87.2109C198.734 87.6332 199.478 88.1985 200.106 88.8804C200.631 89.4756 201.085 90.1291 201.461 90.8281C201.461 90.8281 201.461 90.7781 201.411 90.6782C201.353 90.5366 201.286 90.3984 201.212 90.2644C200.939 89.7465 200.606 89.2628 200.22 88.8233C199.592 88.114 198.843 87.5221 198.008 87.0754C196.899 86.4659 195.639 86.1862 194.377 86.2692C192.827 86.3826 191.364 87.0249 190.232 88.0885C189.608 88.6911 189.121 89.4211 188.805 90.2288C188.522 91.0796 188.326 91.9568 188.22 92.8471C188.121 93.7588 187.88 94.6494 187.506 95.4868C187.071 96.3289 186.415 97.0367 185.609 97.5344C184.759 98.033 183.797 98.3102 182.812 98.3406C181.738 98.3383 180.684 98.6241 179.758 99.1682C179.295 99.4832 178.961 99.9542 178.817 100.495C178.692 101.023 178.692 101.573 178.817 102.1C179.119 103.049 179.334 104.023 179.459 105.011C179.488 105.47 179.373 105.927 179.131 106.317C178.855 106.679 178.481 106.954 178.053 107.109C177.632 107.287 177.176 107.408 176.733 107.594C176.273 107.768 175.867 108.061 175.556 108.443C175.304 108.837 175.143 109.282 175.084 109.746C175.024 110.21 175.069 110.681 175.214 111.125C175.481 111.934 175.866 112.698 176.355 113.394C176.79 114.025 177.138 114.711 177.39 115.435C177.592 116.109 177.66 116.817 177.59 117.518C177.473 118.738 176.933 119.879 176.063 120.743C175.397 121.387 174.576 121.849 173.68 122.084C172.917 122.283 172.121 122.329 171.34 122.219Z" fill="#455A64"/>
<path d="M163.735 112.396C163.641 112.536 163.578 112.694 163.549 112.86C163.454 113.349 163.541 113.856 163.792 114.286C163.966 114.594 164.21 114.855 164.505 115.05C164.873 115.272 165.296 115.386 165.725 115.378C166.247 115.367 166.756 115.212 167.196 114.932C167.637 114.651 167.991 114.255 168.222 113.787C168.494 113.25 168.633 112.655 168.629 112.053C168.612 111.406 168.476 110.768 168.229 110.17C167.78 108.936 166.952 107.73 166.938 106.289C166.911 105.934 166.956 105.577 167.07 105.24C167.184 104.903 167.365 104.592 167.602 104.327C168.18 103.849 168.923 103.618 169.671 103.685C170.502 103.745 171.338 103.658 172.139 103.428C172.559 103.257 172.914 102.957 173.152 102.572C173.382 102.189 173.525 101.76 173.573 101.316C173.614 100.464 173.545 99.6103 173.366 98.7762C173.238 97.9933 173.285 97.192 173.502 96.429C173.906 94.9726 174.853 93.7266 176.149 92.9474C177.378 92.3212 178.743 92.0075 180.123 92.0342C181.349 92.037 182.567 91.8443 183.733 91.4635C184.68 91.1158 185.548 90.5821 186.287 89.8939C186.852 89.3716 187.333 88.7652 187.714 88.096C188.048 87.541 188.278 86.9291 188.391 86.291C188.179 86.8934 187.914 87.4759 187.599 88.0318C186.701 89.5319 185.316 90.6797 183.675 91.2851C182.52 91.6386 181.317 91.8119 180.108 91.7988C178.689 91.7588 177.281 92.0726 176.013 92.712C174.651 93.5107 173.646 94.7995 173.202 96.3148C172.974 97.1195 172.923 97.9641 173.052 98.7905C173.219 99.5973 173.289 100.421 173.259 101.245C173.242 101.636 173.118 102.016 172.901 102.341C172.683 102.667 172.38 102.927 172.025 103.093C171.263 103.309 170.468 103.389 169.678 103.328C168.85 103.256 168.028 103.512 167.388 104.041C167.126 104.339 166.928 104.687 166.806 105.063C166.683 105.44 166.638 105.837 166.674 106.232C166.706 106.972 166.883 107.7 167.195 108.372C167.473 109.014 167.78 109.613 168.015 110.213C168.255 110.781 168.39 111.387 168.415 112.003C168.425 112.566 168.303 113.123 168.058 113.63C167.851 114.067 167.528 114.44 167.125 114.706C166.721 114.973 166.252 115.124 165.768 115.143C165.371 115.157 164.979 115.06 164.634 114.864C164.338 114.692 164.093 114.446 163.92 114.151C163.67 113.754 163.567 113.282 163.628 112.817C163.663 112.56 163.756 112.403 163.735 112.396Z" fill="#263238"/>
<path d="M223.828 115.799C223.997 116.281 223.997 116.807 223.828 117.29C223.733 117.567 223.578 117.819 223.373 118.028C223.168 118.236 222.919 118.396 222.643 118.495C222.276 118.604 221.886 118.608 221.517 118.507C221.148 118.406 220.814 118.204 220.553 117.925C220.253 117.595 220.079 117.171 220.061 116.726C220.047 116.241 220.122 115.757 220.282 115.299C220.581 114.336 221.202 113.287 221.109 112.025C221.064 111.384 220.886 110.76 220.587 110.193C220.287 109.625 219.872 109.127 219.369 108.728C218.841 108.306 218.238 107.989 217.592 107.794C216.932 107.611 216.251 107.513 215.566 107.501C214.902 107.496 214.24 107.427 213.59 107.294C212.982 107.169 212.439 106.833 212.056 106.346C211.717 105.845 211.526 105.259 211.507 104.655C211.475 104.066 211.523 103.476 211.649 102.9C211.962 101.813 212.135 100.691 212.163 99.5607C212.105 98.5571 211.75 97.5934 211.143 96.7926C210.629 96.1571 209.999 95.6245 209.288 95.223C208.768 94.9152 208.269 94.572 207.797 94.1956C207.409 93.8636 207.093 93.4557 206.869 92.9971C206.869 92.9971 206.869 92.9971 206.869 93.097C206.897 93.1935 206.936 93.2867 206.983 93.3752C207.161 93.722 207.403 94.0318 207.697 94.2884C208.159 94.691 208.653 95.056 209.174 95.38C209.854 95.7848 210.454 96.3121 210.943 96.9353C211.508 97.703 211.831 98.6223 211.87 99.575C211.828 100.68 211.648 101.775 211.335 102.835C211.197 103.439 211.142 104.058 211.171 104.676C211.198 105.342 211.41 105.987 211.785 106.538C212.21 107.089 212.817 107.47 213.497 107.615C214.166 107.753 214.847 107.827 215.53 107.837C216.191 107.845 216.847 107.936 217.485 108.108C218.09 108.296 218.656 108.593 219.155 108.985C219.623 109.355 220.011 109.818 220.292 110.345C220.573 110.871 220.742 111.451 220.788 112.046C220.888 113.195 220.317 114.186 220.004 115.221C219.839 115.717 219.766 116.239 219.79 116.762C219.821 117.26 220.025 117.732 220.367 118.096C220.66 118.403 221.034 118.621 221.445 118.726C221.857 118.831 222.289 118.818 222.693 118.688C222.988 118.574 223.254 118.393 223.469 118.161C223.684 117.928 223.843 117.65 223.935 117.347C224.064 116.975 224.084 116.574 223.992 116.191C223.961 116.052 223.905 115.919 223.828 115.799Z" fill="#263238"/>
<path d="M217.007 171.683V163.792C217.891 159.362 217.47 154.111 215.409 150.066C213.913 147.458 212.259 144.945 210.457 142.539L202.609 132.344C198.286 135.49 191.516 133.214 185.708 131.103C185.708 131.103 180.001 134.277 177.304 137.26C174.5 140.399 184.089 179.674 184.089 179.674C179.744 188.363 174.136 196.083 173.287 204.002L218.662 205.75L216.736 184.946L217.007 171.683Z" fill="#455A64"/>
<path d="M216.379 185.166C216.334 184.871 216.322 184.572 216.343 184.275C216.343 183.625 216.343 182.848 216.343 181.856C216.379 179.716 216.422 176.955 216.472 173.88C216.522 170.805 216.614 167.944 216.714 165.904C216.764 164.883 216.814 164.056 216.857 163.485C216.862 163.189 216.9 162.895 216.971 162.607C217 162.902 217 163.198 216.971 163.492C216.971 164.141 216.971 164.919 216.971 165.911C216.935 168.051 216.886 170.812 216.836 173.887C216.786 176.962 216.7 179.823 216.6 181.863C216.55 182.883 216.5 183.711 216.45 184.282C216.461 184.578 216.438 184.875 216.379 185.166Z" fill="#263238"/>
<path d="M237.105 192.344C237.105 192.344 241.528 192.586 244.239 194.299C246.95 196.011 251.373 198.679 253.193 201.982C254.027 203.502 251.652 203.823 250.474 202.945C249.297 202.068 247.507 200.398 246.615 200.199L245.723 199.992C246.537 201.835 247.444 203.635 248.441 205.385C249.362 206.812 250.161 209.181 247.392 209.288C247.392 209.288 245.53 211.714 243.647 209.916C243.647 209.916 242.177 212.12 239.809 209.067C239.809 209.067 238.424 210.815 237.854 210.144C237.283 209.473 235.392 208.418 234.843 206.234C234.019 203.693 233.066 201.195 231.989 198.75L237.105 192.344Z" fill="#FFBF9D"/>
<path d="M336.137 131.031C336.629 131.031 356.884 128.89 356.884 128.89C356.884 128.89 358.603 120.657 358.51 118.517C358.417 116.376 356.976 102.215 356.976 102.215L364.56 98.6475C364.56 98.6475 374.698 132.836 372.486 135.675C370.275 138.514 366.115 141.061 365.759 141.076C365.402 141.09 346.132 149.637 332.726 145.192C319.321 140.748 336.137 131.031 336.137 131.031Z" fill="#FFBF9D"/>
<path d="M318.387 149.488C321.369 152.449 326.506 154.91 335.081 152.77C352.033 148.532 364.739 144.922 369.79 142.211C374.841 139.5 372.872 127.385 373.3 126.836C374.577 125.181 373.172 121.628 371.352 121.071C366.166 119.502 357.141 120.123 356.684 120.593C354.023 123.39 356.449 126.786 356.449 126.786L334.097 129.718C331.349 129.59 328.595 129.764 325.885 130.239" fill="#455A64"/>
<path d="M325.885 130.239L326.42 130.125C326.777 130.06 327.305 129.968 328.004 129.882C330.027 129.627 332.067 129.542 334.104 129.625L356.449 126.629L356.342 126.879C355.608 125.799 355.247 124.508 355.315 123.204C355.376 122.53 355.596 121.879 355.957 121.307C356.138 121.019 356.343 120.747 356.57 120.493C356.66 120.427 356.758 120.374 356.863 120.336L357.12 120.272C357.291 120.229 357.455 120.215 357.619 120.179C360.388 119.86 363.18 119.803 365.959 120.008C367.418 120.097 368.868 120.297 370.297 120.607C370.654 120.686 371.01 120.793 371.381 120.886C371.762 121.007 372.11 121.212 372.402 121.485C372.969 122.024 373.401 122.689 373.664 123.425C373.947 124.163 374.048 124.959 373.957 125.744C373.892 126.153 373.738 126.542 373.507 126.886C373.443 126.957 373.45 127.15 373.443 127.335V127.906C373.493 129.44 373.564 131.002 373.522 132.572C373.533 134.8 373.169 137.014 372.444 139.121C372.072 140.177 371.433 141.118 370.589 141.854C370.152 142.195 369.673 142.478 369.163 142.695C368.692 142.945 368.192 143.138 367.736 143.366C365.781 144.201 363.819 144.886 361.885 145.506C359.952 146.127 358.054 146.726 356.178 147.276C348.715 149.416 341.909 151.15 336.244 152.57C334.891 152.927 333.519 153.211 332.135 153.419C330.894 153.591 329.641 153.658 328.389 153.618C326.378 153.575 324.394 153.144 322.546 152.348C321.387 151.837 320.307 151.164 319.336 150.351C318.994 150.074 318.674 149.771 318.38 149.445C318.38 149.445 318.708 149.759 319.386 150.294C320.369 151.078 321.454 151.726 322.611 152.22C324.447 152.978 326.41 153.382 328.397 153.411C329.635 153.441 330.874 153.365 332.099 153.183C333.474 152.966 334.836 152.676 336.18 152.313C341.888 150.886 348.637 149.131 356.078 146.948C357.94 146.398 359.838 145.813 361.786 145.171C363.733 144.529 365.667 143.851 367.6 143.031C368.071 142.81 368.563 142.617 369.027 142.367C369.503 142.158 369.951 141.889 370.361 141.568C371.158 140.876 371.76 139.989 372.109 138.993C372.812 136.913 373.162 134.731 373.144 132.536C373.186 130.974 373.144 129.426 373.065 127.884V127.299C373.065 127.2 373.065 127.1 373.065 126.993C373.059 126.936 373.059 126.878 373.065 126.821C373.081 126.777 373.1 126.734 373.122 126.693L373.158 126.636C373.358 126.343 373.49 126.009 373.543 125.659C373.627 124.933 373.531 124.198 373.265 123.518C373.025 122.837 372.629 122.221 372.109 121.72C371.856 121.483 371.554 121.306 371.224 121.2C370.868 121.107 370.511 121.007 370.161 120.921C368.752 120.616 367.321 120.418 365.881 120.329C363.13 120.119 360.366 120.171 357.626 120.486C357.462 120.486 357.298 120.529 357.141 120.572L356.913 120.622C356.863 120.641 356.815 120.665 356.77 120.693C356.555 120.927 356.362 121.18 356.192 121.449C355.853 121.974 355.647 122.574 355.593 123.197C355.531 124.423 355.866 125.637 356.549 126.657L356.692 126.879H356.442L334.083 129.732C332.058 129.63 330.027 129.687 328.011 129.904C327.298 129.975 326.777 130.053 326.42 130.103C326.064 130.153 325.885 130.239 325.885 130.239Z" fill="#263238"/>
<path d="M265.366 153.474L256.261 137.117L428.465 41.2693C430.449 40.1651 432.79 39.8942 434.974 40.5162C437.158 41.1383 439.005 42.6023 440.109 44.5863L440.89 45.9889C441.994 47.9729 442.265 50.3143 441.643 52.498C441.021 54.6817 439.557 56.5289 437.573 57.6332L265.369 153.48L265.366 153.474Z" fill="#55417C"/>
<path d="M409.767 66.9658L388.681 29.0828C388.579 28.8994 388.514 28.6977 388.49 28.4892C388.466 28.2808 388.483 28.0696 388.541 27.8677C388.598 27.6659 388.695 27.4774 388.825 27.3129C388.955 27.1484 389.117 27.0112 389.3 26.9092L398.975 21.5242C399.159 21.4221 399.36 21.3572 399.569 21.333C399.777 21.3089 399.988 21.3261 400.19 21.3836C400.392 21.4411 400.581 21.5378 400.745 21.6681C400.91 21.7985 401.047 21.96 401.149 22.1433L422.234 60.0264L409.767 66.9658Z" fill="#55417C"/>
<path d="M368.287 49.3247L383.654 76.9343C384.275 78.0498 385.683 78.4508 386.798 77.8299L395.226 73.1389C396.342 72.518 396.743 71.1104 396.122 69.9949L380.754 42.3852C380.134 41.2698 378.726 40.8688 377.611 41.4896L369.182 46.1807C368.067 46.8016 367.666 48.2092 368.287 49.3247Z" fill="#55417C"/>
<path d="M381.855 47.7125L391.369 64.8057L410.731 54.0287L401.217 36.9355L381.855 47.7125Z" fill="#55417C"/>
<path d="M425.945 42.7064C425.995 42.792 392.199 61.6982 350.477 84.9278C308.755 108.157 274.853 126.921 274.853 126.828C274.853 126.735 308.591 107.836 350.327 84.5996C392.064 61.3629 425.895 42.6137 425.945 42.7064Z" fill="#263238"/>
<path d="M195.625 185.074C208.324 207.904 235.1 217.179 255.433 205.871C275.766 194.563 281.973 166.881 269.273 144.08C256.574 121.278 229.806 111.975 209.466 123.283C189.126 134.591 182.933 162.273 195.625 185.074ZM258.258 150.215C267.154 166.196 262.81 185.581 248.555 193.507C234.301 201.433 215.544 194.934 206.648 178.938C197.751 162.943 202.096 143.573 216.343 135.64C230.591 127.706 249.361 134.234 258.258 150.215Z" fill="#55417C"/>
<path d="M285.249 120.785L294.645 137.666C295.894 139.911 298.727 140.718 300.972 139.468L301.732 139.045C303.977 137.796 304.784 134.963 303.534 132.718L294.138 115.837C292.889 113.592 290.056 112.785 287.812 114.035L287.051 114.458C284.806 115.707 284 118.54 285.249 120.785Z" fill="#55417C"/>
<path d="M303.294 110.741L312.69 127.622C313.939 129.867 316.772 130.674 319.017 129.424L319.777 129.001C322.022 127.752 322.829 124.919 321.579 122.674L312.183 105.793C310.934 103.548 308.101 102.741 305.857 103.991L305.096 104.414C302.851 105.664 302.045 108.496 303.294 110.741Z" fill="#55417C"/>
<path d="M293.937 115.578C294.029 115.528 296.205 119.359 298.809 124.139C301.413 128.919 303.447 132.814 303.354 132.864C303.261 132.914 301.085 129.09 298.481 124.303C295.877 119.516 293.844 115.578 293.937 115.578Z" fill="#263238"/>
<path d="M285.654 121.463C285.747 121.413 287.873 125.073 290.413 129.625C292.952 134.177 294.929 137.922 294.843 137.972C294.757 138.022 292.624 134.362 290.113 129.846C287.602 125.33 285.568 121.513 285.654 121.463Z" fill="#263238"/>
<path d="M312.094 105.639C312.187 105.589 314.406 109.399 317.053 114.15C319.7 118.902 321.769 122.805 321.676 122.854C321.583 122.904 319.371 119.087 316.725 114.336C314.078 109.584 312.009 105.689 312.094 105.639Z" fill="#263238"/>
<path d="M303.383 110.898C303.469 110.848 305.645 114.636 308.227 119.359C310.81 124.082 312.843 127.921 312.75 127.999C312.658 128.078 310.496 124.261 307.906 119.538C305.316 114.815 303.29 110.948 303.383 110.898Z" fill="#263238"/>
<path d="M355.129 85.1633C355.96 85.2612 356.797 85.0463 357.478 84.5606C358.159 84.0749 358.635 83.3531 358.813 82.5358C358.991 81.7186 358.859 80.8643 358.442 80.1393C358.024 79.4143 357.352 78.8706 356.556 78.614C357.071 78.087 357.407 77.4116 357.516 76.6833C357.626 75.955 357.503 75.2107 357.166 74.5557C356.829 73.9008 356.295 73.3685 355.639 73.0341C354.982 72.6997 354.238 72.5801 353.51 72.6924C353.48 71.968 353.263 71.2637 352.88 70.6479C352.498 70.0322 351.962 69.5259 351.326 69.1783C350.689 68.8307 349.974 68.6537 349.249 68.6644C348.524 68.6751 347.814 68.8732 347.189 69.2394C346.373 68.5723 345.357 68.1973 344.304 68.174C343.25 68.1507 342.219 68.4805 341.374 69.1109C340.665 68.9755 339.93 69.0723 339.28 69.3871C338.63 69.7019 338.098 70.2178 337.764 70.8584C337.43 71.4991 337.312 72.2302 337.426 72.9435C337.541 73.6569 337.882 74.3143 338.399 74.8185" fill="#263238"/>
<path d="M340.653 72.4355H341.366C344.963 72.4386 348.428 73.7961 351.069 76.238C353.71 78.6798 355.336 82.0269 355.621 85.6128C356.156 92.526 356.655 100.167 356.598 103.877C356.463 111.582 348.8 112.724 348.8 112.724L349.421 121.955L330.779 121.349L329.23 87.8887C328.574 79.9053 332.662 72.8779 340.653 72.4355Z" fill="#FFBF9D"/>
<path d="M348.865 112.724C345.298 112.714 341.81 111.682 338.812 109.749C338.812 109.749 341.281 115.564 348.943 114.893L348.865 112.724Z" fill="#FF9A6C"/>
<path d="M351.405 92.8548C351.407 93.1407 351.297 93.4159 351.098 93.6214C350.899 93.8268 350.628 93.9461 350.342 93.9535C350.203 93.9632 350.063 93.9452 349.931 93.9004C349.798 93.8557 349.676 93.7852 349.571 93.693C349.467 93.6007 349.381 93.4886 349.32 93.3631C349.259 93.2376 349.223 93.1013 349.215 92.9619C349.215 92.6758 349.325 92.4009 349.523 92.1947C349.722 91.9885 349.992 91.8671 350.278 91.856C350.418 91.8464 350.558 91.8647 350.691 91.9098C350.824 91.955 350.946 92.0261 351.051 92.1191C351.156 92.2121 351.241 92.325 351.302 92.4513C351.363 92.5777 351.398 92.7148 351.405 92.8548Z" fill="#263238"/>
<path d="M353.959 89.3875C353.823 89.5302 352.989 88.9166 351.819 88.9166C350.649 88.9166 349.771 89.5016 349.643 89.3589C349.514 89.2163 349.721 89.0379 350.099 88.7597C350.611 88.408 351.219 88.2235 351.84 88.2317C352.453 88.2291 353.051 88.4243 353.545 88.7882C353.902 89.0664 354.023 89.3304 353.959 89.3875Z" fill="#263238"/>
<path d="M340.768 92.3409C340.773 92.6311 340.664 92.9118 340.464 93.1216C340.263 93.3315 339.988 93.4535 339.698 93.461C339.558 93.4707 339.418 93.4526 339.286 93.4079C339.154 93.3632 339.032 93.2926 338.927 93.2004C338.822 93.1082 338.737 92.9961 338.675 92.8706C338.614 92.7451 338.578 92.6087 338.57 92.4693C338.568 92.1828 338.678 91.9068 338.877 91.7002C339.076 91.4936 339.347 91.3728 339.633 91.3635C339.772 91.3528 339.912 91.3696 340.044 91.413C340.176 91.4564 340.298 91.5255 340.404 91.6163C340.509 91.7072 340.596 91.8179 340.658 91.9423C340.721 92.0666 340.758 92.2021 340.768 92.3409Z" fill="#263238"/>
<path d="M342.358 89.573C342.223 89.7157 341.388 89.1022 340.218 89.1022C339.048 89.1022 338.17 89.6872 338.042 89.5445C337.914 89.4018 338.121 89.2234 338.499 88.9452C339.01 88.5935 339.619 88.4091 340.239 88.4173C340.853 88.4147 341.451 88.6098 341.945 88.9737C342.301 89.252 342.423 89.5088 342.358 89.573Z" fill="#263238"/>
<path d="M346.61 98.3405C347.233 98.1448 347.877 98.0297 348.529 97.9981C348.829 97.9981 349.114 97.9124 349.171 97.7056C349.196 97.3949 349.127 97.084 348.972 96.8138L348.087 94.5165C346.86 91.2418 345.947 88.5521 346.104 88.5093C346.26 88.4665 347.338 91.0706 348.565 94.3381C348.857 95.1443 349.143 95.9148 349.414 96.6497C349.599 97.0153 349.652 97.4337 349.564 97.834C349.519 97.9397 349.451 98.0338 349.364 98.1092C349.278 98.1846 349.175 98.2393 349.064 98.2692C348.9 98.318 348.729 98.342 348.558 98.3405C347.911 98.4214 347.257 98.4214 346.61 98.3405Z" fill="#263238"/>
<path d="M343.393 85.0355C343.236 85.3352 342.23 85.0355 340.982 84.9642C339.733 84.8928 338.691 85.1283 338.577 84.8144C338.527 84.6645 338.748 84.4006 339.198 84.158C339.778 83.8716 340.421 83.7389 341.067 83.7728C341.707 83.7954 342.33 83.9875 342.872 84.3292C343.279 84.6075 343.464 84.9 343.393 85.0355Z" fill="#263238"/>
<path d="M354.03 84.5283C353.78 84.7923 352.803 84.5283 351.633 84.5283C350.463 84.5283 349.493 84.7067 349.243 84.4213C349.143 84.2858 349.3 84.0147 349.735 83.7649C350.335 83.4507 351.007 83.3005 351.683 83.3297C352.356 83.3388 353.013 83.5285 353.588 83.8791C354.001 84.1217 354.137 84.3928 354.03 84.5283Z" fill="#263238"/>
<path d="M354.894 82.1176C354.894 82.1176 352.882 77.3018 350.563 76.1746C347.759 74.8048 346.547 77.8797 343.871 77.1235C341.196 76.3672 338.52 75.0616 335.781 77.1235C332.784 79.378 334.183 80.9689 333.983 84.3792C333.198 98.1914 330.658 102.087 329.966 95.5802C329.888 94.8667 327.912 94.296 327.626 91.2995C327.255 87.397 327.12 82.6526 328.004 79.8845C328.718 77.5516 330.08 75.9392 332.47 74.177C336.252 71.3803 341.431 71.3232 344.948 71.7013C348.466 72.0795 355.229 76.0961 354.894 82.1176Z" fill="#263238"/>
<path d="M330.451 95.3658C330.443 95.084 330.378 94.8067 330.26 94.5507C330.141 94.2947 329.972 94.0654 329.763 93.8766C329.554 93.6878 329.308 93.5435 329.041 93.4525C328.774 93.3614 328.492 93.3254 328.211 93.3468C326.784 93.4824 325.178 94.2885 325.264 97.2493C325.414 102.5 330.658 101.266 330.665 101.109C330.672 100.952 330.536 97.5632 330.451 95.3658Z" fill="#FFBF9D"/>
<path d="M329.459 99.1682C329.459 99.1682 329.373 99.2395 329.216 99.3109C329.003 99.4087 328.761 99.4214 328.539 99.3466C328.192 99.1416 327.907 98.8475 327.712 98.495C327.518 98.1424 327.421 97.7443 327.433 97.3418C327.405 96.8937 327.479 96.4452 327.647 96.0291C327.692 95.8646 327.777 95.7136 327.894 95.5893C328.011 95.4649 328.156 95.371 328.317 95.3156C328.422 95.2838 328.535 95.29 328.635 95.333C328.736 95.3761 328.818 95.4533 328.867 95.551C328.938 95.6937 328.91 95.8008 328.938 95.8079C328.967 95.815 329.045 95.7151 328.995 95.5011C328.967 95.3709 328.891 95.2562 328.781 95.1801C328.709 95.1271 328.627 95.0891 328.54 95.0682C328.453 95.0474 328.363 95.0442 328.275 95.0588C328.06 95.1072 327.861 95.21 327.697 95.3574C327.534 95.5049 327.411 95.6919 327.34 95.9006C327.128 96.3603 327.032 96.865 327.062 97.3703C327.126 98.4262 327.697 99.4036 328.489 99.6034C328.63 99.6406 328.778 99.6452 328.921 99.6168C329.065 99.5884 329.2 99.5277 329.316 99.4393C329.459 99.2966 329.48 99.1682 329.459 99.1682Z" fill="#FF9A6C"/>
<path d="M330.587 85.1921C331.229 85.7157 331.991 86.0712 332.805 86.2266C333.214 86.2906 333.632 86.2046 333.982 85.9842C334.333 85.7639 334.591 85.4242 334.71 85.028C334.774 84.6641 334.71 84.2361 334.924 83.9578C335.138 83.6796 335.745 83.7295 336.18 83.7795C337.707 83.9436 339.497 82.2599 339.89 80.7759C340.088 81.0605 340.387 81.2588 340.727 81.3304C341.066 81.4019 341.42 81.3414 341.716 81.1612C342.202 80.8647 342.631 80.4856 342.986 80.0411C343.193 79.758 343.465 79.5291 343.779 79.3738C344.094 79.2186 344.441 79.1415 344.791 79.1493C345.161 79.2769 345.544 79.3607 345.933 79.399C346.646 79.3419 346.96 78.5357 347.067 77.8508C347.174 77.1659 347.26 76.374 347.845 76.003C348.445 75.7677 349.109 75.7501 349.721 75.953C350.356 76.0529 351.148 75.9031 351.341 75.2824C351.367 75.1165 351.359 74.9471 351.319 74.7841C351.279 74.6211 351.206 74.4679 351.105 74.3335C350.681 73.6972 350.054 73.2227 349.326 72.9871C348.598 72.7514 347.812 72.7683 347.096 73.0351C346.843 72.157 346.335 71.374 345.636 70.7858C344.937 70.1976 344.079 69.8307 343.17 69.732C342.262 69.6333 341.345 69.8072 340.536 70.2315C339.727 70.6559 339.062 71.3114 338.627 72.1147C338.071 71.6059 337.401 71.2389 336.673 71.0451C335.945 70.8513 335.18 70.8365 334.445 71.0019C333.71 71.1673 333.026 71.508 332.451 71.9949C331.876 72.4819 331.427 73.1006 331.143 73.7985C330.501 73.6271 329.822 73.6485 329.192 73.8598C328.562 74.0712 328.008 74.4632 327.599 74.9872C327.19 75.5111 326.944 76.1438 326.891 76.8064C326.839 77.4691 326.983 78.1325 327.305 78.7141C326.816 78.9555 326.396 79.3172 326.086 79.7652C325.775 80.2132 325.583 80.7328 325.528 81.2753C325.528 82.3597 326.563 83.4156 327.612 83.1588C327.394 83.5861 327.348 84.0805 327.484 84.5404C327.62 85.0003 327.926 85.3909 328.341 85.6319C328.755 85.873 329.246 85.9462 329.713 85.8365C330.18 85.7269 330.587 85.4427 330.851 85.0423" fill="#263238"/>
<path d="M347.48 74.5762C347.48 74.5762 347.48 74.5762 347.48 74.6761C347.48 74.7759 347.48 74.833 347.445 74.9543C347.371 75.3103 347.241 75.6523 347.059 75.9674C346.77 76.4611 346.372 76.883 345.897 77.2016C345.268 77.6305 344.517 77.8433 343.756 77.8081L343.842 77.6939C343.996 78.165 343.958 78.678 343.735 79.1208C343.499 79.5902 343.196 80.0228 342.836 80.405C342.661 80.6278 342.462 80.8312 342.244 81.0114C341.856 81.2667 341.389 81.376 340.928 81.3199C340.467 81.2637 340.041 81.0457 339.725 80.7046L339.918 80.6475C339.844 81.1927 339.657 81.7164 339.368 82.1846C339.079 82.6528 338.695 83.0552 338.241 83.3658C337.743 83.7366 337.136 83.9345 336.515 83.9294C335.932 83.8976 335.358 83.7698 334.817 83.5512L334.96 83.487C334.685 84.1224 334.255 84.679 333.711 85.1065C333.462 85.3194 333.169 85.4741 332.853 85.5593C332.538 85.6444 332.206 85.658 331.885 85.5988C331.333 85.4788 330.828 85.2001 330.433 84.797C330.037 84.3939 329.768 83.8841 329.659 83.3301L329.78 83.3872C329.225 83.6747 328.588 83.7652 327.975 83.644C327.518 83.5569 327.088 83.3638 326.719 83.0804C326.49 82.9004 326.292 82.6834 326.134 82.4383C326.077 82.3532 326.033 82.2592 326.006 82.16C326.205 82.4881 326.464 82.776 326.769 83.009C327.133 83.272 327.553 83.4455 327.996 83.5156C328.579 83.6259 329.182 83.53 329.701 83.2445L329.801 83.1874V83.3015C329.909 83.8172 330.165 84.2901 330.538 84.6626C330.91 85.0351 331.383 85.291 331.899 85.3991C332.193 85.4504 332.495 85.4354 332.782 85.3552C333.07 85.275 333.336 85.1315 333.561 84.9353C334.072 84.5289 334.474 84.0018 334.731 83.4014L334.774 83.3087H334.874C335.39 83.5164 335.938 83.6369 336.493 83.6654C337.069 83.67 337.63 83.4872 338.092 83.1446C338.519 82.8511 338.881 82.4718 339.153 82.0308C339.426 81.5899 339.604 81.0969 339.675 80.5833V80.3336L339.839 80.5263C340.025 80.7312 340.258 80.8877 340.518 80.9822C340.778 81.0767 341.057 81.1063 341.331 81.0685C341.586 81.0344 341.83 80.9416 342.044 80.7974C342.25 80.6313 342.437 80.4422 342.6 80.2338C342.953 79.8698 343.251 79.4564 343.485 79.0066C343.59 78.8063 343.655 78.5871 343.674 78.3617C343.694 78.1364 343.668 77.9093 343.599 77.6939L343.556 77.5655H343.692C344.421 77.6107 345.144 77.4179 345.754 77.0161C346.222 76.7147 346.617 76.3125 346.91 75.839C347.173 75.4551 347.366 75.0275 347.48 74.5762Z" fill="#455A64"/>
<path d="M346.596 102.257C346.553 102.065 345.276 102.379 344.092 101.508C342.907 100.638 342.715 99.2394 342.536 99.2751C342.358 99.3108 342.358 99.6461 342.486 100.224C342.662 100.978 343.099 101.645 343.721 102.107C344.314 102.55 345.056 102.744 345.79 102.65C346.339 102.564 346.624 102.343 346.596 102.257Z" fill="#263238"/>
<path d="M386.164 301.871L391.229 319.129C391.229 319.129 410.492 319.771 411.726 322.875L378.58 333.89L369.576 307.315L386.164 301.871Z" fill="#455A64"/>
<path d="M380.513 321.105C380.227 321.309 380.026 321.61 379.948 321.952C379.871 322.295 379.922 322.653 380.092 322.96C380.284 323.254 380.581 323.462 380.922 323.543C381.263 323.624 381.622 323.571 381.926 323.395C382.229 323.179 382.441 322.858 382.522 322.494C382.602 322.131 382.545 321.75 382.361 321.426C382.128 321.14 381.794 320.955 381.429 320.91C381.063 320.865 380.694 320.963 380.399 321.184" fill="#E0E0E0"/>
<path d="M409.857 321.627C409.857 321.627 411.547 321.776 411.726 322.875L378.579 333.891L377.78 331.172L409.828 321.612" fill="#263238"/>
<path d="M391.707 318.779C391.757 318.944 390.993 319.286 390.351 320.071C389.709 320.856 389.531 321.676 389.359 321.662C389.188 321.647 389.124 320.634 389.894 319.7C390.665 318.765 391.692 318.622 391.707 318.779Z" fill="white"/>
<path d="M395.659 319.057C395.752 319.207 395.145 319.714 394.817 320.577C394.489 321.44 394.582 322.225 394.418 322.268C394.254 322.311 393.847 321.433 394.268 320.363C394.689 319.293 395.609 318.908 395.659 319.057Z" fill="white"/>
<path d="M399.02 322.561C398.884 322.647 398.392 321.912 398.513 320.892C398.634 319.871 399.269 319.258 399.384 319.372C399.498 319.486 399.184 320.085 399.098 320.956C399.013 321.826 399.177 322.475 399.02 322.561Z" fill="white"/>
<path d="M390.116 314.977C390.116 315.149 389.281 315.17 388.389 315.534C387.498 315.898 386.877 316.426 386.748 316.319C386.62 316.212 387.112 315.405 388.175 314.984C389.238 314.564 390.159 314.82 390.116 314.977Z" fill="white"/>
<path d="M308.869 302.021L301.656 318.502C301.656 318.502 315.989 331.344 314.955 334.54L282.493 321.698L292.674 295.558L308.869 302.021Z" fill="#455A64"/>
<path d="M292.175 313.129C291.826 313.102 291.479 313.204 291.2 313.416C290.921 313.627 290.729 313.934 290.662 314.278C290.622 314.626 290.717 314.977 290.926 315.258C291.136 315.539 291.444 315.729 291.79 315.791C292.16 315.818 292.528 315.708 292.823 315.482C293.117 315.256 293.319 314.929 293.388 314.563C293.388 313.85 292.738 313.037 292.039 313.137" fill="#E0E0E0"/>
<path d="M314.32 332.385C314.32 332.385 315.518 333.591 314.955 334.525L282.493 321.684L283.628 319.094L314.305 332.364" fill="#263238"/>
<path d="M302.241 318.544C302.177 318.701 301.357 318.458 300.372 318.658C299.388 318.858 298.71 319.372 298.589 319.243C298.467 319.115 299.067 318.301 300.258 318.08C301.45 317.859 302.341 318.408 302.241 318.544Z" fill="white"/>
<path d="M305.095 321.298C305.095 321.462 304.282 321.462 303.476 321.919C302.67 322.375 302.241 323.025 302.049 322.96C301.856 322.896 302.149 321.954 303.155 321.405C304.161 320.856 305.152 321.148 305.095 321.298Z" fill="white"/>
<path d="M305.424 326.135C305.267 326.135 305.359 325.236 306.137 324.53C306.915 323.824 307.764 323.767 307.778 323.924C307.792 324.08 307.15 324.366 306.544 324.958C305.937 325.55 305.588 326.185 305.424 326.135Z" fill="white"/>
<path d="M303.476 314.627C303.354 314.741 302.712 314.242 301.792 313.914C300.872 313.585 300.065 313.628 300.037 313.464C300.008 313.3 300.9 312.993 301.977 313.35C303.055 313.707 303.604 314.513 303.476 314.627Z" fill="white"/>
<path d="M321.019 211.485L309.647 257.616C309.647 257.616 289.136 292.147 285.661 309.426L304.425 316.803C304.425 316.803 318.073 283.521 322.075 277.414C323.876 274.677 325.946 272.127 328.253 269.802C329.754 268.313 330.83 266.452 331.371 264.408L339.982 231.497L321.019 211.485Z" fill="#263238"/>
<path d="M316.175 204.109C316.175 204.109 317.759 216.466 329.652 221.945L354.708 262.754C354.708 262.754 356.67 276.024 360.415 287.203C364.161 298.383 371.73 319.929 371.73 319.929L392.342 312.224L379.207 267.32L377.067 251.745L356.62 199.664L339.055 189.134L316.175 204.109Z" fill="#263238"/>
<path d="M316.175 204.108L316.553 203.852L317.687 203.095L322.139 200.156L339.019 189.062L339.076 189.026L339.133 189.062L356.712 199.571V199.614L377.202 251.645V251.681C377.88 256.603 378.629 261.876 379.343 267.255C382.91 279.384 386.691 292.361 390.601 305.731C391.233 307.885 391.861 310.026 392.484 312.152L392.534 312.316L392.37 312.373L371.759 320.078L371.581 320.142L371.523 319.964C367.956 309.612 364.503 299.645 361.243 290.192C360.422 287.831 359.616 285.491 358.946 283.151C358.275 280.81 357.668 278.485 357.119 276.187C356.035 271.593 355.164 267.105 354.479 262.753V262.81L329.566 221.987L329.609 222.023C326.596 220.614 323.919 218.575 321.761 216.044C320.179 214.186 318.881 212.104 317.908 209.866C317.307 208.484 316.829 207.052 316.482 205.585C316.36 205.1 316.289 204.722 316.246 204.465C316.203 204.208 316.196 204.08 316.196 204.08C316.196 204.08 316.196 204.208 316.275 204.458C316.353 204.708 316.396 205.086 316.532 205.578C316.9 207.025 317.391 208.438 318.001 209.802C318.986 212.017 320.288 214.077 321.868 215.916C324.034 218.42 326.71 220.434 329.716 221.823L354.822 262.603V262.639C355.535 266.977 356.391 271.457 357.476 276.045C358.025 278.335 358.624 280.653 359.302 282.986C359.98 285.319 360.779 287.645 361.6 290.007C364.874 299.46 368.32 309.426 371.902 319.771L371.666 319.664L392.277 311.959L392.163 312.18C391.545 310.054 390.917 307.914 390.28 305.759L379.036 267.276C378.323 261.897 377.566 256.625 376.896 251.702V251.745L356.484 199.664L356.541 199.728L338.991 189.176H339.098L322.218 200.22L317.723 203.117L316.567 203.866L316.175 204.108Z" fill="#455A64"/>
<path d="M327.212 115.948C327.212 115.948 321.204 120.571 318.287 125.737C314.791 131.922 314.413 141.09 314.306 155.33C314.199 168.5 316.168 172.16 315.411 177.126C313.92 186.821 312.814 219.361 312.814 219.361C312.814 219.361 332.077 211.963 335.816 208.66L339.576 205.392L363.683 213.361L358.817 183.739L355.478 146.819L351.198 127.235L350.484 119.551L329.78 111.232L327.212 115.948Z" fill="#455A64"/>
<path d="M349.707 119.145C349.957 119.195 349.115 120.886 347.631 123.369L347.567 123.469L347.452 123.426C345.362 122.613 342.594 121.592 339.569 120.486C336.159 119.245 333.077 118.089 330.872 117.19C329.766 116.741 328.882 116.363 328.275 116.085C327.953 115.96 327.643 115.807 327.348 115.628C327.686 115.703 328.016 115.813 328.332 115.956L330.965 116.948L339.697 120.137C342.722 121.243 345.483 122.277 347.545 123.162L347.374 123.219C348.929 120.786 349.85 119.181 349.707 119.145Z" fill="#263238"/>
<path d="M374.62 103.763C374.62 103.763 373.093 101.388 371.652 99.1974C370.211 97.0071 368.028 95.9299 367.678 94.7883C367.329 93.6468 365.409 88.56 365.103 87.2972C364.836 86.0743 364.711 84.8246 364.732 83.5731C364.732 83.5731 366.308 82.9024 367.065 85.1569C367.521 86.5124 368.977 91.1141 369.29 91.3424C369.604 91.5707 370.004 91.2354 370.004 91.2354C369.356 89.5124 368.796 87.7575 368.327 85.9774C368.256 85.1426 368.548 79.6063 368.548 79.6063C368.94 79.5275 369.346 79.5914 369.694 79.7864C370.042 79.9814 370.309 80.2946 370.446 80.6694C371.195 82.0963 371.224 85.6635 371.224 85.6635L372.358 89.6444L371.959 85.7063L372.529 78.4648C373.084 78.5439 373.6 78.7917 374.009 79.1747C374.417 79.5576 374.698 80.0571 374.812 80.6052C375.291 82.56 374.656 85.2853 374.977 85.8632C375.298 86.4411 375.647 89.937 375.647 89.937C375.647 89.937 376.04 81.447 376.946 81.2045C377.852 80.9619 378.594 81.8608 378.465 83.5731C378.337 85.2853 378.301 88.9096 378.772 90.5077C379.243 92.1058 384.073 98.3555 383.681 101.095C383.44 102.75 383.29 104.418 383.231 106.089H374.955L374.62 103.763Z" fill="#FFBF9D"/>
<path d="M345.591 125.145C346.054 125.324 365.824 130.218 365.824 130.218C365.824 130.218 370.24 123.083 370.889 121.014C371.538 118.945 375.013 105.162 375.013 105.162L383.367 104.377C383.367 104.377 381.227 139.97 378.202 141.89C375.177 143.809 370.354 144.779 370.04 144.672C369.726 144.565 348.673 146.028 337.579 137.288C326.485 128.548 345.591 125.145 345.591 125.145Z" fill="#FFBF9D"/>
<g opacity="0.3">
<path d="M331.421 143.987C333.543 146.388 336.374 148.052 339.504 148.738C344.748 149.894 355.913 151.941 355.913 151.941L355.371 146.462L331.114 143.865" fill="black"/>
</g>
<path d="M322.617 136.453C324.415 140.248 328.41 144.301 337.193 145.221C354.579 147.019 367.742 147.975 373.428 147.119C379.114 146.263 381.376 134.227 381.99 133.856C383.759 132.743 383.645 128.919 382.118 127.777C377.78 124.531 369.084 122.07 368.499 122.334C365.038 124.053 366.166 128.077 366.166 128.077L344.12 123.211C341.581 122.155 338.932 121.385 336.222 120.914" fill="#455A64"/>
<path d="M336.222 120.914C336.222 120.914 336.408 120.914 336.765 120.986C337.121 121.057 337.656 121.143 338.341 121.292C340.33 121.743 342.277 122.359 344.163 123.133L366.194 127.927L366.008 128.127C365.682 126.863 365.783 125.526 366.294 124.325C366.576 123.709 367.001 123.171 367.535 122.755C367.806 122.544 368.095 122.358 368.398 122.198C368.503 122.167 368.611 122.151 368.72 122.149H368.984C369.162 122.149 369.319 122.206 369.49 122.234C372.201 122.875 374.845 123.771 377.388 124.91C378.728 125.493 380.023 126.175 381.262 126.95C381.569 127.15 381.875 127.371 382.182 127.585C382.499 127.826 382.758 128.136 382.938 128.491C383.286 129.192 383.467 129.963 383.466 130.745C383.485 131.537 383.308 132.321 382.953 133.028C382.756 133.393 382.477 133.708 382.139 133.949C382.054 133.992 381.997 134.177 381.925 134.348L381.74 134.883C381.269 136.31 380.798 137.837 380.227 139.307C379.48 141.414 378.385 143.382 376.988 145.128C376.482 145.792 375.836 146.337 375.097 146.724C374.357 147.111 373.542 147.331 372.708 147.369C372.173 147.447 371.638 147.461 371.11 147.504C368.969 147.633 366.915 147.604 364.881 147.547C362.848 147.49 360.857 147.383 358.924 147.262C351.169 146.762 344.213 146.056 338.377 145.449C336.983 145.327 335.597 145.127 334.225 144.85C333.007 144.59 331.814 144.227 330.658 143.766C328.784 143.038 327.067 141.958 325.599 140.584C324.683 139.707 323.895 138.706 323.259 137.609C323.031 137.232 322.833 136.839 322.667 136.432C322.667 136.432 322.867 136.838 323.323 137.573C323.983 138.642 324.782 139.619 325.699 140.477C327.165 141.821 328.875 142.872 330.736 143.573C331.894 144.02 333.087 144.371 334.303 144.622C335.671 144.884 337.053 145.072 338.441 145.185C344.277 145.763 351.233 146.441 358.974 146.926C360.914 147.04 362.898 147.14 364.924 147.19C366.95 147.24 369.026 147.269 371.124 147.147C371.645 147.098 372.18 147.083 372.701 147.005C373.22 146.977 373.734 146.879 374.227 146.712C375.213 146.332 376.083 145.703 376.753 144.886C378.12 143.173 379.19 141.244 379.921 139.178C380.491 137.751 380.955 136.246 381.426 134.776L381.626 134.22C381.626 134.134 381.697 134.042 381.74 133.942C381.766 133.887 381.797 133.834 381.833 133.785C381.86 133.75 381.891 133.719 381.925 133.692L381.975 133.649C382.271 133.444 382.516 133.173 382.689 132.857C383.022 132.194 383.184 131.459 383.16 130.717C383.162 129.995 382.998 129.282 382.682 128.634C382.526 128.327 382.304 128.059 382.032 127.849C381.726 127.642 381.433 127.421 381.126 127.228C379.905 126.459 378.626 125.784 377.302 125.209C374.788 124.076 372.172 123.182 369.49 122.541C369.326 122.541 369.162 122.47 369.005 122.455H368.769H368.613C368.332 122.605 368.064 122.78 367.813 122.976C367.316 123.351 366.917 123.841 366.651 124.403C366.178 125.531 366.08 126.782 366.372 127.97L366.437 128.22L366.187 128.163L344.191 123.24C342.323 122.454 340.395 121.815 338.427 121.328C337.713 121.164 337.221 121.05 336.864 120.978C336.508 120.907 336.222 120.914 336.222 120.914Z" fill="#263238"/>
<path d="M373.428 134.962C372.922 134.836 372.439 134.626 372.002 134.341C370.908 133.731 369.9 132.978 369.005 132.101C368.106 131.228 367.32 130.245 366.665 129.176C366.367 128.738 366.139 128.257 365.987 127.749C366.965 129.19 368.06 130.548 369.262 131.808C370.554 132.982 371.948 134.037 373.428 134.962Z" fill="#263238"/>
<path d="M218.213 193.721C218.213 193.721 222.636 193.956 225.347 195.676C228.058 197.395 232.482 200.049 234.301 203.359C235.136 204.879 232.76 205.2 231.59 204.315C230.42 203.431 228.615 201.775 227.723 201.569L226.831 201.369C227.644 203.21 228.552 205.008 229.55 206.755C230.47 208.182 231.269 210.551 228.508 210.665C228.508 210.665 226.639 213.091 224.755 211.293C224.755 211.293 223.286 213.49 220.917 210.444C220.917 210.444 219.54 212.185 218.962 211.521C218.384 210.858 216.501 209.795 215.951 207.611C215.132 205.069 214.179 202.57 213.098 200.127L218.213 193.721Z" fill="#FFBF9D"/>
<path d="M180.572 135.554C178.305 136.284 176.348 137.753 175.014 139.727C173.316 142.339 172.795 146.862 173.281 150.229C174.308 157.328 177.561 169.307 179.395 176.997C180.023 179.651 181.314 184.403 185.102 186.921L212.135 203.131L219.362 192.429L194.719 172.346L189.847 144.821L180.572 135.554Z" fill="#455A64"/>
<path d="M175.898 162.608C175.935 162.698 175.964 162.791 175.984 162.886L176.212 163.721C176.405 164.477 176.676 165.562 177.033 166.953C177.746 169.807 178.759 173.859 180.022 178.903C180.755 181.65 182.308 184.109 184.474 185.952C185.711 186.942 187.034 187.821 188.426 188.577L192.771 191.203L212.241 202.96L211.991 203.017L214.595 199.157L219.219 192.287L219.254 192.537L194.833 172.425H194.79V172.375C193.178 165.59 192.008 160.032 191.266 156.166C190.902 154.232 190.645 152.727 190.481 151.699C190.41 151.2 190.353 150.808 190.31 150.529C190.267 150.251 190.26 150.13 190.26 150.13C190.299 150.259 190.33 150.39 190.353 150.522C190.403 150.801 190.474 151.186 190.56 151.685C190.752 152.705 191.03 154.211 191.43 156.137C192.208 159.99 193.421 165.533 195.069 172.311L195.019 172.232L219.482 192.251L219.611 192.358L219.518 192.494L214.895 199.364L212.291 203.224L212.198 203.367L212.041 203.281L192.6 191.488L188.262 188.855C186.861 188.091 185.528 187.206 184.281 186.209C182.078 184.322 180.507 181.804 179.78 178.996C178.56 173.937 177.582 169.849 176.926 167.017C176.605 165.59 176.348 164.527 176.17 163.771L175.963 162.893C175.935 162.8 175.913 162.704 175.898 162.608Z" fill="#263238"/>
<path d="M176.341 139.357C176.509 139.247 176.695 139.167 176.89 139.122C177.408 138.962 177.938 138.842 178.474 138.765C180.263 138.489 182.095 138.737 183.746 139.478C185.343 140.311 186.699 141.539 187.685 143.046C187.983 143.501 188.223 143.992 188.398 144.508C188.475 144.692 188.518 144.887 188.526 145.086C188.218 144.431 187.863 143.799 187.463 143.195C186.448 141.789 185.119 140.639 183.582 139.835C181.988 139.129 180.235 138.858 178.503 139.05C177.168 139.157 176.362 139.421 176.341 139.357Z" fill="#263238"/>
</svg>
