<svg width="32" height="32" viewBox="0 0 32 32" fill="none" xmlns="http://www.w3.org/2000/svg">
<path d="M7.33306 0.016153C7.40988 0.0159466 7.48671 0.0157402 7.56587 0.0155275C7.82218 0.0149272 8.07849 0.0148195 8.3348 0.0147156C8.51906 0.0143938 8.70332 0.0140461 8.88758 0.0136704C9.38747 0.01273 9.88737 0.0123087 10.3873 0.0120024C10.7 0.0118099 11.0127 0.0115154 11.3254 0.0112031C12.1928 0.0103565 13.0603 0.00964094 13.9277 0.00940559C13.9831 0.00939033 14.0386 0.00937508 14.0957 0.00935937C14.1513 0.0093442 14.2068 0.00932904 14.2641 0.00931341C14.3766 0.00928261 14.4892 0.00925158 14.6018 0.00922035C14.6576 0.00920496 14.7134 0.00918958 14.771 0.00917373C15.6745 0.00889981 16.5781 0.00768815 17.4817 0.00606919C18.4115 0.00441679 19.3413 0.00355579 20.2711 0.00347501C20.7922 0.0034116 21.3134 0.00301893 21.8346 0.00175078C22.2786 0.000674078 22.7227 0.000329084 23.1667 0.000898933C23.3927 0.00116796 23.6187 0.00100106 23.8448 0.00013077C25.9654 -0.00755081 27.8002 0.320509 29.4777 1.69321C29.523 1.72795 29.5683 1.7627 29.615 1.7985C30.6057 2.58552 31.3177 3.85049 31.6837 5.04517C31.6975 5.08893 31.7113 5.13269 31.7255 5.17777C32.0421 6.27867 31.999 7.43638 31.997 8.56946C31.9972 8.74988 31.9974 8.9303 31.9977 9.11071C31.9983 9.54744 31.9982 9.98416 31.9978 10.4209C31.9975 10.7762 31.9974 11.1315 31.9976 11.4869C31.9976 11.5377 31.9976 11.5885 31.9977 11.6409C31.9977 11.7441 31.9977 11.8474 31.9978 11.9507C31.9982 12.9162 31.9977 13.8817 31.997 14.8472C31.9964 15.6734 31.9965 16.4996 31.9971 17.3258C31.9979 18.2882 31.9981 19.2505 31.9977 20.2129C31.9977 20.3158 31.9976 20.4186 31.9976 20.5215C31.9976 20.5721 31.9975 20.6227 31.9975 20.6748C31.9974 21.0292 31.9976 21.3836 31.9979 21.738C31.9984 22.216 31.9981 22.6941 31.9973 23.1722C31.9971 23.3469 31.9971 23.5217 31.9974 23.6964C32.0009 25.8722 31.7246 27.7552 30.3114 29.4815C30.2767 29.5268 30.2419 29.5721 30.2061 29.6188C29.11 30.9982 27.3163 31.7584 25.6113 31.9676C25.298 31.9961 24.9843 31.9922 24.67 31.9917C24.5545 31.992 24.5545 31.992 24.4367 31.9922C24.1796 31.9927 23.9224 31.9926 23.6652 31.9926C23.4805 31.9928 23.2958 31.993 23.1111 31.9933C22.6618 31.9938 22.2126 31.994 21.7633 31.9941C21.3978 31.9941 21.0324 31.9942 20.6669 31.9945C19.6293 31.9951 18.5917 31.9954 17.5541 31.9953C17.4982 31.9953 17.4423 31.9953 17.3847 31.9953C17.3288 31.9953 17.2728 31.9953 17.2152 31.9953C16.3092 31.9953 15.4032 31.996 14.4972 31.9969C13.5655 31.9979 12.6338 31.9984 11.7022 31.9984C11.1797 31.9983 10.6572 31.9985 10.1347 31.9993C9.68965 31.9999 9.24464 32.0001 8.79963 31.9996C8.57294 31.9994 8.34627 31.9994 8.11959 32C5.73016 32.0052 3.79964 31.5518 2.01134 29.881C0.623225 28.4649 0.00528685 26.6253 0.00825424 24.6662C0.00809683 24.5892 0.00793933 24.5122 0.00777715 24.4328C0.00733886 24.1759 0.0073942 23.919 0.00745167 23.6621C0.00724367 23.4774 0.00700918 23.2927 0.00674451 23.108C0.00616892 22.6591 0.00597651 22.2101 0.0059377 21.7612C0.00590461 21.3959 0.00576156 21.0307 0.00554171 20.6655C0.00493022 19.6285 0.00460905 18.5914 0.00466121 17.5544C0.00466399 17.4986 0.00466684 17.4427 0.0046697 17.3852C0.00467396 17.3014 0.00467383 17.3014 0.00467818 17.2158C0.0047064 16.3104 0.00404184 15.405 0.0030619 14.4996C0.00206203 13.5684 0.00158448 12.6371 0.00164441 11.7059C0.00166741 11.1837 0.00147892 10.6615 0.000728394 10.1394C9.3315e-05 9.69467 -5.30625e-05 9.24998 0.000416695 8.80529C0.000642345 8.57878 0.000575099 8.35228 4.45641e-05 8.12577C-0.00518572 5.73711 0.448539 3.8071 2.11936 2.01939C3.53526 0.631862 5.37423 0.014489 7.33306 0.016153ZM3.70006 3.77733C3.65178 3.82417 3.60351 3.871 3.55377 3.91926C2.65615 4.84452 2.29758 6.05757 2.30208 7.32326C2.30202 7.38495 2.30196 7.44664 2.3019 7.5102C2.30178 7.71606 2.30216 7.92192 2.30254 8.12778C2.30256 8.27569 2.30255 8.4236 2.30251 8.57151C2.30249 8.97251 2.3029 9.3735 2.30339 9.7745C2.30382 10.1938 2.30386 10.613 2.30394 11.0323C2.30416 11.826 2.30473 12.6197 2.30543 13.4134C2.3062 14.3171 2.30659 15.2208 2.30693 16.1245C2.30766 17.9833 2.30888 19.842 2.31043 21.7008C2.5609 21.4528 2.79657 21.1982 3.02262 20.9279C3.05589 20.8884 3.08916 20.8489 3.12345 20.8081C3.38079 20.5016 3.63412 20.1919 3.88679 19.8815C4.06563 19.664 4.24727 19.4491 4.42961 19.2346C4.67258 18.9487 4.9131 18.6611 5.15048 18.3705C5.20127 18.3087 5.25205 18.2468 5.30437 18.183C5.38071 18.0886 5.45608 17.9933 5.52856 17.8959C6.09217 17.1517 7.10306 16.7305 7.99922 16.586C8.09465 16.5762 8.1902 16.5675 8.28583 16.56C8.35395 16.5543 8.35395 16.5543 8.42344 16.5486C9.46052 16.5058 10.4904 16.8595 11.2779 17.5325C11.9374 18.1681 12.518 18.8951 13.08 19.6167C13.4469 19.3279 13.7263 19.0127 14.0167 18.6481C14.206 18.4184 14.405 18.2011 14.6086 17.9841C14.8622 17.7135 15.1059 17.4399 15.3382 17.1505C15.6035 16.8198 15.886 16.5106 16.1757 16.2017C16.3962 15.9652 16.6041 15.7229 16.806 15.4701C17.5947 14.4996 18.4822 13.776 19.7503 13.5727C20.9505 13.4605 22.0789 13.6442 23.0517 14.4039C23.7012 14.9685 24.2581 15.6239 24.7961 16.2927C25.0168 16.5568 25.2513 16.8065 25.4865 17.0576C25.7576 17.3487 26.0087 17.6522 26.2576 17.9624C26.4436 18.1855 26.6389 18.3975 26.8374 18.6093C27.1472 18.9401 27.4375 19.2808 27.7214 19.6343C27.9252 19.88 28.1416 20.1131 28.3592 20.3464C28.6278 20.6361 28.8756 20.9396 29.1186 21.2511C29.238 21.3873 29.3483 21.4937 29.4871 21.6073C29.5528 21.6611 29.6184 21.7149 29.6861 21.7703C29.691 19.8227 29.6947 17.8751 29.6969 15.9276C29.698 15.0232 29.6994 14.1189 29.7018 13.2145C29.7039 12.426 29.7053 11.6374 29.7057 10.8489C29.706 10.4316 29.7066 10.0144 29.7081 9.59714C29.7096 9.20375 29.71 8.81038 29.7097 8.41699C29.7097 8.27325 29.7101 8.12951 29.711 7.98577C29.7163 6.9809 29.7104 5.97139 29.2128 5.06688C29.1759 4.99701 29.1759 4.99701 29.1382 4.92574C28.9558 4.58731 28.7634 4.27195 28.5049 3.98574C28.429 3.90152 28.429 3.90152 28.3516 3.81559C27.511 2.93016 26.4204 2.39157 25.1927 2.30542C24.9918 2.30028 24.7914 2.29925 24.5905 2.29987C24.5141 2.29955 24.4377 2.29924 24.359 2.29891C24.1047 2.29804 23.8504 2.29815 23.596 2.29826C23.413 2.29785 23.23 2.29738 23.047 2.29685C22.6023 2.2957 22.1576 2.29531 21.713 2.29523C21.3511 2.29517 20.9893 2.29488 20.6274 2.29444C19.5994 2.29322 18.5713 2.29258 17.5433 2.29268C17.4603 2.29269 17.4603 2.29269 17.3756 2.2927C17.3202 2.2927 17.2648 2.29271 17.2077 2.29272C16.3108 2.29277 15.414 2.29144 14.5171 2.28948C13.5941 2.28748 12.6712 2.28653 11.7482 2.28665C11.2309 2.28669 10.7135 2.28632 10.1962 2.28482C9.75554 2.28355 9.3149 2.28326 8.87424 2.28419C8.64991 2.28464 8.42562 2.28451 8.20129 2.28345C6.45617 2.27571 4.96871 2.47282 3.70006 3.77733Z" fill="#55417C"/>
<path d="M10.5155 6.24056C11.0545 6.66569 11.4025 7.27953 11.5515 7.94558C11.6381 8.80566 11.5897 9.60221 11.0781 10.325C11.0057 10.413 10.9319 10.4999 10.8566 10.5855C10.8044 10.6486 10.8044 10.6486 10.7511 10.713C10.3465 11.1637 9.72929 11.5169 9.11796 11.5704C8.08077 11.6001 7.29368 11.4997 6.47932 10.7939C5.84168 10.1148 5.53585 9.355 5.55923 8.424C5.62994 7.58132 5.95457 6.90376 6.57051 6.3217C7.76632 5.33109 9.2672 5.37039 10.5155 6.24056Z" fill="#55417C"/>
</svg>
