<svg width="171" height="36" viewBox="0 0 171 36" fill="none" xmlns="http://www.w3.org/2000/svg">
<path fill-rule="evenodd" clip-rule="evenodd" d="M32.6021 0H4.395C3.22937 0 2.11149 0.456897 1.28726 1.27018C0.463043 2.08346 0 3.1865 0 4.33665V27.2457C0.464355 27.2216 0.926273 27.3264 1.33334 27.5481C1.74041 27.7699 2.07633 28.0999 2.30298 28.5005C3.06657 28.1298 3.91558 27.9639 4.76472 28.0195C5.61385 28.0751 6.4332 28.3503 7.14046 28.8173C7.84771 29.2843 8.41796 29.9267 8.79391 30.68C9.16986 31.4333 9.33827 32.271 9.28223 33.1089C9.64496 33.1291 10 33.2202 10.3268 33.3769C10.6535 33.5336 10.9454 33.7528 11.1856 34.0218C11.4258 34.2908 11.6094 34.6042 11.7257 34.9438C11.8421 35.2834 11.889 35.6424 11.8636 36H32.605C33.7706 36 34.8885 35.5431 35.7127 34.7298C36.537 33.9165 37 32.8135 37 31.6633V4.33665C37 3.76691 36.8862 3.20276 36.6652 2.67642C36.4441 2.15009 36.1201 1.67189 35.7117 1.26915C35.3033 0.866421 34.8184 0.547046 34.2849 0.329279C33.7513 0.111512 33.1795 -0.000378863 32.6021 0ZM26.0476 27.3643H21.5355V19.8127H15.6432V27.3643H11.134V8.84386H15.6462V15.7102H21.5355V8.84386H26.0476V27.3643Z" fill="url(#paint0_linear_0_1)"/>
<path d="M26.0476 27.3643H21.5355V19.8127H15.6432V27.3643H11.134V8.84386H15.6462V15.7102H21.5355V8.84386H26.0476V27.3643Z" fill="white"/>
<path d="M58.7924 27.4884H55.2377V20.3977H48.5807V27.4884H45V11.062H48.5807V17.4978H55.2409V11.062H58.7956L58.7924 27.4884Z" fill="#36264E"/>
<path d="M72.5588 21.183C72.5588 23.2265 72.0065 24.8249 70.9019 25.9781C69.7973 27.1312 68.2608 27.7089 66.2925 27.711C65.1549 27.7321 64.0319 27.4589 63.0372 26.9193C62.0947 26.3925 61.3368 25.6001 60.8628 24.6458C60.336 23.5665 60.0762 22.3815 60.1043 21.1862C60.1043 19.1342 60.6523 17.5444 61.7482 16.4167C62.8441 15.2889 64.3849 14.7197 66.3706 14.7091C67.5074 14.6878 68.6299 14.9586 69.6258 15.4945C70.5669 16.016 71.3248 16.8028 71.8003 17.7521C72.3247 18.822 72.5845 19.9972 72.5588 21.183ZM63.6688 21.183C63.6688 22.4274 63.8782 23.3675 64.297 24.0035C64.7159 24.6394 65.3962 24.9574 66.338 24.9574C67.2734 24.9574 67.9461 24.6394 68.3563 24.0035C68.7664 23.3675 68.9715 22.4253 68.9715 21.1767C68.9715 19.9345 68.7643 19.0018 68.3498 18.3785C67.9353 17.7553 67.2571 17.4448 66.3153 17.4469C65.3799 17.4469 64.705 17.7553 64.2905 18.3722C63.876 18.989 63.6688 19.926 63.6688 21.183Z" fill="#36264E"/>
<path d="M79.2645 27.711C75.2628 27.711 73.2619 25.5658 73.2619 21.2753C73.2619 19.1406 73.8044 17.5095 74.8895 16.3817C75.9746 15.254 77.5349 14.6901 79.5705 14.6901C80.9539 14.6684 82.3235 14.9612 83.5712 15.5454L82.536 18.1973C81.9848 17.9853 81.4715 17.8073 80.9963 17.6631C80.5338 17.5269 80.0535 17.4573 79.5705 17.4565C77.7454 17.4565 76.8329 18.722 76.8329 21.253C76.8372 23.7141 77.7519 24.9447 79.577 24.9447C80.2121 24.9505 80.8444 24.8615 81.452 24.6808C82.0645 24.4869 82.6455 24.2085 83.1773 23.8541V26.7858C82.6501 27.1214 82.0692 27.3686 81.4585 27.5171C80.7371 27.6632 80.001 27.7283 79.2645 27.711Z" fill="#36264E"/>
<path d="M87.6402 20.6552L89.1702 18.7474L92.7704 14.9317H96.7255L91.6181 20.3754L97.0348 27.4885H92.9853L89.2841 22.4009L87.7769 23.5806V27.4885H84.271V10H87.7802V17.803L87.5946 20.6648L87.6402 20.6552Z" fill="#36264E"/>
<path d="M102.331 27.711C100.261 27.711 98.6429 27.1535 97.4775 26.0385C96.3121 24.9235 95.7294 23.3432 95.7294 21.2976C95.7294 19.1926 96.272 17.5656 97.357 16.4167C98.4421 15.2677 99.9308 14.6933 101.823 14.6933C103.64 14.6933 105.05 15.1989 106.055 16.21C107.06 17.2212 107.565 18.6181 107.572 20.4009V22.0639H99.2906C99.2767 22.9064 99.5935 23.7222 100.176 24.3437C100.486 24.6281 100.852 24.8476 101.251 24.9887C101.651 25.1297 102.076 25.1894 102.5 25.1641C103.24 25.1681 103.977 25.0892 104.698 24.9288C105.443 24.752 106.167 24.4994 106.859 24.1752V26.8271C106.239 27.129 105.583 27.3533 104.906 27.4948C104.058 27.6543 103.195 27.7267 102.331 27.711ZM101.843 17.1289C101.517 17.1118 101.192 17.1647 100.89 17.284C100.588 17.4032 100.317 17.5858 100.095 17.8189C99.6355 18.3743 99.38 19.0639 99.3688 19.7776H104.284C104.316 19.0651 104.075 18.3666 103.607 17.8189C103.38 17.5877 103.106 17.4065 102.801 17.2875C102.497 17.1684 102.17 17.1144 101.843 17.1289Z" fill="#36264E"/>
<path d="M106.709 14.9254H110.55L112.976 21.9907C113.201 22.6998 113.343 23.4316 113.399 24.172H113.467C113.545 23.4297 113.711 22.6987 113.962 21.9939L116.342 14.9286H120.101L114.668 29.0783C114.276 30.2463 113.533 31.2722 112.536 32.0227C111.593 32.6796 110.458 33.0219 109.3 32.9989C108.7 32.9996 108.102 32.9356 107.517 32.8081V30.1022C107.969 30.2029 108.433 30.252 108.897 30.2485C109.49 30.258 110.067 30.0607 110.524 29.692C111.041 29.2429 111.417 28.6611 111.612 28.0131L111.82 27.3962L106.709 14.9254Z" fill="#36264E"/>
<path d="M126.202 27.4884H122.696V11.062H132.334V13.9238H126.202V18.1496H131.905V20.9923H126.202V27.4884Z" fill="#36264E"/>
<path d="M145.144 21.183C145.144 23.2265 144.591 24.8249 143.487 25.9781C142.382 27.1312 140.846 27.7089 138.877 27.711C137.74 27.7321 136.617 27.4589 135.622 26.9193C134.68 26.3925 133.922 25.6001 133.448 24.6458C132.921 23.5665 132.661 22.3815 132.689 21.1862C132.689 19.1342 133.237 17.5444 134.333 16.4167C135.429 15.2889 136.97 14.7197 138.955 14.7091C140.092 14.6878 141.215 14.9586 142.211 15.4945C143.152 16.016 143.91 16.8028 144.385 17.7521C144.91 18.822 145.169 19.9972 145.144 21.183ZM136.254 21.183C136.254 22.4274 136.463 23.3675 136.882 24.0035C137.301 24.6394 137.981 24.9574 138.923 24.9574C139.858 24.9574 140.531 24.6394 140.941 24.0035C141.351 23.3675 141.556 22.4253 141.556 21.1767C141.556 19.9345 141.349 19.0018 140.935 18.3785C140.52 17.7553 139.842 17.4448 138.9 17.4469C137.965 17.4469 137.29 17.7553 136.875 18.3722C136.461 18.989 136.255 19.926 136.257 21.183H136.254Z" fill="#36264E"/>
<path d="M158.321 21.1831C158.321 23.2266 157.768 24.8249 156.664 25.9781C155.559 27.1312 154.021 27.7089 152.048 27.711C150.91 27.7321 149.787 27.4589 148.793 26.9193C147.844 26.3942 147.08 25.6004 146.602 24.6426C146.075 23.5634 145.815 22.3783 145.844 21.1831C145.844 19.1311 146.391 17.5412 147.487 16.4135C148.583 15.2857 150.124 14.7166 152.11 14.706C153.247 14.6846 154.369 14.9555 155.365 15.4914C156.306 16.0128 157.064 16.7997 157.54 17.749C158.072 18.8179 158.34 19.9943 158.321 21.1831ZM149.431 21.1831C149.431 22.4274 149.64 23.3675 150.059 24.0035C150.478 24.6394 151.158 24.9574 152.1 24.9574C153.035 24.9574 153.708 24.6394 154.118 24.0035C154.528 23.3675 154.736 22.4274 154.74 21.1831C154.74 19.9408 154.533 19.0081 154.118 18.3849C153.704 17.7617 153.026 17.4511 152.084 17.4532C151.148 17.4532 150.474 17.7617 150.059 18.3785C149.645 18.9954 149.433 19.9302 149.424 21.1831H149.431Z" fill="#36264E"/>
<path d="M163.855 27.711C163.162 27.7352 162.474 27.5906 161.853 27.2903C161.232 26.99 160.697 26.5434 160.297 25.9908C159.429 24.844 158.995 23.2541 158.995 21.2212C158.995 19.1883 159.429 17.5836 160.297 16.4071C160.71 15.8503 161.257 15.4017 161.89 15.101C162.524 14.8004 163.223 14.657 163.926 14.6837C165.543 14.6837 166.778 15.2974 167.631 16.5248H167.745C167.58 15.699 167.492 14.8604 167.481 14.0192V10H171V27.4885H168.308L167.631 25.8604H167.481C166.706 27.0942 165.498 27.711 163.855 27.711ZM165.085 24.9828C165.982 24.9828 166.639 24.7285 167.058 24.2197C167.477 23.7109 167.705 22.8461 167.742 21.6251V21.2498C167.742 19.9016 167.525 18.9361 167.09 18.3531C166.656 17.7702 165.964 17.4776 165.014 17.4755C164.649 17.4651 164.288 17.5498 163.967 17.7208C163.647 17.8918 163.379 18.1429 163.191 18.4485C162.757 19.0972 162.54 20.0394 162.54 21.2753C162.54 22.5111 162.757 23.4375 163.191 24.0544C163.399 24.3582 163.685 24.6035 164.02 24.7658C164.355 24.9282 164.728 25.0019 165.102 24.9797L165.085 24.9828Z" fill="#36264E"/>
<defs>
<linearGradient id="paint0_linear_0_1" x1="10.4454" y1="-0.517506" x2="28.5109" y2="35.8816" gradientUnits="userSpaceOnUse">
<stop stop-color="#35264C"/>
<stop offset="1" stop-color="#563D7C"/>
</linearGradient>
</defs>
</svg>
