<svg width="12" height="14" viewBox="0 0 12 14" fill="none" xmlns="http://www.w3.org/2000/svg">
<path d="M4.45337 0.00225026C4.51776 0.00213177 4.58214 0.00197618 4.64653 0.00178648C4.82066 0.0013897 4.99479 0.00154212 5.16893 0.00181959C5.35156 0.00204142 5.5342 0.00183544 5.71683 0.00169852C6.02347 0.00153983 6.33011 0.00174849 6.63676 0.00216497C6.99078 0.00264025 7.34479 0.00248627 7.69881 0.00200545C8.0033 0.00160852 8.30779 0.00155346 8.61229 0.00178174C8.79391 0.00191759 8.97553 0.00193694 9.15716 0.00164754C9.32794 0.0013944 9.49873 0.00157182 9.66952 0.00207501C9.73202 0.00219004 9.79453 0.00215811 9.85704 0.00196473C10.4654 0.000256933 10.4654 0.000256934 10.7306 0.100892C10.7498 0.108107 10.769 0.115321 10.7888 0.122755C11.2824 0.324289 11.6486 0.670819 11.8658 1.14727C11.9636 1.41923 12.0007 1.66023 11.999 1.94861C11.9992 1.98692 11.9993 2.02523 11.9994 2.0647C11.9998 2.17019 11.9996 2.27567 11.9994 2.38116C11.9992 2.49525 11.9995 2.60935 11.9997 2.72344C12.0001 2.94663 12 3.16981 11.9998 3.393C11.9996 3.57447 11.9995 3.75595 11.9996 3.93743C11.9996 3.9633 11.9997 3.98917 11.9997 4.01583C11.9997 4.0684 11.9997 4.12097 11.9998 4.17354C12 4.66599 11.9997 5.15843 11.9992 5.65088C11.9988 6.07295 11.9989 6.49502 11.9993 6.91709C11.9998 7.40778 12 7.89848 11.9997 8.38918C11.9997 8.44156 11.9997 8.49394 11.9996 8.54632C11.9996 8.57208 11.9996 8.59785 11.9996 8.6244C11.9995 8.80554 11.9996 8.98667 11.9999 9.1678C12.0001 9.38873 12 9.60965 11.9996 9.83057C11.9993 9.94317 11.9992 10.0558 11.9995 10.1684C11.9998 10.2907 11.9995 10.413 11.999 10.5353C11.9992 10.5706 11.9994 10.6058 11.9996 10.6421C11.996 11.1574 11.8146 11.5967 11.4415 11.9611C11.0372 12.3354 10.5818 12.5203 10.0221 12.5117C9.99069 12.5116 9.95931 12.5115 9.92698 12.5114C9.82819 12.5109 9.72943 12.5098 9.63064 12.5087C9.56307 12.5082 9.49549 12.5078 9.42792 12.5075C9.26353 12.5065 9.09915 12.5051 8.93478 12.5032C8.93088 12.5231 8.92699 12.543 8.92297 12.5636C8.91775 12.5897 8.91252 12.6159 8.90714 12.6429C8.89945 12.6817 8.89945 12.6817 8.8916 12.7214C8.80561 13.0974 8.50035 13.4454 8.18653 13.6677C8.11441 13.7123 8.04076 13.7534 7.9658 13.7933C7.9482 13.8028 7.93061 13.8122 7.91248 13.822C7.56637 13.9972 7.22407 14.0006 6.84367 13.9993C6.787 13.9994 6.73033 13.9996 6.67366 13.9997C6.52054 14.0001 6.36744 14 6.21432 13.9997C6.05359 13.9995 5.89286 13.9997 5.73213 13.9998C5.46225 14 5.19237 13.9998 4.92249 13.9994C4.61115 13.9989 4.29981 13.999 3.98846 13.9995C3.72047 13.9999 3.45247 14 3.18448 13.9998C3.02472 13.9996 2.86496 13.9996 2.7052 13.9999C2.55492 14.0001 2.40465 14 2.25438 13.9995C2.19946 13.9993 2.14454 13.9994 2.08962 13.9996C1.47374 14.0015 0.979218 13.8671 0.524495 13.4348C0.342638 13.2334 0.19677 13.019 0.105478 12.7652C0.0981042 12.7449 0.0907305 12.7246 0.0831334 12.7037C0.00260022 12.4548 0.00277311 12.2132 0.00359528 11.9554C0.00342429 11.9067 0.00321575 11.858 0.00297281 11.8092C0.00243864 11.6778 0.00247047 11.5463 0.0026417 11.4148C0.00273463 11.3046 0.00255163 11.1944 0.00237134 11.0842C0.00195183 10.8241 0.00199695 10.5639 0.00233846 10.3038C0.00268182 10.0363 0.00226084 9.76885 0.00145841 9.50139C0.000793114 9.27092 0.000597234 9.04045 0.00077246 8.80998C0.000872857 8.6727 0.000804086 8.53542 0.000286082 8.39814C-0.000180263 8.26893 -5.47365e-05 8.13973 0.000504837 8.01052C0.000614246 7.96341 0.000524757 7.91631 0.0002089 7.8692C-0.00335754 7.29281 0.165447 6.81254 0.584355 6.38938C0.981035 6.04622 1.40748 5.88157 1.93307 5.89082C1.96183 5.89108 1.99059 5.89134 2.02023 5.89161C2.09032 5.89229 2.16041 5.89324 2.2305 5.89446C2.23041 5.87325 2.23033 5.85205 2.23024 5.8302C2.22826 5.31255 2.22677 4.7949 2.22584 4.27725C2.22538 4.02691 2.22475 3.77657 2.22372 3.52623C2.22282 3.30785 2.22225 3.08947 2.22205 2.87109C2.22193 2.75563 2.22166 2.64017 2.221 2.5247C2.22039 2.41566 2.22021 2.30663 2.22034 2.19759C2.2203 2.13923 2.21982 2.08087 2.21932 2.02251C2.22049 1.68369 2.25902 1.33073 2.42504 1.02706C2.43521 1.00793 2.44537 0.988792 2.45585 0.969077C2.70392 0.525927 3.1291 0.211529 3.61877 0.0553906C3.89107 -0.0149986 4.17382 0.00138542 4.45337 0.00225026ZM3.42956 1.29272C3.26804 1.48644 3.21436 1.68739 3.21458 1.93481C3.21454 1.96979 3.2145 2.00478 3.21446 2.04082C3.21456 2.07896 3.21467 2.11709 3.21478 2.15638C3.21479 2.19713 3.21479 2.23788 3.21477 2.27863C3.21476 2.38906 3.21494 2.49948 3.21515 2.60991C3.21533 2.72539 3.21535 2.84087 3.21539 2.95634C3.21548 3.17493 3.21572 3.39351 3.21602 3.6121C3.21636 3.86098 3.21652 4.10987 3.21667 4.35876C3.21699 4.87066 3.21751 5.38256 3.21818 5.89446C3.25752 5.89487 3.25752 5.89487 3.29765 5.89528C3.39674 5.89658 3.49579 5.89838 3.59486 5.9005C3.6374 5.90131 3.67995 5.90193 3.7225 5.90235C4.1999 5.90726 4.62826 6.02551 4.98965 6.34572C5.17248 6.53807 5.29491 6.77736 5.42552 7.00456C5.47404 7.0889 5.52282 7.17309 5.57179 7.25719C5.60076 7.30728 5.62924 7.35764 5.6577 7.408C5.81536 7.67969 5.95768 7.84665 6.27102 7.9324C6.35444 7.93993 6.43121 7.94391 6.51432 7.9432C6.5606 7.94371 6.60687 7.94422 6.65315 7.94473C6.72458 7.94502 6.796 7.94513 6.86743 7.94508C7.4637 7.94599 7.98153 8.07072 8.42597 8.48555C8.88587 8.9901 8.96565 9.51312 8.97418 10.1607C8.97479 10.2008 8.97542 10.2408 8.97606 10.2809C8.9777 10.3853 8.97918 10.4897 8.98064 10.5942C8.98215 10.7011 8.98381 10.8081 8.98546 10.915C8.98866 11.1242 8.9917 11.3333 8.99464 11.5425C9.16818 11.5454 9.3417 11.5475 9.51527 11.5489C9.57419 11.5494 9.63312 11.5502 9.69204 11.5512C9.77719 11.5527 9.86232 11.5533 9.94748 11.5538C9.98641 11.5547 9.98641 11.5547 10.0261 11.5556C10.3047 11.5557 10.5358 11.4638 10.7379 11.2783C10.9736 11.0266 11.0088 10.7792 11.0079 10.4483C11.0081 10.3924 11.0081 10.3924 11.0083 10.3353C11.0087 10.232 11.0087 10.1287 11.0086 10.0253C11.0086 9.91381 11.009 9.8023 11.0092 9.69078C11.0097 9.47238 11.0099 9.25397 11.0099 9.03556C11.01 8.85801 11.0101 8.68046 11.0103 8.5029C11.0108 7.99939 11.0111 7.49587 11.011 6.99236C11.011 6.96522 11.011 6.93808 11.011 6.91012C11.011 6.86936 11.011 6.86936 11.011 6.82778C11.011 6.38744 11.0116 5.94709 11.0124 5.50674C11.0133 5.05448 11.0137 4.60222 11.0136 4.14996C11.0136 3.89609 11.0138 3.64223 11.0144 3.38837C11.015 3.17222 11.0151 2.95608 11.0147 2.73994C11.0145 2.6297 11.0145 2.51947 11.015 2.40923C11.0156 2.28962 11.0152 2.17002 11.0147 2.0504C11.0152 1.99837 11.0152 1.99837 11.0157 1.94529C11.0131 1.64178 10.9175 1.39964 10.7006 1.17809C10.439 0.977561 10.1511 0.940623 9.82529 0.941287C9.78925 0.941189 9.78925 0.941188 9.75249 0.941088C9.67243 0.940904 9.59236 0.940927 9.5123 0.940951C9.45471 0.940864 9.39713 0.940765 9.33954 0.940655C9.18339 0.940398 9.02725 0.940329 8.8711 0.940311C8.77345 0.94029 8.67579 0.940228 8.57814 0.940151C8.23719 0.939882 7.89623 0.939763 7.55527 0.939785C7.23791 0.939803 6.92055 0.939496 6.60319 0.939036C6.33035 0.938655 6.0575 0.938499 5.78466 0.938518C5.62187 0.938525 5.45908 0.938443 5.29629 0.938134C5.14309 0.937851 4.9899 0.937851 4.8367 0.938062C4.78066 0.938092 4.72462 0.938024 4.66858 0.937847C3.98509 0.934615 3.98509 0.934615 3.42956 1.29272ZM1.24059 7.12052C1.00271 7.40139 0.990122 7.66457 0.991279 8.0145C0.991109 8.06115 0.9909 8.10779 0.990657 8.15444C0.990122 8.28064 0.990155 8.40684 0.990326 8.53304C0.990419 8.63859 0.990236 8.74415 0.990056 8.8497C0.989636 9.09881 0.989682 9.34792 0.990023 9.59703C0.990366 9.85359 0.989945 10.1101 0.989143 10.3667C0.988479 10.5874 0.988281 10.8081 0.988457 11.0288C0.988557 11.1604 0.988486 11.2921 0.98797 11.4237C0.987506 11.5475 0.987627 11.6713 0.988189 11.7951C0.988299 11.8404 0.988207 11.8857 0.987893 11.931C0.986348 12.1722 0.992068 12.3787 1.12309 12.5905C1.13644 12.6138 1.14979 12.637 1.16354 12.6609C1.33482 12.8924 1.54638 12.996 1.83026 13.0441C2.0305 13.0684 2.23172 13.0644 2.43316 13.0639C2.4831 13.064 2.53304 13.0641 2.58298 13.0642C2.71772 13.0645 2.85246 13.0644 2.98721 13.0642C3.12874 13.064 3.27027 13.0642 3.4118 13.0643C3.6494 13.0644 3.887 13.0642 4.12459 13.0639C4.39864 13.0636 4.67268 13.0637 4.94672 13.0641C5.18272 13.0643 5.41871 13.0644 5.6547 13.0642C5.79534 13.0641 5.93598 13.0641 6.07662 13.0643C6.20889 13.0645 6.34115 13.0643 6.47342 13.064C6.52174 13.0639 6.57006 13.0639 6.61837 13.0641C7.03314 13.0651 7.4082 13.0591 7.73209 12.7759C7.96712 12.5295 8.01126 12.2435 8.01177 11.9171C8.01192 11.8943 8.01207 11.8716 8.01222 11.8482C8.01266 11.7734 8.01287 11.6987 8.01303 11.624C8.01312 11.5983 8.0132 11.5726 8.01329 11.5461C8.01373 11.4099 8.01401 11.2738 8.01414 11.1377C8.01431 10.9979 8.01502 10.8582 8.01588 10.7185C8.01644 10.6102 8.01659 10.502 8.01664 10.3938C8.01673 10.3423 8.01696 10.2908 8.01736 10.2394C8.02021 9.84079 8.01719 9.47936 7.72823 9.1679C7.50219 8.96847 7.31413 8.88705 7.00044 8.88415C6.95666 8.88342 6.91288 8.88268 6.86909 8.88194C6.80141 8.88111 6.73372 8.88041 6.66604 8.87985C6.09067 8.87426 5.58132 8.786 5.15754 8.3733C5.00804 8.21691 4.90852 8.03127 4.80446 7.84506C4.75518 7.75841 4.70566 7.6719 4.65591 7.58551C4.62225 7.52693 4.58886 7.46819 4.55579 7.40929C4.38858 7.10768 4.38858 7.10768 4.11607 6.90251C4.09756 6.89388 4.07904 6.88525 4.05996 6.87635C3.91881 6.82941 3.77662 6.82237 3.62852 6.82186C3.57351 6.82158 3.57351 6.82158 3.51739 6.82129C3.4781 6.82126 3.43882 6.82123 3.39834 6.8212C3.35711 6.8211 3.31588 6.821 3.27465 6.8209C3.18834 6.82073 3.10202 6.82067 3.01571 6.82069C2.90596 6.82069 2.79622 6.8203 2.68648 6.8198C2.6013 6.81947 2.51613 6.81941 2.43095 6.81943C2.37109 6.81938 2.31123 6.81906 2.25138 6.81874C1.86965 6.81966 1.52086 6.84276 1.24059 7.12052Z" fill="#55417C"/>
<path d="M5.06954 2.0472C5.10689 2.047 5.14423 2.04679 5.18271 2.04657C5.22433 2.04649 5.26595 2.04641 5.30757 2.04634C5.35122 2.04615 5.39487 2.04596 5.43853 2.04576C5.55732 2.04525 5.67612 2.04494 5.79492 2.0447C5.86913 2.04455 5.94334 2.04438 6.01755 2.04419C6.24972 2.04364 6.48189 2.04322 6.71405 2.04298C6.98209 2.0427 7.25013 2.04193 7.51816 2.04075C7.7253 2.03988 7.93243 2.03944 8.13957 2.03935C8.2633 2.03928 8.38702 2.03902 8.51075 2.03829C8.62719 2.03761 8.74363 2.03749 8.86007 2.03779C8.90276 2.0378 8.94545 2.03762 8.98813 2.03722C9.38874 2.03368 9.38874 2.03368 9.53337 2.16794C9.6372 2.29078 9.68024 2.38693 9.68302 2.54642C9.6577 2.68402 9.61817 2.79927 9.50905 2.89396C9.35971 2.98796 9.22936 3.01948 9.05254 3.01982C9.01684 3.02003 8.98113 3.02023 8.94435 3.02045C8.8862 3.02034 8.8862 3.02034 8.82687 3.02023C8.78531 3.02035 8.74376 3.02051 8.7022 3.02068C8.58965 3.02107 8.47711 3.02109 8.36456 3.02101C8.27047 3.02098 8.17639 3.02112 8.0823 3.02126C7.86027 3.02158 7.63825 3.0216 7.41622 3.02142C7.18745 3.02125 6.95869 3.0216 6.72992 3.02222C6.53323 3.02274 6.33654 3.02291 6.13985 3.02282C6.02249 3.02276 5.90514 3.02284 5.78779 3.02325C5.67741 3.02361 5.56704 3.02355 5.45666 3.02318C5.39705 3.02307 5.33744 3.0234 5.27782 3.02375C5.03802 3.02238 4.87827 3.01011 4.69035 2.85575C4.581 2.7281 4.55214 2.62643 4.55766 2.45862C4.57521 2.32095 4.64117 2.23194 4.74647 2.14429C4.86766 2.0565 4.92007 2.04778 5.06954 2.0472Z" fill="#55417C"/>
<path d="M5.32456 3.63766C5.36823 3.6375 5.41191 3.63729 5.45558 3.63704C5.57376 3.63651 5.69192 3.63671 5.81009 3.63708C5.93396 3.63738 6.05782 3.6371 6.18168 3.63692C6.38963 3.63671 6.59757 3.63699 6.80551 3.63754C7.04573 3.63818 7.28593 3.63797 7.52615 3.63733C7.73265 3.6368 7.93915 3.63673 8.14565 3.63703C8.26888 3.63721 8.3921 3.63724 8.51532 3.63685C8.63116 3.63652 8.74698 3.63675 8.86281 3.63742C8.90526 3.63758 8.9477 3.63753 8.99015 3.63728C9.3884 3.63509 9.3884 3.63509 9.53337 3.76918C9.6372 3.89201 9.68024 3.98816 9.68302 4.14765C9.65682 4.29001 9.61684 4.40193 9.50157 4.49701C9.37976 4.57769 9.32495 4.58808 9.1785 4.58864C9.14116 4.58885 9.10381 4.58906 9.06533 4.58927C9.02371 4.58935 8.98209 4.58943 8.94048 4.58951C8.89682 4.58969 8.85317 4.58988 8.80951 4.59009C8.69072 4.59059 8.57192 4.5909 8.45313 4.59114C8.37891 4.59129 8.3047 4.59147 8.23049 4.59165C7.99832 4.59221 7.76616 4.59262 7.53399 4.59286C7.26595 4.59315 6.99792 4.59391 6.72988 4.59509C6.52274 4.59597 6.31561 4.5964 6.10848 4.5965C5.98475 4.59656 5.86102 4.59683 5.7373 4.59756C5.62085 4.59824 5.50442 4.59836 5.38797 4.59806C5.34528 4.59804 5.30259 4.59823 5.25991 4.59863C4.86036 4.60216 4.86036 4.60216 4.71467 4.4679C4.59494 4.33884 4.5535 4.24202 4.55684 4.06589C4.57123 3.95373 4.61 3.85591 4.68474 3.76918C4.88223 3.62085 5.08371 3.63619 5.32456 3.63766Z" fill="#55417C"/>
<path d="M7.25955 5.22016C7.2805 5.22001 7.30144 5.21987 7.32302 5.21972C7.39215 5.2193 7.46128 5.2191 7.53041 5.21894C7.57865 5.21877 7.62689 5.2186 7.67513 5.21843C7.77628 5.21813 7.87742 5.21796 7.97856 5.21786C8.10771 5.2177 8.23685 5.217 8.36599 5.21617C8.46567 5.21562 8.56535 5.21547 8.66503 5.21543C8.71262 5.21534 8.7602 5.21511 8.80779 5.21473C9.35912 5.21059 9.35912 5.21059 9.55956 5.38861C9.64996 5.52828 9.69719 5.65258 9.67273 5.81883C9.6258 5.98215 9.55658 6.06182 9.41365 6.15648C9.32328 6.20043 9.22969 6.19039 9.13053 6.19074C9.1075 6.19094 9.08447 6.19113 9.06075 6.19132C8.98435 6.1919 8.90795 6.19224 8.83154 6.19253C8.80544 6.19265 8.77934 6.19277 8.75245 6.19289C8.61423 6.1935 8.47601 6.19391 8.33779 6.19418C8.19522 6.19451 8.05265 6.19551 7.91008 6.19666C7.80031 6.19743 7.69055 6.19767 7.58078 6.19777C7.52824 6.19792 7.4757 6.19825 7.42316 6.19879C7.34944 6.19951 7.27576 6.19948 7.20204 6.19927C7.16973 6.19983 7.16973 6.19983 7.13676 6.2004C6.97244 6.19877 6.88201 6.15762 6.7499 6.06914C6.6385 5.93021 6.61049 5.82064 6.61872 5.64495C6.64371 5.49069 6.71294 5.39888 6.83969 5.30127C6.98334 5.22558 7.09629 5.22102 7.25955 5.22016Z" fill="#55417C"/>
</svg>
