<svg width="16" height="9" viewBox="0 0 16 9" fill="none" xmlns="http://www.w3.org/2000/svg">
<path d="M7.72031 0.295248C7.88504 0.419796 8.03964 0.555643 8.19477 0.691791C8.2685 0.755769 8.34409 0.817331 8.41996 0.87876C8.54532 0.98042 8.66909 1.08372 8.79213 1.18815C8.91588 1.29316 9.04031 1.39711 9.16625 1.49949C9.30981 1.61617 9.45122 1.73516 9.59226 1.85485C9.69877 1.94508 9.80616 2.0341 9.9145 2.12216C10.0404 2.22453 10.1649 2.32849 10.2886 2.4335C10.4687 2.58622 10.6509 2.73605 10.8342 2.88493C10.8881 2.92903 10.942 2.97313 10.9959 3.01725C11.0242 3.04017 11.0524 3.06308 11.0814 3.08669C11.1529 3.14527 11.2237 3.20437 11.2943 3.26401C11.9968 3.85324 12.6742 4.06339 13.584 4.10024C13.9634 4.12014 14.3326 4.18857 14.6729 4.36573C14.7036 4.38155 14.7036 4.38155 14.735 4.39769C15.2968 4.70014 15.6775 5.20626 15.8947 5.79897C16.0965 6.47795 16.0012 7.16878 15.6687 7.78556C15.588 7.92901 15.4971 8.05597 15.386 8.17765C15.3634 8.20313 15.3407 8.22862 15.3173 8.25487C14.9068 8.692 14.3398 8.95169 13.7419 8.99569C13.6158 8.99906 13.49 8.9996 13.3638 8.99898C13.3154 8.99909 13.2669 8.99924 13.2185 8.99942C13.0867 8.99981 12.9549 8.99962 12.823 8.99933C12.6804 8.99912 12.5378 8.99945 12.3951 8.9997C12.1161 9.00012 11.8372 9.00003 11.5582 8.99976C11.3314 8.99955 11.1046 8.99952 10.8778 8.99962C10.8454 8.99963 10.8131 8.99965 10.7797 8.99966C10.714 8.99969 10.6483 8.99972 10.5825 8.99975C9.96699 9.00002 9.35144 8.99971 8.73589 8.99921C8.20833 8.99879 7.68078 8.99887 7.15322 8.9993C6.53979 8.9998 5.92636 8.99999 5.31293 8.99971C5.24746 8.99968 5.18198 8.99965 5.1165 8.99962C5.06818 8.9996 5.06818 8.9996 5.01889 8.99958C4.79247 8.9995 4.56606 8.99963 4.33965 8.99985C4.06352 9.00011 3.7874 9.00004 3.51128 8.99955C3.37054 8.9993 3.22981 8.9992 3.08907 8.99951C2.95999 8.99979 2.83092 8.99963 2.70184 8.99914C2.65539 8.99904 2.60895 8.99909 2.5625 8.99932C1.8352 9.00262 1.22247 8.78189 0.701752 8.27105C0.677599 8.24769 0.653445 8.22433 0.62856 8.20027C0.262697 7.823 0.01349 7.27786 0.0112741 6.74923C0.011051 6.71258 0.0108279 6.67592 0.0105981 6.63815C0.0105143 6.5982 0.0104304 6.55825 0.0103441 6.51709C0.0101486 6.47437 0.00994134 6.43166 0.00972325 6.38894C0.00906914 6.24892 0.00874435 6.10889 0.00843357 5.96886C0.0083073 5.92052 0.00817912 5.87217 0.00804871 5.82383C0.0074551 5.5966 0.00701142 5.36938 0.00675142 5.14216C0.00644706 4.88053 0.00562697 4.61892 0.00436616 4.3573C0.00342333 4.15466 0.00296401 3.95201 0.00286098 3.74937C0.00278797 3.62854 0.002512 3.50772 0.00172401 3.38689C0.000993653 3.27307 0.000868367 3.15926 0.00118692 3.04544C0.00120952 2.98427 0.00061732 2.9231 0 2.86193C0.00254903 2.42412 0.154202 2.11272 0.449537 1.79307C0.745598 1.51259 1.14472 1.40287 1.54596 1.41192C1.90981 1.45078 2.26656 1.6138 2.51878 1.88112C2.65726 2.06153 2.75954 2.26922 2.86562 2.46961C3.04415 2.80276 3.26759 3.00754 3.63237 3.13011C3.95005 3.21313 4.27175 3.17012 4.56646 3.02686C4.85587 2.85622 5.0396 2.627 5.16235 2.31516C5.21274 2.11409 5.21195 1.91042 5.2174 1.70404C5.23019 1.22099 5.3484 0.810561 5.69004 0.45651C5.8498 0.311201 6.01994 0.195787 6.22005 0.114041C6.24191 0.10473 6.26377 0.0954188 6.2863 0.0858257C6.76632 -0.0890734 7.30585 0.014508 7.72031 0.295248ZM6.35109 1.17441C6.20051 1.38671 6.18704 1.57 6.18143 1.82463C6.16536 2.47442 6.00391 3.04809 5.53367 3.51624C5.08672 3.93575 4.51599 4.15443 3.902 4.13928C3.24898 4.08761 2.69201 3.84211 2.25791 3.3388C2.11096 3.1474 1.99965 2.94154 1.89645 2.72422C1.82333 2.57664 1.75696 2.49621 1.60588 2.41793C1.49083 2.3806 1.37965 2.36966 1.26318 2.40637C1.12883 2.47518 1.05361 2.56401 0.982343 2.69813C0.743878 3.88881 0.951167 5.12651 0.951167 6.34076C5.59121 6.34076 10.2313 6.34076 15.0119 6.34076C14.894 5.86981 14.7129 5.53494 14.2968 5.27249C13.9898 5.1 13.6942 5.06611 13.3473 5.05526C12.546 5.02911 11.7673 4.83082 11.1148 4.34821C11.0257 4.3886 10.9617 4.43114 10.8929 4.50043C10.8749 4.5185 10.8568 4.53657 10.8381 4.55519C10.819 4.57462 10.7999 4.59405 10.7801 4.61406C10.7603 4.63402 10.7404 4.65397 10.7199 4.67453C10.6565 4.73814 10.5934 4.80197 10.5302 4.86581C10.4873 4.90904 10.4443 4.95225 10.4013 4.99545C10.296 5.10126 10.1909 5.20725 10.086 5.31335C9.9711 5.21629 9.85692 5.11981 9.75094 5.01296C9.73195 4.9939 9.71296 4.97484 9.6934 4.9552C9.67441 4.93597 9.65542 4.91675 9.63586 4.89694C9.61602 4.877 9.59619 4.85705 9.57576 4.8365C9.52752 4.78796 9.47935 4.73936 9.43126 4.69068C9.48211 4.56023 9.57852 4.47455 9.67702 4.3791C9.69492 4.36146 9.71283 4.34382 9.73127 4.32564C9.7883 4.26945 9.84553 4.21346 9.90281 4.15752C9.97841 4.08367 10.0538 4.00963 10.1291 3.93545C10.1466 3.91845 10.1642 3.90146 10.1822 3.88395C10.2241 3.84269 10.2643 3.79982 10.3042 3.75667C10.3042 3.73613 10.3042 3.71558 10.3042 3.69441C10.2487 3.64454 10.1912 3.59684 10.1327 3.55041C10.1009 3.52497 10.0691 3.49952 10.0363 3.47331C10.0115 3.4538 9.98677 3.4343 9.96126 3.4142C9.81571 3.53562 9.67783 3.66178 9.5444 3.79632C9.52671 3.81402 9.50903 3.83173 9.49081 3.84997C9.43516 3.90571 9.37962 3.96156 9.32409 4.01742C9.28604 4.05557 9.24798 4.09372 9.20991 4.13186C9.11734 4.22465 9.02485 4.31754 8.93243 4.41048C8.82436 4.3642 8.75503 4.30284 8.67278 4.21954C8.63541 4.18192 8.63541 4.18192 8.59728 4.14353C8.57156 4.11733 8.54584 4.09112 8.51934 4.06412C8.49313 4.03767 8.46693 4.01122 8.43993 3.98397C8.37533 3.91872 8.31087 3.85333 8.24654 3.78781C8.36206 3.64634 8.48565 3.51565 8.61555 3.38733C8.63198 3.37109 8.64841 3.35485 8.66534 3.33812C8.73425 3.27017 8.80328 3.20233 8.87243 3.13463C8.92334 3.08473 8.97405 3.03465 9.02474 2.98454C9.04052 2.9692 9.0563 2.95386 9.07256 2.93805C9.11018 2.90076 9.14618 2.86184 9.18184 2.82267C9.18184 2.80212 9.18184 2.78157 9.18184 2.7604C9.12632 2.71053 9.06882 2.66283 9.01037 2.61641C8.97854 2.59096 8.94671 2.56552 8.91392 2.5393C8.88916 2.5198 8.86441 2.50029 8.8389 2.4802C8.69076 2.60301 8.55309 2.73177 8.41959 2.87022C8.38253 2.90808 8.34545 2.94592 8.30834 2.98375C8.25069 3.04267 8.19317 3.10171 8.13595 3.16107C8.08016 3.21884 8.0239 3.27612 7.96753 3.33333C7.9419 3.36027 7.9419 3.36027 7.91576 3.38776C7.79739 3.50679 7.79739 3.50679 7.71325 3.51051C7.57746 3.43226 7.47372 3.31217 7.36385 3.20211C7.33738 3.17656 7.31092 3.15102 7.28365 3.1247C7.25879 3.09996 7.23394 3.07521 7.20833 3.04972C7.17401 3.01578 7.17401 3.01578 7.13899 2.98115C7.093 2.91607 7.093 2.91607 7.09731 2.84966C7.13865 2.76022 7.20374 2.71172 7.27811 2.64754C7.45871 2.48796 7.63131 2.32117 7.80227 2.15135C7.82755 2.1265 7.85282 2.10165 7.87886 2.07605C7.9023 2.0527 7.92573 2.02935 7.94987 2.00529C7.971 1.98431 7.99213 1.96334 8.0139 1.94173C8.06624 1.89243 8.06624 1.89243 8.05948 1.82639C8.01247 1.78358 7.96328 1.74315 7.91334 1.7038C7.79426 1.60892 7.67696 1.51292 7.56163 1.41354C7.19477 1.08379 7.19477 1.08379 6.73154 0.977512C6.57165 0.995138 6.45704 1.05318 6.35109 1.17441ZM1.20058 7.30591C1.32661 7.62054 1.60096 7.80071 1.90497 7.93249C2.16526 8.02779 2.40613 8.03961 2.68101 8.03779C2.7289 8.03794 2.7768 8.03813 2.82469 8.03838C2.95536 8.0389 3.08602 8.03865 3.21669 8.03826C3.35797 8.03798 3.49926 8.03841 3.64054 8.03875C3.91695 8.03931 4.19336 8.03919 4.46976 8.03883C4.69448 8.03855 4.9192 8.03851 5.14392 8.03864C5.19196 8.03867 5.19196 8.03867 5.24097 8.0387C5.30605 8.03874 5.37112 8.03878 5.4362 8.03882C6.04586 8.03918 6.65552 8.03877 7.26518 8.0381C7.78787 8.03754 8.31055 8.03764 8.83324 8.03821C9.44077 8.03888 10.0483 8.03914 10.6558 8.03876C10.7207 8.03872 10.7855 8.03868 10.8503 8.03864C10.8822 8.03862 10.9141 8.0386 10.947 8.03858C11.1713 8.03848 11.3957 8.03866 11.62 8.03895C11.8936 8.0393 12.1671 8.03921 12.4407 8.03854C12.5801 8.03822 12.7196 8.03809 12.8591 8.0385C12.9869 8.03887 13.1148 8.03866 13.2426 8.038C13.2887 8.03787 13.3347 8.03793 13.3808 8.03824C13.8611 8.04116 14.2697 7.92035 14.6222 7.58416C14.7174 7.48892 14.7402 7.43948 14.7937 7.30591C10.3079 7.30591 5.82223 7.30591 1.20058 7.30591Z" fill="#6C7278"/>
</svg>
