
<svg width="136" height="41" viewBox="0 0 136 41" fill="none" xmlns="http://www.w3.org/2000/svg">
<g clip-path="url(#clip0_9774_45062)">
<path fill-rule="evenodd" clip-rule="evenodd" d="M130.662 1.3005C132.974 1.3005 134.867 3.18828 134.867 5.5V35.5C134.867 37.8117 132.987 39.6995 130.662 39.6995H5.6659C3.35373 39.6995 1.46128 37.8117 1.46128 35.5V5.5C1.46128 3.18828 3.34131 1.3005 5.6659 1.3005H130.662ZM130.662 0.5H5.6659C2.90918 0.5 0.664062 2.75436 0.664062 5.5V35.5C0.664062 38.2556 2.90918 40.5 5.6659 40.5H130.662C133.416 40.5 135.664 38.2556 135.664 35.5V5.5C135.664 2.75436 133.416 0.5 130.662 0.5Z" fill="#55417C"/>
<path d="M71.7832 13.732C70.8817 13.732 70.1217 13.4153 69.5207 12.7918C68.9247 12.1858 68.5919 11.3504 68.6068 10.4975C68.6068 9.58732 68.9147 8.81675 69.5207 8.20577C70.1192 7.58233 70.8792 7.26562 71.7807 7.26562C72.6723 7.26562 73.4323 7.58233 74.0432 8.20577C74.6492 8.8367 74.9571 9.60727 74.9571 10.4975C74.9472 11.4103 74.6393 12.1808 74.0432 12.7893C73.4447 13.4177 72.6847 13.732 71.7832 13.732ZM44.9587 13.732C44.0771 13.732 43.3121 13.4202 42.6863 12.8043C42.0654 12.1908 41.75 11.4153 41.75 10.5C41.75 9.58483 42.0654 8.80927 42.6863 8.1958C43.2997 7.57984 44.0646 7.26812 44.9587 7.26812C45.3958 7.26812 45.8205 7.3554 46.2278 7.53246C46.6276 7.70453 46.953 7.93894 47.1939 8.22572L47.2535 8.29804L46.5804 8.96139L46.5109 8.87909C46.1309 8.42523 45.6218 8.20328 44.9488 8.20328C44.3478 8.20328 43.8237 8.41774 43.3916 8.84169C42.957 9.26812 42.736 9.82672 42.736 10.5025C42.736 11.1783 42.957 11.7369 43.3916 12.1634C43.8237 12.5873 44.3478 12.8018 44.9488 12.8018C45.5895 12.8018 46.1284 12.5873 46.5482 12.1634C46.7965 11.914 46.9505 11.5649 47.0051 11.1235H44.8469V10.1908H47.9315L47.9439 10.2756C47.9662 10.4327 47.9886 10.5948 47.9886 10.7444C47.9886 11.6048 47.7303 12.3005 47.2187 12.8143C46.6376 13.4227 45.8776 13.732 44.9587 13.732ZM80.6245 13.5998H79.6733L76.7602 8.91899L76.785 9.76188V13.5973H75.8338V7.40029H76.9191L76.9489 7.44767L79.6882 11.8566L79.6634 11.0162V7.40029H80.6245V13.5998ZM64.6356 13.5998H63.672V8.33296H62.0006V7.40029H66.3046V8.33296H64.6332V13.5998H64.6356ZM61.2158 13.5998H60.2547V7.40029H61.2158V13.5998ZM55.8142 13.5998H54.853V8.33296H53.1816V7.40029H57.4856V8.33296H55.8142V13.5998ZM52.5732 13.5898H48.8876V7.40029H52.5732V8.33296H49.8512V10.0337H52.3074V10.9564H49.8512V12.6571H52.5732V13.5898ZM70.226 12.1509C70.6557 12.5823 71.1772 12.7993 71.7832 12.7993C72.4066 12.7993 72.9157 12.5873 73.3404 12.1509C73.7626 11.727 73.9762 11.1709 73.9762 10.5C73.9762 9.82922 73.7626 9.27061 73.3429 8.84917C72.9132 8.41774 72.3892 8.20079 71.7857 8.20079C71.1623 8.20079 70.6532 8.41276 70.231 8.84917C69.8088 9.27311 69.5952 9.82922 69.5952 10.5C69.5952 11.1709 69.8063 11.7295 70.226 12.1509Z" fill="#55417C"/>
<path fill-rule="evenodd" clip-rule="evenodd" d="M68.5149 22.2544C66.168 22.2544 64.2656 24.0425 64.2656 26.5088C64.2656 28.9527 66.1804 30.7632 68.5149 30.7632C70.8619 30.7632 72.7643 28.9627 72.7643 26.5088C72.7643 24.0425 70.8619 22.2544 68.5149 22.2544ZM68.5149 29.0774C67.2309 29.0774 66.1258 28.0101 66.1258 26.4988C66.1258 24.9652 67.2334 23.9203 68.5149 23.9203C69.7989 23.9203 70.9041 24.9652 70.9041 26.4988C70.9066 28.02 69.7989 29.0774 68.5149 29.0774ZM59.2439 22.2544C56.8969 22.2544 54.9945 24.0425 54.9945 26.5088C54.9945 28.9527 56.9093 30.7632 59.2439 30.7632C61.5908 30.7632 63.4932 28.9627 63.4932 26.5088C63.4932 24.0425 61.5883 22.2544 59.2439 22.2544ZM59.2439 29.0774C57.9599 29.0774 56.8547 28.0101 56.8547 26.4988C56.8547 24.9652 57.9624 23.9203 59.2439 23.9203C60.5279 23.9203 61.633 24.9652 61.633 26.4988C61.633 28.02 60.5279 29.0774 59.2439 29.0774ZM48.212 23.5537V25.3542H52.516C52.3843 26.3642 52.0515 27.1098 51.5424 27.621C50.9116 28.2544 49.9381 28.9427 48.2219 28.9427C45.577 28.9427 43.5082 26.7981 43.5082 24.1422C43.5082 21.4864 45.577 19.3417 48.2219 19.3417C49.65 19.3417 50.6906 19.9078 51.4629 20.631L52.7345 19.3542C51.6616 18.3218 50.2336 17.5312 48.2319 17.5312C44.6034 17.5312 41.5586 20.4988 41.5586 24.1322C41.5586 27.7756 44.6009 30.7332 48.2319 30.7332C50.1914 30.7332 51.6616 30.0899 52.8239 28.8779C54.0086 27.6884 54.3836 26.0101 54.3836 24.6559C54.3836 24.2345 54.3513 23.8554 54.2842 23.5337H48.2095C48.212 23.5312 48.212 23.5537 48.212 23.5537ZM93.3354 24.9552C92.9803 24.0001 91.9074 22.2445 89.707 22.2445C87.5264 22.2445 85.7134 23.9677 85.7134 26.4988C85.7134 28.8879 87.5065 30.7532 89.9181 30.7532C91.8552 30.7532 92.9827 29.5637 93.4472 28.8654L92.0092 27.8978C91.5324 28.6086 90.8693 29.0749 89.928 29.0749C88.9768 29.0749 88.3112 28.641 87.8691 27.7856L93.5341 25.429C93.5341 25.4315 93.3354 24.9552 93.3354 24.9552ZM87.5587 26.3766C87.514 24.7332 88.8303 23.8978 89.7715 23.8978C90.5141 23.8978 91.1325 24.2644 91.3436 24.7981L87.5587 26.3766ZM82.9567 30.4988H84.8169V18.0001H82.9567V30.4988ZM79.9019 23.1996H79.8349C79.4152 22.6983 78.618 22.2445 77.5997 22.2445C75.4862 22.2445 73.5391 24.1123 73.5391 26.5113C73.5391 28.9003 75.4763 30.7457 77.5997 30.7457C78.6055 30.7457 79.4152 30.2894 79.8349 29.7781H79.9019V30.3891C79.9019 32.0125 79.0377 32.8879 77.6444 32.8879C76.5045 32.8879 75.7967 32.0649 75.5086 31.3766L73.8918 32.0549C74.3562 33.1771 75.5955 34.5662 77.6419 34.5662C79.8225 34.5662 81.6702 33.2769 81.6702 30.1322V22.4988H79.9119V23.1996C79.9144 23.1996 79.9019 23.1996 79.9019 23.1996ZM77.7661 29.0774C76.4821 29.0774 75.4092 28.0001 75.4092 26.5113C75.4092 25.0101 76.4821 23.9228 77.7661 23.9228C79.0377 23.9228 80.0236 25.0225 80.0236 26.5113C80.0361 28.0001 79.0402 29.0774 77.7661 29.0774ZM102.045 18.0001H97.5972V30.4988H99.4573V25.7657H102.048C104.107 25.7657 106.131 24.2669 106.131 21.8879C106.131 19.5088 104.114 18.0001 102.045 18.0001ZM102.1 24.02H99.4548V19.7308H102.1C103.493 19.7308 104.28 20.8854 104.28 21.8754C104.28 22.8554 103.483 24.02 102.1 24.02ZM113.586 22.232C112.235 22.232 110.842 22.833 110.266 24.1422L111.915 24.8305C112.27 24.1422 112.921 23.9078 113.609 23.9078C114.572 23.9078 115.546 24.4864 115.568 25.5188V25.6509C115.235 25.4614 114.505 25.1721 113.631 25.1721C111.85 25.1721 110.045 26.1497 110.045 27.9826C110.045 29.6609 111.505 30.7382 113.132 30.7382C114.381 30.7382 115.069 30.1721 115.498 29.5163H115.566V30.4839H117.359V25.6958C117.359 23.4664 115.71 22.232 113.586 22.232ZM113.353 29.0774C112.744 29.0774 111.892 28.7781 111.892 28.0101C111.892 27.0425 112.955 26.6759 113.862 26.6759C114.681 26.6759 115.069 26.8529 115.556 27.0973C115.422 28.2195 114.478 29.0674 113.353 29.0774ZM123.9 22.4988L121.764 27.9203H121.697L119.485 22.4988H117.483L120.803 30.0774L118.911 34.2894H120.848L125.957 22.4988H123.9ZM107.156 30.4988H109.016V18.0001H107.156V30.4988Z" fill="#55417C"/>
<path fill-rule="evenodd" clip-rule="evenodd" d="M11.056 8.03218C10.768 8.3439 10.6016 8.82021 10.6016 9.44365V31.5559C10.6016 32.1793 10.768 32.6556 11.066 32.9549L11.143 33.0222L23.4812 20.6332V20.3564L11.133 7.96484L11.056 8.03218Z" fill="#55417C"/>
<path fill-rule="evenodd" clip-rule="evenodd" d="M27.584 24.7763L23.4688 20.6441V20.3548L27.584 16.2227L27.6734 16.2775L32.5412 19.0556C33.9344 19.8436 33.9344 21.1454 32.5412 21.9434L27.6734 24.7214L27.584 24.7763Z" fill="#55417C"/>
<path fill-rule="evenodd" clip-rule="evenodd" d="M27.6745 24.7219L23.4699 20.5L11.0547 32.9663C11.5092 33.4551 12.2716 33.51 13.1235 33.0337L27.6745 24.7219Z" fill="#55417C"/>
<path fill-rule="evenodd" clip-rule="evenodd" d="M27.6745 16.2784L13.1235 7.97918C12.2716 7.4904 11.5067 7.55774 11.0547 8.04651L23.4699 20.5004L27.6745 16.2784Z" fill="#55417C"/>
<path opacity="0.2" fill-rule="evenodd" clip-rule="evenodd" d="M27.587 24.6328L13.1352 32.8772C12.328 33.3435 11.6078 33.3111 11.1434 32.8871L11.0664 32.9645L11.1434 33.0318C11.6078 33.4532 12.328 33.4881 13.1352 33.0218L27.6863 24.7226L27.587 24.6328Z" fill="#55417C"/>
<path opacity="0.12" fill-rule="evenodd" clip-rule="evenodd" d="M32.5438 21.7993L27.5742 24.6322L27.6636 24.7219L32.5314 21.9439C33.2292 21.5449 33.572 21.0212 33.572 20.5C33.5297 20.9788 33.1746 21.4327 32.5438 21.7993Z" fill="black"/>
<path opacity="0.25" fill-rule="evenodd" clip-rule="evenodd" d="M13.1248 8.12427L32.5436 19.2016C33.1744 19.5582 33.5296 20.0245 33.5842 20.5008C33.5842 19.9796 33.2415 19.4559 32.5436 19.0569L13.1248 7.97963C11.7316 7.17913 10.6016 7.84746 10.6016 9.44597V9.5906C10.6016 7.98961 11.7316 7.33375 13.1248 8.12427Z" fill="white"/>
</g>
<defs>
<clipPath id="clip0_9774_45062">
<rect width="135" height="40" fill="white" transform="translate(0.664062 0.5)"/>
</clipPath>
</defs>
</svg>
