<svg width="16" height="16" viewBox="0 0 16 16" fill="none" xmlns="http://www.w3.org/2000/svg">
<path d="M7.72031 3.79525C7.88504 3.9198 8.03964 4.05564 8.19477 4.19179C8.2685 4.25577 8.34409 4.31733 8.41996 4.37876C8.54532 4.48042 8.66909 4.58372 8.79213 4.68815C8.91588 4.79316 9.04031 4.89711 9.16625 4.99949C9.30981 5.11617 9.45122 5.23516 9.59226 5.35485C9.69877 5.44508 9.80616 5.5341 9.9145 5.62216C10.0404 5.72453 10.1649 5.82849 10.2886 5.9335C10.4687 6.08622 10.6509 6.23605 10.8342 6.38493C10.8881 6.42903 10.942 6.47313 10.9959 6.51725C11.0242 6.54017 11.0524 6.56308 11.0814 6.58669C11.1529 6.64527 11.2237 6.70437 11.2943 6.76401C11.9968 7.35324 12.6742 7.56339 13.584 7.60024C13.9634 7.62014 14.3326 7.68857 14.6729 7.86573C14.7036 7.88155 14.7036 7.88155 14.735 7.89769C15.2968 8.20014 15.6775 8.70626 15.8947 9.29897C16.0965 9.97795 16.0012 10.6688 15.6687 11.2856C15.588 11.429 15.4971 11.556 15.386 11.6776C15.3634 11.7031 15.3407 11.7286 15.3173 11.7549C14.9068 12.192 14.3398 12.4517 13.7419 12.4957C13.6158 12.4991 13.49 12.4996 13.3638 12.499C13.3154 12.4991 13.2669 12.4992 13.2185 12.4994C13.0867 12.4998 12.9549 12.4996 12.823 12.4993C12.6804 12.4991 12.5378 12.4994 12.3951 12.4997C12.1161 12.5001 11.8372 12.5 11.5582 12.4998C11.3314 12.4995 11.1046 12.4995 10.8778 12.4996C10.8454 12.4996 10.8131 12.4996 10.7797 12.4997C10.714 12.4997 10.6483 12.4997 10.5825 12.4998C9.96699 12.5 9.35144 12.4997 8.73589 12.4992C8.20833 12.4988 7.68078 12.4989 7.15322 12.4993C6.53979 12.4998 5.92636 12.5 5.31293 12.4997C5.24746 12.4997 5.18198 12.4996 5.1165 12.4996C5.06818 12.4996 5.06818 12.4996 5.01889 12.4996C4.79247 12.4995 4.56606 12.4996 4.33965 12.4999C4.06352 12.5001 3.7874 12.5 3.51128 12.4995C3.37054 12.4993 3.22981 12.4992 3.08907 12.4995C2.95999 12.4998 2.83092 12.4996 2.70184 12.4991C2.65539 12.499 2.60895 12.4991 2.5625 12.4993C1.8352 12.5026 1.22247 12.2819 0.701752 11.771C0.677599 11.7477 0.653445 11.7243 0.62856 11.7003C0.262697 11.323 0.01349 10.7779 0.0112741 10.2492C0.011051 10.2126 0.0108279 10.1759 0.0105981 10.1382C0.0105143 10.0982 0.0104304 10.0583 0.0103441 10.0171C0.0101486 9.97437 0.00994134 9.93166 0.00972325 9.88894C0.00906914 9.74892 0.00874435 9.60889 0.00843357 9.46886C0.0083073 9.42052 0.00817912 9.37217 0.00804871 9.32383C0.0074551 9.0966 0.00701142 8.86938 0.00675142 8.64216C0.00644706 8.38053 0.00562697 8.11892 0.00436616 7.8573C0.00342333 7.65466 0.00296401 7.45201 0.00286098 7.24937C0.00278797 7.12854 0.002512 7.00772 0.00172401 6.88689C0.000993653 6.77307 0.000868367 6.65926 0.00118692 6.54544C0.00120952 6.48427 0.00061732 6.4231 0 6.36193C0.00254903 5.92412 0.154202 5.61272 0.449537 5.29307C0.745598 5.01259 1.14472 4.90287 1.54596 4.91192C1.90981 4.95078 2.26656 5.1138 2.51878 5.38112C2.65726 5.56153 2.75954 5.76922 2.86562 5.96961C3.04415 6.30276 3.26759 6.50754 3.63237 6.63011C3.95005 6.71313 4.27175 6.67012 4.56646 6.52686C4.85587 6.35623 5.0396 6.127 5.16235 5.81516C5.21274 5.61409 5.21195 5.41042 5.2174 5.20404C5.23019 4.72099 5.3484 4.31056 5.69004 3.95651C5.8498 3.8112 6.01994 3.69579 6.22005 3.61404C6.24191 3.60473 6.26377 3.59542 6.2863 3.58583C6.76632 3.41093 7.30585 3.51451 7.72031 3.79525ZM6.35109 4.67441C6.20051 4.88671 6.18704 5.07 6.18143 5.32463C6.16536 5.97442 6.00391 6.54809 5.53367 7.01624C5.08672 7.43575 4.51599 7.65443 3.902 7.63928C3.24898 7.58761 2.69201 7.34211 2.25791 6.8388C2.11096 6.6474 1.99965 6.44154 1.89645 6.22422C1.82333 6.07664 1.75696 5.99621 1.60588 5.91793C1.49083 5.8806 1.37965 5.86966 1.26318 5.90637C1.12883 5.97518 1.05361 6.06401 0.982343 6.19813C0.743878 7.38881 0.951167 8.62651 0.951167 9.84076C5.59121 9.84076 10.2313 9.84076 15.0119 9.84076C14.894 9.36981 14.7129 9.03494 14.2968 8.77249C13.9898 8.6 13.6942 8.56611 13.3473 8.55526C12.546 8.52911 11.7673 8.33082 11.1148 7.84821C11.0257 7.8886 10.9617 7.93114 10.8929 8.00043C10.8749 8.0185 10.8568 8.03657 10.8381 8.05519C10.819 8.07462 10.7999 8.09405 10.7801 8.11406C10.7603 8.13402 10.7404 8.15397 10.7199 8.17453C10.6565 8.23814 10.5934 8.30197 10.5302 8.36581C10.4873 8.40904 10.4443 8.45225 10.4013 8.49545C10.296 8.60126 10.1909 8.70725 10.086 8.81335C9.9711 8.71629 9.85692 8.61981 9.75094 8.51296C9.73195 8.4939 9.71296 8.47484 9.6934 8.4552C9.67441 8.43597 9.65542 8.41675 9.63586 8.39694C9.61602 8.377 9.59619 8.35705 9.57576 8.3365C9.52752 8.28796 9.47935 8.23936 9.43126 8.19068C9.48211 8.06023 9.57852 7.97455 9.67702 7.8791C9.69492 7.86146 9.71283 7.84382 9.73127 7.82564C9.7883 7.76945 9.84553 7.71346 9.90281 7.65752C9.97841 7.58367 10.0538 7.50963 10.1291 7.43545C10.1466 7.41845 10.1642 7.40146 10.1822 7.38395C10.2241 7.34269 10.2643 7.29982 10.3042 7.25667C10.3042 7.23613 10.3042 7.21558 10.3042 7.19441C10.2487 7.14454 10.1912 7.09684 10.1327 7.05041C10.1009 7.02497 10.0691 6.99952 10.0363 6.97331C10.0115 6.9538 9.98677 6.9343 9.96126 6.9142C9.81571 7.03562 9.67783 7.16178 9.5444 7.29632C9.52671 7.31402 9.50903 7.33173 9.49081 7.34997C9.43516 7.40571 9.37962 7.46156 9.32409 7.51742C9.28604 7.55557 9.24798 7.59372 9.20991 7.63186C9.11734 7.72465 9.02486 7.81754 8.93243 7.91048C8.82436 7.8642 8.75503 7.80284 8.67278 7.71954C8.63541 7.68192 8.63541 7.68192 8.59728 7.64353C8.57156 7.61733 8.54584 7.59112 8.51934 7.56412C8.49313 7.53767 8.46693 7.51122 8.43993 7.48397C8.37533 7.41872 8.31087 7.35333 8.24654 7.28781C8.36206 7.14634 8.48565 7.01565 8.61555 6.88733C8.63198 6.87109 8.64841 6.85485 8.66534 6.83812C8.73425 6.77017 8.80328 6.70233 8.87243 6.63463C8.92334 6.58473 8.97405 6.53465 9.02474 6.48454C9.04052 6.4692 9.0563 6.45386 9.07256 6.43805C9.11018 6.40076 9.14619 6.36184 9.18184 6.32267C9.18184 6.30212 9.18184 6.28157 9.18184 6.2604C9.12632 6.21053 9.06882 6.16283 9.01037 6.11641C8.97854 6.09096 8.94671 6.06552 8.91392 6.0393C8.88916 6.0198 8.8644 6.00029 8.8389 5.9802C8.69076 6.10301 8.55309 6.23177 8.41959 6.37022C8.38253 6.40808 8.34545 6.44592 8.30834 6.48375C8.25069 6.54267 8.19317 6.60171 8.13595 6.66107C8.08016 6.71884 8.0239 6.77612 7.96753 6.83333C7.9419 6.86027 7.9419 6.86027 7.91576 6.88776C7.79739 7.00679 7.79739 7.00679 7.71325 7.01051C7.57746 6.93226 7.47372 6.81217 7.36385 6.70211C7.33738 6.67656 7.31092 6.65102 7.28365 6.6247C7.25879 6.59996 7.23394 6.57521 7.20833 6.54972C7.17401 6.51578 7.17401 6.51578 7.13899 6.48115C7.093 6.41607 7.093 6.41607 7.09731 6.34966C7.13865 6.26022 7.20374 6.21172 7.27811 6.14754C7.45871 5.98796 7.63131 5.82117 7.80227 5.65135C7.82755 5.6265 7.85282 5.60165 7.87886 5.57605C7.9023 5.5527 7.92573 5.52935 7.94987 5.50529C7.971 5.48431 7.99213 5.46334 8.0139 5.44173C8.06624 5.39243 8.06624 5.39243 8.05948 5.32639C8.01247 5.28358 7.96329 5.24315 7.91334 5.2038C7.79426 5.10892 7.67696 5.01292 7.56163 4.91354C7.19477 4.58379 7.19477 4.58379 6.73154 4.47751C6.57165 4.49514 6.45705 4.55318 6.35109 4.67441ZM1.20058 10.8059C1.32661 11.1205 1.60096 11.3007 1.90497 11.4325C2.16526 11.5278 2.40613 11.5396 2.68101 11.5378C2.7289 11.5379 2.7768 11.5381 2.82469 11.5384C2.95536 11.5389 3.08602 11.5386 3.21669 11.5383C3.35797 11.538 3.49926 11.5384 3.64054 11.5388C3.91695 11.5393 4.19336 11.5392 4.46976 11.5388C4.69448 11.5385 4.9192 11.5385 5.14392 11.5386C5.19196 11.5387 5.19196 11.5387 5.24097 11.5387C5.30605 11.5387 5.37112 11.5388 5.4362 11.5388C6.04586 11.5392 6.65552 11.5388 7.26518 11.5381C7.78787 11.5375 8.31055 11.5376 8.83324 11.5382C9.44077 11.5389 10.0483 11.5391 10.6558 11.5388C10.7207 11.5387 10.7855 11.5387 10.8503 11.5386C10.8822 11.5386 10.9141 11.5386 10.947 11.5386C11.1713 11.5385 11.3957 11.5387 11.62 11.539C11.8936 11.5393 12.1671 11.5392 12.4407 11.5385C12.5801 11.5382 12.7196 11.5381 12.8591 11.5385C12.9869 11.5389 13.1148 11.5387 13.2426 11.538C13.2887 11.5379 13.3347 11.5379 13.3808 11.5382C13.8611 11.5412 14.2697 11.4204 14.6222 11.0842C14.7174 10.9889 14.7402 10.9395 14.7937 10.8059C10.3079 10.8059 5.82223 10.8059 1.20058 10.8059Z" fill="#55417C"/>
</svg>
