<svg width="23" height="24" viewBox="0 0 23 24" fill="none" xmlns="http://www.w3.org/2000/svg">
<path fill-rule="evenodd" clip-rule="evenodd" d="M11.3197 0H9.9193V0.0234375L9.87183 0.0280323C9.02197 0.11209 8.20777 0.288658 7.39863 0.5625C7.35986 0.575321 7.32108 0.588139 7.2823 0.600952C6.63891 0.817063 6.00616 1.09459 5.40955 1.41821C5.33621 1.45773 5.26255 1.49659 5.18885 1.53543C4.85121 1.71386 4.52132 1.90055 4.20112 2.10938L4.13944 2.14956C3.38836 2.64118 2.67551 3.19125 2.01212 3.79706C1.96641 3.83842 1.91992 3.8785 1.873 3.91846C1.76973 4.00846 1.67427 4.10638 1.57868 4.20444L1.57015 4.21318C1.50055 4.28412 1.4298 4.35175 1.35442 4.4165C1.25745 4.50056 1.17142 4.59245 1.08529 4.6875C0.984087 4.79918 0.881471 4.90371 0.766336 5.00104C0.689456 5.06932 0.624262 5.14631 0.560149 5.22656L0.520216 5.27655C0.23243 5.66231 0.0800841 6.15828 0.0233395 6.63281H0V15.0938C0.043613 15.1813 0.067092 15.2618 0.088982 15.356C0.233758 15.9518 0.434526 16.5333 0.700186 17.0859L0.729794 17.1483C0.994671 17.7041 1.30898 18.2299 1.70379 18.7031L1.76104 18.7737C1.90611 18.9501 2.06209 19.114 2.22309 19.2759L2.28247 19.3356C2.50398 19.556 2.74132 19.7534 2.98746 19.9453L3.03505 19.9825C3.33511 20.2148 3.65594 20.4016 3.99106 20.5781L4.06591 20.6177C5.57875 21.4074 7.51659 21.7626 9.17281 21.2509C9.40578 21.1745 9.62694 21.0745 9.85005 20.9732C10.2765 20.7825 10.7146 20.7353 11.1771 20.7346C11.2152 20.7344 11.2533 20.7342 11.2914 20.7339C11.3938 20.7333 11.4961 20.733 11.5985 20.7328C11.6626 20.7327 11.7267 20.7325 11.7908 20.7323C11.9919 20.7316 12.193 20.7312 12.394 20.731C12.6253 20.7308 12.8566 20.73 13.0879 20.7286C13.2674 20.7276 13.4469 20.7271 13.6264 20.7271C13.7334 20.727 13.8403 20.7267 13.9472 20.7259C14.0477 20.7251 14.1481 20.725 14.2485 20.7254C14.2852 20.7255 14.3219 20.7253 14.3587 20.7248C14.5708 20.7223 14.7282 20.7336 14.8906 20.8828L14.9319 20.9196C14.9673 20.952 15.0005 20.9858 15.0336 21.0205L15.067 21.0545C15.1279 21.1169 15.1856 21.1812 15.242 21.2477C15.3474 21.3697 15.4621 21.4829 15.5767 21.5961L15.587 21.6063C15.5931 21.6123 15.5992 21.6183 15.6053 21.6244C15.616 21.635 15.6268 21.6456 15.6375 21.6562L15.6378 21.6566C15.8494 21.8666 15.915 21.9316 15.9762 22.0001C16.0035 22.0307 16.03 22.0619 16.0684 22.1071C16.1268 22.1743 16.1902 22.2365 16.2536 22.2988L16.2677 22.3125C16.3512 22.3945 16.4323 22.4769 16.5083 22.5659C16.6036 22.6768 16.7071 22.7791 16.811 22.8818L16.8278 22.8984C16.9513 23.0206 17.0723 23.143 17.1854 23.2751C17.4575 23.5888 17.7368 23.8394 18.1348 23.9766V24H21.2623C21.3167 23.9636 21.3641 23.9376 21.4228 23.9106C21.584 23.8297 21.6937 23.6905 21.7758 23.5312C21.8214 23.3816 21.8291 23.2455 21.8286 23.0897L21.8288 23.0137C21.8291 22.93 21.829 22.8462 21.8289 22.7625L21.8289 22.7409L21.829 22.6977C21.8291 22.6592 21.8292 22.6206 21.8292 22.5821C21.8295 22.4358 21.8296 22.2896 21.8295 22.1433C21.8295 22.0244 21.8295 21.9055 21.8296 21.7865L21.8297 21.7352L21.8298 21.6319C21.83 21.3092 21.83 20.9865 21.8298 20.6638C21.8297 20.3689 21.83 20.0739 21.8304 19.779C21.8309 19.4759 21.831 19.1727 21.831 18.8696C21.8309 18.6995 21.831 18.5295 21.8313 18.3594C21.8316 18.1995 21.8315 18.0395 21.8312 17.8796C21.8312 17.8209 21.8312 17.7623 21.8314 17.7037C21.8317 17.6235 21.8315 17.5433 21.8312 17.4632L21.8317 17.3932C21.8297 17.1278 21.75 16.884 21.5684 16.6865C21.4213 16.5504 21.2539 16.4513 21.0502 16.4494L20.9934 16.4487L20.9315 16.4483L20.8649 16.4476C20.7937 16.4469 20.7226 16.4463 20.6515 16.4457C20.6075 16.4453 20.5636 16.4448 20.5197 16.4444C20.3568 16.4428 20.194 16.4414 20.0312 16.4399L18.9284 16.4297V13.125C19.8363 13.1205 20.0534 13.1195 20.2705 13.1187C20.3387 13.1185 20.4069 13.1183 20.4966 13.118L20.5021 13.118L20.5031 13.118C20.6086 13.1172 20.611 13.1172 20.7209 13.1163C20.7704 13.116 20.8199 13.1158 20.8693 13.1158C21.2304 13.1155 21.5441 13.0933 21.8706 12.9229L21.9173 12.8989C22.0792 12.8128 22.2202 12.705 22.3593 12.5859L22.407 12.5461C22.7074 12.272 22.8622 11.8494 22.9428 11.4609L22.9542 11.413C22.9903 11.2516 22.997 11.0964 22.9973 10.9314L22.9978 10.8472C22.998 10.7885 22.9981 10.7299 22.9981 10.6713C22.9982 10.5829 22.999 10.4946 22.9999 10.4062C23.0026 9.85162 22.9335 9.34835 22.5569 8.91705C22.2386 8.59842 21.8273 8.4468 21.3934 8.3627C21.3666 8.35439 21.3516 8.34972 21.3392 8.34118C21.3234 8.33023 21.3119 8.31292 21.2857 8.27344C21.2717 8.20999 21.2594 8.14688 21.2477 8.08301C21.1587 7.63095 20.9983 7.19647 20.8189 6.77344L20.7894 6.70348C20.6588 6.3946 20.52 6.09293 20.3593 5.79861C20.3269 5.73873 20.2951 5.67851 20.2634 5.61823C19.7831 4.71105 19.1687 3.90355 18.4616 3.16406L18.4263 3.12703C18.303 2.9978 18.1736 2.88193 18.0344 2.77029C17.9752 2.72184 17.9194 2.67134 17.8635 2.61914C17.7073 2.4766 17.5384 2.35039 17.3692 2.22398L17.3413 2.20312L17.2906 2.165C16.2448 1.38183 15.0674 0.792006 13.817 0.421875L13.754 0.402798C12.9599 0.163816 12.1443 0.0708928 11.3197 0.0234375V0ZM20.3054 17.9531H18.9284V22.5H20.3054V17.9531ZM16.232 17.9524L16.2877 17.9524C16.5861 17.9522 16.8846 17.9525 17.183 17.9529C17.2591 17.953 17.3352 17.953 17.4113 17.9531V21.2344C17.3167 21.1869 17.2649 21.1348 17.1969 21.0571C17.0638 20.9085 16.9243 20.7672 16.7823 20.6271C16.7079 20.5533 16.6355 20.4792 16.5676 20.3992C16.4608 20.2748 16.3454 20.1586 16.2299 20.0424L16.2264 20.039L16.2083 20.0207L16.199 20.0114C16.1555 19.9675 16.1123 19.9233 16.069 19.8792C15.8715 19.679 15.6755 19.5082 15.4187 19.3887L15.3364 19.3495C15.0996 19.2519 14.8677 19.2317 14.6139 19.2321C14.5801 19.2318 14.5462 19.2316 14.5124 19.2313C14.4214 19.2307 14.3304 19.2305 14.2394 19.2303C14.1535 19.2301 14.0675 19.2296 13.9815 19.2291L13.9532 19.2289C13.7729 19.2279 13.5927 19.2272 13.4124 19.2267C13.207 19.226 13.0016 19.225 12.7962 19.224C12.374 19.2218 11.9519 19.2201 11.5297 19.2188C11.5554 19.1406 11.581 19.0635 11.6134 18.9879C11.7274 18.7185 11.8217 18.4559 11.8707 18.1663L11.8803 18.1108C11.8861 18.0769 11.8919 18.043 11.8976 18.0091L11.9032 17.9766C12.3732 17.9734 12.8433 17.9704 13.3133 17.9674C13.5318 17.966 13.7502 17.9646 13.9687 17.9631L13.9699 17.9631C15.0181 17.9561 15.3529 17.9539 15.6876 17.9531C15.8439 17.9527 16.0003 17.9525 16.2292 17.9524H16.232ZM17.4113 13.125H12.0199V16.4297H17.4113V13.125ZM8.36677 14.8806L8.42557 14.9297L8.48657 14.9802C8.8637 15.3066 9.13299 15.7606 9.17244 16.2656C9.19993 16.822 9.10087 17.2842 8.77567 17.7422L8.72689 17.8111C8.41801 18.2172 7.98237 18.4397 7.49199 18.5391L7.4351 18.5527C6.89041 18.6419 6.35067 18.4659 5.91037 18.1499C5.88515 18.1312 5.85998 18.1125 5.83488 18.0938L5.77982 18.053C5.39002 17.7375 5.16647 17.2196 5.09531 16.7335C5.03858 16.1937 5.20309 15.674 5.53147 15.249C5.56214 15.2125 5.59324 15.1763 5.62483 15.1406L5.66741 15.092C6.35139 14.3591 7.57856 14.2635 8.36677 14.8806ZM7.18032 15.8106L7.12731 15.8101C6.9911 15.8081 6.89201 15.8262 6.76847 15.8906C6.61399 15.9966 6.49011 16.1283 6.44171 16.3125C6.41503 16.5472 6.4212 16.779 6.56762 16.9734C6.70871 17.1323 6.87099 17.2299 7.08127 17.2573C7.28207 17.2675 7.46465 17.2068 7.6189 17.0771C7.76857 16.9321 7.85232 16.7678 7.87053 16.5585C7.87312 16.3608 7.81446 16.1812 7.68354 16.0297C7.53109 15.8882 7.38812 15.817 7.18032 15.8106ZM4.25781 11.6425C4.15044 11.6433 4.04307 11.6441 3.93571 11.6454C3.7737 11.6474 3.6117 11.6492 3.44968 11.6504C3.16394 11.6526 2.8782 11.6553 2.59247 11.6585C2.43208 11.6602 2.2717 11.6619 2.11132 11.6635C2.03789 11.6643 1.98697 11.6648 1.93606 11.6654C1.82261 11.6666 1.70916 11.6678 1.34657 11.6717L1.33938 11.6718L1.33035 11.6719V13.0781C1.7682 13.0801 2.20605 13.0819 2.6439 13.0828C2.85687 13.0833 3.06983 13.0838 3.28279 13.0849C3.46976 13.0858 3.65673 13.0866 3.8437 13.0869L3.873 13.0869C3.9621 13.087 4.0512 13.0871 4.1403 13.0876C4.2347 13.0883 4.3291 13.0888 4.42351 13.0888C4.45849 13.0888 4.49347 13.0887 4.52846 13.0888C4.76701 13.0913 4.94223 13.0781 5.14527 12.9476C5.30546 12.8084 5.38962 12.6564 5.41331 12.4438C5.4229 12.2158 5.36716 12.0163 5.21566 11.8416C5.06778 11.7022 4.88298 11.6378 4.68221 11.6375L4.62056 11.6389C4.55033 11.6392 4.48013 11.6396 4.40991 11.6407C4.35922 11.6415 4.30851 11.6421 4.25781 11.6425ZM1.33035 7.47656C1.78623 7.47497 2.24211 7.47368 2.69799 7.47292C2.90968 7.47256 3.12136 7.47206 3.33305 7.47126C3.5176 7.47056 3.70216 7.4701 3.88672 7.46995C3.98439 7.46986 4.08206 7.46964 4.17973 7.46913C4.27178 7.46865 4.36383 7.4685 4.45588 7.46861C4.48955 7.46859 4.52322 7.46845 4.55689 7.46818C4.82819 7.46611 5.02803 7.48639 5.2276 7.68118C5.39127 7.86589 5.41412 8.05022 5.40265 8.29001C5.38641 8.4788 5.29865 8.62708 5.15821 8.752C4.97373 8.89795 4.77919 8.89589 4.55308 8.89349L4.54965 8.89346C4.51444 8.89343 4.47923 8.89344 4.44402 8.8935C4.34898 8.89352 4.25396 8.89297 4.15893 8.89232C4.06903 8.89179 3.97914 8.89169 3.88924 8.8916L3.86036 8.89157C3.67215 8.89128 3.48394 8.89051 3.29574 8.88956C3.08136 8.88851 2.86699 8.888 2.65261 8.88753C2.21186 8.88655 1.77111 8.88483 1.33035 8.88281V7.47656Z" fill="#55417C"/>
<path fill-rule="evenodd" clip-rule="evenodd" d="M20.5709 13.1175C20.5518 13.1176 20.5288 13.1178 20.4966 13.118C20.5287 13.1178 20.5519 13.1176 20.5709 13.1175Z" fill="#FEFEFE"/>
<path fill-rule="evenodd" clip-rule="evenodd" d="M16.811 22.8818C16.798 22.8689 16.7851 22.8563 16.7722 22.8434C16.7851 22.8562 16.798 22.869 16.811 22.8818Z" fill="#FEFEFE"/>
<path fill-rule="evenodd" clip-rule="evenodd" d="M7.18032 15.8106L7.12731 15.8101C6.9911 15.8081 6.89201 15.8262 6.76847 15.8906C6.61399 15.9966 6.49011 16.1283 6.44171 16.3125C6.41503 16.5472 6.4212 16.779 6.56762 16.9734C6.70871 17.1323 6.87099 17.2299 7.08127 17.2573C7.28207 17.2675 7.46465 17.2068 7.6189 17.0771C7.76857 16.9321 7.85232 16.7678 7.87053 16.5585C7.87312 16.3608 7.81446 16.1812 7.68354 16.0297C7.53109 15.8882 7.38812 15.817 7.18032 15.8106Z" fill="#FDFDFD"/>
<path fill-rule="evenodd" clip-rule="evenodd" d="M13.9826 19.2291C14.0682 19.2296 14.1538 19.2301 14.2394 19.2303C14.1535 19.2301 14.0675 19.2296 13.9815 19.2291L13.9826 19.2291Z" fill="#FCFCFC"/>
<path fill-rule="evenodd" clip-rule="evenodd" d="M1.5672 11.6693C1.50181 11.67 1.42422 11.6709 1.33035 11.6719L1.33938 11.6718C1.42921 11.6708 1.50392 11.67 1.5672 11.6693Z" fill="#FCFCFC"/>
<path d="M7.12731 15.8101C7.15355 15.8104 7.15355 15.8104 7.18032 15.8106C7.38812 15.817 7.53109 15.8882 7.68354 16.0297C7.81446 16.1812 7.87312 16.3608 7.87053 16.5585C7.85232 16.7678 7.76857 16.9321 7.6189 17.0771C7.46465 17.2068 7.28207 17.2675 7.08127 17.2573C6.87099 17.2299 6.70871 17.1323 6.56762 16.9734C6.4212 16.779 6.41503 16.5472 6.44171 16.3125C6.49011 16.1283 6.61399 15.9966 6.76847 15.8906C6.89201 15.8262 6.9911 15.8081 7.12731 15.8101Z" fill="#55417C"/>
</svg>
