<svg width="24" height="24" viewBox="0 0 24 24" fill="none" xmlns="http://www.w3.org/2000/svg">
<path d="M11.244 3.34416e-05C11.3099 9.49388e-05 11.3099 9.49388e-05 11.3771 0.000157678C14.3252 0.00918727 17.039 1.16057 19.1584 3.1995C19.1814 3.22147 19.2044 3.24343 19.228 3.26606C19.5422 3.56767 19.8301 3.88251 20.094 4.22895C20.1168 4.2588 20.1396 4.28865 20.1631 4.3194C20.8329 5.20421 21.4738 6.20421 21.7859 7.2778C21.8028 7.33481 21.8197 7.39181 21.8371 7.45054C21.8691 7.56189 21.8989 7.67389 21.9262 7.7865C22.0126 8.09059 22.0126 8.09059 22.2458 8.28991C22.4052 8.35313 22.4052 8.35313 22.5637 8.39656C23.1292 8.56165 23.4739 8.96407 23.7625 9.45313C23.9625 9.87855 24.0003 10.2754 23.9975 10.7397C23.9971 10.8408 23.9985 10.9417 23.9999 11.0427C24.0035 11.7317 23.8365 12.3304 23.3671 12.8506C22.8355 13.3592 22.2483 13.5092 21.537 13.5031C21.4589 13.503 21.4589 13.503 21.3792 13.5028C21.1856 13.5023 20.9921 13.501 20.7986 13.4998C20.1488 13.4969 20.1488 13.4969 19.4859 13.494C19.4859 14.5903 19.4859 15.6867 19.4859 16.8163C20.2388 16.8107 20.2388 16.8107 20.9916 16.8036C21.0866 16.8032 21.1816 16.8028 21.2766 16.8026C21.3252 16.8018 21.3738 16.8011 21.4239 16.8004C21.7259 16.8003 22.0375 16.8058 22.2718 17.0246C22.4352 17.215 22.4855 17.3289 22.4869 17.5745C22.4873 17.6262 22.4877 17.6778 22.4881 17.731C22.4884 17.8163 22.4884 17.8163 22.4887 17.9034C22.4891 17.9631 22.4895 18.0229 22.4899 18.0844C22.4911 18.2829 22.4918 18.4813 22.4925 18.6798C22.4928 18.7481 22.493 18.8164 22.4933 18.8848C22.4943 19.1691 22.4951 19.4534 22.4957 19.7377C22.4964 20.145 22.498 20.5523 22.5007 20.9596C22.5025 21.246 22.5034 21.5325 22.5036 21.8189C22.5038 21.99 22.5044 22.161 22.5059 22.332C22.5075 22.523 22.5074 22.7139 22.507 22.905C22.5078 22.9614 22.5085 23.0178 22.5093 23.076C22.5073 23.3511 22.5003 23.5607 22.3142 23.7742C22.0977 23.9673 21.8983 23.9933 21.6157 23.9945C21.565 23.995 21.565 23.995 21.5132 23.9955C21.4022 23.9963 21.2912 23.9961 21.1801 23.9959C21.1025 23.9961 21.025 23.9963 20.9474 23.9966C20.7851 23.997 20.6227 23.9969 20.4604 23.9965C20.2528 23.9959 20.0452 23.9969 19.8376 23.9982C19.6774 23.9991 19.5173 23.9991 19.3572 23.9988C19.2806 23.9988 19.2041 23.9991 19.1276 23.9997C19.0204 24.0004 18.9133 23.9999 18.8062 23.9991C18.7149 23.9991 18.7149 23.9991 18.6218 23.999C18.3674 23.9629 18.2319 23.8536 18.0671 23.6611C18.032 23.6125 17.9968 23.5638 17.9606 23.5137C17.9191 23.4578 17.8775 23.402 17.8357 23.3463C17.8137 23.317 17.7917 23.2876 17.7691 23.2574C16.9869 22.2325 16.0656 21.066 14.7219 20.869C14.1781 20.8053 13.6352 20.807 13.0888 20.8258C13.04 20.8272 12.9912 20.8286 12.9409 20.8301C12.6106 20.8401 12.2817 20.8589 11.9522 20.8849C11.9097 20.8879 11.8672 20.891 11.8233 20.8942C11.2406 20.9407 10.8566 21.0816 10.3952 21.4396C9.36078 22.1816 7.8097 22.2344 6.59418 22.0679C6.42984 22.04 6.26857 22.0045 6.10703 21.9635C6.07065 21.9544 6.03426 21.9454 5.99678 21.9361C4.00847 21.426 2.191 20.1287 1.1278 18.3613C1.02011 18.1767 0.91916 17.9888 0.820993 17.7989C0.798573 17.7559 0.798573 17.7559 0.775699 17.712C0.0627831 16.3241 -0.00359525 14.8826 0.000613773 13.3544C0.00109433 13.1247 0.000646626 12.895 0.000354666 12.6653C1.6453e-05 12.2804 0.000457288 11.8954 0.00135398 11.5105C0.0023746 11.0673 0.00203974 10.624 0.00101207 10.1808C0.000159841 9.79768 4.48572e-05 9.41456 0.000533114 9.03144C0.000822788 8.80372 0.000869209 8.576 0.000245456 8.34828C-0.000299718 8.13441 8.8259e-05 7.92055 0.00116125 7.70668C0.00140609 7.62881 0.0013421 7.55093 0.000924987 7.47305C-0.00218457 6.8329 0.0832885 6.23968 0.388287 5.66491C0.404666 5.63351 0.421045 5.6021 0.437921 5.56975C0.840128 4.82056 1.53562 4.21346 2.17759 3.66743C2.20736 3.64201 2.23713 3.61659 2.26781 3.5904C3.37728 2.64987 4.56904 1.87824 5.87314 1.2342C5.92594 1.2079 5.92594 1.2079 5.97981 1.18108C7.6118 0.379135 9.43283 -0.0041231 11.244 3.34416e-05ZM9.42835 1.70213C9.38248 1.71142 9.33661 1.72072 9.28936 1.7303C6.91755 2.22744 4.80992 3.40591 3.01961 5.02443C2.99399 5.04742 2.96837 5.07041 2.94197 5.09409C2.77893 5.24055 2.61797 5.38904 2.45826 5.53915C2.39965 5.59398 2.39965 5.59398 2.33985 5.64992C1.94417 6.0312 1.70641 6.40624 1.56946 6.94294C1.56946 6.98927 1.56946 7.03559 1.56946 7.08332C1.6161 7.0836 1.66274 7.08387 1.71079 7.08415C2.15126 7.08683 2.59172 7.09024 3.03218 7.09435C3.25861 7.09644 3.48502 7.09828 3.71145 7.09953C3.93015 7.10075 4.14883 7.10265 4.36752 7.10499C4.45077 7.10577 4.53402 7.10631 4.61727 7.10661C4.73428 7.10706 4.85125 7.10837 4.96825 7.10988C5.00234 7.10981 5.03642 7.10975 5.07154 7.10968C5.31876 7.11416 5.50669 7.16876 5.7328 7.27049C5.96613 7.51587 5.98301 7.68968 5.97985 8.01973C5.96227 8.20656 5.90814 8.30476 5.77958 8.44032C5.57863 8.59474 5.39442 8.60138 5.14983 8.60093C5.09092 8.60164 5.09092 8.60164 5.03082 8.60237C4.90148 8.60378 4.77216 8.60422 4.64281 8.60464C4.55295 8.60543 4.46308 8.60628 4.37322 8.60719C4.13705 8.60941 3.90089 8.6108 3.66471 8.61203C3.38115 8.61367 3.09761 8.61634 2.81406 8.61883C2.3836 8.6225 1.95315 8.62487 1.52268 8.62749C1.52268 9.72385 1.52268 10.8202 1.52268 11.9498C1.93152 11.9524 1.93152 11.9524 2.34862 11.9551C2.52173 11.9565 2.69484 11.958 2.86794 11.9596C3.14245 11.9621 3.41695 11.9645 3.69147 11.966C3.91289 11.9672 4.1343 11.9691 4.35572 11.9715C4.44001 11.9722 4.52431 11.9728 4.60861 11.9731C4.72707 11.9735 4.8455 11.9748 4.96396 11.9764C5.01574 11.9763 5.01574 11.9763 5.06857 11.9761C5.31702 11.9806 5.5056 12.0346 5.7328 12.137C5.96613 12.3823 5.98301 12.5561 5.97985 12.8862C5.96227 13.073 5.90814 13.1712 5.77958 13.3068C5.57863 13.4612 5.39442 13.4678 5.14983 13.4674C5.09092 13.4681 5.09092 13.4681 5.03082 13.4688C4.90148 13.4703 4.77216 13.4707 4.64281 13.4711C4.55295 13.4719 4.46308 13.4727 4.37322 13.4737C4.13705 13.4759 3.90089 13.4773 3.66471 13.4785C3.42357 13.4799 3.18244 13.4821 2.94131 13.4842C2.46844 13.4882 1.99556 13.4914 1.52268 13.494C1.52235 13.613 1.52211 13.732 1.52191 13.851C1.52181 13.8844 1.52171 13.9177 1.5216 13.9521C1.52041 14.9514 1.68137 15.8981 2.08403 16.8163C2.1064 16.8673 2.12877 16.9184 2.15182 16.9711C2.87968 18.5242 4.23352 19.6758 5.83421 20.2587C6.01656 20.3211 6.20076 20.3727 6.38771 20.4193C6.44728 20.4342 6.50686 20.4491 6.56824 20.4645C7.6413 20.7034 8.77558 20.6448 9.72008 20.0542C10.3453 19.6295 10.81 19.0223 11.0656 18.3136C11.0779 18.2802 11.0901 18.2468 11.1027 18.2123C11.2461 17.7403 11.2258 17.2586 11.2252 16.7697C11.225 16.6038 11.2256 16.438 11.2265 16.2721C11.2285 15.8605 11.229 15.4489 11.2296 15.0373C11.2301 14.6886 11.2312 14.3398 11.2331 13.991C11.2337 13.8281 11.2335 13.6652 11.2333 13.5023C11.2337 13.402 11.2342 13.3016 11.2347 13.2013C11.2343 13.134 11.2343 13.134 11.2339 13.0653C11.2368 12.7369 11.2672 12.4101 11.5012 12.1633C11.773 12.0052 12.013 11.983 12.3192 11.9848C12.3806 11.9846 12.3806 11.9846 12.4431 11.9844C12.5798 11.984 12.7165 11.9843 12.8533 11.9846C12.9514 11.9845 13.0495 11.9843 13.1477 11.9841C13.3589 11.9837 13.5701 11.9836 13.7813 11.9837C14.1152 11.9839 14.4492 11.9832 14.7832 11.9824C15.7328 11.9802 16.6824 11.9791 17.632 11.9788C18.1566 11.9786 18.6812 11.9777 19.2058 11.9762C19.5377 11.9752 19.8697 11.9751 20.2017 11.9756C20.4082 11.9758 20.6148 11.9751 20.8213 11.9742C20.917 11.974 21.0128 11.9741 21.1085 11.9745C21.2393 11.975 21.37 11.9744 21.5008 11.9734C21.5386 11.9739 21.5764 11.9743 21.6154 11.9747C21.8774 11.9712 22.03 11.913 22.2458 11.7626C22.4724 11.4817 22.4642 11.2041 22.4622 10.8531C22.4644 10.7763 22.4644 10.7763 22.4667 10.698C22.4671 10.4001 22.4324 10.2035 22.2492 9.96583C21.9509 9.73522 21.6311 9.73086 21.2704 9.73316C21.1727 9.73234 21.075 9.73152 20.9773 9.73069C20.8247 9.73022 20.672 9.73005 20.5194 9.73013C20.3711 9.72996 20.2229 9.72868 20.0746 9.72731C20.0291 9.72769 19.9837 9.72807 19.9368 9.72847C19.6623 9.72545 19.5089 9.69741 19.2987 9.51656C19.1529 9.33542 19.1048 9.13879 19.1116 8.90825C19.1524 8.70741 19.2168 8.57 19.3601 8.42277C19.6077 8.27305 19.85 8.23715 20.1349 8.2239C20.1671 8.22209 20.1993 8.22028 20.2325 8.21842C20.311 8.21405 20.3896 8.21015 20.4682 8.20635C20.0574 6.79852 19.2601 5.53488 18.2436 4.48588C18.1783 4.41848 18.1138 4.35032 18.0494 4.28214C17.7269 3.94821 17.3802 3.6605 17.0066 3.38668C16.9801 3.36721 16.9536 3.34774 16.9263 3.32768C14.8098 1.79559 11.9925 1.18166 9.42835 1.70213ZM12.7497 13.494C12.7497 14.5903 12.7497 15.6867 12.7497 16.8163C14.4632 16.8163 16.1767 16.8163 17.9421 16.8163C17.9421 15.7199 17.9421 14.6235 17.9421 13.494C16.2286 13.494 14.5151 13.494 12.7497 13.494ZM12.6561 18.3604C12.6098 18.484 12.5635 18.6075 12.5158 18.7348C12.4534 18.8946 12.3909 19.0544 12.3281 19.214C12.2766 19.3349 12.2766 19.3349 12.2819 19.4367C12.3256 19.4369 12.3693 19.4372 12.4143 19.4375C12.8273 19.4402 13.2402 19.4436 13.6531 19.4477C13.8654 19.4498 14.0776 19.4516 14.2899 19.4529C14.4949 19.4541 14.7 19.456 14.905 19.4583C14.983 19.4591 15.0611 19.4597 15.1391 19.46C15.2488 19.4604 15.3585 19.4617 15.4682 19.4632C15.5161 19.4631 15.5161 19.4631 15.5649 19.463C15.8936 19.4694 16.1754 19.5568 16.4076 19.7944C16.458 19.845 16.458 19.845 16.5093 19.8966C16.544 19.9327 16.5788 19.9688 16.6146 20.006C16.6513 20.0432 16.6881 20.0804 16.7259 20.1187C16.8425 20.2369 16.9582 20.3559 17.0738 20.4749C17.1908 20.5942 17.3079 20.7134 17.4252 20.8325C17.4979 20.9066 17.5705 20.9808 17.6429 21.0552C17.6754 21.0884 17.7079 21.1217 17.7414 21.156C17.7701 21.1855 17.7988 21.215 17.8283 21.2454C17.8857 21.3137 17.8857 21.3137 17.9421 21.3084C17.9421 20.3356 17.9421 19.3627 17.9421 18.3604C16.1978 18.3604 14.4534 18.3604 12.6561 18.3604ZM19.4859 18.3604C19.4859 19.7039 19.4859 21.0473 19.4859 22.4314C19.9644 22.4314 20.443 22.4314 20.936 22.4314C20.936 21.088 20.936 19.7446 20.936 18.3604C20.4575 18.3604 19.9789 18.3604 19.4859 18.3604Z" fill="#6C7278"/>
<path d="M8.95782 15.0877C9.40154 15.5063 9.74159 15.9837 9.77152 16.6137C9.77936 17.0544 9.7796 17.4473 9.56868 17.8457C9.54776 17.8864 9.52684 17.927 9.50528 17.9689C9.19009 18.5352 8.71232 18.8858 8.09405 19.0768C7.61533 19.172 7.0718 19.1706 6.6216 18.9687C6.58693 18.9534 6.55226 18.938 6.51653 18.9221C5.89927 18.6129 5.51643 18.106 5.30027 17.4609C5.14547 16.8905 5.21855 16.2617 5.4989 15.74C5.59822 15.59 5.70786 15.4541 5.82636 15.3189C5.85084 15.2895 5.87532 15.26 5.90055 15.2297C6.24429 14.8473 6.78712 14.6202 7.29496 14.5751C7.91182 14.5502 8.47939 14.6811 8.95782 15.0877ZM7.08939 16.2547C6.90208 16.4363 6.80162 16.5902 6.7941 16.8514C6.79706 17.08 6.83883 17.2042 6.99583 17.3778C7.19935 17.562 7.36622 17.5948 7.6321 17.5829C7.8629 17.546 7.98438 17.4227 8.13608 17.2549C8.23918 17.0407 8.24938 16.8628 8.21209 16.6291C8.10252 16.4015 7.96662 16.2789 7.7443 16.1612C7.48109 16.0894 7.32538 16.1192 7.08939 16.2547Z" fill="#6C7278"/>
</svg>
