<svg width="24" height="24" viewBox="0 0 24 24" fill="none" xmlns="http://www.w3.org/2000/svg">
<path d="M3.68396 3.51768C3.73274 3.51749 3.78152 3.5173 3.83178 3.51711C3.99534 3.51654 4.15891 3.51635 4.32247 3.51615C4.43972 3.51583 4.55697 3.51549 4.67422 3.51514C5.05949 3.51406 5.44475 3.51353 5.83001 3.51302C5.9628 3.51282 6.09559 3.51261 6.22838 3.51239C6.781 3.51153 7.33363 3.51079 7.88625 3.51042C8.02955 3.51032 8.17285 3.51022 8.31615 3.51012C8.35176 3.5101 8.38737 3.51007 8.42406 3.51005C9.00004 3.50962 9.576 3.50833 10.152 3.50667C10.7443 3.50498 11.3367 3.50408 11.9291 3.5039C12.2612 3.50378 12.5934 3.50333 12.9255 3.50204C13.2384 3.50085 13.5513 3.50064 13.8642 3.50116C13.9785 3.50119 14.0929 3.50087 14.2072 3.50016C15.3801 3.49335 16.3577 3.69994 17.2577 4.49503C17.2907 4.52326 17.3237 4.55149 17.3577 4.58057C18.0293 5.19096 18.3887 6.11509 18.4551 6.9962C18.4605 7.17601 18.4601 7.35549 18.4583 7.53536C18.4581 7.58198 18.4578 7.62859 18.4576 7.67663C18.457 7.79012 18.4561 7.9036 18.4551 8.01709C18.5157 7.96606 18.5157 7.96606 18.5775 7.914C18.9052 7.63939 19.2369 7.37168 19.5771 7.1121C19.8142 6.93089 20.0476 6.74563 20.2804 6.55913C20.3848 6.47596 20.4893 6.3929 20.5939 6.30989C20.6587 6.25834 20.7234 6.20664 20.7879 6.15477C21.3851 5.67622 21.8305 5.44324 22.6199 5.51592C23.0419 5.58612 23.3958 5.81601 23.6521 6.15058C23.8932 6.52755 23.9893 6.8752 23.9874 7.32087C23.9876 7.36247 23.9879 7.40407 23.9881 7.44692C23.9888 7.58559 23.9887 7.72424 23.9886 7.86291C23.9889 7.96263 23.9893 8.06235 23.9896 8.16207C23.9906 8.43249 23.9908 8.7029 23.9909 8.97332C23.9909 9.14243 23.9912 9.31153 23.9914 9.48064C23.9924 10.0711 23.9928 10.6615 23.9928 11.2519C23.9927 11.8015 23.9938 12.3511 23.9954 12.9007C23.9968 13.3732 23.9974 13.8457 23.9973 14.3182C23.9973 14.6001 23.9976 14.882 23.9987 15.1639C23.9997 15.4292 23.9997 15.6945 23.9989 15.9598C23.9988 16.0568 23.9991 16.1539 23.9997 16.2509C24.0036 16.8936 23.9776 17.4598 23.5448 17.9817C23.1762 18.3471 22.7828 18.4828 22.2652 18.5003C21.5537 18.4834 21.1629 18.1318 20.6417 17.6989C20.4884 17.5731 20.331 17.4528 20.173 17.3327C19.835 17.074 19.5024 16.8091 19.1701 16.5435C18.933 16.3541 18.6944 16.1667 18.4551 15.98C18.4563 16.046 18.4575 16.112 18.4587 16.18C18.474 17.3553 18.2889 18.4486 17.4347 19.336C16.627 20.1375 15.667 20.4887 14.5347 20.4992C14.374 20.4996 14.2134 20.499 14.0527 20.4983C13.936 20.4986 13.8193 20.499 13.7025 20.4994C13.3876 20.5003 13.0726 20.5 12.7577 20.4993C12.4268 20.4988 12.0959 20.4993 11.765 20.4996C11.174 20.5 10.5829 20.4994 9.99185 20.4983C9.45762 20.4974 8.9234 20.4976 8.38916 20.4985C7.76658 20.4996 7.144 20.5 6.52141 20.4994C6.19265 20.4991 5.8639 20.4991 5.53514 20.4997C5.22589 20.5003 4.91665 20.4999 4.60739 20.4987C4.49449 20.4985 4.38159 20.4985 4.26869 20.499C2.99164 20.5036 1.96319 20.2539 1.01727 19.3543C0.384479 18.6906 0.0178044 17.8328 0.0180196 16.9257C0.0178282 16.8823 0.0176369 16.8388 0.0174397 16.794C0.0168665 16.6485 0.0166651 16.5029 0.0164666 16.3574C0.0161404 16.253 0.0157943 16.1486 0.01543 16.0442C0.0143355 15.7012 0.0137951 15.3583 0.0132764 15.0153C0.0130656 14.8971 0.0128512 14.7788 0.0126333 14.6606C0.0116415 14.1047 0.0109008 13.5489 0.0104671 12.993C0.00995895 12.3525 0.00859043 11.712 0.00648446 11.0716C0.00491077 10.5758 0.00414314 10.0801 0.00397104 9.5844C0.00384903 9.28867 0.00338726 8.99295 0.00207288 8.69722C0.000854581 8.4186 0.00064281 8.14 0.00117523 7.86137C0.00120087 7.75963 0.000876205 7.65788 0.000157233 7.55614C-0.00792586 6.34351 0.294472 5.37508 1.17894 4.48426C1.86204 3.85204 2.75113 3.51748 3.68396 3.51768ZM2.27465 5.8477C1.82395 6.35004 1.73524 7.01086 1.73671 7.65685C1.7366 7.69553 1.73648 7.73422 1.73636 7.77408C1.73603 7.90259 1.73607 8.03109 1.73611 8.1596C1.73596 8.25221 1.73578 8.34481 1.73558 8.43742C1.73512 8.68822 1.735 8.93902 1.73497 9.18982C1.73493 9.34674 1.73482 9.50367 1.73468 9.66059C1.7342 10.2087 1.73399 10.7568 1.73403 11.305C1.73406 11.8148 1.73351 12.3247 1.73269 12.8345C1.732 13.2731 1.73173 13.7118 1.73176 14.1504C1.73177 14.412 1.73163 14.6735 1.73107 14.9351C1.73057 15.1813 1.73057 15.4275 1.73094 15.6737C1.731 15.7636 1.73088 15.8536 1.73056 15.9435C1.72772 16.8067 1.75472 17.6097 2.39443 18.2668C2.9195 18.7197 3.60729 18.7954 4.27969 18.7946C4.32346 18.7948 4.36724 18.7949 4.41234 18.7951C4.55803 18.7955 4.70371 18.7956 4.8494 18.7957C4.95428 18.7959 5.05916 18.7962 5.16404 18.7964C5.44836 18.7971 5.73267 18.7974 6.01698 18.7977C6.19492 18.7978 6.37287 18.798 6.55081 18.7982C7.10847 18.7989 7.66613 18.7994 8.22379 18.7996C8.86581 18.7999 9.50782 18.8008 10.1498 18.8022C10.6472 18.8033 11.1446 18.8039 11.6419 18.8039C11.9384 18.804 12.235 18.8043 12.5315 18.8052C12.8108 18.806 13.0901 18.8061 13.3694 18.8057C13.4713 18.8057 13.5732 18.8059 13.6751 18.8064C14.8475 18.8198 14.8475 18.8198 15.9041 18.3791C15.9599 18.3401 16.0158 18.3012 16.0733 18.261C16.5626 17.7922 16.6981 17.1381 16.7114 16.487C16.7134 16.3133 16.7128 16.1397 16.712 15.966C16.7122 15.8696 16.7126 15.7732 16.7131 15.6767C16.714 15.4171 16.7136 15.1575 16.713 14.8978C16.7124 14.6247 16.7129 14.3516 16.7133 14.0785C16.7136 13.6201 16.7131 13.1617 16.7122 12.7033C16.711 12.175 16.7114 11.6468 16.7125 11.1185C16.7135 10.6631 16.7136 10.2077 16.7131 9.75227C16.7127 9.48108 16.7127 9.2099 16.7134 8.93872C16.714 8.68364 16.7136 8.42857 16.7124 8.17349C16.7121 8.08047 16.7122 7.98745 16.7126 7.89443C16.7161 7.13589 16.6766 6.35272 16.1123 5.77114C15.3812 5.16512 14.4581 5.19443 13.5523 5.19644C13.4471 5.1963 13.3418 5.19612 13.2366 5.1959C12.9523 5.19544 12.668 5.19561 12.3837 5.19594C12.0853 5.1962 11.7869 5.19596 11.4885 5.1958C10.9875 5.19561 10.4865 5.19585 9.98556 5.19634C9.40748 5.1969 8.8294 5.19672 8.25132 5.19615C7.75378 5.19569 7.25624 5.19563 6.7587 5.19589C6.46207 5.19605 6.16544 5.19607 5.86881 5.19574C5.58986 5.19544 5.31091 5.19565 5.03196 5.19624C4.92997 5.19637 4.82798 5.19633 4.72599 5.19611C3.81923 5.19428 2.96723 5.19956 2.27465 5.8477ZM21.8878 7.49069C21.8554 7.51576 21.823 7.54083 21.7897 7.56666C21.5084 7.78509 21.2301 8.00706 20.9521 8.22948C20.6998 8.43106 20.4448 8.62896 20.1882 8.82531C19.9219 9.02967 19.6595 9.23864 19.3983 9.44932C19.3667 9.47472 19.3351 9.50012 19.3025 9.52629C19.2551 9.56537 19.2551 9.56537 19.2068 9.60525C19.0798 9.70155 19.0798 9.70155 18.9133 9.80191C18.6542 9.96302 18.4437 10.1003 18.3377 10.3911C18.3109 10.6034 18.3045 10.8067 18.3076 11.0201C18.3068 11.0979 18.3057 11.1757 18.3045 11.2535C18.3028 11.416 18.3036 11.5782 18.3062 11.7406C18.3092 11.9472 18.3053 12.153 18.2996 12.3595C18.2454 13.2499 18.2454 13.2499 18.5823 14.0353C18.7497 14.1842 18.9287 14.2935 19.13 14.3928C19.3033 14.4842 19.4493 14.6069 19.6004 14.7294C19.6599 14.7753 19.7196 14.821 19.7793 14.8666C19.982 15.0227 20.1817 15.1822 20.3813 15.3419C20.7595 15.6443 21.1415 15.9415 21.5266 16.2352C21.5584 16.2596 21.5903 16.2839 21.6231 16.309C21.7177 16.3813 21.8125 16.4535 21.9073 16.5255C21.9363 16.5477 21.9654 16.5699 21.9953 16.5928C22.1127 16.6996 22.1127 16.6996 22.2555 16.7457C22.2555 13.6126 22.2555 10.4795 22.2555 7.25142C22.1304 7.25142 21.986 7.41421 21.8878 7.49069Z" fill="#55417C"/>
</svg>
