<svg width="32" height="23" viewBox="0 0 32 23" fill="none" xmlns="http://www.w3.org/2000/svg">
<path d="M4.91195 0.0239138C4.97699 0.0236599 5.04203 0.023406 5.10904 0.0231443C5.32713 0.0223834 5.54521 0.0221169 5.76329 0.0218537C5.91963 0.0214209 6.07596 0.0209619 6.2323 0.0204785C6.74598 0.0190261 7.25966 0.0183097 7.77334 0.0176217C7.9504 0.0173421 8.12745 0.0170578 8.30451 0.0167688C9.04134 0.0156038 9.77817 0.0145933 10.515 0.0140928C10.7061 0.0139609 10.8971 0.0138283 11.0882 0.0136932C11.1357 0.0136598 11.1832 0.0136264 11.2321 0.013592C12 0.0130197 12.768 0.0112714 13.536 0.00902613C14.3258 0.00673594 15.1156 0.00552075 15.9054 0.00527772C16.3483 0.00511576 16.7912 0.00450179 17.2341 0.00275971C17.6512 0.00114534 18.0684 0.000862254 18.4856 0.00156921C18.638 0.00160327 18.7905 0.00117122 18.943 0.000218671C20.5067 -0.00899858 21.8103 0.270503 23.0102 1.34622C23.0542 1.38441 23.0983 1.4226 23.1436 1.46195C24.0391 2.28777 24.5183 3.53806 24.6067 4.73015C24.6141 4.97342 24.6134 5.21626 24.6111 5.4596C24.6108 5.52267 24.6105 5.58575 24.6101 5.65073C24.6093 5.80428 24.6082 5.95781 24.6067 6.11135C24.6875 6.04232 24.6875 6.04232 24.77 5.97189C25.2069 5.60035 25.6492 5.23815 26.1028 4.88696C26.4189 4.64179 26.7302 4.39115 27.0406 4.13883C27.1798 4.02631 27.3191 3.91392 27.4585 3.80162C27.5449 3.73187 27.6312 3.66193 27.7172 3.59174C28.5135 2.9443 29.1074 2.62909 30.1599 2.72742C30.7225 2.8224 31.1944 3.13342 31.5362 3.58608C31.8577 4.09609 31.9857 4.56644 31.9832 5.16941C31.9835 5.22569 31.9838 5.28197 31.9841 5.33996C31.985 5.52756 31.9849 5.71515 31.9848 5.90276C31.9852 6.03767 31.9857 6.17259 31.9862 6.30751C31.9874 6.67336 31.9877 7.03922 31.9878 7.40508C31.9879 7.63387 31.9882 7.86266 31.9886 8.09146C31.9899 8.89027 31.9904 9.68908 31.9903 10.4879C31.9903 11.2315 31.9917 11.975 31.9939 12.7186C31.9957 13.3579 31.9965 13.9971 31.9964 14.6363C31.9963 15.0177 31.9967 15.3992 31.9982 15.7806C31.9996 16.1395 31.9996 16.4984 31.9986 16.8573C31.9984 16.9886 31.9987 17.12 31.9996 17.2513C32.0048 18.1207 31.9702 18.8867 31.393 19.5929C30.9016 20.0872 30.377 20.2708 29.687 20.2945C28.7382 20.2717 28.2173 19.7959 27.5223 19.2103C27.3178 19.0401 27.108 18.8773 26.8974 18.7148C26.4467 18.3649 26.0032 18.0064 25.5601 17.6471C25.244 17.3908 24.9258 17.1373 24.6067 16.8847C24.6084 16.974 24.61 17.0633 24.6116 17.1553C24.632 18.7455 24.3852 20.2246 23.2462 21.4251C22.1694 22.5096 20.8893 22.9848 19.3796 22.9989C19.1654 22.9994 18.9512 22.9986 18.737 22.9977C18.5813 22.9981 18.4257 22.9986 18.27 22.9992C17.8501 23.0005 17.4302 23 17.0103 22.9991C16.5691 22.9984 16.1279 22.999 15.6867 22.9995C14.8986 23 14.1105 22.9992 13.3225 22.9977C12.6102 22.9965 11.8979 22.9967 11.1856 22.998C10.3554 22.9995 9.52533 23 8.69521 22.9992C8.25687 22.9988 7.81853 22.9987 7.38019 22.9996C6.96785 23.0004 6.55553 22.9999 6.14319 22.9983C5.99266 22.9979 5.84212 22.998 5.69159 22.9986C3.98885 23.0049 2.61759 22.6671 1.35636 21.45C0.512639 20.5519 0.0237391 19.3914 0.0240262 18.1642C0.023771 18.1054 0.0235159 18.0466 0.023253 17.9861C0.0224887 17.7891 0.0222202 17.5922 0.0219555 17.3953C0.0215205 17.254 0.0210591 17.1128 0.0205733 16.9715C0.019114 16.5075 0.0183934 16.0436 0.0177019 15.5796C0.0174208 15.4196 0.0171349 15.2596 0.0168445 15.0996C0.015522 14.3476 0.0145345 13.5955 0.0139561 12.8435C0.0132786 11.9769 0.0114539 11.1104 0.00864594 10.2439C0.0065477 9.57319 0.00552418 8.90251 0.00529473 8.23183C0.00513205 7.83173 0.00451634 7.43163 0.00276384 7.03153C0.00113944 6.65457 0.000857081 6.27764 0.00156697 5.90068C0.00160117 5.76303 0.00116827 5.62537 0.000209644 5.48772C-0.0105678 3.8471 0.39263 2.53687 1.57192 1.33165C2.48272 0.476293 3.66818 0.0236528 4.91195 0.0239138ZM3.03287 3.17631C2.43194 3.85594 2.31365 4.74999 2.31562 5.62397C2.31546 5.67631 2.3153 5.72865 2.31514 5.78258C2.3147 5.95644 2.31476 6.1303 2.31482 6.30417C2.31461 6.42946 2.31437 6.55475 2.31411 6.68004C2.3135 7.01935 2.31333 7.35867 2.31329 7.69799C2.31324 7.9103 2.31309 8.12261 2.31291 8.33492C2.31227 9.0765 2.31198 9.81808 2.31204 10.5597C2.31208 11.2494 2.31135 11.9392 2.31025 12.629C2.30934 13.2225 2.30897 13.8159 2.30901 14.4093C2.30903 14.7632 2.30884 15.1171 2.3081 15.471C2.30742 15.8041 2.30742 16.1372 2.30793 16.4702C2.308 16.5919 2.30784 16.7137 2.30742 16.8354C2.30363 18.0031 2.33962 19.0896 3.19257 19.9786C3.89266 20.5914 4.80972 20.6937 5.70625 20.6927C5.76461 20.6929 5.82298 20.6931 5.88312 20.6933C6.07737 20.6939 6.27162 20.694 6.46587 20.6941C6.60571 20.6945 6.74555 20.6948 6.88539 20.6952C7.26447 20.6961 7.64355 20.6965 8.02263 20.6968C8.25989 20.697 8.49715 20.6973 8.73441 20.6976C9.47796 20.6986 10.2215 20.6992 10.9651 20.6995C11.8211 20.6998 12.6771 20.701 13.5331 20.703C14.1963 20.7045 14.8594 20.7052 15.5226 20.7053C15.9179 20.7054 16.3133 20.7058 16.7086 20.707C17.081 20.7082 17.4534 20.7083 17.8258 20.7077C17.9617 20.7077 18.0976 20.7079 18.2334 20.7086C19.7966 20.7268 19.7966 20.7268 21.2055 20.1305C21.2799 20.0778 21.3544 20.0251 21.4311 19.9708C22.0835 19.3365 22.2641 18.4516 22.2819 17.5706C22.2846 17.3357 22.2838 17.1008 22.2826 16.8658C22.283 16.7354 22.2835 16.6049 22.2841 16.4744C22.2853 16.1231 22.2849 15.7719 22.284 15.4206C22.2833 15.0511 22.2839 14.6816 22.2844 14.3121C22.2849 13.6919 22.2842 13.0717 22.2829 12.4515C22.2814 11.7368 22.2818 11.0221 22.2834 10.3074C22.2846 9.69125 22.2848 9.0751 22.2841 8.45896C22.2837 8.09206 22.2836 7.72517 22.2845 7.35827C22.2853 7.01315 22.2847 6.66807 22.2832 6.32296C22.2828 6.19711 22.2829 6.07126 22.2835 5.94541C22.2881 4.91914 22.2355 3.85956 21.4831 3.07272C20.5082 2.2528 19.2775 2.29246 18.0698 2.29518C17.9294 2.295 17.7891 2.29475 17.6488 2.29445C17.2697 2.29382 16.8907 2.29406 16.5116 2.2945C16.1138 2.29485 15.7159 2.29453 15.318 2.29431C14.65 2.29406 13.9821 2.29439 13.3141 2.29505C12.5433 2.2958 11.7725 2.29556 11.0018 2.2948C10.3384 2.29417 9.67498 2.29408 9.01159 2.29444C8.61609 2.29466 8.22059 2.29469 7.82508 2.29423C7.45314 2.29383 7.08121 2.29411 6.70928 2.29491C6.57329 2.29509 6.4373 2.29504 6.30132 2.29473C5.0923 2.29226 3.9563 2.2994 3.03287 3.17631ZM29.1837 5.39917C29.1405 5.43309 29.0974 5.46701 29.0529 5.50195C28.6779 5.79748 28.3068 6.09779 27.9361 6.39871C27.5997 6.67143 27.2597 6.93918 26.9176 7.20483C26.5625 7.48132 26.2127 7.76404 25.8645 8.04908C25.8223 8.08344 25.7801 8.11781 25.7366 8.15321C25.6735 8.20609 25.6735 8.20609 25.609 8.26004C25.4397 8.39033 25.4397 8.39033 25.2178 8.52612C24.8722 8.74408 24.5917 8.92983 24.4502 9.32323C24.4146 9.61045 24.406 9.8855 24.4102 10.1743C24.409 10.2795 24.4076 10.3848 24.406 10.49C24.4038 10.7098 24.4049 10.9293 24.4082 11.1491C24.4122 11.4286 24.407 11.707 24.3995 11.9864C24.3272 13.1911 24.3272 13.1911 24.7764 14.2537C24.9995 14.4551 25.2382 14.6029 25.5067 14.7373C25.7378 14.861 25.9324 15.0269 26.1338 15.1927C26.2132 15.2548 26.2927 15.3167 26.3725 15.3783C26.6426 15.5895 26.9089 15.8054 27.1751 16.0215C27.6793 16.4306 28.1886 16.8326 28.7022 17.23C28.7446 17.2629 28.787 17.2959 28.8308 17.3298C28.9569 17.4277 29.0833 17.5253 29.2097 17.6228C29.2485 17.6528 29.2872 17.6828 29.3271 17.7137C29.4836 17.8583 29.4836 17.8583 29.674 17.9206C29.674 13.6817 29.674 9.44281 29.674 5.07546C29.5072 5.07546 29.3147 5.29569 29.1837 5.39917Z" fill="#55417C" fill-opacity="0.5"/>
</svg>
